<svg xmlns="http://www.w3.org/2000/svg" version="1.1" width="2957" height="2488">style="background-color:rgb(none)">
<polygon id="09-9708" points="1479,2196 1474,2177 1473,2172 1421,2172 1421,2177 1405,2177 1405,2192 1211,2194 1207,2196 1209,2316 1211,2320 1473,2320 1473,2314 1479,2314 1479,2196" stroke="rgb(none)" stroke-width="0.0" fill="0,0,0" />
<polygon id="09-9760" points="828,177 446,177 441,182 441,202 436,202 290,202 250,202 250,236 262,236 262,328 262,344 262,418 134,418 134,551 250,551 250,590 828,590 828,177" stroke="rgb(none)" stroke-width="0.0" fill="0,0,0" />
<polygon id="09-9750" points="1644,265 1651,265 1651,213 1644,211 1446,209 1446,196 1280,196 1280,209 1224,209 1224,196 1082,196 1082,209 1026,209 1026,196 884,196 884,209 836,209 836,465 828,465 828,563 836,563 836,570 1362,570 1362,578 1462,578 1462,570 1644,570 1644,563 1651,563 1651,511 1644,511 1644,265" stroke="rgb(none)" stroke-width="0.0" fill="0,0,0" />
<polygon id="09-9740B" points="2278,381 2278,376 2285,369 2285,337 2278,330 2278,325 2278,220 2278,215 2285,208 2285,184 2278,177 2278,172 2284,172 2284,162 2121,140 1461,119 1468,119 1468,183 1499,183 1499,202 1651,202 1651,577 1588,577 1587,583 1586,577 1478,577 1478,807 1471,807 1471,883 1478,883 1478,973 1508,973 1508,980 1584,980 1584,973 1687,973 1687,775 1860,775 1860,782 2100,782 2100,775 2258,775 2258,801 2278,801 2285,794 2285,762 2278,755 2278,750 2278,608 2278,603 2285,596 2285,564 2278,557 2278,552 2278,381" stroke="rgb(none)" stroke-width="0.0" fill="0,0,0" />
<polygon id="09-9740C" points="2278,1400 2278,1395 2285,1388 2285,1356 2278,1349 2278,1344 2278,1202 2278,1197 2285,1190 2285,1158 2278,1151 2278,1146 2278,1004 2278,999 2285,992 2285,960 2278,953 2278,948 2278,806 2253,806 2253,782 1694,782 1694,980 1478,980 1478,1112 1471,1112 1471,1172 1478,1172 1478,1208 1471,1208 1471,1359 1478,1359 1478,1422 1471,1422 1471,1462 1478,1462 1478,1639 1654,1639 1654,1627 1727,1626 1743,1626 1813,1627 1813,1770 1869,1770 1869,2037 1901,2037 1901,2069 2280,2069 2285,2064 2285,1822 2279,1822 2279,1810 2285,1810 2285,1752 2278,1745 2278,1740 2278,1598 2278,1593 2285,1586 2285,1554 2278,1547 2278,1542 2278,1400" stroke="rgb(none)" stroke-width="0.0" fill="0,0,0" />
<polygon id="09-9755" points="1320,922 1126,923 1110,923 931,922 932,1078 933,1083 973,1083 973,1078 1320,1078 1320,922" stroke="rgb(none)" stroke-width="0.0" fill="0,0,0" />
<polygon id="09-9740A" points="658,1680 728,1680 728,1797 734,1798 818,1798 824,1797 824,1622 951,1622 951,1639 998,1638 1014,1638 1140,1639 1140,1543 1471,1543 1471,577 1462,578 1362,578 1200,578 1200,678 1209,678 1209,906 1320,906 1320,917 1325,917 1325,1083 926,1083 926,917 1027,917 1027,678 1070,678 1070,578 828,578 828,590 448,590 448,603 448,608 448,750 448,755 441,762 441,794 448,801 448,806 448,948 467,948 467,1004 448,1004 448,1146 448,1151 441,1158 441,1190 448,1197 448,1202 448,1344 467,1344 467,1400 448,1400 448,1542 448,1547 441,1554 441,1586 448,1593 448,1608 658,1608 658,1680" stroke="rgb(none)" stroke-width="0.0" fill="0,0,0" />
<polygon id="09-9703" points="723,1976 728,1974 728,1926 723,1926 723,1882 728,1882 728,1844 723,1844 723,1773 589,1773 589,1922 448,1922 448,2037 494,2037 494,2050 630,2050 630,2037 686,2037 686,2050 723,2050 723,1976" stroke="rgb(none)" stroke-width="0.0" fill="0,0,0" />
<polygon id="09-9720" points="1217,1807 1217,1780 1202,1780 1202,1756 1217,1756 1217,1646 1056,1646 1056,2003 1139,2003 1139,2008 1213,2008 1215,2003 1217,1807" stroke="rgb(none)" stroke-width="0.0" fill="0,0,0" />
<polygon id="09-9742" points="946,1639 946,1627 829,1627 829,1665 824,1665 824,1705 829,1705 829,2034 946,2034 946,1639" stroke="rgb(none)" stroke-width="0.0" fill="0,0,0" />
<polygon id="09-9740F" points="1260,1638 1276,1638 1387,1638 1403,1638 1471,1639 1471,1543 1260,1543 1260,1638" stroke="rgb(none)" stroke-width="0.0" fill="0,0,0" />
<polygon id="09-9740E" points="1260,1638 1260,1543 1140,1543 1140,1639 1260,1638" stroke="rgb(none)" stroke-width="0.0" fill="0,0,0" />
<polygon id="09-9740D" points="448,1608 448,1740 477,1740 477,1768 658,1768 658,1608 448,1608" stroke="rgb(none)" stroke-width="0.0" fill="0,0,0" />
<polygon id="09-9700A" points="725,2172 725,2196 710,2196 711,2311 722,2311 722,2325 759,2335 770,2338 769,2343 852,2359 935,2369 1019,2375 1103,2374 1187,2369 1187,2316 1200,2316 1200,2196 1187,2196 1187,2172 725,2172" stroke="rgb(none)" stroke-width="0.0" fill="0,0,0" />
<polygon id="09-9730" points="1654,1868 1654,1646 1470,1646 1470,1756 1485,1756 1485,1780 1470,1780 1470,2003 1519,2003 1519,2008 1622,2008 1622,2003 1654,2003 1654,1868" stroke="rgb(none)" stroke-width="0.0" fill="0,0,0" />
<polygon id="09-9807B" points="1034,800 1201,800 1201,768 1209,768 1209,704 1201,704 1201,685 1034,685 1034,800" stroke="rgb(none)" stroke-width="0.0" fill="0,0,0" />
<polygon id="09-9807A" points="1209,823 1201,823 1201,800 1034,800 1034,915 1201,915 1201,887 1209,887 1209,823" stroke="rgb(none)" stroke-width="0.0" fill="0,0,0" />
<polygon id="09-9825" points="2822,372 2819,367 2698,341 2653,554 2646,553 2635,604 2642,606 2763,633 2765,630 2822,372" stroke="rgb(none)" stroke-width="0.0" fill="0,0,0" />
<polygon id="09-9705" points="723,1684 663,1684 663,1768 723,1767 728,1766 728,1726 723,1726 723,1684" stroke="rgb(none)" stroke-width="0.0" fill="0,0,0" />
<polygon id="09-9700" points="1618,2059 1647,2059 1647,2008 1470,2008 1470,2017 1403,2018 1387,2018 1276,2018 1260,2018 1217,2017 1217,2008 1056,2008 1056,2017 1014,2018 998,2018 951,2017 951,2039 824,2039 824,1802 818,1800 734,1800 728,1802 728,2055 710,2055 710,2172 1211,2172 1211,2182 1400,2182 1400,2172 1588,2172 1605,2116 1618,2059" stroke="rgb(none)" stroke-width="0.0" fill="0,0,0" />
</svg>
