<svg xmlns="http://www.w3.org/2000/svg" version="1.1" width="7393" height="3575">style="background-color:rgb(none)">
<polygon id="08-8603A" points="2489,1888 2341,1888 2341,2001 2435,2001 2435,2007 2483,2007 2483,2001 2489,2001 2489,1888" stroke="rgb(none)" stroke-width="0.0" fill="0,0,0" />
<polygon id="08-8603" points="2489,2007 2382,2007 2382,2117 2423,2117 2423,2122 2459,2122 2459,2117 2489,2117 2489,2007" stroke="rgb(none)" stroke-width="0.0" fill="0,0,0" />
<polygon id="08-8770C" points="6234,1028 6233,877 6233,608 6138,608 6138,1028 6234,1028" stroke="rgb(none)" stroke-width="0.0" fill="0,0,0" />
<polygon id="08-8787" points="6500,1449 6487,1449 6487,1424 6339,1424 6339,1517 6334,1517 6334,1569 6339,1570 6344,1571 6344,1595 6423,1595 6423,1571 6487,1571 6500,1571 6500,1449" stroke="rgb(none)" stroke-width="0.0" fill="0,0,0" />
<polygon id="08-8703A" points="4060,1973 4065,1973 4065,1925 4060,1925 4060,1810 4043,1810 4043,1799 3997,1799 3997,1805 3940,1805 3940,1863 3964,1863 3964,1887 3940,1887 3940,1932 3964,1932 3964,1937 3944,1937 3943,1949 3943,1960 3943,1968 3944,1973 3964,1973 3964,1979 3940,1979 3940,2087 3964,2087 3964,2119 4060,2119 4060,1973" stroke="rgb(none)" stroke-width="0.0" fill="0,0,0" />
<polygon id="08-8703" points="4213,2014 4132,2014 4132,2020 4065,2020 4066,2115 4067,2121 4119,2121 4119,2115 4213,2115 4213,2014" stroke="rgb(none)" stroke-width="0.0" fill="0,0,0" />
<polygon id="08-8703B" points="4441,1920 4411,1920 4411,1805 4291,1805 4291,1925 4286,1925 4286,1805 4095,1805 4095,1799 4048,1799 4048,1805 4065,1805 4066,2015 4067,2020 4125,2020 4126,2015 4127,1985 4132,1985 4132,2009 4213,2009 4213,1985 4248,1985 4248,1992 4218,1992 4218,2087 4248,2087 4248,2120 4441,2120 4441,1920" stroke="rgb(none)" stroke-width="0.0" fill="0,0,0" />
<polygon id="08-8703C" points="4536,1829 4479,1829 4479,1805 4416,1805 4416,1865 4411,1865 4411,1908 4416,1908 4416,1915 4445,1915 4445,1939 4536,1939 4536,1829" stroke="rgb(none)" stroke-width="0.0" fill="0,0,0" />
<polygon id="08-8705" points="4612,1945 4445,1945 4445,2102 4484,2102 4484,2087 4508,2087 4508,2118 4557,2118 4557,2100 4562,2100 4562,2120 4612,2120 4612,2069 4617,2069 4617,2030 4612,2030 4612,1945" stroke="rgb(none)" stroke-width="0.0" fill="0,0,0" />
<polygon id="08-8702" points="4012,2227 4010,2221 3970,2221 3970,2227 3964,2227 3964,2245 3940,2245 3940,2295 4012,2295 4012,2227" stroke="rgb(none)" stroke-width="0.0" fill="0,0,0" />
<polygon id="08-8704" points="4247,2251 4247,2245 4224,2245 4224,2230 4158,2229 4114,2227 4114,2221 4068,2221 4068,2227 4016,2227 4016,2300 3940,2300 3940,2355 3964,2355 3964,2367 4020,2367 4020,2373 4215,2373 4215,2367 4224,2367 4224,2355 4247,2355 4247,2251" stroke="rgb(none)" stroke-width="0.0" fill="0,0,0" />
<polygon id="08-8739" points="4961,1965 4956,1963 4847,1961 4847,2086 4952,2086 4952,2017 4961,2017 4961,1965" stroke="rgb(none)" stroke-width="0.0" fill="0,0,0" />
<polygon id="08-8706" points="5078,2226 5014,2226 5014,2221 4962,2221 4961,2226 4960,2245 4944,2245 4944,2353 4958,2353 4958,2375 4978,2380 4993,2384 4993,2390 5039,2401 5085,2409 5086,2402 5085,2389 5078,2389 5078,2226" stroke="rgb(none)" stroke-width="0.0" fill="0,0,0" />
<polygon id="08-8708" points="5190,2226 5186,2221 5146,2221 5146,2226 5102,2226 5102,2245 5083,2245 5083,2365 5099,2365 5099,2389 5089,2389 5089,2402 5087,2409 5134,2416 5180,2421 5181,2414 5181,2409 5190,2409 5190,2226" stroke="rgb(none)" stroke-width="0.0" fill="0,0,0" />
<polygon id="08-8712" points="5435,2245 5416,2245 5416,2226 5239,2226 5239,2221 5199,2221 5197,2226 5195,2414 5183,2414 5182,2421 5229,2424 5277,2425 5325,2425 5419,2418 5442,2416 5442,2386 5420,2386 5420,2344 5435,2344 5435,2321 5416,2319 5435,2317 5435,2245" stroke="rgb(none)" stroke-width="0.0" fill="0,0,0" />
<polygon id="08-8741" points="4955,1867 4961,1867 4961,1821 4956,1820 4847,1819 4847,1955 4955,1955 4955,1867" stroke="rgb(none)" stroke-width="0.0" fill="0,0,0" />
<polygon id="08-8743" points="4956,1735 4956,1721 4961,1721 4961,1669 4956,1668 4851,1667 4851,1644 4772,1644 4772,1667 4707,1667 4694,1667 4694,1789 4707,1789 4707,1815 4956,1815 4956,1735" stroke="rgb(none)" stroke-width="0.0" fill="0,0,0" />
<polygon id="08-8745" points="4956,1476 4956,1424 4707,1424 4707,1449 4694,1449 4694,1571 4707,1571 4772,1571 4772,1595 4851,1595 4851,1571 4956,1570 4962,1569 4962,1517 4956,1517 4956,1476" stroke="rgb(none)" stroke-width="0.0" fill="0,0,0" />
<polygon id="08-8747" points="4957,1325 4961,1325 4961,1273 4957,1272 4851,1271 4851,1247 4772,1247 4772,1271 4694,1271 4694,1393 4707,1393 4707,1419 4957,1419 4957,1337 4957,1325" stroke="rgb(none)" stroke-width="0.0" fill="0,0,0" />
<polygon id="08-8749" points="4855,1080 4855,1029 4707,1029 4707,1053 4694,1053 4694,1175 4707,1175 4772,1175 4772,1199 4824,1199 4824,1175 4855,1174 4860,1173 4860,1121 4855,1121 4855,1080" stroke="rgb(none)" stroke-width="0.0" fill="0,0,0" />
<polygon id="08-8751" points="4855,943 4855,929 4860,929 4860,877 4855,876 4851,875 4851,852 4772,852 4772,875 4750,875 4694,875 4694,997 4707,997 4707,1021 4855,1021 4855,943" stroke="rgb(none)" stroke-width="0.0" fill="0,0,0" />
<polygon id="08-8753" points="4707,614 4707,657 4694,657 4694,779 4772,779 4772,803 4851,803 4851,779 4956,778 4961,777 4961,725 4956,725 4956,614 4707,614" stroke="rgb(none)" stroke-width="0.0" fill="0,0,0" />
<polygon id="08-8755" points="4739,426 4674,426 4674,450 4647,450 4647,422 4668,422 4668,343 4646,343 4645,251 4605,251 4525,251 4520,253 4504,254 4504,277 4493,278 4494,285 4496,377 4497,506 4520,506 4520,527 4508,527 4508,617 4508,633 4524,633 4524,639 4622,639 4622,633 4681,633 4681,606 4717,606 4717,602 4722,602 4722,552 4717,552 4717,507 4739,507 4739,426" stroke="rgb(none)" stroke-width="0.0" fill="0,0,0" />
<polygon id="08-8757" points="4742,245 4742,328 4719,328 4719,407 4750,408 4751,414 4799,414 4800,408 4888,407 4888,258 4864,258 4864,245 4742,245" stroke="rgb(none)" stroke-width="0.0" fill="0,0,0" />
<polygon id="08-8759" points="4898,258 4898,407 4986,408 4987,414 5035,414 5036,408 5042,407 5042,403 5065,403 5065,324 5042,324 5042,245 4920,245 4920,258 4898,258" stroke="rgb(none)" stroke-width="0.0" fill="0,0,0" />
<polygon id="08-8761" points="5285,258 5260,258 5260,245 5138,245 5138,258 5138,286 5129,286 5129,319 5138,319 5138,324 5114,324 5114,403 5138,403 5139,507 5140,512 5192,512 5192,507 5204,507 5285,507 5285,258" stroke="rgb(none)" stroke-width="0.0" fill="0,0,0" />
<polygon id="08-8763" points="5461,323 5438,323 5438,260 5442,259 5438,258 5438,245 5316,245 5316,258 5290,258 5290,408 5384,410 5436,410 5438,402 5461,402 5461,323" stroke="rgb(none)" stroke-width="0.0" fill="0,0,0" />
<polygon id="08-8765" points="5705,258 5656,258 5656,245 5534,245 5534,258 5533,323 5510,323 5510,402 5534,402 5535,507 5536,512 5588,512 5588,507 5665,505 5705,503 5705,258" stroke="rgb(none)" stroke-width="0.0" fill="0,0,0" />
<polygon id="08-8783" points="6501,1053 6487,1053 6487,1028 6243,1028 6243,1092 6238,1092 6238,1122 6234,1122 6234,1173 6238,1174 6344,1175 6344,1199 6423,1199 6423,1175 6445,1175 6501,1175 6501,1053" stroke="rgb(none)" stroke-width="0.0" fill="0,0,0" />
<polygon id="08-8785" points="6501,1271 6487,1271 6423,1271 6423,1248 6344,1248 6344,1271 6234,1271 6234,1325 6238,1325 6238,1337 6238,1418 6487,1418 6487,1393 6501,1393 6501,1271" stroke="rgb(none)" stroke-width="0.0" fill="0,0,0" />
<polygon id="08-8789" points="6500,1667 6487,1667 6423,1667 6423,1644 6344,1644 6344,1667 6238,1668 6233,1669 6233,1721 6238,1721 6238,1733 6238,1815 6487,1815 6487,1789 6500,1789 6500,1667" stroke="rgb(none)" stroke-width="0.0" fill="0,0,0" />
<polygon id="08-8791" points="6388,1874 6380,1866 6395,1851 6365,1820 6350,1835 6335,1820 6240,1821 6234,1822 6234,1874 6240,1874 6240,1969 6262,1969 6262,1977 6456,1977 6456,2015 6487,2015 6500,2015 6500,1893 6492,1893 6492,1905 6419,1905 6388,1874" stroke="rgb(none)" stroke-width="0.0" fill="0,0,0" />
<polygon id="08-8793" points="6386,1983 6234,1983 6232,1922 6231,1916 6180,1916 6180,1922 6168,1922 6138,1922 6103,1922 6103,2086 6138,2086 6138,2112 6100,2112 6100,2162 6150,2167 6150,2174 6198,2176 6246,2177 6294,2174 6341,2170 6388,2163 6435,2155 6482,2144 6481,2137 6487,2136 6487,2112 6469,2112 6469,2103 6386,2103 6386,2056 6386,1983" stroke="rgb(none)" stroke-width="0.0" fill="0,0,0" />
<polygon id="08-8793A" points="6391,1983 6391,2056 6386,2056 6386,2096 6391,2097 6469,2098 6469,2061 6487,2061 6487,2020 6451,2020 6451,1983 6391,1983" stroke="rgb(none)" stroke-width="0.0" fill="0,0,0" />
<polygon id="08-8791A" points="6487,1862 6461,1861 6463,1856 6487,1857 6487,1820 6444,1820 6444,1837 6440,1840 6439,1820 6400,1820 6400,1853 6388,1865 6392,1870 6388,1874 6416,1903 6421,1899 6487,1899 6487,1893 6487,1862" stroke="rgb(none)" stroke-width="0.0" fill="0,0,0" />
<polygon id="08-8787A" points="6487,1576 6485,1571 6445,1571 6445,1576 6427,1576 6427,1600 6387,1600 6387,1636 6427,1636 6427,1660 6459,1660 6459,1651 6487,1651 6487,1576" stroke="rgb(none)" stroke-width="0.0" fill="0,0,0" />
<polygon id="08-8789A" points="6376,1600 6339,1600 6339,1576 6250,1576 6250,1619 6241,1619 6241,1662 6289,1662 6289,1667 6329,1667 6329,1662 6339,1662 6339,1636 6376,1636 6376,1600" stroke="rgb(none)" stroke-width="0.0" fill="0,0,0" />
<polygon id="08-8783A" points="6487,1180 6485,1175 6445,1175 6445,1180 6428,1180 6428,1204 6388,1204 6388,1240 6428,1240 6428,1264 6460,1264 6460,1255 6487,1255 6487,1180" stroke="rgb(none)" stroke-width="0.0" fill="0,0,0" />
<polygon id="08-8785A" points="6376,1204 6339,1204 6339,1180 6250,1180 6250,1223 6241,1223 6241,1266 6289,1266 6289,1271 6329,1271 6329,1266 6339,1266 6339,1240 6376,1240 6376,1204" stroke="rgb(none)" stroke-width="0.0" fill="0,0,0" />
<polygon id="08-8781A" points="6483,795 6455,795 6455,787 6423,787 6423,810 6383,810 6383,846 6423,846 6423,870 6441,870 6441,875 6481,875 6482,870 6483,795" stroke="rgb(none)" stroke-width="0.0" fill="0,0,0" />
<polygon id="08-8779A" points="6335,810 6298,810 6298,805 6327,782 6325,779 6328,776 6306,750 6302,752 6238,751 6238,870 6335,870 6335,810" stroke="rgb(none)" stroke-width="0.0" fill="0,0,0" />
<polygon id="08-8777A" points="6780,488 6784,485 6761,457 6758,460 6753,455 6725,479 6720,478 6728,442 6669,430 6648,528 6766,553 6779,495 6783,492 6780,488" stroke="rgb(none)" stroke-width="0.0" fill="0,0,0" />
<polygon id="08-8775A" points="6776,329 6767,328 6773,300 6700,286 6695,286 6686,325 6691,326 6687,343 6711,348 6703,388 6738,395 6746,356 6769,361 6776,329" stroke="rgb(none)" stroke-width="0.0" fill="0,0,0" />
<polygon id="08-8775" points="6705,352 6681,347 6695,286 6697,274 6722,280 6725,263 6700,258 6702,245 6662,237 6623,229 6583,222 6579,234 6533,227 6514,319 6514,398 6583,413 6608,419 6658,429 6664,430 6665,424 6689,429 6705,352" stroke="rgb(none)" stroke-width="0.0" fill="0,0,0" />
<polygon id="08-8777" points="6933,350 6915,346 6922,310 6913,308 6915,295 6876,285 6837,275 6798,266 6794,278 6770,273 6767,289 6791,294 6775,367 6752,362 6735,439 6759,444 6757,452 6761,457 6784,485 6787,489 6820,462 6828,463 6904,480 6933,350" stroke="rgb(none)" stroke-width="0.0" fill="0,0,0" />
<polygon id="08-8773" points="6507,258 6469,258 6471,217 6473,204 6433,199 6393,194 6353,189 6351,201 6351,207 6325,207 6325,225 6351,225 6350,257 6350,322 6326,322 6326,400 6350,401 6356,403 6356,408 6408,408 6408,403 6434,403 6488,403 6488,378 6507,378 6507,258" stroke="rgb(none)" stroke-width="0.0" fill="0,0,0" />
<polygon id="08-8771" points="6254,225 6280,225 6280,194 6255,192 6254,179 6214,175 6174,172 6134,170 6132,182 6108,181 6108,232 6129,232 6129,258 6107,258 6107,406 6159,406 6187,406 6194,406 6220,436 6251,412 6254,409 6254,400 6279,400 6279,322 6254,322 6254,225" stroke="rgb(none)" stroke-width="0.0" fill="0,0,0" />
<polygon id="08-8769" points="6102,258 6080,258 6080,232 6102,232 6102,181 6076,179 6075,167 6035,165 5995,164 5955,163 5953,176 5928,176 5928,225 5954,225 5954,322 5930,322 5930,401 5955,401 5955,409 5960,414 5989,437 6015,406 6049,406 6101,406 6102,258" stroke="rgb(none)" stroke-width="0.0" fill="0,0,0" />
<polygon id="08-8767" points="5882,322 5858,322 5858,257 5858,225 5884,225 5884,176 5857,176 5856,163 5816,164 5775,165 5735,166 5734,179 5702,180 5702,232 5733,232 5733,258 5712,258 5712,405 5803,405 5803,410 5855,410 5857,405 5858,401 5882,401 5882,322" stroke="rgb(none)" stroke-width="0.0" fill="0,0,0" />
<polygon id="08-8779" points="6500,657 6487,657 6487,636 6339,637 6339,688 6339,721 6305,749 6330,777 6340,779 6340,804 6418,804 6418,779 6487,779 6500,779 6500,657" stroke="rgb(none)" stroke-width="0.0" fill="0,0,0" />
<polygon id="08-8781" points="6500,875 6418,875 6418,851 6340,851 6340,881 6332,881 6332,933 6340,933 6339,958 6339,1023 6487,1023 6487,997 6500,997 6500,875" stroke="rgb(none)" stroke-width="0.0" fill="0,0,0" />
<polygon id="08-8777B" points="6853,469 6852,474 6824,468 6796,491 6782,557 6833,568 6832,573 6882,583 6884,579 6903,484 6902,479 6853,469" stroke="rgb(none)" stroke-width="0.0" fill="0,0,0" />
<polygon id="08-8775B" points="6569,415 6549,508 6590,516 6589,521 6639,532 6642,528 6663,435 6657,434 6658,429 6608,419 6607,423 6569,415" stroke="rgb(none)" stroke-width="0.0" fill="0,0,0" />
<polygon id="08-8770B" points="6543,427 6451,427 6451,511 6543,511 6543,427" stroke="rgb(none)" stroke-width="0.0" fill="0,0,0" />
<polygon id="08-8773B" points="6350,408 6351,506 6352,511 6404,511 6404,506 6446,506 6446,408 6350,408" stroke="rgb(none)" stroke-width="0.0" fill="0,0,0" />
<polygon id="08-8771A" points="6345,405 6285,405 6285,441 6281,441 6273,432 6281,426 6265,406 6254,416 6251,412 6221,436 6224,442 6225,506 6345,506 6345,405" stroke="rgb(none)" stroke-width="0.0" fill="0,0,0" />
<polygon id="08-8773A" points="6350,259 6346,258 6271,256 6271,284 6262,284 6262,316 6285,316 6285,357 6321,357 6321,316 6346,316 6346,299 6350,299 6350,259" stroke="rgb(none)" stroke-width="0.0" fill="0,0,0" />
<polygon id="08-8767A" points="5947,285 5938,285 5938,257 5863,258 5858,259 5858,299 5863,299 5863,317 5887,317 5887,357 5923,357 5923,317 5947,317 5947,285" stroke="rgb(none)" stroke-width="0.0" fill="0,0,0" />
<polygon id="08-8769A" points="5984,444 5988,436 5960,414 5957,417 5951,413 5928,442 5924,442 5924,406 5863,406 5863,506 5984,506 5984,444" stroke="rgb(none)" stroke-width="0.0" fill="0,0,0" />
<polygon id="08-8763A" points="5526,286 5518,286 5518,258 5442,259 5438,260 5438,300 5442,300 5442,318 5466,318 5466,358 5502,358 5502,318 5526,318 5526,286" stroke="rgb(none)" stroke-width="0.0" fill="0,0,0" />
<polygon id="08-8765A" points="5529,457 5534,457 5534,417 5529,417 5529,407 5503,407 5503,369 5466,369 5466,407 5443,407 5443,496 5486,496 5486,505 5529,505 5529,457" stroke="rgb(none)" stroke-width="0.0" fill="0,0,0" />
<polygon id="08-8759A" points="5129,286 5120,286 5120,258 5042,259 5042,300 5047,300 5047,319 5072,319 5072,359 5108,359 5108,319 5129,319 5129,286" stroke="rgb(none)" stroke-width="0.0" fill="0,0,0" />
<polygon id="08-8761A" points="5138,417 5134,417 5134,407 5108,407 5108,371 5072,371 5072,408 5049,408 5048,414 5047,496 5093,496 5093,504 5134,504 5134,457 5138,457 5138,417" stroke="rgb(none)" stroke-width="0.0" fill="0,0,0" />
<polygon id="08-8779B" points="6339,638 6334,637 6238,636 6233,637 6233,688 6238,688 6238,736 6309,736 6334,714 6334,694 6334,688 6339,688 6339,638" stroke="rgb(none)" stroke-width="0.0" fill="0,0,0" />
<polygon id="08-8781B" points="6332,881 6332,875 6238,876 6234,877 6234,929 6238,929 6238,1023 6332,1023 6332,958 6332,881" stroke="rgb(none)" stroke-width="0.0" fill="0,0,0" />
<polygon id="08-8780" points="6138,1028 6136,1069 6136,1128 6138,1572 6041,1572 6041,1676 6130,1676 6138,1676 6138,1829 6103,1829 6103,1916 6139,1916 6167,1916 6232,1916 6233,1822 6233,1733 6233,1669 6234,1571 6234,1337 6234,1271 6234,1087 6238,1087 6238,1028 6138,1028" stroke="rgb(none)" stroke-width="0.0" fill="0,0,0" />
<polygon id="08-8784" points="6132,1241 6138,1241 6138,1201 6132,1200 6036,1199 6036,1292 6132,1292 6132,1241" stroke="rgb(none)" stroke-width="0.0" fill="0,0,0" />
<polygon id="08-8782" points="6129,1037 6092,1037 6092,1016 6076,1016 6076,1010 6036,1010 6036,1193 6132,1193 6130,1136 6129,1037" stroke="rgb(none)" stroke-width="0.0" fill="0,0,0" />
<polygon id="08-8782A" points="6138,938 5964,938 5934,938 5732,938 5731,968 5731,1009 6138,1010 6138,938" stroke="rgb(none)" stroke-width="0.0" fill="0,0,0" />
<polygon id="08-8782B" points="6030,1016 5991,1016 5991,1010 5951,1010 5951,1016 5922,1016 5922,1308 6012,1308 6012,1271 6030,1271 6030,1016" stroke="rgb(none)" stroke-width="0.0" fill="0,0,0" />
<polygon id="08-8804" points="5916,1016 5914,1010 5868,1010 5868,1016 5845,1016 5845,1112 5727,1114 5693,1116 5693,1154 5687,1154 5687,1200 5693,1200 5693,1259 5916,1259 5916,1016" stroke="rgb(none)" stroke-width="0.0" fill="0,0,0" />
<polygon id="08-8771B" points="6209,435 6187,411 6186,406 6161,406 6160,410 6159,406 6109,406 6108,411 6108,506 6109,511 6161,511 6161,506 6174,506 6201,506 6209,506 6209,435" stroke="rgb(none)" stroke-width="0.0" fill="0,0,0" />
<polygon id="08-8769B" points="6020,410 6000,435 6000,506 6050,506 6050,511 6100,511 6101,506 6102,411 6020,410" stroke="rgb(none)" stroke-width="0.0" fill="0,0,0" />
<polygon id="08-8767B" points="5859,410 5712,410 5712,503 5736,505 5763,506 5790,506 5805,506 5805,511 5857,511 5858,506 5859,410" stroke="rgb(none)" stroke-width="0.0" fill="0,0,0" />
<polygon id="08-8768" points="5949,614 5917,614 5917,608 5877,608 5876,614 5875,735 5910,735 5910,717 5949,717 5949,614" stroke="rgb(none)" stroke-width="0.0" fill="0,0,0" />
<polygon id="08-8760" points="5722,508 5671,510 5438,512 5204,512 5192,512 5041,512 4975,512 4940,512 4797,512 4722,512 4722,608 5410,608 5591,608 5590,683 5589,692 5691,692 5689,641 5687,608 5713,610 5722,612 5722,508" stroke="rgb(none)" stroke-width="0.0" fill="0,0,0" />
<polygon id="08-8760C" points="5438,413 5384,411 5290,411 5290,507 5304,507 5304,512 5438,512 5438,413" stroke="rgb(none)" stroke-width="0.0" fill="0,0,0" />
<polygon id="08-8759B" points="5042,414 5035,414 4984,414 4970,414 4945,414 4945,507 4975,508 4988,507 4988,512 5040,512 5041,507 5042,414" stroke="rgb(none)" stroke-width="0.0" fill="0,0,0" />
<polygon id="08-8760B" points="4940,414 4846,414 4846,512 4940,512 4940,414" stroke="rgb(none)" stroke-width="0.0" fill="0,0,0" />
<polygon id="08-8757B" points="4841,414 4817,414 4799,414 4744,414 4745,507 4746,512 4797,512 4797,507 4841,507 4841,414" stroke="rgb(none)" stroke-width="0.0" fill="0,0,0" />
<polygon id="08-8755A" points="4491,486 4431,486 4431,522 4426,522 4426,486 4367,486 4367,575 4367,593 4490,593 4503,592 4508,591 4508,551 4503,551 4503,527 4491,527 4491,486" stroke="rgb(none)" stroke-width="0.0" fill="0,0,0" />
<polygon id="08-8751A" points="4807,811 4767,811 4767,786 4735,786 4735,795 4707,795 4709,870 4710,875 4750,875 4750,870 4767,870 4767,847 4807,847 4807,811" stroke="rgb(none)" stroke-width="0.0" fill="0,0,0" />
<polygon id="08-8753A" points="4945,827 4954,827 4954,784 4906,784 4906,779 4866,779 4866,784 4856,784 4856,810 4819,810 4819,846 4856,846 4856,870 4945,870 4945,827" stroke="rgb(none)" stroke-width="0.0" fill="0,0,0" />
<polygon id="08-8751B" points="4961,877 4956,876 4860,875 4860,972 4956,972 4956,929 4961,929 4961,877" stroke="rgb(none)" stroke-width="0.0" fill="0,0,0" />
<polygon id="08-8740B" points="4961,977 4860,978 4860,1008 4860,1073 4961,1073 4961,977" stroke="rgb(none)" stroke-width="0.0" fill="0,0,0" />
<polygon id="08-8740" points="5058,1176 5158,1176 5158,1072 5108,1074 5058,1076 5058,1070 5078,1070 5078,1013 5083,1013 5083,961 5058,961 5058,608 4961,608 4961,877 4961,1073 4961,1173 4961,1325 4961,1337 4961,1517 4961,1669 4961,1733 4961,1761 4961,1821 4961,1867 4961,1965 4959,2024 4958,2034 5061,2034 5059,2024 5058,1835 5058,1731 5058,1676 5058,1176" stroke="rgb(none)" stroke-width="0.0" fill="0,0,0" />
<polygon id="08-8747A" points="4945,1180 4829,1180 4829,1240 4866,1240 4866,1266 4866,1271 4906,1271 4906,1266 4954,1266 4954,1223 4945,1223 4945,1180" stroke="rgb(none)" stroke-width="0.0" fill="0,0,0" />
<polygon id="08-8749A" points="4807,1204 4767,1204 4767,1180 4750,1180 4750,1175 4710,1175 4709,1180 4707,1255 4735,1255 4735,1265 4767,1265 4767,1240 4807,1240 4807,1204" stroke="rgb(none)" stroke-width="0.0" fill="0,0,0" />
<polygon id="08-8749B" points="4961,1121 4956,1121 4956,1078 4860,1078 4860,1175 4956,1174 4961,1173 4961,1121" stroke="rgb(none)" stroke-width="0.0" fill="0,0,0" />
<polygon id="08-8745A" points="4807,1600 4767,1600 4767,1576 4749,1576 4749,1571 4709,1571 4708,1576 4707,1651 4735,1651 4735,1660 4767,1660 4767,1636 4807,1636 4807,1600" stroke="rgb(none)" stroke-width="0.0" fill="0,0,0" />
<polygon id="08-8743A" points="4954,1619 4945,1619 4945,1576 4856,1576 4856,1600 4818,1600 4818,1636 4856,1636 4856,1662 4866,1662 4866,1667 4906,1667 4906,1662 4954,1662 4954,1619" stroke="rgb(none)" stroke-width="0.0" fill="0,0,0" />
<polygon id="08-8792" points="6132,1681 6130,1676 6090,1676 6090,1681 6055,1681 6055,1763 6071,1763 6071,1793 6132,1793 6132,1789 6132,1681" stroke="rgb(none)" stroke-width="0.0" fill="0,0,0" />
<polygon id="08-8721" points="6011,1466 5970,1466 5970,1454 5937,1454 5938,1570 5939,1576 5979,1576 5979,1570 5986,1569 6011,1567 6011,1466" stroke="rgb(none)" stroke-width="0.0" fill="0,0,0" />
<polygon id="08-8744" points="5180,1688 5180,1677 5064,1678 5058,1679 5058,1731 5064,1731 5064,1805 5102,1805 5102,1828 5180,1828 5180,1688" stroke="rgb(none)" stroke-width="0.0" fill="0,0,0" />
<polygon id="08-8711" points="5255,1426 5220,1426 5220,1444 5181,1444 5181,1555 5213,1555 5213,1561 5253,1561 5254,1555 5255,1426" stroke="rgb(none)" stroke-width="0.0" fill="0,0,0" />
<polygon id="08-8713" points="5334,1444 5292,1444 5292,1426 5260,1426 5261,1555 5262,1561 5302,1561 5302,1555 5334,1555 5334,1444" stroke="rgb(none)" stroke-width="0.0" fill="0,0,0" />
<polygon id="08-8715" points="5455,1436 5431,1436 5431,1406 5455,1406 5455,1349 5339,1349 5339,1555 5369,1555 5400,1555 5413,1555 5413,1561 5453,1561 5454,1555 5455,1488 5455,1436" stroke="rgb(none)" stroke-width="0.0" fill="0,0,0" />
<polygon id="08-8717" points="5813,1415 5720,1415 5720,1441 5693,1441 5694,1570 5696,1576 5736,1576 5736,1570 5813,1570 5813,1415" stroke="rgb(none)" stroke-width="0.0" fill="0,0,0" />
<polygon id="08-8719" points="5813,1570 5890,1570 5890,1576 5930,1576 5931,1570 5932,1415 5813,1415 5813,1570" stroke="rgb(none)" stroke-width="0.0" fill="0,0,0" />
<polygon id="08-8802" points="5901,1265 5693,1266 5687,1267 5687,1319 5693,1319 5693,1407 5720,1408 5901,1409 5901,1265" stroke="rgb(none)" stroke-width="0.0" fill="0,0,0" />
<polygon id="08-8810" points="5591,1076 5167,1074 5158,1072 5158,1176 5209,1174 5591,1172 5591,1076" stroke="rgb(none)" stroke-width="0.0" fill="0,0,0" />
<polygon id="08-8800" points="5729,968 5726,938 5687,938 5687,705 5689,700 5691,692 5589,692 5588,743 5588,771 5589,915 5584,915 5584,943 5591,943 5591,974 5591,1172 5615,1172 5615,1228 5615,1257 5615,1358 5615,1387 5615,1398 5687,1398 5687,1010 5728,1009 5729,968" stroke="rgb(none)" stroke-width="0.0" fill="0,0,0" />
<polygon id="08-8805" points="5591,974 5585,972 5461,971 5461,1070 5585,1070 5585,1026 5591,1026 5591,974" stroke="rgb(none)" stroke-width="0.0" fill="0,0,0" />
<polygon id="08-8811" points="5303,972 5108,972 5108,1037 5083,1037 5083,1067 5175,1069 5255,1070 5255,1076 5301,1076 5302,1070 5303,972" stroke="rgb(none)" stroke-width="0.0" fill="0,0,0" />
<polygon id="08-8752" points="5261,733 5065,733 5064,757 5064,779 5058,779 5058,831 5064,831 5064,956 5088,956 5088,967 5261,967 5261,733" stroke="rgb(none)" stroke-width="0.0" fill="0,0,0" />
<polygon id="08-8760A" points="5363,622 5410,622 5410,608 5058,608 5058,703 5064,703 5064,727 5220,727 5220,698 5226,698 5225,703 5225,727 5262,727 5262,703 5261,698 5268,698 5268,727 5308,727 5308,703 5313,703 5313,727 5344,726 5361,727 5363,622" stroke="rgb(none)" stroke-width="0.0" fill="0,0,0" />
<polygon id="08-8764" points="5580,678 5583,614 5579,614 5579,608 5539,608 5539,614 5465,614 5465,644 5440,644 5441,727 5580,727 5580,678" stroke="rgb(none)" stroke-width="0.0" fill="0,0,0" />
<polygon id="08-8782D" points="5869,733 5796,733 5796,764 5764,764 5764,896 5732,896 5732,932 5821,932 5821,938 5867,938 5868,932 5869,733" stroke="rgb(none)" stroke-width="0.0" fill="0,0,0" />
<polygon id="08-8782E" points="6018,741 5875,741 5875,932 5933,932 5963,932 5976,932 5976,938 6016,938 6017,932 6018,741" stroke="rgb(none)" stroke-width="0.0" fill="0,0,0" />
<polygon id="08-8770A" points="6138,608 6048,608 6048,614 6024,614 6024,746 6048,746 6048,751 6024,751 6024,803 6048,803 6048,808 6024,808 6024,932 6047,932 6047,938 6138,938 6138,608" stroke="rgb(none)" stroke-width="0.0" fill="0,0,0" />
<polygon id="08-8710A" points="5687,1404 5657,1404 5657,1398 5617,1398 5616,1404 5615,1443 5488,1443 5488,1487 5461,1488 5461,1555 5488,1555 5488,1576 5608,1576 5608,1551 5615,1551 5615,1570 5633,1570 5633,1576 5686,1576 5686,1570 5687,1404" stroke="rgb(none)" stroke-width="0.0" fill="0,0,0" />
<polygon id="08-8814" points="5351,1256 5356,1256 5356,1343 5455,1343 5455,1178 5398,1178 5398,1172 5346,1172 5346,1178 5228,1178 5228,1210 5222,1210 5222,1185 5182,1185 5182,1344 5351,1344 5351,1256" stroke="rgb(none)" stroke-width="0.0" fill="0,0,0" />
<polygon id="08-8782C" points="5839,1016 5837,1010 5761,1010 5761,1016 5723,1016 5723,1040 5693,1040 5693,1106 5839,1106 5839,1016" stroke="rgb(none)" stroke-width="0.0" fill="0,0,0" />
<polygon id="08-8740A" points="5176,1414 5152,1414 5147,1414 5147,1407 5152,1408 5176,1409 5176,1371 5152,1372 5147,1372 5147,1366 5176,1366 5176,1326 5152,1326 5152,1321 5176,1321 5176,1181 5152,1181 5152,1176 5058,1176 5058,1576 5152,1576 5152,1570 5176,1570 5176,1414" stroke="rgb(none)" stroke-width="0.0" fill="0,0,0" />
<polygon id="08-8710" points="6041,1572 5991,1574 5930,1576 5696,1576 5633,1576 5488,1576 5488,1561 5453,1561 5400,1561 5369,1561 5302,1561 5262,1561 5253,1561 5181,1561 5181,1576 5058,1576 5058,1672 5264,1672 5264,1677 5283,1676 5317,1675 5417,1675 5448,1676 5467,1677 5467,1672 5692,1672 5692,1677 5708,1676 5872,1676 5888,1677 5888,1672 6030,1674 6041,1676 6041,1572" stroke="rgb(none)" stroke-width="0.0" fill="0,0,0" />
<polygon id="08-8780B" points="6334,1505 6334,1423 6239,1423 6239,1436 6234,1436 6234,1571 6334,1571 6334,1505" stroke="rgb(none)" stroke-width="0.0" fill="0,0,0" />
<polygon id="08-8780A" points="6138,1298 6017,1298 6017,1322 6041,1322 6041,1327 6017,1327 6017,1366 6046,1366 6046,1373 6041,1372 6017,1371 6017,1409 6041,1408 6046,1408 6046,1414 6017,1414 6017,1567 6048,1567 6048,1572 6138,1572 6138,1298" stroke="rgb(none)" stroke-width="0.0" fill="0,0,0" />
<polygon id="08-8816" points="5609,1257 5609,1228 5609,1178 5503,1178 5503,1172 5463,1172 5462,1178 5461,1404 5488,1404 5488,1409 5472,1409 5472,1438 5488,1438 5488,1443 5526,1443 5526,1438 5609,1438 5609,1387 5609,1359 5609,1257" stroke="rgb(none)" stroke-width="0.0" fill="0,0,0" />
<polygon id="08-8757A" points="4737,300 4742,300 4742,260 4738,259 4665,258 4665,291 4656,291 4656,323 4675,323 4675,363 4711,363 4711,323 4737,323 4737,300" stroke="rgb(none)" stroke-width="0.0" fill="0,0,0" />
<polygon id="08-8808" points="5791,613 5777,615 5721,617 5721,641 5696,641 5696,705 5687,705 5687,757 5693,758 5791,759 5791,613" stroke="rgb(none)" stroke-width="0.0" fill="0,0,0" />
<polygon id="08-8807B" points="5443,753 5435,753 5435,734 5268,734 5268,845 5435,845 5435,817 5443,817 5443,753" stroke="rgb(none)" stroke-width="0.0" fill="0,0,0" />
<polygon id="08-8807A" points="5443,872 5435,872 5435,853 5268,853 5268,964 5435,964 5435,936 5443,936 5443,872" stroke="rgb(none)" stroke-width="0.0" fill="0,0,0" />
<polygon id="08-8807" points="5589,793 5580,793 5580,732 5443,732 5443,950 5580,950 5580,893 5589,893 5589,793" stroke="rgb(none)" stroke-width="0.0" fill="0,0,0" />
<polygon id="08-8806" points="5759,765 5693,766 5687,767 5687,807 5693,807 5693,904 5727,904 5727,890 5759,890 5759,765" stroke="rgb(none)" stroke-width="0.0" fill="0,0,0" />
<polygon id="08-8813" points="5434,973 5308,973 5309,1070 5310,1076 5350,1076 5350,1070 5434,1070 5434,973" stroke="rgb(none)" stroke-width="0.0" fill="0,0,0" />
<polygon id="08-8720C" points="5299,1726 5283,1726 5283,1695 5187,1695 5187,1808 5283,1808 5283,1778 5299,1778 5299,1726" stroke="rgb(none)" stroke-width="0.0" fill="0,0,0" />
<polygon id="08-8720B" points="5299,1856 5283,1856 5283,1826 5187,1826 5187,1938 5283,1938 5283,1908 5299,1908 5299,1856" stroke="rgb(none)" stroke-width="0.0" fill="0,0,0" />
<polygon id="08-8720A" points="5299,1976 5283,1976 5283,1946 5187,1946 5187,2059 5283,2059 5283,2028 5299,2028 5299,1976" stroke="rgb(none)" stroke-width="0.0" fill="0,0,0" />
<polygon id="08-8720" points="5434,1726 5434,1682 5417,1682 5417,1675 5317,1675 5317,1682 5299,1682 5299,2052 5317,2054 5417,2054 5434,2052 5434,1726" stroke="rgb(none)" stroke-width="0.0" fill="0,0,0" />
<polygon id="08-8720D" points="5554,1695 5458,1695 5458,1726 5434,1726 5434,1778 5458,1778 5458,1808 5554,1808 5554,1695" stroke="rgb(none)" stroke-width="0.0" fill="0,0,0" />
<polygon id="08-8720E" points="5554,1826 5458,1826 5458,1856 5434,1856 5434,1908 5458,1908 5458,1938 5554,1938 5554,1826" stroke="rgb(none)" stroke-width="0.0" fill="0,0,0" />
<polygon id="08-8720F" points="5554,1946 5458,1946 5458,1976 5434,1976 5434,2028 5458,2028 5458,2059 5554,2059 5554,1946" stroke="rgb(none)" stroke-width="0.0" fill="0,0,0" />
<polygon id="08-8730C" points="5720,1724 5696,1724 5696,1695 5565,1695 5565,1808 5696,1808 5696,1788 5720,1788 5720,1724" stroke="rgb(none)" stroke-width="0.0" fill="0,0,0" />
<polygon id="08-8730B" points="5720,1854 5696,1854 5696,1826 5565,1826 5565,1938 5696,1938 5696,1918 5720,1918 5720,1854" stroke="rgb(none)" stroke-width="0.0" fill="0,0,0" />
<polygon id="08-8730A" points="5720,1974 5696,1974 5696,1946 5565,1946 5565,2059 5696,2059 5696,2038 5720,2038 5720,1974" stroke="rgb(none)" stroke-width="0.0" fill="0,0,0" />
<polygon id="08-8730" points="5888,1854 5888,1685 5840,1685 5840,1675 5740,1675 5740,1685 5720,1685 5720,2056 5739,2057 5842,2057 5888,2056 5888,1854" stroke="rgb(none)" stroke-width="0.0" fill="0,0,0" />
<polygon id="08-8730F" points="6027,1946 5896,1946 5896,1974 5888,1974 5888,2038 5896,2038 5896,2059 6027,2059 6027,1946" stroke="rgb(none)" stroke-width="0.0" fill="0,0,0" />
<polygon id="08-8730E" points="6027,1826 5896,1826 5896,1854 5888,1854 5888,1918 5896,1918 5896,1938 6027,1938 6027,1826" stroke="rgb(none)" stroke-width="0.0" fill="0,0,0" />
<polygon id="08-8730D" points="6040,1683 5896,1683 5896,1712 5888,1712 5888,1788 5896,1788 5896,1808 6040,1808 6040,1683" stroke="rgb(none)" stroke-width="0.0" fill="0,0,0" />
<polygon id="08-8700A" points="4182,2125 4174,2121 4174,2225 4224,2223 4259,2221 4259,2251 4931,2251 4931,2221 5741,2221 5741,2251 5924,2250 5924,2125 5838,2125 5840,2109 5842,2059 5739,2059 5738,2107 5742,2109 5742,2125 5681,2125 5681,2091 5473,2091 5473,2125 5417,2125 5419,2109 5419,2057 5316,2057 5316,2109 5317,2125 5058,2125 5058,2083 5063,2083 5062,2067 5061,2034 4958,2034 4957,2067 4957,2083 4962,2083 4962,2125 4677,2125 4677,1971 4617,1971 4617,2125 4182,2125" stroke="rgb(none)" stroke-width="0.0" fill="0,0,0" />
<polygon id="08-8742" points="5180,1834 5064,1835 5058,1835 5058,1875 5064,1875 5064,1994 5068,1994 5068,2086 5180,2086 5180,1834" stroke="rgb(none)" stroke-width="0.0" fill="0,0,0" />
<polygon id="08-8718" points="5713,2245 5708,2226 5707,2221 5655,2221 5655,2226 5639,2226 5639,2241 5445,2243 5441,2245 5443,2365 5445,2369 5643,2369 5643,2374 5691,2374 5691,2369 5707,2369 5707,2363 5713,2363 5713,2245" stroke="rgb(none)" stroke-width="0.0" fill="0,0,0" />
<polygon id="08-8709" points="4842,1971 4682,1971 4682,1977 4677,1977 4677,2017 4682,2017 4683,2062 4685,2083 4745,2083 4745,2102 4842,2102 4842,1971" stroke="rgb(none)" stroke-width="0.0" fill="0,0,0" />
<polygon id="08-8707" points="4699,1867 4681,1867 4681,1805 4671,1805 4557,1805 4557,1939 4617,1939 4618,1966 4619,1971 4659,1971 4659,1966 4699,1966 4699,1867" stroke="rgb(none)" stroke-width="0.0" fill="0,0,0" />
<polygon id="08-8700" points="4173,2121 4065,2123 3936,2125 3936,2114 3885,2114 3885,2106 3858,2106 3858,2114 3852,2114 3852,2095 3246,2095 3246,2122 3233,2123 3233,2221 3335,2221 3335,2251 3852,2251 3852,2232 3858,2232 3858,2240 3885,2240 3885,2232 3936,2232 3936,2221 4163,2223 4171,2225 4173,2121" stroke="rgb(none)" stroke-width="0.0" fill="0,0,0" />
<polygon id="08-8661" points="2460,2988 2456,2979 2418,2979 2416,2988 2414,3026 2150,3026 2150,3220 2456,3220 2458,3186 2460,2988" stroke="rgb(none)" stroke-width="0.0" fill="0,0,0" />
<polygon id="08-8661A" points="2496,3100 2472,3100 2472,3137 2460,3137 2460,3173 2472,3173 2473,3177 2473,3183 2472,3200 2496,3200 2495,3183 2495,3177 2496,3100" stroke="rgb(none)" stroke-width="0.0" fill="0,0,0" />
<polygon id="08-8663A" points="2508,3020 2496,3020 2495,3010 2495,3004 2496,2971 2472,2971 2473,3004 2473,3010 2472,3091 2496,3091 2496,3056 2508,3056 2508,3020" stroke="rgb(none)" stroke-width="0.0" fill="0,0,0" />
<polygon id="08-8663" points="2635,3061 2605,3061 2605,3045 2560,3045 2560,3033 2581,3033 2581,2971 2560,2971 2560,2959 2512,2959 2510,2971 2508,3172 2536,3172 2536,3220 2635,3220 2635,3061" stroke="rgb(none)" stroke-width="0.0" fill="0,0,0" />
<polygon id="08-8665" points="2701,2979 2689,2979 2689,2971 2659,2971 2659,2959 2623,2959 2623,2971 2593,2971 2593,2979 2581,2979 2581,3015 2593,3015 2593,3033 2617,3033 2617,3049 2665,3049 2665,3033 2689,3033 2689,3015 2701,3015 2701,2979" stroke="rgb(none)" stroke-width="0.0" fill="0,0,0" />
<polygon id="08-8667" points="2774,3056 2772,2971 2770,2959 2722,2959 2722,2971 2701,2971 2701,3033 2722,3033 2722,3045 2677,3045 2677,3061 2647,3061 2647,3206 2655,3206 2655,3220 2726,3220 2726,3188 2750,3188 2750,3220 2774,3220 2774,3056" stroke="rgb(none)" stroke-width="0.0" fill="0,0,0" />
<polygon id="08-8667A" points="2810,3010 2809,3004 2810,2971 2786,2971 2787,3004 2787,3010 2786,3020 2774,3020 2774,3056 2786,3056 2786,3092 2810,3092 2810,3010" stroke="rgb(none)" stroke-width="0.0" fill="0,0,0" />
<polygon id="08-8669A" points="2810,3105 2786,3105 2787,3177 2787,3183 2786,3208 2810,3208 2809,3183 2809,3177 2810,3173 2822,3173 2822,3137 2810,3137 2810,3105" stroke="rgb(none)" stroke-width="0.0" fill="0,0,0" />
<polygon id="08-8669" points="2947,2971 2874,2971 2874,2959 2826,2959 2824,2971 2822,3220 2939,3220 2939,3190 2947,3190 2947,2971" stroke="rgb(none)" stroke-width="0.0" fill="0,0,0" />
<polygon id="08-8689" points="3210,3214 3065,3214 3065,3205 3035,3205 3035,3214 3024,3214 3024,3260 3210,3260 3210,3214" stroke="rgb(none)" stroke-width="0.0" fill="0,0,0" />
<polygon id="08-8687A" points="3092,3052 3080,3052 3080,3026 3050,3026 3050,3106 3080,3106 3080,3088 3092,3088 3092,3052" stroke="rgb(none)" stroke-width="0.0" fill="0,0,0" />
<polygon id="08-8687" points="3328,3023 3299,3024 3241,3027 3189,3027 3092,3026 3092,3118 3078,3119 3069,3119 3069,3161 3078,3161 3078,3176 3190,3176 3190,3163 3253,3163 3253,3220 3328,3220 3328,3023" stroke="rgb(none)" stroke-width="0.0" fill="0,0,0" />
<polygon id="08-8685" points="3328,2865 3299,2866 3248,2866 3248,2889 3182,2889 3182,2866 3078,2868 3069,2870 3069,2912 3078,2913 3092,2914 3092,3014 3189,3013 3241,3013 3299,3015 3328,3017 3328,2865" stroke="rgb(none)" stroke-width="0.0" fill="0,0,0" />
<polygon id="08-8685A" points="3092,2954 3080,2954 3080,2926 3050,2926 3050,3014 3080,3014 3080,2990 3092,2990 3092,2954" stroke="rgb(none)" stroke-width="0.0" fill="0,0,0" />
<polygon id="08-8660" points="2956,2888 2579,2888 2579,2865 2532,2865 2532,2888 2506,2888 2506,2959 2956,2959 2956,2888" stroke="rgb(none)" stroke-width="0.0" fill="0,0,0" />
<polygon id="08-8684" points="2954,2718 2966,2718 2966,2658 2954,2656 2736,2654 2736,2813 2754,2813 2754,2822 2736,2822 2736,2842 2754,2842 2756,2876 2758,2888 2818,2888 2818,2876 2932,2876 2932,2810 2954,2810 2954,2718" stroke="rgb(none)" stroke-width="0.0" fill="0,0,0" />
<polygon id="08-8662" points="2724,2572 2724,2554 2699,2554 2699,2542 2663,2542 2663,2554 2639,2554 2639,2876 2665,2876 2665,2888 2701,2888 2701,2876 2724,2876 2724,2572" stroke="rgb(none)" stroke-width="0.0" fill="0,0,0" />
<polygon id="08-8658" points="2627,2762 2520,2764 2506,2766 2506,2808 2520,2808 2520,2853 2591,2853 2591,2876 2627,2876 2627,2762" stroke="rgb(none)" stroke-width="0.0" fill="0,0,0" />
<polygon id="08-8659A" points="2402,2926 2372,2926 2372,2954 2360,2954 2360,2990 2372,2990 2372,3014 2402,3014 2402,2926" stroke="rgb(none)" stroke-width="0.0" fill="0,0,0" />
<polygon id="08-8659" points="2360,2954 2360,2914 2374,2913 2383,2912 2383,2870 2374,2868 2270,2866 2270,2890 2204,2890 2204,2866 2150,2866 2150,3014 2360,3014 2360,2954" stroke="rgb(none)" stroke-width="0.0" fill="0,0,0" />
<polygon id="08-8657" points="2360,2744 2360,2718 2150,2718 2150,2857 2204,2857 2204,2845 2270,2845 2270,2857 2374,2855 2383,2853 2383,2811 2374,2811 2360,2810 2360,2744" stroke="rgb(none)" stroke-width="0.0" fill="0,0,0" />
<polygon id="08-8657A" points="2402,2718 2372,2718 2372,2744 2360,2744 2360,2780 2372,2780 2372,2798 2402,2798 2402,2718" stroke="rgb(none)" stroke-width="0.0" fill="0,0,0" />
<polygon id="08-8650" points="2414,2500 2383,2500 2383,2604 2414,2604 2414,2810 2383,2810 2383,2914 2414,2914 2414,2979 2460,2979 2460,2959 2506,2959 2506,2546 2526,2546 2526,2506 2506,2506 2506,2479 2521,2479 2521,2439 2506,2439 2506,2427 2414,2427 2414,2500" stroke="rgb(none)" stroke-width="0.0" fill="0,0,0" />
<polygon id="08-8656" points="2627,2644 2520,2644 2520,2704 2506,2704 2506,2746 2520,2748 2627,2750 2627,2644" stroke="rgb(none)" stroke-width="0.0" fill="0,0,0" />
<polygon id="08-8655A" points="2402,2616 2372,2616 2372,2644 2360,2644 2360,2680 2372,2680 2372,2706 2402,2706 2402,2616" stroke="rgb(none)" stroke-width="0.0" fill="0,0,0" />
<polygon id="08-8655" points="2360,2604 2374,2603 2383,2602 2383,2560 2374,2558 2270,2556 2270,2569 2204,2569 2204,2556 2150,2556 2150,2706 2360,2706 2360,2604" stroke="rgb(none)" stroke-width="0.0" fill="0,0,0" />
<polygon id="08-8653A" points="2402,2400 2372,2400 2372,2424 2360,2424 2360,2460 2372,2460 2372,2488 2402,2488 2402,2400" stroke="rgb(none)" stroke-width="0.0" fill="0,0,0" />
<polygon id="08-8653" points="2360,2424 2360,2400 2150,2400 2150,2547 2204,2547 2204,2535 2270,2535 2270,2547 2374,2545 2383,2543 2383,2501 2374,2501 2360,2500 2360,2424" stroke="rgb(none)" stroke-width="0.0" fill="0,0,0" />
<polygon id="08-8654" points="2506,2628 2520,2630 2627,2632 2627,2525 2545,2525 2545,2572 2520,2572 2520,2596 2506,2596 2506,2628" stroke="rgb(none)" stroke-width="0.0" fill="0,0,0" />
<polygon id="08-8652" points="2627,2439 2533,2441 2521,2443 2521,2475 2533,2475 2533,2499 2545,2499 2545,2513 2627,2513 2627,2439" stroke="rgb(none)" stroke-width="0.0" fill="0,0,0" />
<polygon id="08-8680" points="3038,2388 3104,2388 3104,2334 2921,2334 2921,2310 2861,2310 2861,2339 2714,2339 2712,2280 2710,2271 2614,2271 2612,2280 2610,2336 2412,2334 2370,2332 2370,2388 2414,2388 2414,2427 3038,2427 3038,2388" stroke="rgb(none)" stroke-width="0.0" fill="0,0,0" />
<polygon id="08-8680A" points="2966,2427 2662,2427 2662,2439 2639,2439 2639,2542 2845,2542 2845,2558 2869,2558 2869,2542 2881,2542 2881,2572 2942,2572 2942,2546 2966,2546 2966,2427" stroke="rgb(none)" stroke-width="0.0" fill="0,0,0" />
<polygon id="08-8680B" points="2829,2554 2825,2542 2789,2542 2789,2554 2748,2554 2748,2572 2736,2572 2736,2642 2829,2642 2829,2554" stroke="rgb(none)" stroke-width="0.0" fill="0,0,0" />
<polygon id="08-8678" points="2958,2572 2881,2572 2881,2583 2841,2583 2841,2642 2958,2642 2958,2572" stroke="rgb(none)" stroke-width="0.0" fill="0,0,0" />
<polygon id="08-8681" points="3328,2555 3299,2556 3248,2556 3248,2569 3182,2569 3182,2556 3078,2558 3069,2560 3069,2602 3078,2603 3092,2604 3092,2706 3189,2705 3241,2705 3299,2707 3328,2709 3328,2555" stroke="rgb(none)" stroke-width="0.0" fill="0,0,0" />
<polygon id="08-8670" points="3038,3014 3038,2914 3069,2914 3069,2810 3038,2810 3038,2604 3069,2604 3069,2500 3038,2500 3038,2427 2966,2427 2966,2822 2944,2822 2944,2862 2966,2862 2966,2888 2956,2888 2956,3190 2971,3190 2971,3205 3069,3205 3069,3118 3038,3118 3038,3014" stroke="rgb(none)" stroke-width="0.0" fill="0,0,0" />
<polygon id="08-8679" points="3328,2395 3314,2396 3092,2398 3092,2500 3078,2501 3069,2501 3069,2543 3078,2545 3182,2547 3182,2535 3248,2535 3248,2547 3299,2548 3328,2549 3328,2395" stroke="rgb(none)" stroke-width="0.0" fill="0,0,0" />
<polygon id="08-8679A" points="3092,2398 3050,2398 3050,2488 3080,2488 3080,2460 3092,2460 3092,2398" stroke="rgb(none)" stroke-width="0.0" fill="0,0,0" />
<polygon id="08-8677" points="3328,2252 3157,2252 3157,2234 3146,2234 3146,2224 3109,2224 3109,2295 3091,2295 3091,2329 3109,2329 3109,2337 3104,2337 3104,2385 3109,2385 3109,2393 3314,2394 3328,2395 3328,2252" stroke="rgb(none)" stroke-width="0.0" fill="0,0,0" />
<polygon id="08-8671" points="2845,2279 2856,2279 2856,2224 2810,2224 2810,2219 2723,2219 2723,2339 2810,2339 2810,2334 2856,2334 2856,2300 2845,2300 2845,2279" stroke="rgb(none)" stroke-width="0.0" fill="0,0,0" />
<polygon id="08-8677A" points="3109,2256 3104,2256 3104,2224 3044,2224 3044,2329 3086,2329 3086,2290 3104,2290 3104,2286 3109,2286 3109,2256" stroke="rgb(none)" stroke-width="0.0" fill="0,0,0" />
<polygon id="08-8673" points="3032,2224 2975,2224 2975,2262 2926,2262 2928,2329 2930,2334 2966,2334 2966,2329 3032,2329 3032,2224" stroke="rgb(none)" stroke-width="0.0" fill="0,0,0" />
<polygon id="08-8608" points="2921,2257 2942,2257 2942,2224 2901,2224 2901,2219 2865,2219 2863,2224 2861,2305 2921,2305 2921,2257" stroke="rgb(none)" stroke-width="0.0" fill="0,0,0" />
<polygon id="08-8609" points="3234,2017 3211,2017 3211,1994 3234,1994 3234,1891 2979,1891 2979,1995 2990,1995 2990,2023 2978,2023 2978,2118 2990,2118 2990,2122 3026,2122 3026,2117 3030,2117 3030,2096 3198,2096 3198,2109 3234,2109 3234,2017" stroke="rgb(none)" stroke-width="0.0" fill="0,0,0" />
<polygon id="08-8604" points="2601,2228 2569,2228 2569,2219 2533,2219 2531,2228 2529,2316 2601,2316 2601,2228" stroke="rgb(none)" stroke-width="0.0" fill="0,0,0" />
<polygon id="08-8602" points="2520,2245 2505,2245 2505,2228 2492,2228 2492,2219 2456,2219 2456,2228 2442,2228 2442,2316 2520,2316 2520,2245" stroke="rgb(none)" stroke-width="0.0" fill="0,0,0" />
<polygon id="08-8651A" points="2426,2228 2370,2228 2370,2251 2361,2251 2361,2287 2370,2289 2390,2291 2388,2300 2386,2323 2426,2323 2424,2300 2424,2291 2426,2228" stroke="rgb(none)" stroke-width="0.0" fill="0,0,0" />
<polygon id="08-8651" points="2377,2300 2361,2300 2361,2223 2326,2223 2326,2247 2155,2247 2155,2230 2150,2230 2150,2388 2361,2386 2370,2384 2370,2336 2361,2336 2361,2323 2377,2323 2377,2300" stroke="rgb(none)" stroke-width="0.0" fill="0,0,0" />
<polygon id="08-8607" points="2852,2029 2852,2001 2750,2001 2750,2117 2782,2117 2782,2122 2822,2122 2822,2117 2865,2117 2865,2083 2852,2083 2852,2029" stroke="rgb(none)" stroke-width="0.0" fill="0,0,0" />
<polygon id="08-8607A" points="2938,2026 2929,2026 2929,2001 2857,2001 2857,2029 2852,2029 2852,2062 2857,2062 2857,2077 2938,2077 2938,2026" stroke="rgb(none)" stroke-width="0.0" fill="0,0,0" />
<polygon id="08-8600D" points="2115,1903 2039,1903 2039,2102 2115,2102 2115,1903" stroke="rgb(none)" stroke-width="0.0" fill="0,0,0" />
<polygon id="08-8605A" points="2974,1890 2750,1890 2750,1894 2745,1894 2745,1942 2750,1942 2750,1994 2974,1994 2974,1890" stroke="rgb(none)" stroke-width="0.0" fill="0,0,0" />
<polygon id="08-8125" points="2006,1190 1874,1190 1874,1185 1839,1185 1839,1190 1834,1190 1834,1261 1755,1261 1755,1303 1834,1303 1834,1427 1975,1427 1975,1421 2006,1421 2006,1190" stroke="rgb(none)" stroke-width="0.0" fill="0,0,0" />
<polygon id="08-8127" points="1755,1190 1731,1190 1731,1185 1696,1185 1696,1190 1688,1190 1688,1421 1697,1421 1697,1427 1829,1427 1829,1308 1808,1308 1808,1303 1767,1303 1767,1308 1750,1308 1750,1261 1725,1261 1725,1256 1755,1256 1755,1190" stroke="rgb(none)" stroke-width="0.0" fill="0,0,0" />
<polygon id="08-8127A" points="1829,1190 1760,1190 1760,1261 1796,1261 1796,1256 1829,1256 1829,1190" stroke="rgb(none)" stroke-width="0.0" fill="0,0,0" />
<polygon id="08-8129A" points="1596,1190 1532,1190 1532,1256 1561,1256 1561,1261 1596,1261 1596,1190" stroke="rgb(none)" stroke-width="0.0" fill="0,0,0" />
<polygon id="08-8129" points="1683,1190 1666,1190 1666,1185 1631,1185 1631,1190 1601,1190 1601,1256 1631,1256 1631,1261 1532,1261 1532,1427 1674,1427 1674,1421 1683,1421 1683,1190" stroke="rgb(none)" stroke-width="0.0" fill="0,0,0" />
<polygon id="08-8131" points="1527,1190 1510,1190 1510,1185 1478,1185 1478,1190 1470,1190 1470,1214 1527,1214 1527,1190" stroke="rgb(none)" stroke-width="0.0" fill="0,0,0" />
<polygon id="08-8133" points="1527,1427 1527,1226 1470,1226 1470,1254 1436,1254 1436,1242 1458,1242 1458,1190 1430,1190 1430,1185 1394,1185 1392,1190 1389,1261 1388,1271 1383,1271 1383,1261 1232,1261 1232,1427 1374,1427 1374,1420 1383,1420 1383,1307 1388,1307 1388,1420 1397,1420 1397,1427 1527,1427" stroke="rgb(none)" stroke-width="0.0" fill="0,0,0" />
<polygon id="08-8133A" points="1313,1190 1298,1190 1298,1185 1235,1185 1233,1190 1232,1256 1262,1256 1262,1261 1298,1261 1298,1255 1313,1255 1313,1190" stroke="rgb(none)" stroke-width="0.0" fill="0,0,0" />
<polygon id="08-8135A" points="1227,1190 1168,1190 1168,1261 1203,1261 1203,1256 1227,1256 1227,1190" stroke="rgb(none)" stroke-width="0.0" fill="0,0,0" />
<polygon id="08-8135" points="1227,1261 1126,1261 1126,1256 1163,1256 1163,1190 1129,1190 1129,1185 1094,1185 1094,1190 1087,1190 1087,1416 1100,1416 1100,1427 1227,1427 1227,1261" stroke="rgb(none)" stroke-width="0.0" fill="0,0,0" />
<polygon id="08-8137A" points="999,1190 935,1190 935,1255 958,1255 958,1261 995,1261 995,1256 999,1256 999,1190" stroke="rgb(none)" stroke-width="0.0" fill="0,0,0" />
<polygon id="08-8137" points="1082,1190 1075,1190 1075,1185 1040,1185 1040,1190 1004,1190 1004,1256 1034,1256 1034,1261 935,1261 935,1427 1071,1427 1071,1416 1082,1416 1082,1190" stroke="rgb(none)" stroke-width="0.0" fill="0,0,0" />
<polygon id="08-8139" points="930,1261 835,1261 835,1256 872,1256 872,1190 834,1190 834,1185 799,1185 799,1190 789,1190 789,1416 801,1416 801,1427 930,1427 930,1261" stroke="rgb(none)" stroke-width="0.0" fill="0,0,0" />
<polygon id="08-8139A" points="930,1190 877,1190 877,1261 912,1261 912,1255 930,1255 930,1190" stroke="rgb(none)" stroke-width="0.0" fill="0,0,0" />
<polygon id="08-8141" points="784,1190 711,1190 711,1218 706,1218 706,1190 698,1190 698,1185 663,1185 663,1190 655,1190 655,1392 597,1392 597,1437 755,1437 755,1427 771,1427 771,1416 784,1416 784,1190" stroke="rgb(none)" stroke-width="0.0" fill="0,0,0" />
<polygon id="08-8143" points="650,1190 622,1190 622,1185 591,1185 591,1190 575,1190 575,1202 563,1202 563,1190 522,1190 522,1351 563,1351 563,1337 574,1337 574,1351 597,1351 597,1382 650,1382 650,1352 629,1352 629,1343 650,1343 650,1190" stroke="rgb(none)" stroke-width="0.0" fill="0,0,0" />
<polygon id="08-8141A" points="597,1397 587,1397 587,1362 529,1362 529,1437 587,1437 587,1430 597,1430 597,1397" stroke="rgb(none)" stroke-width="0.0" fill="0,0,0" />
<polygon id="08-8147" points="509,1198 497,1198 497,1185 449,1185 449,1198 425,1198 425,1436 474,1436 474,1421 509,1421 509,1198" stroke="rgb(none)" stroke-width="0.0" fill="0,0,0" />
<polygon id="08-8122" points="1986,885 1969,885 1969,857 1963,857 1963,845 1927,845 1927,857 1919,857 1919,966 1986,966 1986,885" stroke="rgb(none)" stroke-width="0.0" fill="0,0,0" />
<polygon id="08-8126" points="1711,1006 1699,1004 1617,1002 1617,1066 1673,1066 1673,1059 1699,1059 1699,1038 1711,1038 1711,1006" stroke="rgb(none)" stroke-width="0.0" fill="0,0,0" />
<polygon id="08-8128" points="1605,1002 1513,1002 1515,1075 1517,1087 1549,1087 1549,1075 1605,1075 1605,1002" stroke="rgb(none)" stroke-width="0.0" fill="0,0,0" />
<polygon id="08-8120" points="1699,874 1675,874 1675,850 1513,850 1513,954 1501,954 1501,986 1513,988 1699,988 1711,986 1711,954 1699,954 1699,874" stroke="rgb(none)" stroke-width="0.0" fill="0,0,0" />
<polygon id="08-8130" points="1501,986 1501,968 1457,968 1457,974 1400,974 1400,1075 1457,1075 1457,1087 1489,1087 1489,1075 1501,1075 1501,986" stroke="rgb(none)" stroke-width="0.0" fill="0,0,0" />
<polygon id="08-8116" points="1501,850 1489,850 1489,838 1457,838 1457,850 1400,850 1400,962 1457,962 1457,968 1501,968 1501,850" stroke="rgb(none)" stroke-width="0.0" fill="0,0,0" />
<polygon id="08-8132" points="1388,970 1273,970 1273,993 1267,993 1267,1049 1273,1049 1273,1075 1320,1075 1320,1087 1352,1087 1352,1075 1372,1075 1372,1060 1388,1060 1388,970" stroke="rgb(none)" stroke-width="0.0" fill="0,0,0" />
<polygon id="08-8114" points="1388,859 1375,859 1373,850 1372,838 1336,838 1336,850 1300,850 1300,954 1388,954 1388,859" stroke="rgb(none)" stroke-width="0.0" fill="0,0,0" />
<polygon id="08-8110" points="1248,850 1244,838 1218,838 1216,850 1214,904 1248,904 1248,850" stroke="rgb(none)" stroke-width="0.0" fill="0,0,0" />
<polygon id="08-8112" points="1291,850 1287,838 1261,838 1259,850 1257,904 1291,904 1291,850" stroke="rgb(none)" stroke-width="0.0" fill="0,0,0" />
<polygon id="08-8134A" points="1267,993 1261,993 1261,966 1137,966 1137,954 1101,954 1101,1087 1137,1087 1137,1075 1261,1075 1261,1049 1267,1049 1267,993" stroke="rgb(none)" stroke-width="0.0" fill="0,0,0" />
<polygon id="08-8108" points="1205,838 1101,838 1101,954 1175,952 1184,952 1205,954 1205,919 1184,921 1175,923 1175,910 1205,910 1205,838" stroke="rgb(none)" stroke-width="0.0" fill="0,0,0" />
<polygon id="08-8136" points="1089,1023 1101,1023 1101,991 1089,989 1017,987 1017,1075 1074,1075 1074,1059 1089,1059 1089,1023" stroke="rgb(none)" stroke-width="0.0" fill="0,0,0" />
<polygon id="08-8134" points="1089,908 1101,908 1101,866 1089,864 1074,862 1074,850 1020,850 1020,975 1089,975 1089,908" stroke="rgb(none)" stroke-width="0.0" fill="0,0,0" />
<polygon id="08-8138" points="1008,1027 936,1027 936,1075 942,1075 942,1087 1002,1087 1002,1075 1008,1075 1008,1027" stroke="rgb(none)" stroke-width="0.0" fill="0,0,0" />
<polygon id="08-8140" points="927,1027 876,1027 876,1075 880,1075 880,1087 912,1087 912,1075 927,1075 927,1027" stroke="rgb(none)" stroke-width="0.0" fill="0,0,0" />
<polygon id="08-8142" points="867,1027 797,1027 797,1070 831,1070 831,1081 863,1081 865,1070 867,1027" stroke="rgb(none)" stroke-width="0.0" fill="0,0,0" />
<polygon id="08-8106" points="1008,850 1004,831 962,831 960,850 960,913 962,922 837,922 837,1015 1008,1015 1008,850" stroke="rgb(none)" stroke-width="0.0" fill="0,0,0" />
<polygon id="08-8106A" points="949,850 903,850 905,913 907,922 939,922 939,913 949,913 949,850" stroke="rgb(none)" stroke-width="0.0" fill="0,0,0" />
<polygon id="08-8106B" points="828,969 837,969 837,937 828,937 828,922 797,922 797,1015 828,1015 828,969" stroke="rgb(none)" stroke-width="0.0" fill="0,0,0" />
<polygon id="08-8104" points="898,843 838,843 838,831 802,831 802,843 797,843 797,913 898,913 898,843" stroke="rgb(none)" stroke-width="0.0" fill="0,0,0" />
<polygon id="08-8144" points="792,862 772,862 772,836 682,836 682,1082 699,1082 699,1087 735,1087 735,1082 772,1082 772,1057 792,1057 792,862" stroke="rgb(none)" stroke-width="0.0" fill="0,0,0" />
<polygon id="08-8121A" points="1888,675 1885,670 1846,670 1846,675 1828,675 1828,738 1888,738 1888,675" stroke="rgb(none)" stroke-width="0.0" fill="0,0,0" />
<polygon id="08-8119A" points="1823,675 1801,675 1801,670 1762,670 1762,675 1755,675 1755,738 1823,738 1823,675" stroke="rgb(none)" stroke-width="0.0" fill="0,0,0" />
<polygon id="08-8121" points="1978,492 1828,492 1828,670 1923,670 1923,675 1893,675 1893,738 1935,738 1935,743 1972,743 1972,738 1978,738 1978,492" stroke="rgb(none)" stroke-width="0.0" fill="0,0,0" />
<polygon id="08-8119" points="1823,492 1701,492 1701,500 1688,500 1690,738 1691,743 1727,743 1727,738 1750,738 1750,675 1724,675 1724,670 1823,670 1823,492" stroke="rgb(none)" stroke-width="0.0" fill="0,0,0" />
<polygon id="08-8117A" points="1602,675 1593,675 1593,670 1554,670 1554,675 1533,675 1533,738 1602,738 1602,675" stroke="rgb(none)" stroke-width="0.0" fill="0,0,0" />
<polygon id="08-8117" points="1683,500 1670,500 1670,492 1533,492 1533,670 1631,670 1631,675 1607,675 1607,738 1644,738 1644,743 1680,743 1681,738 1683,500" stroke="rgb(none)" stroke-width="0.0" fill="0,0,0" />
<polygon id="08-8115A" points="1528,675 1505,675 1505,670 1466,670 1466,675 1459,675 1459,738 1528,738 1528,675" stroke="rgb(none)" stroke-width="0.0" fill="0,0,0" />
<polygon id="08-8115" points="1454,675 1427,675 1427,670 1528,670 1528,492 1399,492 1399,500 1388,500 1388,738 1394,738 1394,743 1430,743 1430,738 1454,738 1454,675" stroke="rgb(none)" stroke-width="0.0" fill="0,0,0" />
<polygon id="08-8113" points="1383,500 1369,500 1369,492 1233,492 1233,670 1330,670 1330,675 1300,675 1300,738 1337,738 1337,743 1374,743 1374,738 1383,738 1383,500" stroke="rgb(none)" stroke-width="0.0" fill="0,0,0" />
<polygon id="08-8111" points="1154,675 1126,675 1126,670 1228,670 1228,492 1100,492 1100,500 1086,500 1086,738 1092,738 1092,743 1128,743 1128,738 1154,738 1154,675" stroke="rgb(none)" stroke-width="0.0" fill="0,0,0" />
<polygon id="08-8111A" points="1228,675 1204,675 1204,670 1165,670 1165,675 1159,675 1159,738 1228,738 1228,675" stroke="rgb(none)" stroke-width="0.0" fill="0,0,0" />
<polygon id="08-8109A" points="1007,675 998,675 998,670 959,670 959,675 938,675 938,738 1007,738 1007,675" stroke="rgb(none)" stroke-width="0.0" fill="0,0,0" />
<polygon id="08-8109" points="1081,500 1069,500 1069,492 938,492 938,670 1035,670 1035,675 1012,675 1012,738 1040,738 1040,743 1076,743 1076,738 1081,738 1081,500" stroke="rgb(none)" stroke-width="0.0" fill="0,0,0" />
<polygon id="08-8107" points="933,492 800,492 800,501 788,501 788,738 794,738 794,743 830,743 830,738 859,738 859,675 832,675 832,670 933,670 933,492" stroke="rgb(none)" stroke-width="0.0" fill="0,0,0" />
<polygon id="08-8107A" points="933,675 909,675 909,670 871,670 871,675 864,675 864,738 933,738 933,675" stroke="rgb(none)" stroke-width="0.0" fill="0,0,0" />
<polygon id="08-8105" points="783,501 770,501 770,492 636,492 636,671 735,671 735,676 711,676 711,738 741,738 741,743 777,743 777,738 783,738 783,501" stroke="rgb(none)" stroke-width="0.0" fill="0,0,0" />
<polygon id="08-8105A" points="706,676 694,676 694,671 658,671 658,676 636,676 636,738 706,738 706,676" stroke="rgb(none)" stroke-width="0.0" fill="0,0,0" />
<polygon id="08-8103A" points="631,675 608,675 608,670 569,670 569,675 563,675 563,738 631,738 631,675" stroke="rgb(none)" stroke-width="0.0" fill="0,0,0" />
<polygon id="08-8102" points="387,782 392,782 392,746 387,744 346,743 346,831 387,831 387,782" stroke="rgb(none)" stroke-width="0.0" fill="0,0,0" />
<polygon id="08-8101A" points="405,676 393,676 393,671 357,671 357,676 346,676 346,738 405,738 405,676" stroke="rgb(none)" stroke-width="0.0" fill="0,0,0" />
<polygon id="08-8103" points="631,491 593,491 593,479 527,479 527,491 499,491 499,500 487,500 487,738 493,738 493,743 529,743 529,738 558,738 558,675 530,675 530,670 631,670 631,491" stroke="rgb(none)" stroke-width="0.0" fill="0,0,0" />
<polygon id="08-8101" points="482,500 472,500 472,491 449,491 449,479 399,479 399,497 335,497 335,608 346,608 346,671 434,671 434,676 410,676 410,738 440,738 440,743 476,743 476,738 482,738 482,500" stroke="rgb(none)" stroke-width="0.0" fill="0,0,0" />
<polygon id="08-8146B" points="487,959 487,971 475,971 475,1025 487,1025 487,1050 612,1050 612,959 487,959" stroke="rgb(none)" stroke-width="0.0" fill="0,0,0" />
<polygon id="08-8146A" points="612,959 612,861 487,861 487,893 475,893 475,947 487,947 487,959 612,959" stroke="rgb(none)" stroke-width="0.0" fill="0,0,0" />
<polygon id="08-8146" points="555,1172 560,1172 560,1185 834,1185 1040,1185 1129,1185 1370,1185 1370,1094 1361,1094 1361,1087 867,1087 867,1082 863,1082 797,1081 797,1087 560,1087 560,1100 555,1100 555,1087 475,1087 475,836 434,836 434,831 398,831 398,836 346,836 346,1184 449,1185 555,1185 555,1172" stroke="rgb(none)" stroke-width="0.0" fill="0,0,0" />
<polygon id="08-8100B" points="1517,1087 1370,1087 1370,1178 1379,1178 1379,1185 1666,1185 1696,1185 1731,1185 1874,1185 1907,1185 1908,1172 1908,1100 1907,1087 1799,1087 1799,838 1711,838 1711,1087 1673,1087 1673,1075 1617,1075 1617,1087 1517,1087" stroke="rgb(none)" stroke-width="0.0" fill="0,0,0" />
<polygon id="08-8124" points="1910,852 1811,852 1811,1077 1910,1077 1910,1067 1919,1067 1919,1031 1910,1031 1910,852" stroke="rgb(none)" stroke-width="0.0" fill="0,0,0" />
<polygon id="08-8124A" points="1986,971 1919,971 1919,1077 1929,1077 1929,1087 1965,1087 1965,1077 1976,1077 1976,1041 1986,1041 1986,971" stroke="rgb(none)" stroke-width="0.0" fill="0,0,0" />
<polygon id="08-8600A" points="2209,1470 2209,1198 2218,1198 2218,1078 2209,1078 2209,1072 2096,1072 2096,1087 1912,1087 1911,1100 1911,1172 1912,1185 2120,1185 2120,1811 2216,1811 2216,1470 2209,1470" stroke="rgb(none)" stroke-width="0.0" fill="0,0,0" />
<polygon id="08-8600C" points="2335,2004 2254,2004 2254,2013 2244,2013 2244,2022 2227,2022 2227,2076 2244,2076 2244,2117 2335,2117 2335,2004" stroke="rgb(none)" stroke-width="0.0" fill="0,0,0" />
<polygon id="08-8600B" points="2335,1890 2244,1890 2244,1932 2227,1932 2227,1986 2244,1986 2244,1995 2254,1995 2254,2004 2335,2004 2335,1890" stroke="rgb(none)" stroke-width="0.0" fill="0,0,0" />
<polygon id="08-8600" points="2227,2022 2227,1898 2216,1898 2216,1816 2210,1816 2210,1811 2125,1811 2125,1816 2120,1816 2120,1903 2115,1903 2115,2102 2135,2102 2135,2219 2162,2219 2162,2238 2227,2238 2227,2216 2280,2214 2285,2212 2285,2133 2280,2133 2280,2122 2227,2122 2227,2022" stroke="rgb(none)" stroke-width="0.0" fill="0,0,0" />
<polygon id="08-8605C" points="2634,1928 2618,1928 2618,1901 2495,1901 2495,2004 2608,2004 2608,1995 2618,1995 2618,1986 2634,1986 2634,1928" stroke="rgb(none)" stroke-width="0.0" fill="0,0,0" />
<polygon id="08-8605B" points="2634,2022 2618,2022 2618,2013 2608,2013 2608,2004 2495,2004 2495,2117 2618,2117 2618,2078 2634,2078 2634,2022" stroke="rgb(none)" stroke-width="0.0" fill="0,0,0" />
<polygon id="08-8605" points="2745,1996 2745,1890 2634,1890 2634,2122 2745,2122 2745,1996" stroke="rgb(none)" stroke-width="0.0" fill="0,0,0" />
<polygon id="08-8601" points="2714,2122 2285,2122 2285,2216 2456,2217 2610,2219 2610,2271 2714,2271 2714,2122" stroke="rgb(none)" stroke-width="0.0" fill="0,0,0" />
<polygon id="08-8605D" points="3234,2127 3230,2125 3193,2122 3193,2101 3035,2101 3035,2122 3026,2122 2745,2122 2714,2122 2714,2219 3151,2219 3151,2229 3187,2229 3187,2219 3223,2220 3230,2218 3234,2127" stroke="rgb(none)" stroke-width="0.0" fill="0,0,0" />
<polygon id="08-8693" points="3016,3214 3012,3205 2971,3205 2971,3217 2947,3217 2947,3303 3012,3303 3016,3302 3016,3214" stroke="rgb(none)" stroke-width="0.0" fill="0,0,0" />
<polygon id="08-8693A" points="3241,3319 3012,3319 3012,3303 2969,3303 2969,3318 2947,3318 2947,3413 3241,3413 3241,3319" stroke="rgb(none)" stroke-width="0.0" fill="0,0,0" />
<polygon id="08-8100" points="1978,743 392,743 392,831 903,831 903,844 958,844 958,831 1101,831 1101,838 1799,837 1919,836 1919,845 1963,845 1969,845 1969,837 1978,837 1978,743" stroke="rgb(none)" stroke-width="0.0" fill="0,0,0" />
<polygon id="08-8113A" points="1295,675 1292,670 1253,670 1253,675 1233,675 1233,738 1295,738 1295,675" stroke="rgb(none)" stroke-width="0.0" fill="0,0,0" />
<polygon id="08-8683" points="3328,2715 3299,2716 3241,2719 3189,2719 3092,2718 3092,2810 3078,2811 3069,2811 3069,2853 3078,2855 3182,2857 3182,2845 3248,2845 3248,2857 3299,2858 3328,2859 3328,2715" stroke="rgb(none)" stroke-width="0.0" fill="0,0,0" />
<polygon id="08-8770" points="6173,511 6049,511 6035,511 6008,511 5857,511 5730,510 5722,508 5722,612 5772,610 5797,608 5797,635 5869,635 5869,608 6233,608 6239,607 6239,630 6348,630 6348,608 6439,608 6439,632 6487,632 6487,604 6513,604 6513,638 6589,654 6588,660 6825,711 6826,705 6844,708 6847,691 6860,694 6869,653 6880,602 6882,592 6884,584 6589,521 6575,518 6550,513 6543,511 6446,511 6419,511 6201,511 6173,511" stroke="rgb(none)" stroke-width="0.0" fill="0,0,0" />
<polygon id="08-8772" points="6018,614 6016,608 5976,608 5976,614 5955,614 5955,735 6018,735 6018,614" stroke="rgb(none)" stroke-width="0.0" fill="0,0,0" />
<polygon id="08-8683A" points="3092,2744 3080,2744 3080,2718 3050,2718 3050,2798 3080,2798 3080,2780 3092,2780 3092,2744" stroke="rgb(none)" stroke-width="0.0" fill="0,0,0" />
<polygon id="08-8681A" points="3092,2640 3080,2640 3080,2614 3050,2614 3050,2694 3080,2694 3080,2676 3092,2676 3092,2640" stroke="rgb(none)" stroke-width="0.0" fill="0,0,0" />
<polygon id="08-8825" points="6932,390 6887,603 6880,602 6869,653 6876,655 6997,682 6999,679 7005,661 7010,662 7020,615 7015,614 7054,420 7053,416 6932,390" stroke="rgb(none)" stroke-width="0.0" fill="0,0,0" />
</svg>
