<svg xmlns="http://www.w3.org/2000/svg" version="1.1" width="9239" height="5250">style="background-color:rgb(none)">
<polygon id="05-5755" points="6728,2578 6728,2573 6623,2573 6623,2636 6728,2636 6728,2578" stroke="rgb(none)" stroke-width="0.0" fill="0,0,0" />
<polygon id="05-5757" points="6721,2207 6638,2206 6542,2206 6468,2207 6468,2253 6464,2253 6464,2375 6468,2375 6468,2471 6464,2471 6464,2568 6721,2568 6721,2443 6692,2443 6692,2333 6721,2333 6721,2207" stroke="rgb(none)" stroke-width="0.0" fill="0,0,0" />
<polygon id="05-5683A" points="5002,4916 4780,4916 4780,4908 4730,4908 4730,4916 4707,4916 4707,5012 5002,5012 5002,4916" stroke="rgb(none)" stroke-width="0.0" fill="0,0,0" />
<polygon id="05-5683" points="4785,4845 4796,4845 4796,4795 4790,4794 4730,4793 4730,4825 4707,4825 4707,4893 4725,4893 4725,4908 4785,4908 4785,4845" stroke="rgb(none)" stroke-width="0.0" fill="0,0,0" />
<polygon id="05-5670" points="4923,4643 4923,4491 4962,4491 4962,4464 4923,4464 4923,4167 4962,4167 4962,4140 4923,4140 4923,3869 4923,3864 4923,3816 4827,3816 4827,3864 4827,3869 4827,4085 4826,4641 4826,4771 4826,4792 4796,4792 4796,4855 4970,4855 4970,4791 4923,4791 4923,4643" stroke="rgb(none)" stroke-width="0.0" fill="0,0,0" />
<polygon id="05-5672" points="4827,4085 4819,4085 4819,3975 4746,3975 4746,4134 4819,4133 4827,4131 4827,4085" stroke="rgb(none)" stroke-width="0.0" fill="0,0,0" />
<polygon id="05-5610" points="4822,3821 4788,3821 4788,3816 4748,3816 4748,3821 4740,3821 4740,3860 4708,3860 4708,3939 4746,3939 4746,3970 4822,3970 4822,3821" stroke="rgb(none)" stroke-width="0.0" fill="0,0,0" />
<polygon id="05-5606" points="4458,3821 4456,3816 4416,3816 4416,3821 4341,3821 4341,4008 4458,4008 4458,3821" stroke="rgb(none)" stroke-width="0.0" fill="0,0,0" />
<polygon id="05-5604" points="4336,3821 4336,3816 4296,3816 4295,3821 4293,3843 4285,3843 4285,3871 4295,3871 4295,3898 4336,3898 4336,3821" stroke="rgb(none)" stroke-width="0.0" fill="0,0,0" />
<polygon id="05-5602" points="4280,3843 4254,3843 4254,3821 4217,3821 4217,3816 4177,3816 4176,3821 4175,3905 4280,3905 4280,3843" stroke="rgb(none)" stroke-width="0.0" fill="0,0,0" />
<polygon id="05-5601" points="4996,3721 4991,3721 4996,3718 4954,3718 4954,3703 4959,3703 4959,3694 4801,3694 4801,3721 4582,3721 4394,3720 4394,3727 4045,3727 4044,3731 4043,3816 4073,3816 4073,3865 4170,3865 4170,3816 4964,3816 4964,3821 4963,3843 4998,3843 4971,3842 4971,3816 4985,3816 4991,3814 4995,3814 4996,3721" stroke="rgb(none)" stroke-width="0.0" fill="0,0,0" />
<polygon id="05-5609" points="4972,3592 4983,3592 4983,3497 4744,3497 4744,3593 4750,3593 4750,3621 4738,3621 4738,3716 4752,3716 4752,3721 4792,3721 4794,3716 4796,3689 4964,3689 4964,3705 4983,3705 4983,3615 4972,3615 4972,3592" stroke="rgb(none)" stroke-width="0.0" fill="0,0,0" />
<polygon id="05-5607A" points="4694,3628 4681,3628 4681,3599 4618,3599 4618,3628 4613,3628 4613,3660 4618,3662 4694,3663 4694,3628" stroke="rgb(none)" stroke-width="0.0" fill="0,0,0" />
<polygon id="05-5605A" points="4739,3488 4510,3488 4510,3492 4505,3492 4505,3540 4510,3540 4510,3589 4739,3589 4739,3488" stroke="rgb(none)" stroke-width="0.0" fill="0,0,0" />
<polygon id="05-5605" points="4505,3594 4505,3489 4394,3489 4394,3720 4505,3720 4505,3594" stroke="rgb(none)" stroke-width="0.0" fill="0,0,0" />
<polygon id="05-5605B" points="4394,3620 4378,3620 4378,3611 4368,3611 4368,3602 4255,3602 4255,3715 4378,3715 4378,3677 4394,3677 4394,3620" stroke="rgb(none)" stroke-width="0.0" fill="0,0,0" />
<polygon id="05-5605C" points="4394,3526 4378,3526 4378,3499 4255,3499 4255,3602 4368,3602 4368,3593 4378,3593 4378,3584 4394,3584 4394,3526" stroke="rgb(none)" stroke-width="0.0" fill="0,0,0" />
<polygon id="05-5603" points="4249,3606 4101,3606 4101,3715 4183,3715 4183,3727 4219,3727 4219,3715 4249,3715 4249,3606" stroke="rgb(none)" stroke-width="0.0" fill="0,0,0" />
<polygon id="05-5603A" points="4249,3486 4101,3486 4101,3600 4195,3600 4195,3606 4243,3606 4243,3600 4249,3600 4249,3486" stroke="rgb(none)" stroke-width="0.0" fill="0,0,0" />
<polygon id="05-5600C" points="4095,3602 4014,3602 4014,3611 4004,3611 4004,3620 3987,3620 3987,3674 4004,3674 4004,3715 4095,3715 4095,3602" stroke="rgb(none)" stroke-width="0.0" fill="0,0,0" />
<polygon id="05-5600B" points="4095,3488 4004,3488 4004,3530 3987,3530 3987,3584 4004,3584 4004,3593 4014,3593 4014,3602 4095,3602 4095,3488" stroke="rgb(none)" stroke-width="0.0" fill="0,0,0" />
<polygon id="05-5600" points="4043,3731 4040,3727 3987,3727 3987,3496 3977,3496 3977,3414 3970,3413 3885,3413 3880,3414 3880,3501 3875,3501 3875,3700 3895,3700 3895,3817 3923,3817 3923,3836 3987,3836 3987,3814 4041,3812 4043,3731" stroke="rgb(none)" stroke-width="0.0" fill="0,0,0" />
<polygon id="05-5600A" points="3979,2676 3969,2676 3969,2670 3856,2670 3856,2685 3672,2685 3672,2783 3880,2783 3880,3409 3885,3410 3970,3410 3977,3409 3977,3068 3969,3068 3969,2796 3979,2796 3979,2676" stroke="rgb(none)" stroke-width="0.0" fill="0,0,0" />
<polygon id="05-5128" points="3335,2584 3278,2584 3278,2680 3284,2680 3284,2685 3319,2685 3319,2680 3335,2680 3335,2584" stroke="rgb(none)" stroke-width="0.0" fill="0,0,0" />
<polygon id="05-5123A" points="3590,2788 3521,2788 3521,2859 3557,2859 3557,2854 3590,2854 3590,2788" stroke="rgb(none)" stroke-width="0.0" fill="0,0,0" />
<polygon id="05-5127A" points="3356,2788 3293,2788 3293,2854 3321,2854 3321,2859 3356,2859 3356,2788" stroke="rgb(none)" stroke-width="0.0" fill="0,0,0" />
<polygon id="05-5129A" points="3288,2788 3241,2788 3241,2854 3246,2854 3246,2859 3281,2859 3281,2854 3288,2854 3288,2788" stroke="rgb(none)" stroke-width="0.0" fill="0,0,0" />
<polygon id="05-5131A" points="3059,2900 3064,2900 3064,2937 3101,2937 3101,2906 3143,2906 3143,2859 3064,2859 3064,2864 3059,2864 3059,2900" stroke="rgb(none)" stroke-width="0.0" fill="0,0,0" />
<polygon id="05-5131" points="3059,2900 3059,2853 3073,2853 3073,2788 3059,2788 3059,2783 2995,2783 2994,2788 2993,3025 3134,3025 3134,3018 3143,3018 3143,2911 3106,2911 3106,2942 3059,2942 3059,2900" stroke="rgb(none)" stroke-width="0.0" fill="0,0,0" />
<polygon id="05-5120" points="3747,2483 3730,2483 3730,2455 3723,2455 3723,2444 3687,2444 3687,2455 3680,2455 3680,2576 3747,2576 3747,2483" stroke="rgb(none)" stroke-width="0.0" fill="0,0,0" />
<polygon id="05-5119A" points="3648,2274 3645,2269 3606,2269 3606,2274 3588,2274 3588,2336 3648,2336 3648,2274" stroke="rgb(none)" stroke-width="0.0" fill="0,0,0" />
<polygon id="05-5117A" points="3583,2274 3561,2274 3561,2269 3522,2269 3522,2274 3515,2274 3515,2336 3583,2336 3583,2274" stroke="rgb(none)" stroke-width="0.0" fill="0,0,0" />
<polygon id="05-5115A" points="3362,2274 3353,2274 3353,2269 3314,2269 3314,2274 3294,2274 3294,2336 3362,2336 3362,2274" stroke="rgb(none)" stroke-width="0.0" fill="0,0,0" />
<polygon id="05-5113A" points="3289,2274 3265,2274 3265,2269 3226,2269 3226,2274 3219,2274 3219,2336 3289,2336 3289,2274" stroke="rgb(none)" stroke-width="0.0" fill="0,0,0" />
<polygon id="05-5111A" points="3055,2274 3053,2269 3014,2269 3014,2274 2993,2274 2993,2336 3055,2336 3055,2274" stroke="rgb(none)" stroke-width="0.0" fill="0,0,0" />
<polygon id="05-5109A" points="2988,2274 2964,2274 2964,2269 2926,2269 2926,2274 2919,2274 2919,2336 2988,2336 2988,2274" stroke="rgb(none)" stroke-width="0.0" fill="0,0,0" />
<polygon id="05-5107A" points="2767,2274 2758,2274 2758,2269 2719,2269 2719,2274 2698,2274 2698,2336 2767,2336 2767,2274" stroke="rgb(none)" stroke-width="0.0" fill="0,0,0" />
<polygon id="05-5105A" points="2693,2274 2670,2274 2670,2269 2631,2269 2631,2274 2624,2274 2624,2336 2693,2336 2693,2274" stroke="rgb(none)" stroke-width="0.0" fill="0,0,0" />
<polygon id="05-5103A" points="2467,2274 2455,2274 2455,2269 2419,2269 2419,2274 2397,2274 2397,2336 2467,2336 2467,2274" stroke="rgb(none)" stroke-width="0.0" fill="0,0,0" />
<polygon id="05-5103" points="2543,2099 2530,2099 2530,2090 2397,2090 2397,2269 2495,2269 2495,2274 2472,2274 2472,2336 2502,2336 2502,2341 2538,2341 2538,2336 2543,2336 2543,2099" stroke="rgb(none)" stroke-width="0.0" fill="0,0,0" />
<polygon id="05-5124" points="3671,2450 3572,2450 3572,2675 3671,2675 3671,2665 3680,2665 3680,2629 3671,2629 3671,2450" stroke="rgb(none)" stroke-width="0.0" fill="0,0,0" />
<polygon id="05-5122" points="3728,2639 3747,2639 3747,2588 3680,2588 3680,2675 3685,2675 3685,2685 3721,2685 3721,2675 3728,2675 3728,2639" stroke="rgb(none)" stroke-width="0.0" fill="0,0,0" />
<polygon id="05-5100A" points="3560,2434 3466,2434 3466,2685 3560,2685 3560,2434" stroke="rgb(none)" stroke-width="0.0" fill="0,0,0" />
<polygon id="05-5126" points="3461,2627 3466,2627 3466,2592 3461,2592 3461,2584 3340,2584 3340,2680 3415,2680 3415,2653 3461,2653 3461,2627" stroke="rgb(none)" stroke-width="0.0" fill="0,0,0" />
<polygon id="05-5116" points="3351,2435 3345,2435 3345,2430 3307,2430 3307,2435 3278,2435 3278,2579 3351,2579 3351,2435" stroke="rgb(none)" stroke-width="0.0" fill="0,0,0" />
<polygon id="05-5100" points="3738,2341 2307,2341 2307,2298 2247,2298 2247,2350 2241,2350 2241,2392 2247,2392 2247,2430 2978,2430 3356,2430 3356,2460 3428,2460 3428,2430 3466,2432 3680,2434 3680,2444 3723,2444 3730,2444 3730,2435 3738,2435 3738,2341" stroke="rgb(none)" stroke-width="0.0" fill="0,0,0" />
<polygon id="05-5106" points="2775,2435 2765,2435 2765,2430 2729,2430 2729,2435 2717,2435 2717,2501 2775,2501 2775,2435" stroke="rgb(none)" stroke-width="0.0" fill="0,0,0" />
<polygon id="05-5104" points="2705,2435 2693,2435 2693,2430 2657,2430 2657,2435 2645,2435 2645,2501 2705,2501 2705,2435" stroke="rgb(none)" stroke-width="0.0" fill="0,0,0" />
<polygon id="05-5133A" points="2988,2788 2928,2788 2928,2859 2964,2859 2964,2854 2988,2854 2988,2788" stroke="rgb(none)" stroke-width="0.0" fill="0,0,0" />
<polygon id="05-5140" points="3672,2699 3667,2699 3667,2685 3560,2685 2567,2685 2320,2685 2319,2699 2319,2771 2320,2783 2594,2783 2800,2783 2854,2783 3426,2783 3456,2783 3491,2783 3634,2783 3667,2783 3667,2771 3672,2771 3672,2699" stroke="rgb(none)" stroke-width="0.0" fill="0,0,0" />
<polygon id="05-5135A" points="2760,2788 2695,2788 2695,2854 2718,2854 2718,2859 2755,2859 2755,2854 2760,2854 2760,2788" stroke="rgb(none)" stroke-width="0.0" fill="0,0,0" />
<polygon id="05-5137A" points="2690,2788 2637,2788 2637,2859 2673,2859 2673,2854 2690,2854 2690,2788" stroke="rgb(none)" stroke-width="0.0" fill="0,0,0" />
<polygon id="05-5139A" points="2358,2995 2347,2995 2347,2961 2289,2961 2289,3036 2347,3036 2347,3029 2358,3029 2358,2995" stroke="rgb(none)" stroke-width="0.0" fill="0,0,0" />
<polygon id="05-5139" points="2545,2788 2471,2788 2471,2816 2466,2816 2466,2788 2458,2788 2458,2783 2423,2783 2423,2788 2416,2788 2416,2990 2358,2990 2358,3036 2515,3036 2515,3025 2531,3025 2531,3014 2545,3014 2545,2788" stroke="rgb(none)" stroke-width="0.0" fill="0,0,0" />
<polygon id="05-5001" points="2269,2854 2159,2854 2159,2842 2111,2842 2111,2854 2103,2854 2103,3026 2171,3026 2171,3035 2234,3035 2234,3019 2269,3019 2269,2854" stroke="rgb(none)" stroke-width="0.0" fill="0,0,0" />
<polygon id="05-5143" points="2411,2788 2382,2788 2382,2783 2352,2783 2352,2788 2335,2788 2335,2801 2324,2801 2324,2788 2283,2788 2283,2949 2324,2949 2324,2935 2334,2935 2334,2949 2358,2949 2358,2981 2411,2981 2411,2950 2389,2950 2389,2942 2411,2942 2411,2788" stroke="rgb(none)" stroke-width="0.0" fill="0,0,0" />
<polygon id="05-5138" points="2552,2460 2532,2460 2532,2435 2442,2435 2442,2680 2459,2680 2459,2685 2495,2685 2495,2680 2532,2680 2532,2655 2552,2655 2552,2460" stroke="rgb(none)" stroke-width="0.0" fill="0,0,0" />
<polygon id="05-5000A" points="2372,2460 2247,2460 2247,2492 2235,2492 2235,2546 2247,2546 2247,2558 2372,2558 2372,2460" stroke="rgb(none)" stroke-width="0.0" fill="0,0,0" />
<polygon id="05-5308B" points="1350,3755 1341,3755 1341,3734 1260,3734 1260,3740 1252,3740 1252,3877 1341,3877 1341,3803 1350,3803 1350,3755" stroke="rgb(none)" stroke-width="0.0" fill="0,0,0" />
<polygon id="05-5308D" points="1341,4081 1350,4081 1350,4033 1341,4031 1269,4029 1269,4045 1252,4045 1252,4147 1341,4147 1341,4081" stroke="rgb(none)" stroke-width="0.0" fill="0,0,0" />
<polygon id="05-5307D" points="1857,4276 1886,4276 1886,4251 1809,4251 1809,4286 1800,4286 1800,4322 1809,4324 1886,4326 1886,4300 1857,4300 1857,4276" stroke="rgb(none)" stroke-width="0.0" fill="0,0,0" />
<polygon id="05-5307I" points="1688,4264 1697,4264 1697,4228 1688,4226 1624,4224 1624,4328 1688,4328 1688,4264" stroke="rgb(none)" stroke-width="0.0" fill="0,0,0" />
<polygon id="05-5307H" points="1742,4349 1747,4349 1747,4335 1697,4336 1624,4337 1624,4441 1630,4441 1630,4446 1688,4446 1688,4441 1742,4441 1742,4349" stroke="rgb(none)" stroke-width="0.0" fill="0,0,0" />
<polygon id="05-5307E" points="1886,4335 1747,4335 1747,4349 1751,4349 1751,4441 1805,4441 1805,4446 1864,4446 1864,4441 1886,4441 1886,4335" stroke="rgb(none)" stroke-width="0.0" fill="0,0,0" />
<polygon id="05-5307F" points="1886,4450 1864,4450 1864,4446 1805,4446 1805,4450 1793,4450 1793,4441 1757,4441 1757,4450 1751,4450 1751,4548 1859,4548 1859,4539 1886,4539 1886,4450" stroke="rgb(none)" stroke-width="0.0" fill="0,0,0" />
<polygon id="05-5307G" points="1742,4450 1736,4450 1736,4441 1700,4441 1700,4450 1688,4450 1688,4446 1630,4446 1630,4450 1624,4450 1624,4542 1634,4542 1634,4548 1742,4548 1742,4450" stroke="rgb(none)" stroke-width="0.0" fill="0,0,0" />
<polygon id="05-5321" points="1598,4564 1595,4559 1559,4559 1559,4564 1514,4564 1514,4612 1598,4612 1598,4564" stroke="rgb(none)" stroke-width="0.0" fill="0,0,0" />
<polygon id="05-5323" points="1598,4617 1595,4612 1559,4612 1559,4617 1514,4617 1514,4849 1559,4861 1598,4849 1598,4617" stroke="rgb(none)" stroke-width="0.0" fill="0,0,0" />
<polygon id="05-5310" points="1505,4340 1525,4340 1525,4304 1505,4302 1421,4300 1421,4441 1505,4441 1505,4340" stroke="rgb(none)" stroke-width="0.0" fill="0,0,0" />
<polygon id="05-5308F" points="1412,4300 1408,4291 1354,4291 1354,4300 1266,4300 1266,4310 1252,4310 1252,4369 1412,4369 1412,4300" stroke="rgb(none)" stroke-width="0.0" fill="0,0,0" />
<polygon id="05-5307C" points="1886,4131 1809,4133 1800,4135 1800,4171 1809,4171 1809,4242 1886,4242 1886,4131" stroke="rgb(none)" stroke-width="0.0" fill="0,0,0" />
<polygon id="05-5307" points="1800,4171 1800,4131 1624,4131 1624,4139 1618,4139 1618,4175 1624,4175 1624,4215 1697,4215 1697,4335 1800,4335 1800,4171" stroke="rgb(none)" stroke-width="0.0" fill="0,0,0" />
<polygon id="05-5307A" points="1742,3925 1624,3925 1624,4122 1702,4122 1702,4131 1738,4131 1740,4122 1742,3925" stroke="rgb(none)" stroke-width="0.0" fill="0,0,0" />
<polygon id="05-5307B" points="1886,4017 1886,3872 1751,3872 1753,4122 1755,4131 1791,4131 1791,4122 1886,4122 1886,4017" stroke="rgb(none)" stroke-width="0.0" fill="0,0,0" />
<polygon id="05-5305A" points="1886,3692 1864,3692 1864,3672 1886,3672 1886,3657 1822,3657 1822,3648 1763,3648 1763,3863 1886,3863 1886,3802 1869,3802 1869,3778 1886,3778 1886,3692" stroke="rgb(none)" stroke-width="0.0" fill="0,0,0" />
<polygon id="05-5303E" points="1754,3658 1763,3658 1763,3622 1754,3622 1754,3616 1624,3616 1624,3622 1618,3622 1618,3658 1624,3658 1624,3760 1754,3760 1754,3658" stroke="rgb(none)" stroke-width="0.0" fill="0,0,0" />
<polygon id="05-5306" points="1525,3652 1505,3652 1505,3616 1422,3616 1422,3735 1494,3735 1494,3710 1505,3708 1525,3706 1525,3652" stroke="rgb(none)" stroke-width="0.0" fill="0,0,0" />
<polygon id="05-5300" points="1618,4139 1618,2903 1608,2903 1608,2897 1536,2897 1536,2903 1525,2903 1525,3901 1505,3901 1505,3955 1525,3955 1525,4029 1502,4029 1502,4056 1525,4056 1525,4559 1598,4559 1598,4542 1618,4542 1618,4139" stroke="rgb(none)" stroke-width="0.0" fill="0,0,0" />
<polygon id="05-5301" points="1886,2920 1857,2920 1857,2909 1624,2909 1624,2929 1618,2929 1618,2977 1624,2977 1624,3157 1886,3157 1886,2920" stroke="rgb(none)" stroke-width="0.0" fill="0,0,0" />
<polygon id="05-5000B" points="2372,2558 2247,2558 2247,2570 2235,2570 2235,2624 2247,2624 2247,2648 2372,2648 2372,2558" stroke="rgb(none)" stroke-width="0.0" fill="0,0,0" />
<polygon id="05-5000" points="2318,2699 2315,2685 2235,2685 2235,2409 2103,2409 2103,2711 2065,2711 2008,2768 2008,2842 2269,2842 2269,2783 2315,2783 2316,2771 2318,2699" stroke="rgb(none)" stroke-width="0.0" fill="0,0,0" />
<polygon id="05-5005" points="1892,2720 1696,2720 1696,2805 1624,2805 1624,2834 1618,2834 1618,2870 1624,2870 1624,2897 1892,2897 1892,2720" stroke="rgb(none)" stroke-width="0.0" fill="0,0,0" />
<polygon id="05-5009" points="1892,2548 1851,2548 1851,2584 1624,2584 1624,2591 1618,2591 1618,2628 1624,2628 1624,2687 1892,2687 1892,2548" stroke="rgb(none)" stroke-width="0.0" fill="0,0,0" />
<polygon id="05-5007" points="1690,2720 1624,2720 1624,2756 1618,2756 1618,2793 1624,2793 1624,2799 1690,2799 1690,2720" stroke="rgb(none)" stroke-width="0.0" fill="0,0,0" />
<polygon id="05-5011" points="1506,2643 1490,2643 1490,2638 1454,2638 1454,2643 1430,2643 1430,2833 1506,2833 1506,2643" stroke="rgb(none)" stroke-width="0.0" fill="0,0,0" />
<polygon id="05-5016K" points="1421,2643 1412,2643 1412,2638 1376,2638 1376,2643 1350,2643 1350,3255 1406,3255 1406,2905 1421,2905 1421,2643" stroke="rgb(none)" stroke-width="0.0" fill="0,0,0" />
<polygon id="05-5016A" points="1182,2710 1191,2710 1191,2668 1182,2668 1182,2643 1100,2643 1100,2660 1086,2660 1086,2759 1146,2759 1164,2762 1182,2768 1182,2710" stroke="rgb(none)" stroke-width="0.0" fill="0,0,0" />
<polygon id="05-5000H" points="1525,2478 1292,2478 1292,2638 1525,2638 1525,2478" stroke="rgb(none)" stroke-width="0.0" fill="0,0,0" />
<polygon id="05-5014" points="1292,2583 1287,2583 1287,2478 1064,2478 1064,2470 900,2470 900,2475 876,2475 876,2470 708,2470 708,2475 684,2475 684,2470 516,2470 516,2475 492,2475 492,2470 419,2470 419,2492 424,2492 424,2618 419,2618 419,2644 492,2642 516,2642 684,2642 708,2642 876,2642 900,2642 1064,2644 1064,2638 1287,2638 1287,2625 1292,2625 1292,2583" stroke="rgb(none)" stroke-width="0.0" fill="0,0,0" />
<polygon id="05-5000G" points="1618,2628 1618,2534 1626,2534 1626,2411 1611,2411 1611,2218 1604,2217 1532,2217 1525,2218 1525,2891 1536,2891 1536,2897 1608,2897 1608,2891 1618,2891 1618,2628" stroke="rgb(none)" stroke-width="0.0" fill="0,0,0" />
<polygon id="05-5000D" points="1970,2418 1937,2418 1937,2409 1892,2409 1892,2418 1851,2418 1851,2536 1970,2536 1970,2418" stroke="rgb(none)" stroke-width="0.0" fill="0,0,0" />
<polygon id="05-5000E" points="1833,2417 1800,2417 1800,2409 1751,2409 1751,2417 1733,2417 1733,2526 1826,2525 1833,2524 1833,2417" stroke="rgb(none)" stroke-width="0.0" fill="0,0,0" />
<polygon id="05-5000F" points="1733,2417 1705,2417 1705,2409 1657,2409 1657,2417 1649,2417 1647,2425 1645,2524 1656,2525 1733,2526 1733,2417" stroke="rgb(none)" stroke-width="0.0" fill="0,0,0" />
<polygon id="05-5004" points="2069,2210 1886,2210 1886,2269 1985,2271 2021,2273 2021,2269 2069,2269 2069,2210" stroke="rgb(none)" stroke-width="0.0" fill="0,0,0" />
<polygon id="05-5006" points="1880,2222 1860,2222 1860,2210 1735,2210 1735,2269 1841,2269 1841,2273 1877,2273 1879,2269 1880,2222" stroke="rgb(none)" stroke-width="0.0" fill="0,0,0" />
<polygon id="05-5000C" points="2173,2273 1611,2273 1611,2403 1649,2403 1649,2409 1831,2409 1831,2403 1853,2403 1853,2409 2235,2409 2235,2392 2241,2392 2241,2350 2235,2350 2235,2298 2222,2298 2173,2273" stroke="rgb(none)" stroke-width="0.0" fill="0,0,0" />
<polygon id="05-5202B" points="1435,2217 1380,2217 1380,2236 1368,2236 1368,2262 1380,2262 1380,2266 1435,2266 1435,2217" stroke="rgb(none)" stroke-width="0.0" fill="0,0,0" />
<polygon id="05-5202A" points="1368,2262 1368,2217 1353,2217 1353,2200 1305,2200 1305,2217 1258,2218 1245,2220 1245,2256 1242,2281 1232,2305 1217,2326 1196,2342 1172,2352 1147,2356 1086,2356 1086,2458 1097,2458 1097,2473 1266,2473 1266,2459 1288,2459 1288,2473 1334,2473 1334,2349 1368,2349 1368,2262" stroke="rgb(none)" stroke-width="0.0" fill="0,0,0" />
<polygon id="05-5010" points="1520,2327 1525,2327 1525,2286 1520,2286 1520,2278 1380,2278 1380,2349 1520,2349 1520,2327" stroke="rgb(none)" stroke-width="0.0" fill="0,0,0" />
<polygon id="05-5201" points="1880,2096 1701,2096 1701,2075 1623,2075 1623,2108 1611,2108 1611,2150 1623,2150 1623,2251 1646,2251 1646,2261 1731,2261 1731,2206 1860,2206 1860,2196 1880,2196 1880,2096" stroke="rgb(none)" stroke-width="0.0" fill="0,0,0" />
<polygon id="05-5208" points="1525,1599 1513,1599 1513,1536 1400,1536 1400,1678 1484,1677 1513,1675 1513,1635 1525,1635 1525,1599" stroke="rgb(none)" stroke-width="0.0" fill="0,0,0" />
<polygon id="05-5203" points="1880,1956 1847,1956 1847,1934 1623,1934 1623,2018 1611,2018 1611,2054 1623,2054 1623,2066 1710,2066 1710,2087 1880,2087 1880,1956" stroke="rgb(none)" stroke-width="0.0" fill="0,0,0" />
<polygon id="05-5206B" points="1513,1756 1460,1756 1460,1744 1400,1744 1400,1846 1460,1846 1460,1834 1513,1834 1513,1756" stroke="rgb(none)" stroke-width="0.0" fill="0,0,0" />
<polygon id="05-5205" points="1817,1823 1778,1823 1778,1835 1769,1835 1767,1718 1765,1709 1729,1709 1729,1718 1623,1720 1611,1722 1611,1754 1623,1754 1623,1851 1647,1851 1647,1874 1623,1874 1623,1925 1817,1925 1817,1823" stroke="rgb(none)" stroke-width="0.0" fill="0,0,0" />
<polygon id="05-5207B" points="1880,1689 1857,1689 1857,1673 1880,1673 1880,1652 1778,1652 1778,1663 1769,1663 1769,1699 1778,1699 1778,1814 1840,1814 1840,1823 1826,1823 1826,1925 1880,1925 1880,1689" stroke="rgb(none)" stroke-width="0.0" fill="0,0,0" />
<polygon id="05-5207A" points="1769,1589 1769,1517 1725,1517 1725,1526 1623,1526 1623,1709 1769,1709 1769,1589" stroke="rgb(none)" stroke-width="0.0" fill="0,0,0" />
<polygon id="05-5207C" points="1880,1526 1778,1526 1778,1553 1769,1553 1769,1589 1778,1589 1778,1643 1880,1643 1880,1526" stroke="rgb(none)" stroke-width="0.0" fill="0,0,0" />
<polygon id="05-5200" points="1611,1467 1611,574 1525,574 1525,890 1448,890 1448,917 1443,917 1443,949 1448,949 1448,953 1525,953 1525,1068 1513,1066 1483,1064 1483,1098 1513,1098 1513,1092 1525,1092 1525,2213 1532,2214 1604,2214 1611,2213 1611,1467" stroke="rgb(none)" stroke-width="0.0" fill="0,0,0" />
<polygon id="05-5214" points="1443,917 1439,917 1439,890 1391,890 1391,619 1337,619 1337,1120 1391,1120 1391,953 1439,951 1443,949 1443,917" stroke="rgb(none)" stroke-width="0.0" fill="0,0,0" />
<polygon id="05-5214E" points="1328,919 1246,919 1246,1030 1328,1028 1337,1026 1337,994 1328,994 1328,919" stroke="rgb(none)" stroke-width="0.0" fill="0,0,0" />
<polygon id="05-5214B" points="1513,1107 1474,1107 1474,1064 1400,1066 1391,1068 1391,1100 1400,1100 1400,1192 1513,1192 1513,1107" stroke="rgb(none)" stroke-width="0.0" fill="0,0,0" />
<polygon id="05-5214C" points="1391,1129 1377,1129 1377,1120 1345,1120 1345,1129 1322,1129 1322,1192 1391,1192 1391,1129" stroke="rgb(none)" stroke-width="0.0" fill="0,0,0" />
<polygon id="05-5214L" points="1513,782 1400,784 1391,786 1391,822 1400,822 1400,881 1513,881 1513,782" stroke="rgb(none)" stroke-width="0.0" fill="0,0,0" />
<polygon id="05-5214G" points="1328,733 1337,733 1337,701 1328,699 1246,697 1246,817 1262,817 1262,826 1328,826 1328,733" stroke="rgb(none)" stroke-width="0.0" fill="0,0,0" />
<polygon id="05-5213A" points="1850,757 1879,757 1879,706 1778,706 1778,757 1818,757 1818,766 1850,766 1850,757" stroke="rgb(none)" stroke-width="0.0" fill="0,0,0" />
<polygon id="05-5221" points="1611,492 1523,492 1523,562 1530,562 1530,574 1568,574 1568,562 1611,562 1611,492" stroke="rgb(none)" stroke-width="0.0" fill="0,0,0" />
<polygon id="05-5223" points="1611,248 1594,248 1566,239 1539,248 1523,248 1523,480 1530,480 1530,492 1568,492 1568,480 1611,480 1611,248" stroke="rgb(none)" stroke-width="0.0" fill="0,0,0" />
<polygon id="05-5600D" points="3794,3669 3875,3669 3875,3501 3794,3501 3794,3669" stroke="rgb(none)" stroke-width="0.0" fill="0,0,0" />
<polygon id="05-5312" points="1505,4498 1525,4498 1525,4462 1505,4462 1505,4450 1412,4450 1412,4378 1252,4378 1252,4542 1259,4542 1259,4548 1485,4548 1485,4542 1505,4542 1505,4498" stroke="rgb(none)" stroke-width="0.0" fill="0,0,0" />
<polygon id="05-5308E" points="1341,4156 1252,4156 1252,4271 1266,4271 1266,4291 1341,4291 1341,4283 1350,4283 1350,4235 1341,4235 1341,4156" stroke="rgb(none)" stroke-width="0.0" fill="0,0,0" />
<polygon id="05-5308G" points="1505,4134 1421,4134 1421,4161 1412,4161 1412,4203 1421,4203 1421,4291 1494,4291 1494,4264 1505,4264 1505,4134" stroke="rgb(none)" stroke-width="0.0" fill="0,0,0" />
<polygon id="05-5308C" points="1341,3886 1252,3886 1252,4006 1269,4006 1269,4020 1341,4020 1341,4016 1350,4016 1350,3968 1341,3968 1341,3886" stroke="rgb(none)" stroke-width="0.0" fill="0,0,0" />
<polygon id="05-5308A" points="1413,3579 1252,3579 1252,3720 1260,3720 1260,3725 1356,3725 1356,3734 1407,3734 1407,3725 1413,3725 1413,3579" stroke="rgb(none)" stroke-width="0.0" fill="0,0,0" />
<polygon id="05-5308" points="1505,3955 1505,3753 1413,3753 1413,3734 1350,3734 1350,4291 1412,4291 1412,4125 1505,4125 1505,4065 1489,4065 1489,4017 1505,4017 1505,3955" stroke="rgb(none)" stroke-width="0.0" fill="0,0,0" />
<polygon id="05-5305" points="1742,3863 1763,3863 1763,3769 1624,3769 1624,3847 1618,3847 1618,3883 1624,3883 1624,3916 1742,3916 1742,3863" stroke="rgb(none)" stroke-width="0.0" fill="0,0,0" />
<polygon id="05-5303C" points="1754,3376 1763,3376 1763,3340 1754,3340 1754,3334 1624,3334 1624,3340 1618,3340 1618,3376 1624,3376 1624,3467 1754,3467 1754,3376" stroke="rgb(none)" stroke-width="0.0" fill="0,0,0" />
<polygon id="05-5303D" points="1754,3476 1624,3476 1624,3565 1618,3565 1618,3601 1624,3601 1624,3607 1754,3607 1754,3601 1763,3601 1763,3565 1754,3565 1754,3476" stroke="rgb(none)" stroke-width="0.0" fill="0,0,0" />
<polygon id="05-5303" points="1886,3246 1763,3246 1763,3648 1886,3648 1886,3443 1850,3443 1850,3427 1886,3427 1886,3246" stroke="rgb(none)" stroke-width="0.0" fill="0,0,0" />
<polygon id="05-5303B" points="1754,3166 1624,3166 1624,3283 1618,3283 1618,3319 1624,3319 1624,3325 1754,3325 1754,3319 1763,3319 1763,3283 1754,3283 1754,3166" stroke="rgb(none)" stroke-width="0.0" fill="0,0,0" />
<polygon id="05-5304" points="1525,3508 1505,3508 1505,3444 1271,3446 1252,3448 1252,3570 1422,3570 1422,3607 1505,3607 1505,3562 1525,3562 1525,3508" stroke="rgb(none)" stroke-width="0.0" fill="0,0,0" />
<polygon id="05-5016E" points="1341,3103 1252,3103 1252,3159 1268,3159 1268,3183 1251,3183 1251,3246 1341,3244 1350,3242 1350,3210 1341,3210 1341,3103" stroke="rgb(none)" stroke-width="0.0" fill="0,0,0" />
<polygon id="05-5016D" points="1341,3024 1350,3024 1350,2992 1341,2990 1252,2988 1252,3094 1341,3094 1341,3024" stroke="rgb(none)" stroke-width="0.0" fill="0,0,0" />
<polygon id="05-5016F" points="1505,3189 1415,3191 1406,3193 1406,3235 1415,3235 1415,3321 1505,3321 1505,3189" stroke="rgb(none)" stroke-width="0.0" fill="0,0,0" />
<polygon id="05-5016G" points="1505,3051 1415,3053 1406,3055 1406,3097 1415,3097 1415,3180 1490,3180 1490,3165 1505,3165 1505,3051" stroke="rgb(none)" stroke-width="0.0" fill="0,0,0" />
<polygon id="05-5303A" points="1886,3182 1845,3182 1845,3166 1763,3166 1765,3237 1767,3246 1803,3246 1803,3237 1886,3237 1886,3182" stroke="rgb(none)" stroke-width="0.0" fill="0,0,0" />
<polygon id="05-5016H" points="1505,2914 1415,2914 1415,2922 1406,2922 1406,2964 1415,2964 1415,3042 1505,3042 1505,2914" stroke="rgb(none)" stroke-width="0.0" fill="0,0,0" />
<polygon id="05-5016C" points="1341,2919 1350,2919 1350,2887 1341,2885 1252,2883 1252,2893 1261,2893 1261,2919 1252,2919 1252,2979 1341,2979 1341,2919" stroke="rgb(none)" stroke-width="0.0" fill="0,0,0" />
<polygon id="05-5016B" points="1350,2778 1341,2776 1195,2774 1218,2793 1237,2816 1248,2844 1252,2874 1341,2874 1341,2814 1350,2814 1350,2778" stroke="rgb(none)" stroke-width="0.0" fill="0,0,0" />
<polygon id="05-5016" points="1350,2643 1288,2643 1288,2656 1266,2656 1266,2643 1191,2643 1191,2765 1350,2765 1350,2643" stroke="rgb(none)" stroke-width="0.0" fill="0,0,0" />
<polygon id="05-5003" points="2008,2776 1996,2776 1996,2763 2053,2706 2053,2418 2045,2418 2045,2409 2008,2409 2008,2420 1982,2420 1982,2548 1898,2548 1898,2897 2083,2897 2083,2854 1996,2854 1996,2836 2008,2836 2008,2776" stroke="rgb(none)" stroke-width="0.0" fill="0,0,0" />
<polygon id="05-5202" points="1513,2062 1460,2062 1460,2050 1513,2050 1513,2002 1245,2002 1245,2197 1258,2198 1353,2200 1513,2199 1513,2182 1525,2182 1525,2140 1513,2140 1513,2062" stroke="rgb(none)" stroke-width="0.0" fill="0,0,0" />
<polygon id="05-5207" points="1880,1336 1869,1336 1869,1316 1880,1316 1880,1203 1769,1203 1769,969 1700,969 1700,1194 1691,1192 1623,1192 1611,1194 1611,1230 1700,1230 1700,1370 1623,1370 1623,1467 1611,1467 1611,1509 1623,1509 1623,1517 1880,1517 1880,1336" stroke="rgb(none)" stroke-width="0.0" fill="0,0,0" />
<polygon id="05-5209" points="1691,1230 1623,1230 1623,1361 1691,1361 1691,1230" stroke="rgb(none)" stroke-width="0.0" fill="0,0,0" />
<polygon id="05-5207F" points="1880,1119 1778,1119 1778,1154 1769,1154 1769,1190 1778,1192 1880,1194 1880,1119" stroke="rgb(none)" stroke-width="0.0" fill="0,0,0" />
<polygon id="05-5207E" points="1879,969 1778,969 1778,1070 1769,1070 1769,1106 1778,1108 1851,1110 1851,1081 1879,1081 1879,969" stroke="rgb(none)" stroke-width="0.0" fill="0,0,0" />
<polygon id="05-5212" points="1525,1332 1513,1332 1513,1294 1246,1294 1246,1372 1260,1372 1260,1379 1513,1379 1513,1364 1525,1364 1525,1332" stroke="rgb(none)" stroke-width="0.0" fill="0,0,0" />
<polygon id="05-5204" points="1525,1877 1513,1877 1513,1871 1507,1871 1507,1853 1513,1853 1513,1846 1400,1846 1400,1864 1245,1864 1245,1927 1268,1927 1268,1956 1246,1956 1246,1971 1245,1990 1391,1990 1391,1948 1400,1948 1400,1990 1513,1990 1513,1919 1525,1919 1525,1877" stroke="rgb(none)" stroke-width="0.0" fill="0,0,0" />
<polygon id="05-5206E" points="1391,1744 1385,1744 1385,1732 1353,1732 1353,1744 1245,1744 1245,1852 1391,1852 1391,1744" stroke="rgb(none)" stroke-width="0.0" fill="0,0,0" />
<polygon id="05-5206" points="1391,1564 1343,1564 1343,1522 1337,1522 1337,1510 1305,1510 1305,1522 1246,1522 1246,1660 1270,1660 1270,1693 1245,1693 1245,1732 1400,1732 1400,1744 1513,1744 1513,1732 1525,1732 1525,1708 1513,1708 1513,1690 1391,1690 1391,1564" stroke="rgb(none)" stroke-width="0.0" fill="0,0,0" />
<polygon id="05-5210" points="1513,1391 1260,1393 1246,1395 1246,1510 1352,1510 1352,1552 1391,1552 1391,1524 1513,1524 1513,1516 1525,1516 1525,1474 1513,1474 1513,1391" stroke="rgb(none)" stroke-width="0.0" fill="0,0,0" />
<polygon id="05-5214D" points="1328,1087 1337,1087 1337,1055 1328,1055 1328,1039 1246,1039 1246,1077 1268,1077 1268,1101 1246,1101 1246,1192 1313,1192 1313,1120 1328,1120 1328,1087" stroke="rgb(none)" stroke-width="0.0" fill="0,0,0" />
<polygon id="05-5214A" points="1513,962 1400,962 1400,1019 1391,1019 1391,1051 1400,1051 1400,1055 1513,1055 1513,962" stroke="rgb(none)" stroke-width="0.0" fill="0,0,0" />
<polygon id="05-5214F" points="1328,835 1262,836 1246,837 1246,910 1328,910 1328,906 1337,906 1337,874 1328,874 1328,835" stroke="rgb(none)" stroke-width="0.0" fill="0,0,0" />
<polygon id="05-5214H" points="1328,568 1259,568 1259,575 1246,575 1246,688 1328,688 1328,655 1337,655 1337,623 1328,623 1328,568" stroke="rgb(none)" stroke-width="0.0" fill="0,0,0" />
<polygon id="05-5214K" points="1513,668 1400,668 1400,733 1391,733 1391,769 1400,771 1513,773 1513,668" stroke="rgb(none)" stroke-width="0.0" fill="0,0,0" />
<polygon id="05-5213" points="1879,575 1861,575 1861,567 1633,567 1633,575 1623,575 1623,717 1611,717 1611,753 1623,753 1623,757 1725,757 1725,762 1761,762 1761,757 1769,757 1769,697 1879,697 1879,575" stroke="rgb(none)" stroke-width="0.0" fill="0,0,0" />
<polygon id="05-5211" points="1879,766 1761,766 1761,762 1725,762 1725,766 1623,766 1623,960 1700,960 1700,969 1769,969 1769,960 1879,960 1879,838 1856,838 1857,819 1879,818 1879,766" stroke="rgb(none)" stroke-width="0.0" fill="0,0,0" />
<polygon id="05-5002" points="2392,2089 2353,2089 2353,2078 2288,2078 2288,2089 2259,2089 2259,2099 2233,2099 2233,2089 2210,2089 2210,2078 2160,2078 2160,2089 2105,2089 2107,2268 2109,2273 2157,2273 2157,2261 2178,2261 2223,2284 2247,2284 2247,2289 2261,2289 2261,2298 2303,2298 2303,2289 2320,2289 2318,2298 2316,2336 2392,2336 2392,2089" stroke="rgb(none)" stroke-width="0.0" fill="0,0,0" />
<polygon id="05-5102" points="2693,2513 2633,2513 2633,2435 2609,2435 2609,2430 2567,2430 2567,2435 2557,2435 2557,2680 2567,2680 2567,2685 2615,2685 2615,2680 2693,2680 2693,2513" stroke="rgb(none)" stroke-width="0.0" fill="0,0,0" />
<polygon id="05-5136" points="2775,2513 2705,2513 2705,2680 2732,2680 2732,2685 2768,2685 2768,2680 2775,2680 2775,2513" stroke="rgb(none)" stroke-width="0.0" fill="0,0,0" />
<polygon id="05-5108A" points="2902,2520 2897,2520 2897,2435 2859,2435 2859,2459 2833,2459 2833,2435 2780,2435 2780,2573 2897,2573 2897,2560 2902,2560 2902,2520" stroke="rgb(none)" stroke-width="0.0" fill="0,0,0" />
<polygon id="05-5108B" points="2902,2578 2780,2578 2780,2680 2833,2680 2833,2656 2859,2656 2859,2685 2902,2685 2902,2578" stroke="rgb(none)" stroke-width="0.0" fill="0,0,0" />
<polygon id="05-5108" points="3155,2462 3119,2462 3119,2430 3035,2430 3034,2462 3033,2430 2978,2430 2978,2471 2973,2471 2973,2435 2902,2435 2902,2685 2946,2685 2947,2653 2949,2685 3033,2685 3034,2653 3035,2685 3119,2685 3119,2653 3155,2653 3155,2462" stroke="rgb(none)" stroke-width="0.0" fill="0,0,0" />
<polygon id="05-5114" points="3273,2435 3267,2435 3267,2430 3232,2430 3232,2435 3160,2435 3160,2555 3273,2555 3273,2435" stroke="rgb(none)" stroke-width="0.0" fill="0,0,0" />
<polygon id="05-5130" points="3273,2560 3160,2560 3160,2680 3229,2680 3229,2685 3267,2685 3267,2680 3273,2680 3273,2560" stroke="rgb(none)" stroke-width="0.0" fill="0,0,0" />
<polygon id="05-5118" points="3466,2535 3461,2535 3461,2465 3356,2465 3356,2579 3461,2579 3461,2570 3466,2570 3466,2535" stroke="rgb(none)" stroke-width="0.0" fill="0,0,0" />
<polygon id="05-5123" points="3767,2788 3634,2788 3634,2783 3599,2783 3599,2788 3595,2788 3595,2859 3515,2859 3515,2901 3582,2901 3582,3025 3735,3025 3735,3019 3767,3019 3767,2788" stroke="rgb(none)" stroke-width="0.0" fill="0,0,0" />
<polygon id="05-5607" points="4613,3628 4613,3599 4510,3599 4510,3715 4543,3715 4543,3720 4582,3720 4582,3715 4625,3715 4625,3681 4613,3681 4613,3628" stroke="rgb(none)" stroke-width="0.0" fill="0,0,0" />
<polygon id="05-5105" points="2693,2090 2560,2090 2560,2099 2548,2099 2548,2336 2554,2336 2554,2341 2590,2341 2590,2336 2619,2336 2619,2274 2592,2274 2592,2269 2693,2269 2693,2090" stroke="rgb(none)" stroke-width="0.0" fill="0,0,0" />
<polygon id="05-5107" points="2841,2098 2830,2098 2830,2090 2698,2090 2698,2269 2796,2269 2796,2274 2772,2274 2772,2336 2800,2336 2800,2341 2836,2341 2836,2336 2841,2336 2841,2098" stroke="rgb(none)" stroke-width="0.0" fill="0,0,0" />
<polygon id="05-5109" points="2988,2090 2860,2090 2860,2098 2846,2098 2846,2336 2852,2336 2852,2341 2888,2341 2888,2336 2914,2336 2914,2274 2887,2274 2887,2269 2988,2269 2988,2090" stroke="rgb(none)" stroke-width="0.0" fill="0,0,0" />
<polygon id="05-5111" points="3143,2098 3129,2098 3129,2090 2993,2090 2993,2269 3091,2269 3091,2274 3060,2274 3060,2336 3097,2336 3097,2341 3134,2341 3134,2336 3143,2336 3143,2098" stroke="rgb(none)" stroke-width="0.0" fill="0,0,0" />
<polygon id="05-5113" points="3289,2090 3160,2090 3160,2098 3148,2098 3148,2336 3154,2336 3154,2341 3190,2341 3190,2336 3214,2336 3214,2274 3187,2274 3187,2269 3289,2269 3289,2090" stroke="rgb(none)" stroke-width="0.0" fill="0,0,0" />
<polygon id="05-5115" points="3443,2098 3431,2098 3431,2090 3294,2090 3294,2269 3391,2269 3391,2274 3367,2274 3367,2336 3404,2336 3404,2341 3440,2341 3442,2336 3443,2098" stroke="rgb(none)" stroke-width="0.0" fill="0,0,0" />
<polygon id="05-5117" points="3583,2090 3461,2090 3461,2098 3448,2098 3450,2336 3452,2341 3488,2341 3488,2336 3510,2336 3510,2274 3484,2274 3484,2269 3583,2269 3583,2090" stroke="rgb(none)" stroke-width="0.0" fill="0,0,0" />
<polygon id="05-5119" points="3738,2090 3588,2090 3588,2269 3683,2269 3683,2274 3653,2274 3653,2336 3695,2336 3695,2341 3732,2341 3732,2336 3738,2336 3738,2090" stroke="rgb(none)" stroke-width="0.0" fill="0,0,0" />
<polygon id="05-5125" points="3577,2906 3568,2906 3568,2901 3527,2901 3527,2906 3510,2906 3510,2859 3486,2859 3486,2854 3516,2854 3516,2788 3491,2788 3491,2783 3456,2783 3456,2788 3448,2788 3448,3019 3457,3019 3457,3025 3577,3025 3577,2906" stroke="rgb(none)" stroke-width="0.0" fill="0,0,0" />
<polygon id="05-5127" points="3443,2788 3426,2788 3426,2783 3391,2783 3391,2788 3361,2788 3361,2854 3391,2854 3391,2859 3293,2859 3293,3025 3435,3025 3435,3019 3443,3019 3443,2788" stroke="rgb(none)" stroke-width="0.0" fill="0,0,0" />
<polygon id="05-5129" points="3288,2859 3189,2859 3189,2854 3236,2854 3236,2788 3196,2788 3196,2783 3161,2783 3161,2788 3150,2788 3149,2859 3148,3018 3158,3018 3158,3025 3288,3025 3288,2859" stroke="rgb(none)" stroke-width="0.0" fill="0,0,0" />
<polygon id="05-5133" points="2923,2788 2889,2788 2889,2783 2854,2783 2854,2788 2847,2788 2847,3014 2860,3014 2860,3025 2988,3025 2988,2859 2887,2859 2887,2854 2923,2854 2923,2788" stroke="rgb(none)" stroke-width="0.0" fill="0,0,0" />
<polygon id="05-5135" points="2842,2788 2835,2788 2835,2783 2800,2783 2800,2788 2765,2788 2765,2854 2794,2854 2794,2859 2695,2859 2695,3025 2832,3025 2832,3014 2842,3014 2842,2788" stroke="rgb(none)" stroke-width="0.0" fill="0,0,0" />
<polygon id="05-5137" points="2690,2859 2596,2859 2596,2854 2632,2854 2632,2788 2594,2788 2594,2783 2559,2783 2559,2788 2550,2788 2550,3014 2562,3014 2562,3025 2690,3025 2690,2859" stroke="rgb(none)" stroke-width="0.0" fill="0,0,0" />
<polygon id="05-5012" points="1520,2355 1340,2355 1340,2473 1400,2473 1400,2478 1436,2478 1436,2473 1520,2473 1520,2424 1506,2424 1506,2404 1520,2404 1520,2355" stroke="rgb(none)" stroke-width="0.0" fill="0,0,0" />
<polygon id="05-5016I" points="1525,3338 1505,3338 1505,3330 1406,3330 1406,3255 1251,3255 1251,3423 1271,3423 1271,3435 1489,3435 1489,3399 1505,3399 1505,3392 1525,3392 1525,3338" stroke="rgb(none)" stroke-width="0.0" fill="0,0,0" />
<polygon id="05-5214J" points="1513,582 1513,574 1484,574 1484,568 1337,568 1337,610 1400,610 1400,623 1391,623 1391,655 1400,655 1400,659 1513,659 1513,582" stroke="rgb(none)" stroke-width="0.0" fill="0,0,0" />
<polygon id="05-5207D" points="1691,1013 1700,1013 1700,977 1691,977 1691,969 1623,969 1623,1181 1691,1181 1691,1013" stroke="rgb(none)" stroke-width="0.0" fill="0,0,0" />
<polygon id="05-5212A" points="1513,1204 1246,1204 1246,1289 1448,1289 1448,1294 1480,1294 1480,1289 1513,1289 1513,1204" stroke="rgb(none)" stroke-width="0.0" fill="0,0,0" />
<polygon id="05-5668" points="4657,4737 4656,4642 4655,4637 4609,4637 4609,4642 4573,4642 4573,4814 4567,4816 4657,4818 4657,4737" stroke="rgb(none)" stroke-width="0.0" fill="0,0,0" />
<polygon id="05-5651" points="4069,3871 4066,3821 4033,3821 4033,3847 3995,3846 3915,3845 3915,3828 3910,3828 3911,3994 3912,3989 4035,3989 4035,3993 4069,3993 4069,3871" stroke="rgb(none)" stroke-width="0.0" fill="0,0,0" />
<polygon id="05-5652" points="4336,3913 4175,3914 4170,3915 4170,3955 4175,3955 4175,4110 4180,4110 4180,4136 4336,4136 4336,3913" stroke="rgb(none)" stroke-width="0.0" fill="0,0,0" />
<polygon id="05-5608" points="4604,3821 4555,3821 4555,3816 4515,3816 4514,3821 4512,3843 4463,3843 4463,3989 4604,3989 4604,3821" stroke="rgb(none)" stroke-width="0.0" fill="0,0,0" />
<polygon id="05-5654" points="4458,4013 4341,4013 4341,4172 4398,4172 4398,4177 4444,4177 4444,4172 4458,4172 4458,4013" stroke="rgb(none)" stroke-width="0.0" fill="0,0,0" />
<polygon id="05-5674" points="4741,3944 4669,3944 4669,3939 4703,3939 4703,3821 4609,3821 4609,4172 4661,4172 4661,4177 4701,4177 4702,4172 4703,4136 4741,4136 4741,3944" stroke="rgb(none)" stroke-width="0.0" fill="0,0,0" />
<polygon id="05-5670C" points="4695,4337 4700,4337 4700,4254 4609,4254 4609,4414 4695,4414 4695,4337" stroke="rgb(none)" stroke-width="0.0" fill="0,0,0" />
<polygon id="05-5656" points="4604,4345 4609,4345 4609,4299 4604,4298 4444,4297 4444,4254 4413,4254 4413,4249 4367,4249 4366,4254 4365,4414 4604,4414 4604,4345" stroke="rgb(none)" stroke-width="0.0" fill="0,0,0" />
<polygon id="05-5664" points="4484,4449 4516,4449 4516,4419 4365,4419 4365,4535 4445,4535 4445,4540 4485,4540 4485,4535 4516,4535 4516,4491 4484,4491 4484,4449" stroke="rgb(none)" stroke-width="0.0" fill="0,0,0" />
<polygon id="05-5666" points="4695,4419 4521,4419 4521,4535 4647,4535 4647,4540 4693,4540 4694,4535 4695,4419" stroke="rgb(none)" stroke-width="0.0" fill="0,0,0" />
<polygon id="05-5650A" points="4360,4249 4444,4249 4444,4177 4336,4177 4336,4149 4293,4149 4293,4177 4265,4177 4265,4141 4170,4141 4170,4540 4290,4540 4290,4491 4265,4491 4265,4463 4290,4463 4290,4391 4360,4391 4360,4249" stroke="rgb(none)" stroke-width="0.0" fill="0,0,0" />
<polygon id="05-5662" points="4360,4395 4295,4395 4295,4533 4318,4533 4318,4540 4358,4540 4359,4533 4360,4395" stroke="rgb(none)" stroke-width="0.0" fill="0,0,0" />
<polygon id="05-5670A" points="4827,4141 4731,4141 4731,4177 4644,4177 4645,4228 4645,4249 4700,4249 4700,4463 4736,4463 4736,4540 4827,4540 4827,4141" stroke="rgb(none)" stroke-width="0.0" fill="0,0,0" />
<polygon id="05-5660" points="4827,4540 4485,4540 4170,4540 4170,4637 4417,4637 4417,4641 4451,4640 4516,4640 4546,4641 4546,4636 4551,4636 4736,4639 4827,4640 4827,4540" stroke="rgb(none)" stroke-width="0.0" fill="0,0,0" />
<polygon id="05-5650" points="4169,4170 4169,4153 4170,4141 4169,4118 4170,3955 4168,3868 4075,3869 4073,4140 4035,4140 4035,4167 4073,4167 4073,4464 4035,4464 4035,4491 4073,4491 4073,4637 4170,4637 4169,4170" stroke="rgb(none)" stroke-width="0.0" fill="0,0,0" />
<polygon id="05-5653" points="4069,3995 4035,3995 4035,3999 4011,3999 4011,3994 3960,3994 3960,3999 3912,3999 3911,3994 3911,4157 3912,4142 3917,4142 3917,4159 3992,4159 3992,4136 4035,4137 4069,4139 4069,3995" stroke="rgb(none)" stroke-width="0.0" fill="0,0,0" />
<polygon id="05-5655" points="4069,4169 4035,4170 3912,4172 3911,4157 3911,4318 3912,4313 4035,4313 4035,4317 4069,4317 4069,4169" stroke="rgb(none)" stroke-width="0.0" fill="0,0,0" />
<polygon id="05-5657" points="4069,4319 4035,4319 4035,4323 4011,4323 4011,4318 3960,4318 3960,4323 3912,4323 3911,4318 3911,4481 3912,4466 3917,4466 3917,4483 3992,4483 3992,4460 4035,4461 4069,4463 4069,4319" stroke="rgb(none)" stroke-width="0.0" fill="0,0,0" />
<polygon id="05-5659" points="4069,4493 4035,4494 3912,4496 3911,4481 3911,4641 3912,4636 3997,4636 4069,4637 4069,4493" stroke="rgb(none)" stroke-width="0.0" fill="0,0,0" />
<polygon id="05-5661" points="4119,4675 4120,4644 3997,4645 3912,4646 3911,4641 3910,4818 4001,4816 3938,4814 3938,4787 4035,4787 4035,4814 4024,4816 4123,4816 4119,4814 4119,4675" stroke="rgb(none)" stroke-width="0.0" fill="0,0,0" />
<polygon id="05-5663" points="4265,4675 4267,4641 4122,4641 4123,4675 4126,4765 4127,4814 4123,4816 4260,4818 4260,4781 4265,4781 4265,4675" stroke="rgb(none)" stroke-width="0.0" fill="0,0,0" />
<polygon id="05-5665" points="4413,4663 4414,4640 4331,4638 4269,4637 4269,4641 4269,4675 4270,4777 4298,4777 4300,4781 4302,4818 4414,4816 4409,4814 4411,4765 4413,4663" stroke="rgb(none)" stroke-width="0.0" fill="0,0,0" />
<polygon id="05-5667" points="4566,4642 4546,4641 4416,4641 4417,4663 4418,4814 4414,4816 4486,4816 4484,4787 4512,4787 4511,4816 4567,4816 4560,4814 4560,4809 4566,4807 4573,4806 4573,4766 4566,4766 4566,4642" stroke="rgb(none)" stroke-width="0.0" fill="0,0,0" />
<polygon id="05-5669" points="4822,4642 4736,4644 4662,4646 4662,4737 4657,4737 4657,4777 4662,4777 4662,4818 4704,4818 4704,4787 4816,4787 4816,4771 4822,4771 4822,4642" stroke="rgb(none)" stroke-width="0.0" fill="0,0,0" />
<polygon id="05-5681" points="5089,4641 5084,4641 5084,4645 4962,4644 4928,4642 4928,4771 4934,4771 4934,4787 5061,4787 5060,4818 5089,4818 5089,4641" stroke="rgb(none)" stroke-width="0.0" fill="0,0,0" />
<polygon id="05-5679" points="5089,4481 5084,4481 5084,4496 4962,4494 4928,4493 4928,4640 4962,4638 5084,4637 5084,4641 5089,4641 5089,4481" stroke="rgb(none)" stroke-width="0.0" fill="0,0,0" />
<polygon id="05-5677" points="5089,4318 5084,4318 5084,4323 5037,4323 5037,4318 4986,4318 4986,4323 4962,4323 4962,4319 4928,4319 4928,4463 4962,4461 5005,4460 5005,4483 5079,4483 5079,4466 5084,4466 5084,4481 5089,4481 5089,4318" stroke="rgb(none)" stroke-width="0.0" fill="0,0,0" />
<polygon id="05-5675" points="5089,4157 5084,4157 5084,4172 4962,4170 4928,4169 4928,4317 4962,4317 4962,4313 5084,4313 5084,4318 5089,4318 5089,4157" stroke="rgb(none)" stroke-width="0.0" fill="0,0,0" />
<polygon id="05-5673" points="5089,3994 5084,3994 5084,3999 5037,3999 5037,3994 4986,3994 4986,3999 4962,3999 4962,3995 4928,3995 4928,4139 4962,4137 5005,4136 5005,4159 5079,4159 5079,4141 5084,4141 5084,4157 5089,4157 5089,3994" stroke="rgb(none)" stroke-width="0.0" fill="0,0,0" />
<polygon id="05-5671" points="5089,3847 4960,3847 4960,3821 4931,3821 4929,3869 4928,3993 4962,3993 4962,3989 5084,3989 5084,3994 5089,3994 5089,3847" stroke="rgb(none)" stroke-width="0.0" fill="0,0,0" />
<polygon id="05-5700" points="5097,3817 5097,3841 5126,3841 5126,3817 5150,3817 5150,3841 5348,3841 5348,3817 5372,3817 5372,3841 5560,3841 5560,3817 5584,3817 5584,3841 5613,3841 5613,3828 5619,3828 5619,3836 5646,3836 5646,3828 5697,3828 5697,3817 5767,3818 5768,3825 5816,3825 5817,3818 5866,3819 5877,3820 5877,3718 5824,3720 5816,3721 5816,3715 5768,3715 5768,3721 5697,3721 5697,3710 5646,3710 5646,3702 5619,3702 5619,3710 5613,3710 5613,3697 5584,3697 5584,3721 5560,3721 5560,3697 5372,3697 5372,3721 5348,3721 5348,3697 5150,3697 5150,3721 5126,3721 5126,3697 5090,3697 5090,3721 5066,3721 5066,3697 5007,3697 5007,3718 4991,3720 4991,3815 4996,3817 5097,3817" stroke="rgb(none)" stroke-width="0.0" fill="0,0,0" />
<polygon id="05-5705" points="6093,3660 6012,3660 6012,3716 6093,3716 6093,3660" stroke="rgb(none)" stroke-width="0.0" fill="0,0,0" />
<polygon id="05-5708" points="7183,3823 7108,3823 7108,3919 7183,3919 7183,3823" stroke="rgb(none)" stroke-width="0.0" fill="0,0,0" />
<polygon id="05-5718" points="7475,3841 7471,3822 7401,3822 7401,3837 7207,3839 7203,3841 7205,3961 7207,3965 7405,3965 7405,3970 7453,3970 7453,3965 7469,3965 7469,3959 7475,3959 7475,3841" stroke="rgb(none)" stroke-width="0.0" fill="0,0,0" />
<polygon id="05-5742" points="6942,3425 6836,3425 6838,3547 6839,3679 6942,3679 6942,3662 6942,3425" stroke="rgb(none)" stroke-width="0.0" fill="0,0,0" />
<polygon id="05-5713" points="6725,3547 6727,3425 6587,3425 6587,3563 6609,3563 6609,3679 6727,3679 6726,3616 6725,3547" stroke="rgb(none)" stroke-width="0.0" fill="0,0,0" />
<polygon id="05-5711" points="6604,3568 6444,3568 6445,3648 6447,3679 6507,3679 6507,3698 6604,3698 6604,3568" stroke="rgb(none)" stroke-width="0.0" fill="0,0,0" />
<polygon id="05-5709" points="6465,3463 6443,3463 6443,3401 6319,3401 6319,3535 6379,3535 6379,3563 6421,3563 6421,3568 6439,3569 6444,3569 6465,3568 6465,3463" stroke="rgb(none)" stroke-width="0.0" fill="0,0,0" />
<polygon id="05-5700A" points="5897,3716 5897,3721 5883,3720 5877,3718 5877,3820 5925,3819 5932,3817 5932,3823 5968,3823 5968,3817 6020,3817 6020,3841 6693,3841 6693,3817 6930,3817 6930,3823 6966,3823 6966,3817 7143,3817 7143,3823 7179,3823 7179,3817 7419,3817 7419,3822 7467,3822 7467,3817 7503,3817 7503,3847 7686,3847 7686,3721 7600,3721 7600,3703 7610,3707 7605,3653 7600,3650 7505,3650 7499,3653 7499,3703 7504,3703 7504,3721 7443,3721 7443,3687 7235,3687 7235,3721 7177,3721 7177,3702 7182,3702 7182,3653 7177,3652 7082,3652 7076,3653 7076,3701 7081,3701 7081,3721 6830,3721 6832,3611 6834,3564 6830,3562 6733,3562 6730,3564 6732,3611 6733,3627 6727,3627 6727,3675 6733,3675 6733,3721 6439,3721 6439,3608 6444,3608 6444,3572 6439,3570 6419,3568 6419,3563 6383,3563 6381,3568 6379,3582 6374,3582 6374,3618 6379,3618 6379,3721 6089,3721 6089,3716 6053,3716 6053,3721 5933,3721 5933,3716 5897,3716" stroke="rgb(none)" stroke-width="0.0" fill="0,0,0" />
<polygon id="05-5794" points="7873,3275 7816,3275 7816,3387 7873,3387 7873,3275" stroke="rgb(none)" stroke-width="0.0" fill="0,0,0" />
<polygon id="05-5730F" points="7789,3542 7658,3542 7658,3572 7650,3572 7650,3632 7658,3632 7658,3655 7789,3655 7789,3542" stroke="rgb(none)" stroke-width="0.0" fill="0,0,0" />
<polygon id="05-5730E" points="7789,3422 7658,3422 7658,3452 7650,3452 7650,3512 7658,3512 7658,3534 7789,3534 7789,3422" stroke="rgb(none)" stroke-width="0.0" fill="0,0,0" />
<polygon id="05-5730D" points="7802,3279 7658,3279 7658,3310 7650,3310 7650,3382 7658,3382 7658,3404 7802,3404 7802,3279" stroke="rgb(none)" stroke-width="0.0" fill="0,0,0" />
<polygon id="05-5730" points="7650,3382 7650,3278 7602,3277 7530,3277 7482,3278 7482,3320 7466,3320 7466,3384 7482,3384 7482,3450 7466,3450 7466,3514 7482,3514 7482,3570 7466,3570 7466,3634 7482,3634 7482,3648 7503,3648 7602,3648 7650,3648 7650,3382" stroke="rgb(none)" stroke-width="0.0" fill="0,0,0" />
<polygon id="05-5730A" points="7466,3572 7458,3572 7458,3542 7327,3542 7327,3655 7458,3655 7458,3632 7466,3632 7466,3572" stroke="rgb(none)" stroke-width="0.0" fill="0,0,0" />
<polygon id="05-5730B" points="7466,3453 7458,3453 7458,3422 7327,3422 7327,3534 7458,3534 7458,3512 7466,3512 7466,3453" stroke="rgb(none)" stroke-width="0.0" fill="0,0,0" />
<polygon id="05-5730C" points="7466,3323 7458,3323 7458,3291 7327,3291 7327,3404 7458,3404 7458,3381 7466,3381 7466,3323" stroke="rgb(none)" stroke-width="0.0" fill="0,0,0" />
<polygon id="05-5720F" points="7316,3542 7220,3542 7220,3574 7208,3574 7208,3622 7220,3622 7220,3655 7316,3655 7316,3542" stroke="rgb(none)" stroke-width="0.0" fill="0,0,0" />
<polygon id="05-5720E" points="7316,3422 7220,3422 7220,3453 7208,3454 7208,3502 7220,3503 7220,3534 7316,3534 7316,3422" stroke="rgb(none)" stroke-width="0.0" fill="0,0,0" />
<polygon id="05-5720D" points="7316,3291 7220,3291 7220,3324 7208,3324 7208,3372 7220,3372 7220,3404 7316,3404 7316,3291" stroke="rgb(none)" stroke-width="0.0" fill="0,0,0" />
<polygon id="05-5720" points="7082,3281 7061,3281 7059,3322 7059,3374 7061,3386 7052,3386 7052,3440 7061,3440 7059,3452 7059,3504 7061,3515 7052,3515 7052,3561 7061,3561 7059,3572 7059,3624 7061,3648 7082,3650 7177,3650 7196,3648 7196,3624 7208,3624 7208,3572 7196,3572 7196,3504 7208,3504 7208,3452 7196,3452 7196,3374 7208,3374 7208,3322 7196,3322 7196,3281 7175,3280 7082,3281" stroke="rgb(none)" stroke-width="0.0" fill="0,0,0" />
<polygon id="05-5720A" points="7057,3574 7045,3574 7045,3542 6949,3542 6949,3655 7045,3655 7045,3622 7057,3622 7057,3574" stroke="rgb(none)" stroke-width="0.0" fill="0,0,0" />
<polygon id="05-5720B" points="7057,3454 7045,3453 7045,3422 6949,3422 6949,3534 7045,3534 7045,3503 7057,3502 7057,3454" stroke="rgb(none)" stroke-width="0.0" fill="0,0,0" />
<polygon id="05-5720C" points="7057,3324 7045,3324 7045,3291 6949,3291 6949,3404 7045,3404 7045,3372 7057,3372 7057,3324" stroke="rgb(none)" stroke-width="0.0" fill="0,0,0" />
<polygon id="05-5825" points="8694,1986 8649,2199 8642,2198 8631,2249 8638,2251 8759,2278 8761,2275 8767,2257 8772,2258 8782,2211 8777,2210 8816,2016 8815,2012 8694,1986" stroke="rgb(none)" stroke-width="0.0" fill="0,0,0" />
<polygon id="05-5752A" points="7047,2574 6867,2574 6867,2672 6933,2672 6933,2677 6969,2677 6969,2672 7047,2672 7047,2574" stroke="rgb(none)" stroke-width="0.0" fill="0,0,0" />
<polygon id="05-5752B" points="7223,2573 7220,2569 7172,2570 7052,2572 7052,2672 7220,2672 7222,2609 7223,2573" stroke="rgb(none)" stroke-width="0.0" fill="0,0,0" />
<polygon id="05-5772" points="7459,2202 7459,2337 7663,2337 7663,2202 7459,2202" stroke="rgb(none)" stroke-width="0.0" fill="0,0,0" />
<polygon id="05-5771" points="7352,2397 7352,2327 7205,2327 7205,2550 7352,2550 7352,2397" stroke="rgb(none)" stroke-width="0.0" fill="0,0,0" />
<polygon id="05-5771A" points="7197,2445 7030,2445 7030,2560 7197,2560 7197,2530 7205,2530 7205,2470 7197,2470 7197,2445" stroke="rgb(none)" stroke-width="0.0" fill="0,0,0" />
<polygon id="05-5771B" points="7205,2351 7197,2351 7197,2330 7030,2330 7030,2436 7197,2436 7197,2411 7205,2411 7205,2351" stroke="rgb(none)" stroke-width="0.0" fill="0,0,0" />
<polygon id="05-5759" points="6728,1841 6682,1841 6682,1853 6626,1853 6626,1841 6504,1841 6504,1853 6408,1853 6407,1847 6367,1847 6327,1847 6288,1847 6288,1853 6270,1853 6270,1877 6263,1877 6263,1981 6289,1981 6289,1986 6263,1986 6263,2070 6289,2070 6289,2075 6263,2075 6263,2141 6263,2178 6263,2202 6270,2202 6270,2232 6286,2234 6384,2234 6432,2232 6432,2202 6542,2203 6638,2203 6728,2202 6728,2158 6721,2158 6721,2075 6692,2075 6692,1981 6728,1981 6728,1841" stroke="rgb(none)" stroke-width="0.0" fill="0,0,0" />
<polygon id="05-5740A" points="6975,3176 6974,3172 6927,3172 6922,3172 6854,3170 6842,3170 6830,3170 6828,2829 6735,2828 6731,2876 6735,2878 6733,2909 6728,2909 6728,2945 6733,2945 6733,2959 6728,2959 6728,2995 6733,2995 6733,3035 6733,3219 6728,3219 6728,3255 6733,3255 6733,3429 6727,3429 6727,3465 6733,3465 6731,3552 6732,3559 6832,3559 6832,3552 6830,3469 6836,3469 6836,3433 6830,3433 6830,3270 6899,3270 6899,3275 6935,3275 6935,3270 6973,3270 6974,3266 6975,3176" stroke="rgb(none)" stroke-width="0.0" fill="0,0,0" />
<polygon id="05-5745" points="6656,3293 6675,3274 6728,3274 6728,3214 6640,3214 6590,3264 6563,3237 6471,3237 6471,3263 6456,3263 6456,3385 6471,3385 6471,3417 6613,3417 6613,3336 6656,3293" stroke="rgb(none)" stroke-width="0.0" fill="0,0,0" />
<polygon id="05-5747" points="6636,3009 6728,3009 6728,2955 6598,2955 6598,2982 6593,2982 6593,2955 6533,2955 6533,2982 6528,2982 6528,2955 6456,2955 6456,2989 6471,2989 6471,3045 6456,3045 6456,3109 6587,3109 6587,3047 6636,3047 6636,3009" stroke="rgb(none)" stroke-width="0.0" fill="0,0,0" />
<polygon id="05-5749" points="6728,2889 6726,2817 6471,2817 6471,2868 6456,2868 6456,2950 6728,2950 6728,2889" stroke="rgb(none)" stroke-width="0.0" fill="0,0,0" />
<polygon id="05-5753" points="6728,2704 6456,2704 6456,2771 6471,2771 6471,2812 6728,2812 6728,2704" stroke="rgb(none)" stroke-width="0.0" fill="0,0,0" />
<polygon id="05-5753A" points="6728,2645 6618,2641 6618,2573 6456,2573 6456,2593 6471,2593 6471,2649 6456,2649 6456,2699 6728,2699 6728,2645" stroke="rgb(none)" stroke-width="0.0" fill="0,0,0" />
<polygon id="05-5747A" points="6728,3014 6681,3014 6681,3009 6645,3009 6643,3014 6641,3052 6592,3052 6592,3101 6728,3101 6728,3014" stroke="rgb(none)" stroke-width="0.0" fill="0,0,0" />
<polygon id="05-5745C" points="6728,3123 6592,3123 6592,3172 6641,3172 6643,3209 6645,3214 6681,3214 6681,3209 6728,3209 6728,3123" stroke="rgb(none)" stroke-width="0.0" fill="0,0,0" />
<polygon id="05-5783" points="7873,2342 7631,2342 7630,2460 7630,2508 7631,2672 7837,2672 7837,2608 7827,2608 7827,2502 7873,2502 7873,2342" stroke="rgb(none)" stroke-width="0.0" fill="0,0,0" />
<polygon id="05-5811" points="7873,2237 7851,2237 7851,2202 7667,2202 7667,2337 7873,2337 7873,2237" stroke="rgb(none)" stroke-width="0.0" fill="0,0,0" />
<polygon id="05-5818" points="7866,1880 7844,1880 7844,1775 7838,1774 7717,1771 7689,1771 7670,1771 7619,1771 7495,1774 7494,1899 7494,1935 7495,2095 7550,2095 7550,2088 7625,2088 7633,2088 7633,2059 7727,2059 7727,2088 7735,2088 7809,2088 7809,2095 7864,2095 7865,1952 7866,1880" stroke="rgb(none)" stroke-width="0.0" fill="0,0,0" />
<polygon id="05-5767" points="7341,1853 7121,1853 7121,2059 7193,2059 7193,1988 7341,1988 7341,1853" stroke="rgb(none)" stroke-width="0.0" fill="0,0,0" />
<polygon id="05-5765" points="7116,1853 6900,1853 6900,1997 7044,1997 7044,2059 7116,2059 7116,1853" stroke="rgb(none)" stroke-width="0.0" fill="0,0,0" />
<polygon id="05-5761" points="6895,1853 6804,1853 6804,1841 6733,1841 6733,1981 6895,1981 6895,1853" stroke="rgb(none)" stroke-width="0.0" fill="0,0,0" />
<polygon id="05-5756" points="7020,2366 6835,2366 6835,2440 6871,2440 6871,2445 6835,2445 6835,2569 7020,2569 7020,2366" stroke="rgb(none)" stroke-width="0.0" fill="0,0,0" />
<polygon id="05-5758" points="7020,2202 6864,2202 6864,2237 6835,2237 6835,2361 7020,2361 7020,2202" stroke="rgb(none)" stroke-width="0.0" fill="0,0,0" />
<polygon id="05-5766" points="7263,2237 7196,2237 7196,2202 7025,2202 7025,2317 7263,2317 7263,2237" stroke="rgb(none)" stroke-width="0.0" fill="0,0,0" />
<polygon id="05-5774" points="7626,2342 7459,2342 7459,2511 7627,2509 7628,2460 7626,2342" stroke="rgb(none)" stroke-width="0.0" fill="0,0,0" />
<polygon id="05-5776" points="7626,2516 7459,2516 7459,2604 7487,2604 7487,2672 7626,2672 7626,2516" stroke="rgb(none)" stroke-width="0.0" fill="0,0,0" />
<polygon id="05-5752" points="7352,2779 7315,2779 7315,2677 7245,2677 7245,2751 7248,2777 7244,2803 7233,2827 7216,2847 7194,2861 7168,2868 7142,2867 7117,2860 7095,2845 7078,2825 7068,2801 7064,2775 7064,2762 6990,2762 6990,2677 6872,2677 6872,2779 6835,2779 6835,2990 6919,2990 6919,2953 7054,2953 7054,2948 7066,2948 7066,3111 7079,3111 7077,3116 7076,3165 7182,3165 7180,3116 7179,3111 7191,3111 7191,2948 7203,2948 7203,2953 7352,2953 7352,2779" stroke="rgb(none)" stroke-width="0.0" fill="0,0,0" />
<polygon id="05-5746" points="7061,2958 6924,2958 6924,3165 7025,3165 7025,3157 7030,3157 7030,3165 7051,3165 7051,3107 7030,3109 7025,3110 7025,3102 7061,3101 7066,3099 7066,3063 7061,3063 7061,2958" stroke="rgb(none)" stroke-width="0.0" fill="0,0,0" />
<polygon id="05-5748" points="7352,3024 7232,3024 7232,3060 7196,3062 7191,3063 7191,3099 7196,3099 7196,3165 7328,3165 7328,3148 7352,3148 7352,3024" stroke="rgb(none)" stroke-width="0.0" fill="0,0,0" />
<polygon id="05-5782" points="7758,2779 7560,2779 7560,3028 7758,3028 7758,2779" stroke="rgb(none)" stroke-width="0.0" fill="0,0,0" />
<polygon id="05-5791" points="7685,3033 7459,3033 7459,3165 7659,3165 7659,3129 7685,3129 7685,3033" stroke="rgb(none)" stroke-width="0.0" fill="0,0,0" />
<polygon id="05-5803A" points="7717,3143 7748,3143 7748,3165 7872,3165 7872,3140 7872,3092 7872,3033 7692,3033 7692,3129 7717,3129 7717,3143" stroke="rgb(none)" stroke-width="0.0" fill="0,0,0" />
<polygon id="05-5796" points="8060,3383 7885,3383 7885,3435 7872,3435 7872,3679 7903,3679 7903,3714 7878,3714 7878,3754 7912,3757 7922,3758 7932,3759 7942,3759 7950,3759 7957,3760 7965,3760 7971,3760 7978,3760 7984,3760 7991,3760 7997,3760 8003,3760 8009,3760 8015,3760 8020,3759 8026,3759 8032,3759 8038,3759 8044,3758 8050,3758 8056,3758 8062,3757 8067,3757 8073,3756 8079,3756 8085,3755 8091,3755 8097,3754 8103,3753 8109,3753 8114,3752 8120,3751 8126,3750 8132,3749 8138,3749 8144,3748 8149,3747 8155,3746 8161,3745 8167,3744 8173,3743 8179,3741 8186,3740 8193,3739 8200,3737 8207,3735 8214,3734 8222,3732 8228,3731 8239,3728 8243,3727 8241,3709 8229,3709 8229,3677 8247,3677 8247,3611 8247,3489 8247,3383 8060,3383" stroke="rgb(none)" stroke-width="0.0" fill="0,0,0" />
<polygon id="05-5824" points="8544,1907 8460,1889 8454,1914 8450,1913 8462,1853 8344,1830 8340,1853 8325,1853 8325,1823 8283,1823 8283,1853 8234,1853 8234,1973 8277,1973 8277,2021 8234,2021 8234,2095 8306,2095 8407,2116 8429,2011 8519,2029 8527,1992 8544,1907" stroke="rgb(none)" stroke-width="0.0" fill="0,0,0" />
<polygon id="05-5824B" points="8684,1982 8670,1979 8685,1905 8674,1903 8556,1873 8530,1993 8522,2028 8501,2136 8645,2167 8684,1982" stroke="rgb(none)" stroke-width="0.0" fill="0,0,0" />
<polygon id="05-5818A" points="7490,1935 7491,1899 7490,1853 7346,1853 7346,2095 7490,2095 7490,1935" stroke="rgb(none)" stroke-width="0.0" fill="0,0,0" />
<polygon id="05-5778" points="7555,2779 7459,2779 7459,2904 7486,2904 7486,2909 7459,2909 7459,3005 7484,3005 7484,3028 7555,3028 7555,2779" stroke="rgb(none)" stroke-width="0.0" fill="0,0,0" />
<polygon id="05-5802" points="8247,2909 8166,2908 7980,2909 7980,3025 8166,3026 8246,3026 8247,2909" stroke="rgb(none)" stroke-width="0.0" fill="0,0,0" />
<polygon id="05-5746B" points="6919,3083 6924,3083 6924,3047 6919,3047 6919,2995 6870,2995 6870,3044 6835,3044 6835,3073 6860,3073 6860,3078 6835,3078 6835,3148 6919,3148 6919,3083" stroke="rgb(none)" stroke-width="0.0" fill="0,0,0" />
<polygon id="05-5748A" points="7335,2958 7232,2958 7233,3019 7235,3024 7271,3024 7271,3019 7335,3019 7335,2958" stroke="rgb(none)" stroke-width="0.0" fill="0,0,0" />
<polygon id="05-5780" points="7357,2197 7356,2348 7356,2386 7357,2397 7352,2397 7352,2493 7357,2493 7356,2503 7356,2541 7357,2573 7352,2573 7352,2609 7357,2609 7357,2677 7320,2678 7315,2680 7315,2762 7320,2762 7320,2774 7357,2774 7357,2825 7361,2826 7451,2828 7456,2824 7456,2778 7451,2776 7513,2774 7513,2779 7549,2779 7549,2774 7563,2774 7563,2779 7611,2779 7611,2774 7644,2772 7648,2770 7648,2775 7694,2775 7696,2770 7696,2681 7694,2677 7685,2677 7685,2672 7637,2672 7637,2677 7620,2677 7620,2672 7572,2672 7572,2677 7454,2677 7454,2567 7459,2567 7459,2519 7454,2519 7454,2508 7459,2508 7459,2460 7454,2460 7454,2334 7459,2334 7459,2298 7454,2298 7454,2197 7357,2197" stroke="rgb(none)" stroke-width="0.0" fill="0,0,0" />
<polygon id="05-5800" points="7878,2774 7878,2782 7873,2782 7873,2818 7878,2818 7878,2933 7873,2933 7873,2981 7878,2981 7878,3036 7872,3036 7872,3084 7878,3084 7878,3140 7879,3149 7879,3161 7878,3170 7878,3378 7891,3378 7891,3383 7963,3383 7963,3378 7975,3378 7975,3327 7983,3327 7983,3296 7983,3255 7975,3253 7975,3240 7989,3240 7989,3168 7975,3168 7975,3155 7983,3153 7983,3112 7983,3081 7975,3081 7975,2981 7980,2981 7980,2945 7975,2945 7975,2853 7983,2853 7983,2822 7983,2781 7975,2779 7975,2766 7988,2766 7988,2694 7975,2694 7975,2681 7983,2679 7983,2638 7983,2607 7975,2607 7975,2500 7984,2500 7983,2469 7984,2428 7975,2427 7975,2414 7989,2414 7989,2342 7975,2342 7975,2328 7984,2327 7983,2286 7984,2255 7975,2255 7975,2208 7929,2206 7880,2207 7878,2295 7873,2295 7873,2331 7878,2331 7878,2507 7832,2507 7832,2603 7878,2603 7878,2677 7750,2678 7746,2680 7746,2675 7700,2675 7698,2679 7699,2772 7878,2774" stroke="rgb(none)" stroke-width="0.0" fill="0,0,0" />
<polygon id="05-5790" points="7878,3170 7712,3170 7712,3136 7664,3136 7664,3170 7653,3170 7653,3165 7605,3165 7605,3170 7459,3170 7458,3175 7458,3218 7459,3269 7530,3270 7530,3275 7602,3276 7602,3270 7820,3270 7820,3275 7856,3275 7856,3270 7878,3270 7878,3170" stroke="rgb(none)" stroke-width="0.0" fill="0,0,0" />
<polygon id="05-5820" points="8306,2100 8273,2100 8273,2095 8237,2095 8237,2100 8174,2100 8174,2093 8143,2093 8106,2093 8104,2100 8091,2100 8091,2064 8085,2064 8085,2059 8013,2059 8013,2064 8007,2064 8007,2100 7994,2100 7993,2093 7955,2093 7924,2093 7924,2100 7804,2100 7804,2093 7774,2093 7736,2093 7735,2100 7722,2100 7722,2064 7716,2064 7716,2059 7644,2059 7644,2064 7638,2064 7638,2100 7625,2100 7623,2093 7586,2093 7555,2093 7555,2100 7357,2100 7357,2197 7673,2197 7673,2202 7709,2202 7709,2197 7860,2196 7872,2196 7878,2197 7880,2203 7929,2204 7975,2203 7975,2197 8300,2197 8306,2198 8297,2241 8350,2254 8587,2305 8603,2306 8608,2279 8610,2267 8612,2263 8627,2266 8631,2249 8647,2172 8306,2100" stroke="rgb(none)" stroke-width="0.0" fill="0,0,0" />
<polygon id="05-5760" points="7357,2100 7193,2100 7193,2064 7187,2064 7187,2059 7139,2059 7139,2064 7098,2064 7098,2059 7050,2059 7050,2064 7044,2064 7044,2100 6946,2101 6945,2195 6993,2198 6993,2194 6997,2195 7157,2197 7157,2202 7193,2202 7193,2197 7274,2197 7274,2202 7310,2202 7310,2197 7357,2197 7357,2100" stroke="rgb(none)" stroke-width="0.0" fill="0,0,0" />
<polygon id="05-5767A" points="7341,1993 7336,1993 7336,1988 7300,1988 7300,1993 7198,1993 7198,2078 7287,2078 7287,2046 7292,2046 7292,2095 7341,2095 7341,1993" stroke="rgb(none)" stroke-width="0.0" fill="0,0,0" />
<polygon id="05-5765A" points="7039,2002 6985,2002 6985,1997 6949,1997 6949,2002 6911,2002 6911,2065 6946,2065 6946,2078 7039,2078 7039,2002" stroke="rgb(none)" stroke-width="0.0" fill="0,0,0" />
<polygon id="05-5703A" points="6093,3526 5949,3528 5944,3529 5944,3565 5949,3565 5949,3680 6007,3680 6007,3629 6012,3629 6012,3654 6093,3654 6093,3526" stroke="rgb(none)" stroke-width="0.0" fill="0,0,0" />
<polygon id="05-5703B" points="6093,3401 6009,3401 6009,3425 5973,3425 5973,3482 5968,3482 5968,3518 5973,3520 6093,3521 6093,3401" stroke="rgb(none)" stroke-width="0.0" fill="0,0,0" />
<polygon id="05-5703" points="5944,3529 5944,3521 5968,3521 5968,3401 5810,3401 5810,3638 5824,3638 5824,3691 5889,3691 5889,3679 5894,3679 5894,3716 5982,3716 5982,3685 5944,3685 5944,3529" stroke="rgb(none)" stroke-width="0.0" fill="0,0,0" />
<polygon id="05-5701" points="5805,3401 5701,3401 5701,3459 5725,3459 5725,3483 5701,3483 5701,3683 5725,3683 5725,3715 5819,3715 5819,3643 5805,3643 5805,3401" stroke="rgb(none)" stroke-width="0.0" fill="0,0,0" />
<polygon id="05-5817" points="7352,2202 7268,2202 7268,2305 7352,2305 7352,2202" stroke="rgb(none)" stroke-width="0.0" fill="0,0,0" />
<polygon id="05-5775" points="7352,2609 7352,2569 7225,2569 7224,2573 7224,2609 7225,2672 7352,2672 7352,2609" stroke="rgb(none)" stroke-width="0.0" fill="0,0,0" />
<polygon id="05-5763" points="6906,2004 6895,2004 6895,1986 6834,1986 6834,2095 6906,2095 6906,2004" stroke="rgb(none)" stroke-width="0.0" fill="0,0,0" />
<polygon id="05-5805" points="7873,2818 7873,2779 7763,2779 7763,2925 7873,2925 7873,2818" stroke="rgb(none)" stroke-width="0.0" fill="0,0,0" />
<polygon id="05-5752C" points="7158,2683 7153,2683 7153,2677 7021,2678 7016,2678 6995,2677 6995,2711 7016,2709 7021,2708 7021,2716 6995,2716 6995,2757 7153,2757 7153,2719 7158,2719 7158,2683" stroke="rgb(none)" stroke-width="0.0" fill="0,0,0" />
<polygon id="05-5803" points="7800,3033 7848,3033 7850,3028 7851,3005 7873,3005 7873,2930 7763,2930 7763,3028 7800,3028 7800,3033" stroke="rgb(none)" stroke-width="0.0" fill="0,0,0" />
<polygon id="05-5759A" points="6258,2141 6263,2141 6263,2105 6258,2105 6258,2078 6133,2078 6133,2102 6109,2102 6109,2167 6133,2167 6133,2191 6258,2191 6258,2141" stroke="rgb(none)" stroke-width="0.0" fill="0,0,0" />
<polygon id="05-5706C" points="7183,3924 7041,3924 7041,3973 7036,3973 7036,4009 7041,4009 7041,4021 7087,4021 7183,4014 7183,3924" stroke="rgb(none)" stroke-width="0.0" fill="0,0,0" />
<polygon id="05-5706" points="7036,3973 7036,3936 6970,3936 6970,3927 6975,3927 6975,3891 6970,3891 6970,3823 6908,3823 6908,3865 6903,3865 6903,3901 6908,3901 6908,3905 6916,3905 6916,3914 6909,3914 6909,3950 6916,3950 6916,4000 6898,4000 6898,4012 6943,4017 6991,4020 7036,4021 7036,3973" stroke="rgb(none)" stroke-width="0.0" fill="0,0,0" />
<polygon id="05-5706A" points="6903,3823 6864,3823 6864,3841 6840,3841 6840,3823 6722,3823 6722,3841 6706,3841 6706,3905 6903,3905 6903,3823" stroke="rgb(none)" stroke-width="0.0" fill="0,0,0" />
<polygon id="05-5706B" points="6909,3910 6706,3910 6706,3949 6722,3949 6722,3972 6755,3980 6754,3986 6823,4001 6893,4012 6893,3995 6909,3995 6909,3910" stroke="rgb(none)" stroke-width="0.0" fill="0,0,0" />
<polygon id="05-5702" points="5925,3826 5818,3825 5766,3825 5725,3826 5725,3841 5701,3841 5701,3951 5725,3951 5725,3963 5925,3963 5925,3826" stroke="rgb(none)" stroke-width="0.0" fill="0,0,0" />
<polygon id="05-5707D" points="6374,3627 6324,3627 6324,3622 6202,3622 6202,3683 6270,3683 6270,3716 6358,3716 6358,3666 6374,3666 6374,3627" stroke="rgb(none)" stroke-width="0.0" fill="0,0,0" />
<polygon id="05-5707B" points="6194,3401 6098,3401 6098,3568 6154,3568 6194,3527 6194,3401" stroke="rgb(none)" stroke-width="0.0" fill="0,0,0" />
<polygon id="05-5704" points="6006,3841 5986,3841 5986,3823 5930,3823 5930,3963 5985,3963 5985,3951 6006,3951 6006,3841" stroke="rgb(none)" stroke-width="0.0" fill="0,0,0" />
<polygon id="05-5706D" points="7088,3823 6975,3823 6975,3859 7015,3859 7015,3864 6975,3864 6975,3931 7036,3931 7036,3917 7088,3917 7088,3823" stroke="rgb(none)" stroke-width="0.0" fill="0,0,0" />
<polygon id="05-5798" points="8247,3208 8247,3167 8262,3167 8262,3045 8247,3045 8246,3029 8166,3029 7980,3030 7980,3076 7988,3076 7989,3155 7989,3253 7988,3332 7980,3332 7980,3378 8166,3378 8166,3383 8245,3383 8246,3378 8247,3263 8247,3208" stroke="rgb(none)" stroke-width="0.0" fill="0,0,0" />
<polygon id="05-5806" points="8247,2556 8166,2555 7980,2556 7980,2602 7988,2602 7988,2858 7980,2858 7980,2904 8166,2905 8246,2905 8247,2556" stroke="rgb(none)" stroke-width="0.0" fill="0,0,0" />
<polygon id="05-5808" points="8247,2202 7980,2202 7980,2250 7989,2250 7989,2505 7980,2505 7980,2551 8166,2552 8246,2552 8247,2471 8262,2471 8262,2466 8252,2466 8252,2380 8262,2380 8262,2375 8247,2375 8247,2202" stroke="rgb(none)" stroke-width="0.0" fill="0,0,0" />
<polygon id="05-5740" points="7280,3176 7251,3171 7176,3170 7176,3165 7082,3165 7082,3170 7007,3171 6977,3175 6977,3266 6979,3270 7027,3269 7031,3267 7031,3276 7076,3276 7076,3272 7081,3272 7082,3278 7175,3278 7177,3272 7181,3272 7181,3276 7226,3276 7226,3267 7231,3269 7279,3269 7280,3176" stroke="rgb(none)" stroke-width="0.0" fill="0,0,0" />
<polygon id="05-5744" points="6939,3275 6835,3275 6835,3400 6866,3400 6866,3416 6939,3416 6939,3275" stroke="rgb(none)" stroke-width="0.0" fill="0,0,0" />
<polygon id="05-5707A" points="6298,3427 6241,3427 6241,3401 6199,3401 6199,3520 6244,3564 6298,3564 6298,3427" stroke="rgb(none)" stroke-width="0.0" fill="0,0,0" />
<polygon id="05-5707C" points="6197,3616 6153,3573 6098,3573 6098,3716 6197,3716 6197,3616" stroke="rgb(none)" stroke-width="0.0" fill="0,0,0" />
<polygon id="05-5707" points="6374,3582 6374,3541 6303,3541 6303,3569 6294,3569 6294,3564 6258,3564 6258,3569 6242,3569 6201,3528 6195,3533 6192,3530 6166,3555 6170,3559 6158,3570 6170,3582 6166,3585 6192,3611 6195,3607 6205,3617 6270,3617 6270,3622 6306,3622 6306,3617 6329,3617 6329,3622 6374,3622 6374,3582" stroke="rgb(none)" stroke-width="0.0" fill="0,0,0" />
<polygon id="05-5745A" points="6728,3279 6677,3279 6660,3296 6656,3293 6631,3318 6634,3322 6618,3338 6618,3417 6728,3417 6728,3279" stroke="rgb(none)" stroke-width="0.0" fill="0,0,0" />
<polygon id="05-5745B" points="6636,3177 6587,3177 6587,3114 6456,3114 6456,3167 6471,3167 6471,3232 6565,3232 6590,3257 6606,3241 6609,3245 6635,3219 6631,3216 6636,3212 6636,3177" stroke="rgb(none)" stroke-width="0.0" fill="0,0,0" />
<polygon id="05-5770" points="7454,2829 7358,2829 7356,2876 7361,2876 7359,2879 7357,3170 7336,3172 7331,3172 7282,3173 7283,3265 7284,3270 7455,3269 7456,3219 7454,2829" stroke="rgb(none)" stroke-width="0.0" fill="0,0,0" />
<polygon id="05-5822" points="8229,1916 8204,1916 8204,1911 8229,1911 8229,1812 8114,1797 8099,1795 8099,1853 8053,1853 8053,1955 8096,1955 8096,1987 8091,1987 8091,1962 8007,1962 8007,1987 8002,1987 8002,1955 8045,1955 8045,1853 8021,1853 8021,1823 8047,1823 8047,1787 8017,1787 7894,1777 7888,1777 7888,1880 7866,1880 7868,1952 7869,2095 7919,2095 7919,2088 8002,2088 8002,2059 8096,2059 8096,2088 8179,2088 8179,2095 8229,2095 8229,1995 8204,1995 8204,1990 8229,1990 8229,1916" stroke="rgb(none)" stroke-width="0.0" fill="0,0,0" />
<polygon id="05-5824C" points="8517,2035 8472,2026 8473,2021 8438,2013 8437,2018 8433,2017 8415,2100 8499,2118 8517,2035" stroke="rgb(none)" stroke-width="0.0" fill="0,0,0" />
<polygon id="05-5752D" points="7245,2751 7245,2677 7158,2677 7158,2762 7064,2762 7064,2775 7068,2801 7078,2825 7095,2845 7117,2860 7142,2867 7168,2868 7194,2861 7216,2847 7233,2827 7244,2803 7248,2777 7245,2751" stroke="rgb(none)" stroke-width="0.0" fill="0,0,0" />
<polygon id="05-5750" points="6830,2323 6830,2198 6943,2198 6943,2100 6895,2100 6895,2104 6891,2103 6829,2101 6829,2039 6834,2039 6834,1991 6829,1989 6772,1988 6772,1983 6736,1983 6736,1988 6697,1988 6697,1994 6692,1994 6692,2066 6697,2066 6697,2072 6734,2072 6734,2085 6727,2085 6726,2154 6733,2154 6733,2264 6726,2264 6726,2334 6733,2334 6733,2347 6697,2347 6697,2353 6692,2353 6692,2425 6697,2425 6697,2431 6733,2431 6733,2444 6726,2444 6726,2514 6733,2514 6733,2579 6728,2579 6728,2615 6733,2615 6733,2646 6728,2646 6728,2682 6733,2682 6733,2773 6728,2773 6728,2809 6733,2809 6733,2825 6737,2827 6826,2827 6831,2826 6829,2779 6827,2775 6867,2775 6867,2719 6872,2719 6872,2683 6867,2683 6867,2678 6830,2678 6830,2487 6835,2487 6835,2451 6830,2451 6830,2359 6835,2359 6835,2323 6830,2323" stroke="rgb(none)" stroke-width="0.0" fill="0,0,0" />
<polygon id="05-5676" points="4604,3994 4463,3994 4463,4139 4512,4139 4512,4177 4449,4178 4444,4179 4444,4225 4449,4225 4449,4292 4604,4292 4604,4249 4640,4249 4640,4228 4644,4228 4644,4181 4604,4181 4604,3994" stroke="rgb(none)" stroke-width="0.0" fill="0,0,0" />
</svg>
