<svg xmlns="http://www.w3.org/2000/svg" version="1.1" width="2959" height="2461">style="background-color:rgb(none)">
<polygon id="12-12740A" points="953,1348 916,1348 916,1343 937,1343 937,1243 916,1243 916,1238 953,1238 953,1100 916,1100 916,1095 829,1095 829,1333 870,1333 870,1357 829,1357 829,1478 953,1478 953,1348" stroke="rgb(none)" stroke-width="0.0" fill="0,0,0" />
<polygon id="12-12780A" points="1901,1357 1860,1357 1860,1333 1901,1333 1901,1095 1815,1095 1815,1100 1778,1100 1778,1222 1815,1222 1815,1344 1778,1344 1778,1478 1815,1478 1815,1483 1851,1483 1851,1478 1901,1478 1901,1357" stroke="rgb(none)" stroke-width="0.0" fill="0,0,0" />
<polygon id="12-12770A" points="1561,536 1561,660 1901,660 1901,578 1860,578 1860,536 1561,536" stroke="rgb(none)" stroke-width="0.0" fill="0,0,0" />
<polygon id="12-12760A" points="1134,536 870,536 870,578 829,578 829,619 834,619 834,656 1024,656 1024,619 1029,619 1029,647 1134,647 1134,536" stroke="rgb(none)" stroke-width="0.0" fill="0,0,0" />
<polygon id="12-12757A" points="510,187 505,187 505,183 432,183 432,219 419,219 419,252 444,252 444,290 480,290 480,252 505,252 505,223 510,223 510,187" stroke="rgb(none)" stroke-width="0.0" fill="0,0,0" />
<polygon id="12-12777" points="2565,190 2561,208 2536,202 2532,220 2557,225 2541,302 2517,296 2502,368 2526,373 2504,475 2647,505 2696,277 2687,276 2695,241 2679,237 2683,219 2565,190" stroke="rgb(none)" stroke-width="0.0" fill="0,0,0" />
<polygon id="12-12775A" points="2467,210 2466,216 2461,215 2454,251 2458,252 2453,277 2478,283 2470,320 2505,327 2513,290 2537,295 2544,264 2531,261 2539,226 2467,210" stroke="rgb(none)" stroke-width="0.0" fill="0,0,0" />
<polygon id="12-12773A" points="2114,223 2119,223 2119,187 2114,185 2041,183 2041,219 2028,219 2028,250 2053,250 2053,288 2089,288 2089,239 2114,239 2114,223" stroke="rgb(none)" stroke-width="0.0" fill="0,0,0" />
<polygon id="12-12771" points="2048,255 2023,255 2023,151 1906,151 1906,182 1876,182 1876,407 1896,409 1895,433 1921,433 1921,410 1916,409 1925,407 1925,434 2023,434 2023,336 2048,336 2048,255" stroke="rgb(none)" stroke-width="0.0" fill="0,0,0" />
<polygon id="12-12781A" points="2254,721 2218,721 2218,708 2185,708 2185,733 2147,733 2147,769 2185,769 2185,794 2214,794 2214,799 2250,799 2252,794 2254,721" stroke="rgb(none)" stroke-width="0.0" fill="0,0,0" />
<polygon id="12-12781B" points="2102,805 2102,799 2003,799 2003,896 2102,896 2102,805" stroke="rgb(none)" stroke-width="0.0" fill="0,0,0" />
<polygon id="12-12779A" points="2140,733 2102,733 2100,708 2098,703 2062,703 2062,708 2011,708 2011,750 2020,750 2020,794 2102,794 2102,769 2140,769 2140,733" stroke="rgb(none)" stroke-width="0.0" fill="0,0,0" />
<polygon id="12-12779" points="2268,581 2255,581 2254,566 2253,537 2233,537 2233,566 2003,566 2003,703 2107,703 2107,728 2180,728 2180,703 2268,703 2268,581" stroke="rgb(none)" stroke-width="0.0" fill="0,0,0" />
<polygon id="12-12777A" points="2512,416 2517,417 2524,382 2519,381 2520,377 2495,372 2503,335 2468,327 2460,364 2436,359 2419,439 2462,449 2460,458 2501,467 2512,416" stroke="rgb(none)" stroke-width="0.0" fill="0,0,0" />
<polygon id="12-12775B" points="2315,435 2410,455 2431,358 2337,339 2315,435" stroke="rgb(none)" stroke-width="0.0" fill="0,0,0" />
<polygon id="12-12771A" points="2114,293 2065,293 2065,348 2061,348 2061,341 2028,341 2028,345 2023,345 2023,381 2028,381 2028,426 2070,426 2070,417 2114,417 2114,293" stroke="rgb(none)" stroke-width="0.0" fill="0,0,0" />
<polygon id="12-12773B" points="2216,335 2119,335 2119,434 2216,434 2216,335" stroke="rgb(none)" stroke-width="0.0" fill="0,0,0" />
<polygon id="12-12770C" points="2221,439 2310,439 2310,355 2221,355 2221,439" stroke="rgb(none)" stroke-width="0.0" fill="0,0,0" />
<polygon id="12-12783A" points="2254,1104 2250,1099 2214,1099 2214,1104 2198,1104 2198,1129 2149,1129 2149,1165 2187,1165 2187,1190 2218,1190 2218,1177 2254,1177 2254,1104" stroke="rgb(none)" stroke-width="0.0" fill="0,0,0" />
<polygon id="12-12780B" points="1998,901 1998,997 2102,997 2102,901 1998,901" stroke="rgb(none)" stroke-width="0.0" fill="0,0,0" />
<polygon id="12-12783B" points="2102,1047 2102,1002 2003,1002 2003,1099 2102,1099 2102,1047" stroke="rgb(none)" stroke-width="0.0" fill="0,0,0" />
<polygon id="12-12785" points="2003,1195 2003,1342 2255,1342 2255,1317 2268,1317 2268,1195 2182,1195 2182,1170 2101,1170 2101,1195 2003,1195" stroke="rgb(none)" stroke-width="0.0" fill="0,0,0" />
<polygon id="12-12780" points="1901,1782 1901,1818 1998,1818 1998,1800 2003,1800 2003,1752 1998,1752 1998,1645 2003,1645 2003,1597 1998,1597 1998,1491 2003,1491 2003,1443 1998,1443 1998,1247 2003,1247 2003,1199 1998,1199 1998,1095 2003,1095 2003,1047 1998,1047 1998,851 2003,851 2003,803 1998,803 1997,759 1901,759 1901,806 1901,816 1896,816 1896,864 1901,864 1901,998 1896,998 1896,979 1848,979 1848,998 1754,999 1754,1095 1801,1096 1801,1092 1805,1093 1901,1095 1901,1487 1851,1487 1851,1483 1769,1483 1769,1478 1733,1478 1732,1483 1731,1487 1704,1487 1704,1492 1703,1496 1704,1589 1704,1595 1901,1595 1901,1638 1896,1638 1896,1674 1901,1674 1901,1683 1877,1683 1877,1714 1901,1714 1901,1782" stroke="rgb(none)" stroke-width="0.0" fill="0,0,0" />
<polygon id="12-12785A" points="2144,1104 2020,1104 2020,1148 2011,1148 2011,1190 2056,1190 2056,1195 2092,1195 2094,1190 2096,1158 2090,1158 2090,1153 2144,1153 2144,1104" stroke="rgb(none)" stroke-width="0.0" fill="0,0,0" />
<polygon id="12-12783" points="2268,977 2236,977 2236,953 2107,953 2107,1047 2102,1047 2102,1095 2107,1097 2149,1099 2149,1124 2193,1124 2193,1099 2268,1099 2268,977" stroke="rgb(none)" stroke-width="0.0" fill="0,0,0" />
<polygon id="12-12787A" points="2254,1500 2250,1495 2214,1495 2214,1500 2185,1500 2185,1525 2147,1525 2147,1561 2185,1561 2185,1586 2218,1586 2218,1570 2254,1570 2254,1500" stroke="rgb(none)" stroke-width="0.0" fill="0,0,0" />
<polygon id="12-12789A" points="2140,1525 2102,1525 2102,1500 2020,1500 2020,1544 2010,1544 2010,1586 2062,1586 2062,1591 2098,1591 2098,1586 2102,1586 2102,1561 2140,1561 2140,1525" stroke="rgb(none)" stroke-width="0.0" fill="0,0,0" />
<polygon id="12-12789" points="2268,1591 2180,1591 2180,1566 2107,1566 2107,1591 2003,1591 2003,1741 2255,1741 2255,1713 2268,1713 2268,1591" stroke="rgb(none)" stroke-width="0.0" fill="0,0,0" />
<polygon id="12-12787" points="2268,1373 2255,1373 2255,1349 2003,1349 2003,1495 2107,1495 2107,1520 2180,1520 2180,1495 2268,1495 2268,1373" stroke="rgb(none)" stroke-width="0.0" fill="0,0,0" />
<polygon id="12-12781" points="2268,799 2180,799 2180,774 2107,774 2107,805 2102,805 2102,853 2107,853 2107,946 2236,946 2236,921 2268,921 2268,799" stroke="rgb(none)" stroke-width="0.0" fill="0,0,0" />
<polygon id="12-12767A" points="1703,183 1630,183 1630,187 1625,187 1625,223 1630,223 1630,253 1655,253 1655,291 1691,291 1691,253 1716,253 1716,219 1703,219 1703,183" stroke="rgb(none)" stroke-width="0.0" fill="0,0,0" />
<polygon id="12-12767" points="1625,330 1650,330 1650,257 1625,257 1625,151 1502,151 1502,182 1468,182 1468,434 1625,434 1625,330" stroke="rgb(none)" stroke-width="0.0" fill="0,0,0" />
<polygon id="12-12765A" points="1297,223 1302,223 1302,187 1297,185 1228,183 1228,219 1211,219 1211,252 1236,252 1236,290 1272,290 1272,252 1297,252 1297,223" stroke="rgb(none)" stroke-width="0.0" fill="0,0,0" />
<polygon id="12-12765" points="1460,182 1424,182 1424,169 1302,169 1302,257 1277,257 1277,330 1302,330 1302,434 1460,434 1460,182" stroke="rgb(none)" stroke-width="0.0" fill="0,0,0" />
<polygon id="12-12806" points="1896,719 1896,665 1561,665 1561,735 1460,735 1460,807 1896,807 1896,719" stroke="rgb(none)" stroke-width="0.0" fill="0,0,0" />
<polygon id="12-12760" points="564,439 564,434 516,434 516,439 510,439 510,473 505,473 505,521 510,521 510,536 1144,536 1144,542 1180,542 1180,536 1262,534 1264,443 1261,438 1214,438 1214,443 1210,441 1200,439 1200,434 1152,434 1152,439 1104,438 1008,438 960,439 960,434 912,434 912,439 804,439 804,434 756,434 756,439 564,439" stroke="rgb(none)" stroke-width="0.0" fill="0,0,0" />
<polygon id="12-12762" points="1219,569 1198,569 1198,542 1140,542 1140,646 1219,646 1219,569" stroke="rgb(none)" stroke-width="0.0" fill="0,0,0" />
<polygon id="12-12800A" points="1460,818 1455,818 1453,619 1359,619 1357,676 1353,676 1354,714 1354,831 1353,869 1358,869 1358,998 1455,998 1455,866 1460,866 1460,818" stroke="rgb(none)" stroke-width="0.0" fill="0,0,0" />
<polygon id="12-12769A" points="1716,375 1721,375 1721,339 1716,337 1691,335 1691,297 1655,297 1655,335 1630,335 1630,417 1674,417 1674,427 1716,427 1716,375" stroke="rgb(none)" stroke-width="0.0" fill="0,0,0" />
<polygon id="12-12763" points="1231,257 1206,257 1206,169 1084,169 1084,182 1060,182 1060,410 1109,410 1109,434 1206,434 1206,330 1231,330 1231,257" stroke="rgb(none)" stroke-width="0.0" fill="0,0,0" />
<polygon id="12-12759A" points="888,182 815,182 815,186 810,186 810,222 815,222 815,239 840,239 840,288 876,288 876,250 901,250 901,218 888,218 888,182" stroke="rgb(none)" stroke-width="0.0" fill="0,0,0" />
<polygon id="12-12757" points="656,201 638,202 632,201 632,169 510,169 510,187 510,257 485,257 485,330 516,330 516,335 564,335 564,330 656,330 656,201" stroke="rgb(none)" stroke-width="0.0" fill="0,0,0" />
<polygon id="12-12759" points="835,244 810,244 810,169 688,169 688,201 683,202 664,202 663,330 756,330 756,335 804,335 804,330 810,330 810,288 835,288 835,244" stroke="rgb(none)" stroke-width="0.0" fill="0,0,0" />
<polygon id="12-12752" points="1026,661 834,661 834,856 881,856 881,993 1074,993 1074,898 1026,898 1026,661" stroke="rgb(none)" stroke-width="0.0" fill="0,0,0" />
<polygon id="12-12755" points="505,457 505,439 479,439 479,434 505,434 505,351 443,351 443,377 414,377 414,373 439,373 439,257 414,257 413,175 293,175 292,208 270,208 270,527 292,527 292,563 390,563 390,549 449,549 449,527 505,527 505,457" stroke="rgb(none)" stroke-width="0.0" fill="0,0,0" />
<polygon id="12-12751A" points="546,769 584,769 584,733 546,733 546,708 512,708 512,721 476,721 478,794 480,799 516,799 516,794 546,794 546,769" stroke="rgb(none)" stroke-width="0.0" fill="0,0,0" />
<polygon id="12-12753" points="727,633 727,541 475,541 475,581 462,581 462,703 550,703 550,728 623,728 623,703 727,703 727,633" stroke="rgb(none)" stroke-width="0.0" fill="0,0,0" />
<polygon id="12-12753A" points="710,750 720,750 720,708 668,708 668,703 632,703 630,708 628,733 590,733 590,769 628,769 628,794 710,794 710,750" stroke="rgb(none)" stroke-width="0.0" fill="0,0,0" />
<polygon id="12-12751B" points="628,799 628,896 727,896 727,799 628,799" stroke="rgb(none)" stroke-width="0.0" fill="0,0,0" />
<polygon id="12-12761" points="1052,182 1028,182 1028,169 906,169 906,218 906,255 881,255 881,336 906,336 906,434 1003,434 1003,410 1052,410 1052,182" stroke="rgb(none)" stroke-width="0.0" fill="0,0,0" />
<polygon id="12-12759B" points="810,335 713,335 713,434 810,434 810,335" stroke="rgb(none)" stroke-width="0.0" fill="0,0,0" />
<polygon id="12-12761A" points="901,381 906,381 906,345 901,343 869,341 869,348 864,348 864,293 815,293 815,417 859,417 859,426 901,426 901,381" stroke="rgb(none)" stroke-width="0.0" fill="0,0,0" />
<polygon id="12-12757B" points="607,335 510,335 510,434 607,434 607,335" stroke="rgb(none)" stroke-width="0.0" fill="0,0,0" />
<polygon id="12-12760B" points="708,335 612,335 612,439 708,439 708,335" stroke="rgb(none)" stroke-width="0.0" fill="0,0,0" />
<polygon id="12-12802A" points="1663,1231 1461,1231 1461,1325 1496,1325 1496,1361 1663,1361 1663,1231" stroke="rgb(none)" stroke-width="0.0" fill="0,0,0" />
<polygon id="12-12802B" points="1684,1100 1461,1100 1461,1231 1663,1231 1663,1224 1684,1224 1684,1100" stroke="rgb(none)" stroke-width="0.0" fill="0,0,0" />
<polygon id="12-12818" points="1772,1101 1691,1101 1691,1207 1772,1207 1772,1101" stroke="rgb(none)" stroke-width="0.0" fill="0,0,0" />
<polygon id="12-12805" points="1353,937 1353,895 1203,895 1203,927 1230,927 1230,993 1353,993 1353,937" stroke="rgb(none)" stroke-width="0.0" fill="0,0,0" />
<polygon id="12-12810" points="1752,1001 1703,997 1703,1001 1699,999 957,999 957,1095 1004,1096 1004,1092 1008,1093 1750,1092 1752,1001" stroke="rgb(none)" stroke-width="0.0" fill="0,0,0" />
<polygon id="12-12816" points="1378,1100 1255,1100 1255,1240 1378,1240 1378,1100" stroke="rgb(none)" stroke-width="0.0" fill="0,0,0" />
<polygon id="12-12803" points="1378,1245 1255,1245 1254,1280 1254,1316 1255,1358 1265,1359 1319,1359 1378,1358 1378,1245" stroke="rgb(none)" stroke-width="0.0" fill="0,0,0" />
<polygon id="12-12814" points="1250,1100 1095,1100 1095,1261 1116,1261 1116,1358 1192,1358 1192,1320 1250,1320 1252,1316 1252,1280 1250,1100" stroke="rgb(none)" stroke-width="0.0" fill="0,0,0" />
<polygon id="12-12800" points="1455,1145 1455,1095 1383,1095 1383,1442 1413,1443 1449,1443 1455,1442 1455,1145" stroke="rgb(none)" stroke-width="0.0" fill="0,0,0" />
<polygon id="12-12715" points="1668,1366 1460,1366 1460,1482 1668,1482 1668,1366" stroke="rgb(none)" stroke-width="0.0" fill="0,0,0" />
<polygon id="12-12801" points="1378,1427 1378,1363 1319,1362 1265,1362 1232,1364 1231,1390 1232,1458 1244,1459 1244,1475 1254,1475 1254,1481 1282,1485 1350,1487 1350,1479 1350,1475 1378,1475 1378,1427" stroke="rgb(none)" stroke-width="0.0" fill="0,0,0" />
<polygon id="12-12710" points="829,1595 1042,1595 1042,1600 1080,1599 1091,1598 1091,1602 1187,1602 1187,1598 1198,1599 1235,1600 1235,1595 1473,1595 1473,1600 1510,1599 1521,1598 1521,1602 1617,1602 1617,1595 1699,1595 1700,1585 1702,1496 1699,1494 1699,1487 1455,1487 1455,1447 1449,1445 1413,1445 1383,1447 1383,1487 1218,1487 1218,1482 1182,1482 1182,1487 999,1487 998,1483 997,1478 961,1478 961,1483 916,1483 916,1478 880,1478 880,1487 829,1487 829,1595" stroke="rgb(none)" stroke-width="0.0" fill="0,0,0" />
<polygon id="12-12710A" points="1230,1391 1229,1364 1054,1363 1054,1482 1224,1482 1224,1459 1229,1458 1230,1391" stroke="rgb(none)" stroke-width="0.0" fill="0,0,0" />
<polygon id="12-12812" points="1091,1100 957,1100 957,1261 1050,1261 1050,1226 1055,1226 1055,1261 1091,1261 1091,1100" stroke="rgb(none)" stroke-width="0.0" fill="0,0,0" />
<polygon id="12-12740" points="732,536 732,649 727,649 727,697 732,697 732,805 727,805 727,853 732,853 732,1045 727,1045 727,1093 732,1093 732,1201 727,1201 727,1249 732,1249 732,1441 727,1441 727,1489 732,1489 732,1597 727,1597 727,1645 732,1645 732,1753 727,1753 727,1801 732,1801 732,1875 736,1876 827,1876 829,1827 829,1799 834,1799 834,1763 829,1763 829,1652 834,1652 834,1604 829,1604 829,1095 954,1092 956,1002 953,997 906,997 906,1001 902,1000 829,998 829,852 834,852 834,804 829,804 829,536 732,536" stroke="rgb(none)" stroke-width="0.0" fill="0,0,0" />
<polygon id="12-12749" points="628,1045 623,1045 623,953 496,953 496,977 462,977 462,1099 543,1099 543,1124 581,1124 581,1099 623,1099 623,1093 628,1093 628,1045" stroke="rgb(none)" stroke-width="0.0" fill="0,0,0" />
<polygon id="12-12749A" points="581,1129 538,1129 538,1104 516,1104 516,1099 480,1099 478,1104 476,1177 512,1177 512,1190 543,1190 543,1165 581,1165 581,1129" stroke="rgb(none)" stroke-width="0.0" fill="0,0,0" />
<polygon id="12-12740C" points="732,901 628,901 628,997 732,997 732,901" stroke="rgb(none)" stroke-width="0.0" fill="0,0,0" />
<polygon id="12-12747A" points="719,1148 710,1148 710,1104 586,1104 586,1153 641,1153 641,1158 634,1158 634,1190 638,1190 638,1195 674,1195 674,1190 719,1190 719,1148" stroke="rgb(none)" stroke-width="0.0" fill="0,0,0" />
<polygon id="12-12747" points="462,1195 462,1317 475,1317 475,1342 727,1342 727,1195 629,1195 629,1170 548,1170 548,1195 462,1195" stroke="rgb(none)" stroke-width="0.0" fill="0,0,0" />
<polygon id="12-12749B" points="727,1045 727,1002 628,1002 628,1099 727,1099 727,1045" stroke="rgb(none)" stroke-width="0.0" fill="0,0,0" />
<polygon id="12-12745" points="727,1441 727,1349 475,1349 475,1373 462,1373 462,1495 550,1495 550,1520 623,1520 623,1495 727,1495 727,1441" stroke="rgb(none)" stroke-width="0.0" fill="0,0,0" />
<polygon id="12-12745A" points="584,1525 546,1525 546,1500 516,1500 516,1495 480,1495 480,1500 475,1500 475,1573 510,1573 510,1586 546,1586 546,1561 584,1561 584,1525" stroke="rgb(none)" stroke-width="0.0" fill="0,0,0" />
<polygon id="12-12743" points="727,1688 727,1591 623,1591 623,1566 550,1566 550,1591 462,1591 462,1713 475,1713 475,1742 727,1742 727,1688" stroke="rgb(none)" stroke-width="0.0" fill="0,0,0" />
<polygon id="12-12743A" points="710,1500 628,1500 628,1525 590,1525 590,1561 628,1561 630,1586 632,1591 668,1591 668,1586 720,1586 720,1544 710,1544 710,1500" stroke="rgb(none)" stroke-width="0.0" fill="0,0,0" />
<polygon id="12-12804" points="1676,812 1460,812 1460,928 1517,928 1517,933 1492,933 1492,993 1676,993 1676,812" stroke="rgb(none)" stroke-width="0.0" fill="0,0,0" />
<polygon id="12-12751" points="623,871 623,853 628,853 628,805 623,805 623,774 550,774 550,799 462,799 462,921 496,921 496,946 623,946 623,871" stroke="rgb(none)" stroke-width="0.0" fill="0,0,0" />
<polygon id="12-12782" points="1681,812 1681,993 1844,993 1844,974 1858,974 1858,931 1896,931 1896,812 1681,812" stroke="rgb(none)" stroke-width="0.0" fill="0,0,0" />
<polygon id="12-12769" points="1869,182 1844,182 1844,151 1721,151 1721,257 1696,257 1696,330 1721,330 1721,434 1819,434 1819,407 1828,409 1824,410 1824,433 1850,433 1849,409 1869,407 1869,182" stroke="rgb(none)" stroke-width="0.0" fill="0,0,0" />
<polygon id="12-12793" points="1903,2083 1918,2084 1917,2097 1967,2100 2015,2100 2108,2094 2202,2079 2251,2067 2243,2036 2229,2036 2229,2010 2255,2010 2255,1978 2077,1978 2077,1871 2030,1871 2030,1823 1986,1823 1986,1818 1950,1818 1950,1823 1876,1823 1876,2010 1903,2010 1903,2083" stroke="rgb(none)" stroke-width="0.0" fill="0,0,0" />
<polygon id="12-12704" points="1189,2328 1189,2141 877,2141 877,2171 842,2171 842,2141 733,2141 733,2177 712,2177 712,2279 733,2279 733,2293 763,2300 760,2314 806,2324 948,2345 1044,2349 1139,2346 1189,2342 1189,2328" stroke="rgb(none)" stroke-width="0.0" fill="0,0,0" />
<polygon id="12-12755A" points="265,395 216,395 216,450 211,450 211,408 134,408 134,496 139,496 139,516 265,514 270,512 270,476 265,476 265,395" stroke="rgb(none)" stroke-width="0.0" fill="0,0,0" />
<polygon id="12-12760C" points="1038,415 1038,437 1074,437 1074,415 1038,415" stroke="rgb(none)" stroke-width="0.0" fill="0,0,0" />
<polygon id="12-12770B" points="1854,437 1890,437 1890,415 1854,415 1854,437" stroke="rgb(none)" stroke-width="0.0" fill="0,0,0" />
<polygon id="12-12776" points="2358,553 2285,538 2285,565 2352,579 2358,553" stroke="rgb(none)" stroke-width="0.0" fill="0,0,0" />
<polygon id="12-12770E" points="2192,536 2192,561 2228,561 2228,532 2192,536" stroke="rgb(none)" stroke-width="0.0" fill="0,0,0" />
<polygon id="12-12770D" points="2003,536 2003,561 2091,561 2091,537 2003,536" stroke="rgb(none)" stroke-width="0.0" fill="0,0,0" />
<polygon id="12-12780C" points="1901,1782 1876,1782 1876,1818 1901,1818 1901,1782" stroke="rgb(none)" stroke-width="0.0" fill="0,0,0" />
<polygon id="12-12791" points="2268,1817 2218,1816 2171,1816 2171,1788 2153,1788 2153,1816 2131,1816 2131,1746 2003,1746 2003,1752 2003,1801 2003,1818 2035,1818 2035,1866 2082,1866 2082,1973 2255,1973 2255,1939 2268,1939 2268,1817" stroke="rgb(none)" stroke-width="0.0" fill="0,0,0" />
<polygon id="12-12791A" points="2242,1746 2176,1747 2138,1748 2138,1784 2176,1784 2176,1811 2182,1811 2182,1816 2218,1816 2218,1811 2255,1811 2255,1782 2242,1782 2242,1746" stroke="rgb(none)" stroke-width="0.0" fill="0,0,0" />
<polygon id="12-12703" points="727,1801 727,1747 597,1747 597,1930 727,1930 727,1801" stroke="rgb(none)" stroke-width="0.0" fill="0,0,0" />
<polygon id="12-12744" points="945,1600 834,1600 834,1716 886,1716 886,1749 945,1749 945,1600" stroke="rgb(none)" stroke-width="0.0" fill="0,0,0" />
<polygon id="12-12740B" points="876,861 829,861 829,933 876,933 876,861" stroke="rgb(none)" stroke-width="0.0" fill="0,0,0" />
<polygon id="12-12775" points="2471,169 2346,145 2340,176 2290,168 2284,200 2284,330 2324,330 2379,342 2378,347 2425,357 2426,352 2456,358 2471,287 2447,282 2471,169" stroke="rgb(none)" stroke-width="0.0" fill="0,0,0" />
<polygon id="12-12773" points="2238,128 2119,112 2119,139 2093,139 2093,159 2119,159 2119,244 2095,244 2095,288 2119,288 2119,330 2125,330 2125,335 2173,335 2173,330 2253,330 2253,302 2277,302 2277,193 2233,193 2233,160 2238,128" stroke="rgb(none)" stroke-width="0.0" fill="0,0,0" />
<polygon id="12-12807B" points="1044,667 1044,751 1196,751 1203,741 1211,741 1211,679 1203,679 1196,667 1044,667" stroke="rgb(none)" stroke-width="0.0" fill="0,0,0" />
<polygon id="12-12807A" points="1044,786 1044,870 1196,870 1202,858 1211,858 1211,796 1203,796 1196,786 1044,786" stroke="rgb(none)" stroke-width="0.0" fill="0,0,0" />
<polygon id="12-12807" points="1349,826 1350,718 1349,656 1211,656 1211,877 1349,877 1349,826" stroke="rgb(none)" stroke-width="0.0" fill="0,0,0" />
<polygon id="12-12811" points="1198,898 1079,898 1079,993 1198,993 1198,898" stroke="rgb(none)" stroke-width="0.0" fill="0,0,0" />
<polygon id="12-12808" points="1460,541 1460,730 1556,730 1556,541 1460,541" stroke="rgb(none)" stroke-width="0.0" fill="0,0,0" />
<polygon id="12-12764" points="1353,581 1353,541 1236,541 1236,647 1353,647 1353,581" stroke="rgb(none)" stroke-width="0.0" fill="0,0,0" />
<polygon id="12-12825" points="2700,314 2655,527 2648,526 2637,577 2644,579 2765,606 2768,602 2822,344 2821,340 2700,314" stroke="rgb(none)" stroke-width="0.0" fill="0,0,0" />
<polygon id="12-12711" points="1049,1364 957,1364 957,1478 1049,1478 1049,1364" stroke="rgb(none)" stroke-width="0.0" fill="0,0,0" />
<polygon id="12-12701" points="727,2001 727,1935 593,1935 593,1861 449,1861 449,2007 494,2007 494,2038 628,2038 628,2007 727,2007 727,2001" stroke="rgb(none)" stroke-width="0.0" fill="0,0,0" />
<polygon id="12-12742" points="948,1757 834,1757 834,1763 834,2007 948,2007 948,1757" stroke="rgb(none)" stroke-width="0.0" fill="0,0,0" />
<polygon id="12-12700" points="736,1877 731,1880 733,1929 732,1965 727,1965 727,2001 732,2001 732,2039 707,2039 707,2136 737,2136 737,2141 773,2141 773,2136 1149,2136 1149,2141 1185,2141 1185,2136 1241,2136 1241,2145 1509,2145 1509,2175 1691,2175 1691,2049 1686,2049 1686,2039 1617,2039 1617,2031 1622,2031 1620,1981 1619,1976 1519,1976 1518,1981 1519,2032 1521,2039 1448,2039 1448,2012 1241,2011 1241,2039 1187,2039 1187,2031 1192,2031 1190,1981 1189,1976 1089,1976 1087,1981 1086,2031 1091,2031 1091,2039 829,2039 829,1880 825,1879 736,1877" stroke="rgb(none)" stroke-width="0.0" fill="0,0,0" />
<polygon id="12-12720C" points="1058,1652 1051,1651 1045,1628 971,1628 971,1724 1045,1724 1051,1701 1058,1700 1058,1652" stroke="rgb(none)" stroke-width="0.0" fill="0,0,0" />
<polygon id="12-12720B" points="1058,1782 1051,1781 1045,1758 971,1758 971,1854 1045,1854 1051,1831 1058,1830 1058,1782" stroke="rgb(none)" stroke-width="0.0" fill="0,0,0" />
<polygon id="12-12720" points="1219,1782 1199,1780 1199,1720 1217,1720 1218,1701 1218,1652 1217,1618 1193,1618 1193,1602 1085,1602 1085,1618 1060,1618 1059,1652 1059,1701 1060,1720 1069,1720 1069,1780 1059,1782 1059,1831 1069,1832 1069,1882 1060,1882 1059,1902 1059,1951 1058,1976 1217,1976 1218,1951 1218,1902 1217,1882 1199,1882 1199,1832 1218,1831 1219,1782" stroke="rgb(none)" stroke-width="0.0" fill="0,0,0" />
<polygon id="12-12730D" points="1671,1626 1664,1636 1656,1636 1656,1712 1664,1712 1671,1722 1803,1722 1803,1626 1671,1626" stroke="rgb(none)" stroke-width="0.0" fill="0,0,0" />
<polygon id="12-12730" points="1656,1636 1656,1618 1623,1618 1623,1602 1515,1602 1515,1618 1488,1618 1488,1648 1472,1649 1472,1712 1488,1712 1488,1778 1472,1778 1464,1778 1472,1780 1472,1842 1488,1842 1488,1898 1464,1898 1472,1900 1472,1976 1656,1976 1656,1900 1664,1898 1656,1898 1656,1780 1664,1778 1656,1778 1656,1636" stroke="rgb(none)" stroke-width="0.0" fill="0,0,0" />
<polygon id="12-12730E" points="1671,1768 1664,1778 1656,1780 1656,1842 1664,1842 1671,1852 1791,1852 1791,1768 1671,1768" stroke="rgb(none)" stroke-width="0.0" fill="0,0,0" />
<polygon id="12-12730F" points="1671,1888 1664,1898 1656,1900 1656,1962 1664,1962 1671,1972 1791,1972 1791,1888 1671,1888" stroke="rgb(none)" stroke-width="0.0" fill="0,0,0" />
<polygon id="12-12730A" points="1337,1888 1337,1972 1457,1972 1464,1962 1472,1962 1472,1900 1464,1898 1457,1888 1337,1888" stroke="rgb(none)" stroke-width="0.0" fill="0,0,0" />
<polygon id="12-12730B" points="1337,1768 1337,1852 1457,1852 1464,1842 1472,1842 1472,1780 1464,1778 1457,1768 1337,1768" stroke="rgb(none)" stroke-width="0.0" fill="0,0,0" />
<polygon id="12-12730C" points="1337,1639 1337,1723 1457,1723 1464,1713 1472,1712 1472,1648 1464,1649 1457,1639 1337,1639" stroke="rgb(none)" stroke-width="0.0" fill="0,0,0" />
<polygon id="12-12720D" points="1307,1628 1233,1628 1226,1651 1219,1652 1219,1700 1226,1701 1233,1724 1307,1724 1307,1628" stroke="rgb(none)" stroke-width="0.0" fill="0,0,0" />
<polygon id="12-12720E" points="1233,1758 1226,1780 1219,1780 1219,1832 1226,1832 1233,1854 1307,1854 1307,1758 1233,1758" stroke="rgb(none)" stroke-width="0.0" fill="0,0,0" />
<polygon id="12-12720F" points="1233,1878 1226,1900 1219,1900 1219,1952 1226,1952 1233,1974 1307,1974 1307,1878 1233,1878" stroke="rgb(none)" stroke-width="0.0" fill="0,0,0" />
<polygon id="12-12720A" points="1058,1902 1051,1901 1045,1878 971,1878 971,1974 1045,1974 1051,1951 1058,1950 1058,1902" stroke="rgb(none)" stroke-width="0.0" fill="0,0,0" />
<polygon id="12-12708" points="1481,2169 1476,2150 1475,2145 1423,2145 1423,2150 1407,2150 1407,2165 1213,2167 1209,2169 1211,2289 1213,2293 1411,2293 1411,2319 1459,2319 1459,2293 1475,2293 1475,2287 1481,2287 1481,2169" stroke="rgb(none)" stroke-width="0.0" fill="0,0,0" />
<polygon id="12-12719" points="1773,1349 1673,1349 1673,1470 1715,1470 1715,1478 1773,1478 1773,1349" stroke="rgb(none)" stroke-width="0.0" fill="0,0,0" />
<polygon id="12-12792" points="1896,1638 1896,1600 1820,1600 1820,1684 1835,1684 1835,1714 1868,1714 1868,1678 1896,1678 1896,1638" stroke="rgb(none)" stroke-width="0.0" fill="0,0,0" />
<polygon id="12-12763A" points="1211,375 1211,427 1253,427 1253,417 1297,417 1297,335 1273,335 1273,297 1237,297 1237,335 1211,337 1206,339 1206,375 1211,375" stroke="rgb(none)" stroke-width="0.0" fill="0,0,0" />
<polygon id="12-12770" points="2228,532 2283,532 2294,534 2293,539 2352,552 2353,547 2363,549 2356,584 2593,635 2600,600 2615,602 2617,592 2619,584 2635,588 2637,576 2650,517 2645,516 2647,505 2599,495 2598,500 2556,491 2557,486 2510,476 2509,481 2403,459 2404,454 2357,444 2356,449 2310,439 2221,439 2173,439 2173,434 2125,434 2125,439 2017,439 2017,434 1969,434 1969,439 1920,438 1824,438 1776,439 1775,434 1727,434 1727,439 1619,439 1619,434 1571,434 1571,439 1356,439 1356,434 1308,434 1308,439 1266,441 1266,536 1312,538 1312,533 1316,535 1358,536 1358,545 1353,545 1353,581 1358,581 1358,614 1362,615 1455,614 1456,567 1452,567 1454,564 1455,536 1901,536 1901,671 1896,671 1896,719 1901,719 1904,755 1995,757 1998,754 1999,708 1998,697 2003,697 2003,649 1998,649 1998,536 2192,536 2228,532" stroke="rgb(none)" stroke-width="0.0" fill="0,0,0" />
</svg>
