<svg xmlns="http://www.w3.org/2000/svg" version="1.1" width="9276" height="5250">style="background-color:rgb(none)">
<polygon id="04-4308D" points="1460,4298 1461,4292 1463,4281 1436,4281 1437,4292 1439,4298 1460,4298" stroke="rgb(none)" stroke-width="0.0" fill="0,0,0" />
<polygon id="04-4651" points="4176,3888 4158,3888 4158,3881 4157,3844 4157,3822 4124,3822 4124,3845 3952,3845 3952,3828 3947,3828 3947,3984 4158,3983 4163,3981 4163,3934 4158,3934 4158,3921 4176,3921 4176,3888" stroke="rgb(none)" stroke-width="0.0" fill="0,0,0" />
<polygon id="04-4208" points="1548,1605 1541,1605 1541,1554 1548,1554 1548,1532 1541,1532 1541,1525 1441,1525 1441,1694 1518,1694 1518,1652 1541,1652 1541,1641 1548,1641 1548,1605" stroke="rgb(none)" stroke-width="0.0" fill="0,0,0" />
<polygon id="04-4205E" points="1806,1477 1805,1481 1804,1491 1834,1491 1833,1481 1832,1477 1806,1477" stroke="rgb(none)" stroke-width="0.0" fill="0,0,0" />
<polygon id="04-4834" points="7604,2471 7604,2303 7491,2304 7486,2305 7486,2341 7491,2341 7491,2471 7604,2471" stroke="rgb(none)" stroke-width="0.0" fill="0,0,0" />
<polygon id="04-4832" points="7604,2298 7604,2135 7491,2135 7491,2168 7486,2168 7486,2204 7491,2204 7491,2298 7604,2298 7491,2298 7604,2298" stroke="rgb(none)" stroke-width="0.0" fill="0,0,0" />
<polygon id="04-4807" points="7351,2328 7242,2328 7242,2543 7351,2543 7351,2464 7356,2464 7356,2424 7351,2424 7351,2328" stroke="rgb(none)" stroke-width="0.0" fill="0,0,0" />
<polygon id="04-4807A" points="7242,2468 7234,2468 7234,2449 7067,2449 7067,2560 7234,2560 7234,2532 7242,2532 7242,2468" stroke="rgb(none)" stroke-width="0.0" fill="0,0,0" />
<polygon id="04-4807B" points="7242,2349 7234,2349 7234,2330 7067,2330 7067,2441 7234,2441 7234,2413 7242,2413 7242,2349" stroke="rgb(none)" stroke-width="0.0" fill="0,0,0" />
<polygon id="04-4825" points="8731,1986 8686,2199 8679,2198 8668,2249 8675,2251 8789,2276 8791,2266 8802,2268 8854,2024 8843,2021 8845,2010 8731,1986" stroke="rgb(none)" stroke-width="0.0" fill="0,0,0" />
<polygon id="04-4740B" points="7356,2132 7355,2659 7355,2699 7356,3005 7434,3005 7434,3010 7474,3010 7474,3005 8244,3005 8244,3010 8284,3010 8285,3005 8286,2989 8311,2989 8312,2862 8319,2855 8319,2783 8312,2776 8312,2644 8319,2637 8319,2605 8311,2598 8312,2466 8319,2459 8319,2387 8312,2380 8312,2248 8324,2248 8327,2243 8665,2315 8677,2260 8666,2258 8725,1977 8847,2003 8849,1992 8742,1969 8742,1960 8748,1924 8324,1834 8323,1829 8318,1828 8314,1823 7356,1823 7355,1879 7355,1919 7356,2130 7609,2130 7609,2476 7487,2476 7487,2132 7356,2132" stroke="rgb(none)" stroke-width="0.0" fill="0,0,0" />
<polygon id="04-4740A" points="7351,1823 6478,1823 6474,1827 6474,1841 6469,1841 6469,1847 6283,1847 6283,1881 6295,1881 6295,2063 6141,2063 6141,2196 6283,2196 6283,2235 6474,2235 6474,2241 6481,2248 6481,2380 6474,2387 6474,2459 6481,2466 6481,2598 6474,2605 6474,2637 6481,2644 6481,2776 6474,2783 6474,2855 6481,2862 6481,2994 6474,3001 6474,3033 6481,3040 6481,3172 6474,3179 6474,3251 6481,3258 6480,3390 6478,3458 6502,3458 6502,3420 6575,3420 6575,3272 6794,3272 6796,3569 6798,3575 6862,3575 6862,3569 6866,3569 6866,3424 6877,3424 6877,3401 6901,3401 6901,3424 6979,3424 6979,3284 7113,3284 7113,3279 7219,3279 7219,3284 7293,3283 7309,3283 7420,3283 7436,3283 7515,3284 7515,3276 7687,3276 7687,3272 7760,3271 7776,3271 7841,3271 7846,3270 7846,3230 7841,3230 7841,3130 7641,3130 7641,3010 7351,3010 7352,2699 7352,2659 7351,2548 7242,2548 7242,2567 7159,2568 7143,2568 7060,2567 7060,2323 7351,2323 7352,1919 7352,1879 7351,1823" stroke="rgb(none)" stroke-width="0.0" fill="0,0,0" />
<polygon id="04-4740D" points="8245,3263 8245,3300 8240,3300 8240,3336 8245,3338 8311,3340 8311,3263 8245,3263" stroke="rgb(none)" stroke-width="0.0" fill="0,0,0" />
<polygon id="04-4740C" points="8240,3258 8312,3258 8318,3251 8318,3179 8311,3172 8311,3166 8311,3045 8311,3040 8318,3033 8318,3001 8312,2994 8291,2994 8291,3010 7646,3010 7646,3125 7846,3125 7846,3359 7870,3359 7870,3389 7902,3389 7902,3682 7934,3682 7934,3714 8313,3714 8318,3709 8318,3397 8311,3390 8311,3345 8240,3345 8240,3258" stroke="rgb(none)" stroke-width="0.0" fill="0,0,0" />
<polygon id="04-4730D" points="7834,3298 7702,3298 7695,3308 7687,3308 7687,3384 7695,3384 7702,3394 7834,3394 7834,3298" stroke="rgb(none)" stroke-width="0.0" fill="0,0,0" />
<polygon id="04-4730E" points="7822,3440 7702,3440 7695,3450 7687,3450 7687,3514 7695,3514 7702,3524 7822,3524 7822,3440" stroke="rgb(none)" stroke-width="0.0" fill="0,0,0" />
<polygon id="04-4730F" points="7822,3560 7702,3560 7695,3570 7687,3570 7687,3634 7695,3634 7702,3644 7822,3644 7822,3560" stroke="rgb(none)" stroke-width="0.0" fill="0,0,0" />
<polygon id="04-4718" points="7244,3961 7244,3965 7508,3965 7510,3961 7510,3841 7508,3822 7504,3822 7504,3817 7456,3817 7456,3822 7438,3822 7438,3837 7244,3839 7240,3841 7244,3961" stroke="rgb(none)" stroke-width="0.0" fill="0,0,0" />
<polygon id="04-4730" points="7519,3634 7519,3648 7541,3650 7638,3650 7687,3648 7687,3281 7519,3281 7519,3634" stroke="rgb(none)" stroke-width="0.0" fill="0,0,0" />
<polygon id="04-4730A" points="7519,3570 7495,3570 7488,3560 7368,3560 7368,3644 7488,3644 7495,3634 7519,3634 7519,3570" stroke="rgb(none)" stroke-width="0.0" fill="0,0,0" />
<polygon id="04-4730B" points="7519,3450 7495,3450 7488,3440 7368,3440 7368,3524 7488,3524 7495,3514 7519,3514 7519,3450" stroke="rgb(none)" stroke-width="0.0" fill="0,0,0" />
<polygon id="04-4730C" points="7519,3320 7495,3320 7488,3310 7368,3310 7368,3394 7488,3394 7495,3384 7519,3384 7519,3320" stroke="rgb(none)" stroke-width="0.0" fill="0,0,0" />
<polygon id="04-4720F" points="7264,3646 7338,3646 7338,3550 7264,3550 7257,3572 7233,3572 7233,3624 7257,3624 7264,3646" stroke="rgb(none)" stroke-width="0.0" fill="0,0,0" />
<polygon id="04-4720E" points="7338,3430 7264,3430 7257,3452 7233,3452 7233,3504 7257,3504 7264,3526 7338,3526 7338,3430" stroke="rgb(none)" stroke-width="0.0" fill="0,0,0" />
<polygon id="04-4720D" points="7338,3300 7264,3300 7257,3322 7233,3322 7233,3374 7257,3374 7264,3396 7338,3396 7338,3300" stroke="rgb(none)" stroke-width="0.0" fill="0,0,0" />
<polygon id="04-4720" points="7233,3504 7233,3289 7214,3289 7214,3284 7118,3284 7118,3289 7098,3289 7098,3648 7116,3648 7116,3653 7216,3653 7216,3648 7233,3648 7233,3504" stroke="rgb(none)" stroke-width="0.0" fill="0,0,0" />
<polygon id="04-4720A" points="7002,3646 7076,3646 7082,3624 7098,3624 7098,3572 7082,3572 7076,3550 7002,3550 7002,3646" stroke="rgb(none)" stroke-width="0.0" fill="0,0,0" />
<polygon id="04-4720B" points="7002,3526 7076,3526 7082,3504 7098,3504 7098,3452 7082,3452 7076,3430 7002,3430 7002,3526" stroke="rgb(none)" stroke-width="0.0" fill="0,0,0" />
<polygon id="04-4720C" points="7076,3396 7082,3374 7098,3374 7098,3322 7082,3322 7076,3300 7002,3300 7002,3396 7076,3396" stroke="rgb(none)" stroke-width="0.0" fill="0,0,0" />
<polygon id="04-4742" points="6866,3438 6866,3474 6872,3474 6872,3682 6979,3682 6979,3430 6872,3430 6872,3438 6866,3438" stroke="rgb(none)" stroke-width="0.0" fill="0,0,0" />
<polygon id="04-4709" points="6544,3679 6544,3698 6641,3698 6641,3568 6481,3568 6481,3575 6476,3575 6476,3611 6481,3611 6482,3658 6484,3679 6544,3679" stroke="rgb(none)" stroke-width="0.0" fill="0,0,0" />
<polygon id="04-4707" points="6356,3535 6416,3535 6416,3564 6420,3564 6420,3569 6456,3569 6456,3564 6498,3564 6502,3462 6474,3462 6474,3401 6356,3401 6356,3535" stroke="rgb(none)" stroke-width="0.0" fill="0,0,0" />
<polygon id="04-4700A" points="7637,3701 7642,3701 7642,3653 7536,3653 7536,3701 7541,3701 7541,3721 7444,3721 7444,3687 7272,3687 7272,3721 7214,3721 7214,3702 7219,3702 7219,3653 7108,3653 7107,3687 7106,3693 7113,3693 7113,3702 7118,3702 7118,3721 6866,3721 6866,3575 6794,3575 6794,3721 6476,3721 6476,3569 6416,3569 6416,3721 5918,3721 5918,3716 5910,3716 5910,3820 5960,3819 6057,3817 6057,3847 7214,3847 7214,3817 7540,3817 7540,3847 7723,3847 7723,3721 7637,3721 7637,3701" stroke="rgb(none)" stroke-width="0.0" fill="0,0,0" />
<polygon id="04-4700" points="5044,3718 5031,3718 5031,3817 5134,3817 5134,3847 5650,3847 5650,3828 5656,3828 5656,3836 5683,3836 5683,3828 5734,3828 5734,3817 5901,3819 5910,3820 5910,3716 5859,3716 5859,3721 5734,3721 5734,3710 5683,3710 5683,3702 5656,3702 5656,3710 5650,3710 5650,3691 5044,3691 5044,3718" stroke="rgb(none)" stroke-width="0.0" fill="0,0,0" />
<polygon id="04-4711" points="6789,3716 6789,3277 6580,3277 6580,3420 6646,3420 6646,3553 6671,3555 6645,3557 6645,3667 6716,3667 6718,3716 6720,3721 6786,3721 6789,3716" stroke="rgb(none)" stroke-width="0.0" fill="0,0,0" />
<polygon id="04-4702" points="6046,3852 5979,3852 5979,3826 5837,3826 5837,3817 5785,3817 5784,3826 5783,3853 5738,3853 5738,3923 5762,3923 5762,3951 5790,3951 5790,3963 6022,3963 6022,3951 6046,3951 6046,3852" stroke="rgb(none)" stroke-width="0.0" fill="0,0,0" />
<polygon id="04-4705" points="6091,3716 6209,3716 6209,3721 6257,3721 6259,3716 6261,3670 6307,3670 6307,3716 6362,3716 6362,3699 6411,3699 6411,3564 6396,3564 6396,3540 6335,3540 6335,3434 6278,3434 6278,3401 6091,3401 6091,3716" stroke="rgb(none)" stroke-width="0.0" fill="0,0,0" />
<polygon id="04-4703" points="5927,3721 5976,3721 5976,3716 6007,3716 6007,3673 6084,3672 6085,3401 6046,3401 6046,3425 6022,3425 6022,3401 5923,3401 5923,3716 5927,3716 5927,3721" stroke="rgb(none)" stroke-width="0.0" fill="0,0,0" />
<polygon id="04-4701" points="5738,3683 5762,3683 5764,3716 5766,3721 5802,3721 5802,3716 5820,3716 5820,3677 5825,3677 5825,3695 5843,3695 5843,3677 5848,3677 5848,3695 5918,3695 5918,3401 5738,3401 5738,3459 5762,3459 5762,3483 5738,3483 5738,3683" stroke="rgb(none)" stroke-width="0.0" fill="0,0,0" />
<polygon id="04-4693A" points="5039,4918 4809,4918 4809,4901 4767,4901 4767,4916 4744,4916 4744,5012 5039,5012 5039,4918" stroke="rgb(none)" stroke-width="0.0" fill="0,0,0" />
<polygon id="04-4693" points="4826,4806 4768,4806 4768,4815 4744,4815 4744,4901 4809,4901 4826,4900 4826,4806" stroke="rgb(none)" stroke-width="0.0" fill="0,0,0" />
<polygon id="04-4604" points="4417,3823 4373,3823 4373,3815 4334,3815 4332,3823 4331,3912 4417,3912 4417,3823" stroke="rgb(none)" stroke-width="0.0" fill="0,0,0" />
<polygon id="04-4602" points="4322,3842 4303,3842 4301,3823 4299,3815 4264,3815 4264,3822 4238,3822 4238,3912 4322,3912 4322,3842" stroke="rgb(none)" stroke-width="0.0" fill="0,0,0" />
<polygon id="04-4601" points="5032,3727 5027,3726 4996,3725 4996,3694 4838,3694 4838,3721 4829,3721 4789,3720 4641,3720 4641,3725 4636,3725 4636,3720 4431,3720 4431,3727 4082,3727 4081,3731 4082,3812 4264,3814 4299,3815 4427,3815 4427,3874 4521,3874 4521,3815 4933,3814 5027,3812 5032,3811 5032,3727" stroke="rgb(none)" stroke-width="0.0" fill="0,0,0" />
<polygon id="04-4608" points="4729,3850 4744,3850 4744,3820 4687,3820 4687,3815 4648,3815 4646,3820 4644,3901 4729,3901 4729,3850" stroke="rgb(none)" stroke-width="0.0" fill="0,0,0" />
<polygon id="04-4609" points="5009,3592 5020,3592 5020,3497 4781,3497 4781,3593 4787,3593 4787,3621 4775,3621 4775,3716 4789,3716 4789,3720 4829,3720 4831,3716 4833,3689 5001,3689 5001,3710 5020,3710 5020,3615 5009,3615 5009,3592" stroke="rgb(none)" stroke-width="0.0" fill="0,0,0" />
<polygon id="04-4607A" points="4731,3628 4718,3628 4718,3599 4655,3599 4655,3628 4650,3628 4650,3660 4655,3662 4731,3663 4731,3628" stroke="rgb(none)" stroke-width="0.0" fill="0,0,0" />
<polygon id="04-4607" points="4650,3660 4650,3599 4547,3599 4547,3715 4580,3715 4580,3720 4619,3720 4619,3715 4662,3715 4662,3681 4650,3681 4650,3660" stroke="rgb(none)" stroke-width="0.0" fill="0,0,0" />
<polygon id="04-4605A" points="4776,3488 4547,3488 4547,3492 4542,3492 4542,3540 4547,3540 4547,3589 4776,3589 4776,3488" stroke="rgb(none)" stroke-width="0.0" fill="0,0,0" />
<polygon id="04-4605" points="4542,3594 4542,3489 4431,3489 4431,3720 4542,3720 4542,3594" stroke="rgb(none)" stroke-width="0.0" fill="0,0,0" />
<polygon id="04-4605B" points="4431,3620 4415,3620 4408,3615 4295,3615 4295,3683 4408,3683 4415,3677 4431,3677 4431,3620" stroke="rgb(none)" stroke-width="0.0" fill="0,0,0" />
<polygon id="04-4605C" points="4431,3526 4415,3526 4408,3521 4295,3521 4295,3589 4408,3589 4415,3584 4431,3584 4431,3526" stroke="rgb(none)" stroke-width="0.0" fill="0,0,0" />
<polygon id="04-4603" points="4286,3606 4138,3606 4138,3715 4220,3715 4220,3727 4256,3727 4256,3715 4286,3715 4286,3606" stroke="rgb(none)" stroke-width="0.0" fill="0,0,0" />
<polygon id="04-4603A" points="4284,3488 4140,3488 4140,3595 4232,3600 4232,3606 4280,3606 4280,3600 4284,3595 4284,3488" stroke="rgb(none)" stroke-width="0.0" fill="0,0,0" />
<polygon id="04-4600C" points="4124,3604 4056,3604 4051,3611 4041,3611 4041,3620 4024,3620 4024,3674 4041,3674 4056,3707 4124,3707 4124,3604" stroke="rgb(none)" stroke-width="0.0" fill="0,0,0" />
<polygon id="04-4600B" points="4124,3496 4056,3496 4041,3530 4024,3530 4024,3584 4041,3584 4041,3593 4051,3593 4056,3599 4124,3599 4124,3496" stroke="rgb(none)" stroke-width="0.0" fill="0,0,0" />
<polygon id="04-4600" points="4024,3584 4024,3496 4014,3496 4014,3414 4007,3413 3922,3413 3917,3414 3917,3501 3912,3501 3912,3700 3932,3700 3932,3817 3960,3817 3960,3836 4024,3836 4024,3814 4078,3812 4079,3731 4077,3727 4024,3727 4024,3584" stroke="rgb(none)" stroke-width="0.0" fill="0,0,0" />
<polygon id="04-4600A" points="4014,3068 4006,3068 4006,2796 4016,2796 4016,2676 4006,2676 4006,2645 3893,2645 3893,2685 3709,2685 3708,2699 3708,2771 3709,2783 3917,2783 3917,3409 3922,3410 4007,3410 4014,3409 4014,3068" stroke="rgb(none)" stroke-width="0.0" fill="0,0,0" />
<polygon id="04-4006" points="2287,2231 2236,2231 2236,2268 2246,2268 2246,2273 2283,2273 2285,2268 2287,2231" stroke="rgb(none)" stroke-width="0.0" fill="0,0,0" />
<polygon id="04-4004" points="2287,2099 2270,2099 2270,2089 2247,2089 2247,2078 2201,2078 2201,2069 2165,2069 2165,2078 2157,2078 2157,2089 2142,2089 2142,2268 2156,2268 2156,2273 2206,2273 2206,2268 2231,2268 2231,2226 2287,2226 2287,2099" stroke="rgb(none)" stroke-width="0.0" fill="0,0,0" />
<polygon id="04-4201" points="1917,2092 1649,2092 1649,2125 1645,2125 1645,2173 1649,2173 1649,2251 1683,2251 1683,2261 1917,2261 1917,2222 1894,2222 1894,2196 1917,2196 1917,2092" stroke="rgb(none)" stroke-width="0.0" fill="0,0,0" />
<polygon id="04-4330" points="1954,3603 1941,3603 1941,3691 2120,3691 2120,3603 2006,3603 2006,3592 1954,3592 1954,3603" stroke="rgb(none)" stroke-width="0.0" fill="0,0,0" />
<polygon id="04-4304" points="1543,3780 1557,3780 1557,3739 1563,3739 1563,3703 1557,3703 1557,3640 1461,3640 1461,3802 1543,3802 1543,3780" stroke="rgb(none)" stroke-width="0.0" fill="0,0,0" />
<polygon id="04-4301" points="1881,2909 1661,2909 1661,2929 1655,2929 1655,2976 1661,2976 1661,3169 1881,3169 1881,2909" stroke="rgb(none)" stroke-width="0.0" fill="0,0,0" />
<polygon id="04-4140" points="3707,2699 3704,2685 3597,2685 3503,2685 2594,2685 2532,2685 2320,2687 2320,2782 2389,2783 2631,2783 2837,2783 2926,2783 3032,2783 3528,2783 3636,2783 3704,2783 3706,2771 3707,2699" stroke="rgb(none)" stroke-width="0.0" fill="0,0,0" />
<polygon id="04-4005" points="1705,2584 1661,2584 1661,2591 1655,2591 1655,2628 1661,2628 1661,2687 1705,2687 1705,2584" stroke="rgb(none)" stroke-width="0.0" fill="0,0,0" />
<polygon id="04-4008B" points="1269,2413 1208,2352 1184,2356 1123,2356 1123,2458 1134,2458 1134,2473 1269,2473 1269,2468 1274,2468 1274,2432 1269,2432 1269,2413" stroke="rgb(none)" stroke-width="0.0" fill="0,0,0" />
<polygon id="04-4302B" points="1267,2643 1137,2643 1137,2660 1123,2660 1123,2759 1183,2759 1210,2765 1238,2734 1242,2738 1268,2709 1264,2706 1267,2702 1267,2643" stroke="rgb(none)" stroke-width="0.0" fill="0,0,0" />
<polygon id="04-4302A" points="1427,2665 1421,2665 1421,2660 1385,2660 1385,2665 1272,2665 1272,2704 1216,2766 1240,2779 1260,2798 1276,2820 1286,2846 1289,2874 1289,2893 1298,2893 1298,2919 1289,2919 1289,2964 1432,2964 1434,2960 1439,2963 1457,2932 1452,2929 1473,2894 1473,2833 1427,2833 1427,2665" stroke="rgb(none)" stroke-width="0.0" fill="0,0,0" />
<polygon id="04-4302D" points="1430,3022 1430,3016 1436,3016 1436,2978 1430,2978 1430,2970 1289,2970 1289,3159 1305,3159 1305,3167 1430,3167 1430,3022" stroke="rgb(none)" stroke-width="0.0" fill="0,0,0" />
<polygon id="04-4307" points="1787,4117 1661,4117 1661,4123 1655,4123 1655,4159 1661,4159 1661,4267 1733,4267 1733,4235 1787,4235 1787,4117" stroke="rgb(none)" stroke-width="0.0" fill="0,0,0" />
<polygon id="04-4308" points="1557,4033 1521,4033 1521,4018 1557,4018 1557,3981 1289,3981 1289,4006 1306,4006 1306,4045 1289,4045 1289,4126 1436,4126 1436,4151 1487,4151 1487,4126 1493,4126 1493,4151 1557,4151 1557,4123 1563,4123 1563,4087 1557,4087 1557,4033" stroke="rgb(none)" stroke-width="0.0" fill="0,0,0" />
<polygon id="04-4310A" points="1537,4538 1537,4542 1557,4542 1556,4513 1537,4515 1531,4516 1531,4538 1537,4538" stroke="rgb(none)" stroke-width="0.0" fill="0,0,0" />
<polygon id="04-4321" points="1551,4612 1635,4612 1633,4564 1632,4559 1596,4559 1596,4564 1551,4564 1551,4612" stroke="rgb(none)" stroke-width="0.0" fill="0,0,0" />
<polygon id="04-4323" points="1632,4617 1632,4612 1596,4612 1596,4617 1551,4617 1551,4849 1596,4861 1635,4849 1632,4617" stroke="rgb(none)" stroke-width="0.0" fill="0,0,0" />
<polygon id="04-4300" points="1655,3571 1655,2903 1645,2902 1573,2902 1563,2903 1563,4559 1635,4559 1635,4542 1655,4542 1655,3571" stroke="rgb(none)" stroke-width="0.0" fill="0,0,0" />
<polygon id="04-4305B" points="1923,3511 1911,3511 1911,3529 1793,3529 1793,3535 1787,3535 1787,3571 1793,3571 1793,3685 1901,3685 1901,3676 1923,3676 1923,3511" stroke="rgb(none)" stroke-width="0.0" fill="0,0,0" />
<polygon id="04-4305" points="1787,3860 1787,3433 1681,3433 1681,3457 1661,3457 1661,3535 1655,3535 1655,3571 1661,3571 1661,4069 1655,4069 1655,4105 1661,4105 1661,4111 1787,4111 1787,3860" stroke="rgb(none)" stroke-width="0.0" fill="0,0,0" />
<polygon id="04-4305F" points="1787,3367 1661,3367 1661,3427 1744,3427 1744,3433 1780,3433 1780,3427 1787,3427 1787,3367" stroke="rgb(none)" stroke-width="0.0" fill="0,0,0" />
<polygon id="04-4303A" points="1715,3175 1661,3175 1661,3295 1715,3295 1715,3291 1721,3291 1721,3255 1715,3255 1715,3175" stroke="rgb(none)" stroke-width="0.0" fill="0,0,0" />
<polygon id="04-4120" points="3784,2483 3767,2483 3767,2455 3760,2455 3760,2444 3724,2444 3724,2455 3717,2455 3717,2576 3784,2576 3784,2483" stroke="rgb(none)" stroke-width="0.0" fill="0,0,0" />
<polygon id="04-4122" points="3758,2675 3774,2675 3774,2639 3784,2639 3784,2588 3717,2588 3717,2675 3722,2675 3722,2685 3758,2685 3758,2675" stroke="rgb(none)" stroke-width="0.0" fill="0,0,0" />
<polygon id="04-4124" points="3717,2629 3708,2629 3708,2450 3609,2450 3609,2675 3708,2675 3708,2670 3717,2670 3717,2629" stroke="rgb(none)" stroke-width="0.0" fill="0,0,0" />
<polygon id="04-4100A" points="3597,2434 3503,2434 3503,2465 3474,2465 3474,2584 3503,2584 3503,2685 3597,2685 3597,2434" stroke="rgb(none)" stroke-width="0.0" fill="0,0,0" />
<polygon id="04-4100" points="3775,2341 2342,2341 2342,2374 2337,2374 2337,2410 2342,2410 2342,2430 3015,2430 3156,2430 3503,2432 3717,2434 3717,2444 3724,2444 3760,2444 3767,2444 3767,2435 3775,2435 3775,2341" stroke="rgb(none)" stroke-width="0.0" fill="0,0,0" />
<polygon id="04-4144" points="2589,2460 2569,2460 2569,2435 2479,2435 2479,2680 2496,2680 2496,2685 2532,2685 2532,2680 2569,2680 2569,2655 2589,2655 2589,2460" stroke="rgb(none)" stroke-width="0.0" fill="0,0,0" />
<polygon id="04-4000B" points="2402,2571 2289,2571 2284,2570 2272,2570 2272,2624 2284,2624 2289,2639 2402,2639 2402,2571" stroke="rgb(none)" stroke-width="0.0" fill="0,0,0" />
<polygon id="04-4000A" points="2402,2477 2289,2477 2284,2492 2272,2492 2272,2546 2284,2546 2289,2545 2403,2545 2402,2477" stroke="rgb(none)" stroke-width="0.0" fill="0,0,0" />
<polygon id="04-4000" points="2272,2430 2337,2430 2337,2341 2287,2341 2285,2273 2106,2273 2100,2273 2100,2389 2140,2389 2140,2717 2110,2717 2110,2783 2317,2782 2317,2687 2272,2685 2272,2430" stroke="rgb(none)" stroke-width="0.0" fill="0,0,0" />
<polygon id="04-4002" points="2106,2218 1923,2218 1923,2261 2047,2261 2047,2273 2106,2273 2106,2218" stroke="rgb(none)" stroke-width="0.0" fill="0,0,0" />
<polygon id="04-4009" points="1727,2805 1661,2805 1661,2812 1655,2812 1655,2848 1661,2848 1661,2884 1727,2884 1727,2805" stroke="rgb(none)" stroke-width="0.0" fill="0,0,0" />
<polygon id="04-4007" points="1727,2720 1661,2720 1661,2756 1655,2756 1655,2793 1661,2793 1661,2799 1727,2799 1727,2720" stroke="rgb(none)" stroke-width="0.0" fill="0,0,0" />
<polygon id="04-4000D" points="1987,2424 1974,2418 1974,2409 1929,2409 1929,2418 1918,2424 1918,2521 1987,2521 1987,2424" stroke="rgb(none)" stroke-width="0.0" fill="0,0,0" />
<polygon id="04-4000E" points="1851,2422 1837,2417 1837,2409 1788,2409 1788,2417 1782,2422 1782,2521 1851,2521 1851,2422" stroke="rgb(none)" stroke-width="0.0" fill="0,0,0" />
<polygon id="04-4000F" points="1757,2422 1742,2417 1742,2409 1694,2409 1694,2417 1688,2422 1688,2521 1757,2521 1757,2422" stroke="rgb(none)" stroke-width="0.0" fill="0,0,0" />
<polygon id="04-4010" points="1542,2691 1558,2691 1558,2665 1472,2665 1472,2660 1437,2660 1437,2665 1432,2665 1432,2739 1558,2739 1558,2713 1542,2713 1542,2691" stroke="rgb(none)" stroke-width="0.0" fill="0,0,0" />
<polygon id="04-4000H" points="1548,2563 1329,2563 1329,2660 1548,2660 1548,2563" stroke="rgb(none)" stroke-width="0.0" fill="0,0,0" />
<polygon id="04-4000C" points="2100,2273 1666,2273 1666,2403 1686,2403 1686,2409 1868,2409 1868,2403 1890,2403 1890,2409 2082,2409 2082,2402 2090,2402 2090,2381 2100,2381 2100,2273" stroke="rgb(none)" stroke-width="0.0" fill="0,0,0" />
<polygon id="04-4000G" points="1550,2229 1549,2234 1548,2660 1563,2660 1563,2898 1573,2899 1645,2899 1655,2898 1655,2571 1662,2571 1662,2535 1655,2535 1655,2530 1666,2530 1666,2273 1645,2273 1645,2234 1644,2229 1550,2229" stroke="rgb(none)" stroke-width="0.0" fill="0,0,0" />
<polygon id="04-4014" points="1329,2583 1324,2583 1324,2478 1101,2478 1101,2470 937,2470 937,2475 913,2475 913,2470 745,2470 745,2475 721,2475 721,2470 553,2470 553,2475 529,2475 529,2470 456,2470 456,2492 452,2492 421,2555 452,2617 456,2617 456,2644 529,2642 553,2642 721,2642 745,2642 913,2642 937,2642 1101,2644 1101,2638 1324,2638 1324,2625 1329,2625 1329,2583" stroke="rgb(none)" stroke-width="0.0" fill="0,0,0" />
<polygon id="04-4230" points="2120,1434 1996,1434 1996,1428 1944,1428 1944,1434 1925,1434 1925,1548 2120,1548 2120,1434" stroke="rgb(none)" stroke-width="0.0" fill="0,0,0" />
<polygon id="04-4205D" points="1917,1427 1838,1429 1834,1431 1836,1467 1838,1541 1917,1541 1917,1427" stroke="rgb(none)" stroke-width="0.0" fill="0,0,0" />
<polygon id="04-4207D" points="1655,1119 1713,1123 1714,1119 1725,1109 1725,1094 1666,1094 1666,1109 1649,1109 1649,1119 1655,1119" stroke="rgb(none)" stroke-width="0.0" fill="0,0,0" />
<polygon id="04-4200" points="1637,2229 1645,2229 1645,574 1548,574 1548,2229 1637,2229" stroke="rgb(none)" stroke-width="0.0" fill="0,0,0" />
<polygon id="04-4221" points="1648,492 1560,492 1560,562 1567,562 1567,574 1605,574 1605,562 1648,562 1648,492" stroke="rgb(none)" stroke-width="0.0" fill="0,0,0" />
<polygon id="04-4223" points="1648,248 1631,248 1603,239 1576,248 1560,248 1560,480 1567,480 1567,492 1605,492 1605,480 1648,480 1648,248" stroke="rgb(none)" stroke-width="0.0" fill="0,0,0" />
<polygon id="04-4119" points="3775,2090 3625,2090 3625,2269 3720,2269 3720,2274 3690,2274 3690,2336 3732,2336 3732,2341 3769,2341 3769,2336 3775,2336 3775,2090" stroke="rgb(none)" stroke-width="0.0" fill="0,0,0" />
<polygon id="04-4119A" points="3685,2274 3682,2269 3643,2269 3643,2274 3625,2274 3625,2336 3685,2336 3685,2274" stroke="rgb(none)" stroke-width="0.0" fill="0,0,0" />
<polygon id="04-4117A" points="3620,2274 3598,2274 3598,2269 3559,2269 3559,2274 3552,2274 3552,2336 3620,2336 3620,2274" stroke="rgb(none)" stroke-width="0.0" fill="0,0,0" />
<polygon id="04-4115" points="3480,2098 3468,2098 3468,2090 3331,2090 3331,2269 3428,2269 3428,2274 3404,2274 3404,2336 3441,2336 3441,2341 3477,2341 3479,2336 3480,2098" stroke="rgb(none)" stroke-width="0.0" fill="0,0,0" />
<polygon id="04-4113" points="3326,2090 3197,2090 3197,2098 3185,2098 3185,2336 3191,2336 3191,2341 3227,2341 3227,2336 3251,2336 3251,2274 3224,2274 3224,2269 3326,2269 3326,2090" stroke="rgb(none)" stroke-width="0.0" fill="0,0,0" />
<polygon id="04-4115A" points="3399,2274 3390,2274 3390,2269 3351,2269 3351,2274 3331,2274 3331,2336 3399,2336 3399,2274" stroke="rgb(none)" stroke-width="0.0" fill="0,0,0" />
<polygon id="04-4113A" points="3326,2274 3302,2274 3302,2269 3263,2269 3263,2274 3256,2274 3256,2336 3326,2336 3326,2274" stroke="rgb(none)" stroke-width="0.0" fill="0,0,0" />
<polygon id="04-4112" points="3313,2435 3304,2435 3304,2430 3269,2430 3269,2435 3197,2435 3197,2512 3313,2512 3313,2435" stroke="rgb(none)" stroke-width="0.0" fill="0,0,0" />
<polygon id="04-4130" points="3469,2435 3440,2435 3440,2430 3405,2430 3405,2435 3393,2435 3393,2517 3197,2517 3197,2680 3266,2680 3266,2685 3304,2685 3304,2680 3310,2680 3310,2579 3428,2579 3428,2546 3469,2546 3469,2435" stroke="rgb(none)" stroke-width="0.0" fill="0,0,0" />
<polygon id="04-4114" points="3388,2435 3382,2435 3382,2430 3344,2430 3344,2435 3318,2435 3318,2512 3388,2512 3388,2435" stroke="rgb(none)" stroke-width="0.0" fill="0,0,0" />
<polygon id="04-4111" points="3180,2098 3166,2098 3166,2090 3030,2090 3030,2269 3128,2269 3128,2274 3097,2274 3097,2336 3134,2336 3134,2341 3171,2341 3171,2336 3180,2336 3180,2098" stroke="rgb(none)" stroke-width="0.0" fill="0,0,0" />
<polygon id="04-4109" points="3025,2090 2897,2090 2897,2098 2883,2098 2883,2336 2889,2336 2889,2341 2925,2341 2925,2336 2951,2336 2951,2274 2924,2274 2924,2269 3025,2269 3025,2090" stroke="rgb(none)" stroke-width="0.0" fill="0,0,0" />
<polygon id="04-4111A" points="3092,2274 3090,2269 3051,2269 3051,2274 3030,2274 3030,2336 3092,2336 3092,2274" stroke="rgb(none)" stroke-width="0.0" fill="0,0,0" />
<polygon id="04-4110" points="3192,2462 3156,2462 3156,2430 3015,2430 3015,2558 3192,2558 3192,2462" stroke="rgb(none)" stroke-width="0.0" fill="0,0,0" />
<polygon id="04-4109A" points="3025,2274 3001,2274 3001,2269 2963,2269 2963,2274 2956,2274 2956,2336 3025,2336 3025,2274" stroke="rgb(none)" stroke-width="0.0" fill="0,0,0" />
<polygon id="04-4132B" points="2939,2520 2934,2520 2934,2435 2896,2435 2896,2459 2870,2459 2870,2435 2817,2435 2817,2573 2934,2573 2934,2560 2939,2560 2939,2520" stroke="rgb(none)" stroke-width="0.0" fill="0,0,0" />
<polygon id="04-4132A" points="3015,2471 3010,2471 3010,2435 2939,2435 2939,2558 3015,2558 3015,2471" stroke="rgb(none)" stroke-width="0.0" fill="0,0,0" />
<polygon id="04-4117" points="3620,2090 3498,2090 3498,2098 3485,2098 3487,2336 3489,2341 3525,2341 3525,2336 3547,2336 3547,2274 3521,2274 3521,2269 3620,2269 3620,2090" stroke="rgb(none)" stroke-width="0.0" fill="0,0,0" />
<polygon id="04-4677" points="5126,3823 5123,3844 4991,3844 4991,3839 4933,3840 4917,3841 4917,3891 4898,3891 4898,3925 4917,3925 4917,3940 4912,3940 4912,3981 4917,3981 4917,3990 5116,3990 5125,3990 5126,3823" stroke="rgb(none)" stroke-width="0.0" fill="0,0,0" />
<polygon id="04-4677A" points="4853,3891 4849,3925 4891,3925 4890,3891 4888,3886 4912,3886 4912,3879 4917,3879 4917,3844 4912,3844 4912,3827 4849,3827 4851,3886 4853,3891" stroke="rgb(none)" stroke-width="0.0" fill="0,0,0" />
<polygon id="04-4679" points="5126,3995 5116,3996 4917,3995 4917,4091 4905,4091 4905,4102 4900,4102 4900,4143 4905,4143 4905,4151 5003,4151 5003,4135 5068,4135 5068,4151 5117,4150 5126,4149 5126,3995" stroke="rgb(none)" stroke-width="0.0" fill="0,0,0" />
<polygon id="04-4679A" points="4917,4027 4912,4027 4912,4000 4875,4000 4875,4086 4912,4086 4912,4056 4917,4056 4917,4027" stroke="rgb(none)" stroke-width="0.0" fill="0,0,0" />
<polygon id="04-4673" points="4835,3820 4779,3820 4779,3855 4734,3855 4736,3925 4738,3930 4775,3930 4777,3926 4817,3926 4835,3925 4835,3820" stroke="rgb(none)" stroke-width="0.0" fill="0,0,0" />
<polygon id="04-4671" points="4639,3820 4602,3820 4602,3815 4563,3815 4563,3820 4549,3820 4549,3842 4526,3842 4526,3925 4563,3925 4563,3930 4603,3930 4603,3925 4639,3925 4639,3820" stroke="rgb(none)" stroke-width="0.0" fill="0,0,0" />
<polygon id="04-4680" points="4912,3940 4912,3930 4817,3928 4777,3928 4729,3930 4729,3906 4644,3906 4644,3930 4521,3930 4521,3879 4514,3879 4514,3874 4434,3874 4434,3879 4427,3879 4427,3930 4203,3928 4163,3926 4163,3984 4212,3984 4212,4025 4864,4025 4864,3986 4912,3986 4912,3940" stroke="rgb(none)" stroke-width="0.0" fill="0,0,0" />
<polygon id="04-4680A" points="4768,4025 4452,4025 4452,4030 4430,4030 4430,4134 4633,4134 4633,4151 4658,4151 4658,4134 4672,4134 4672,4166 4741,4166 4741,4140 4768,4140 4768,4025" stroke="rgb(none)" stroke-width="0.0" fill="0,0,0" />
<polygon id="04-4652" points="4425,4030 4324,4030 4324,4038 4319,4038 4319,4064 4324,4064 4324,4091 4335,4091 4335,4106 4425,4106 4425,4030" stroke="rgb(none)" stroke-width="0.0" fill="0,0,0" />
<polygon id="04-4681" points="5126,4156 5068,4156 5068,4170 5003,4170 5003,4156 4905,4156 4905,4162 4900,4162 4900,4203 4905,4203 4905,4207 4915,4207 4915,4282 4927,4282 4927,4287 4915,4287 4915,4310 5126,4310 5126,4156" stroke="rgb(none)" stroke-width="0.0" fill="0,0,0" />
<polygon id="04-4681A" points="4915,4249 4910,4249 4910,4212 4875,4212 4875,4309 4910,4309 4910,4279 4915,4279 4915,4249" stroke="rgb(none)" stroke-width="0.0" fill="0,0,0" />
<polygon id="04-4683" points="5126,4315 4915,4315 4915,4339 4925,4339 4925,4344 4915,4344 4915,4410 4904,4410 4904,4425 4899,4425 4899,4466 4904,4466 4904,4475 5002,4475 5002,4459 5067,4459 5067,4475 5126,4475 5126,4315" stroke="rgb(none)" stroke-width="0.0" fill="0,0,0" />
<polygon id="04-4683A" points="4910,4376 4915,4376 4915,4345 4910,4345 4910,4317 4875,4317 4875,4405 4910,4405 4910,4376" stroke="rgb(none)" stroke-width="0.0" fill="0,0,0" />
<polygon id="04-4670" points="4899,4466 4899,4410 4865,4410 4865,4207 4900,4207 4900,4091 4864,4091 4864,4025 4768,4025 4768,4140 4768,4492 4768,4579 4768,4806 4909,4806 4909,4734 4864,4734 4864,4531 4899,4531 4899,4466" stroke="rgb(none)" stroke-width="0.0" fill="0,0,0" />
<polygon id="04-4678" points="4768,4166 4672,4166 4672,4174 4633,4174 4633,4252 4768,4252 4768,4166" stroke="rgb(none)" stroke-width="0.0" fill="0,0,0" />
<polygon id="04-4685" points="5126,4480 5067,4480 5067,4494 5002,4494 5002,4480 4904,4480 4904,4486 4899,4486 4899,4528 4904,4529 4914,4531 4914,4604 4926,4604 4926,4609 4914,4609 4914,4634 5126,4634 5126,4480" stroke="rgb(none)" stroke-width="0.0" fill="0,0,0" />
<polygon id="04-4685A" points="4914,4572 4909,4572 4909,4536 4874,4536 4874,4633 4909,4633 4909,4603 4914,4603 4914,4572" stroke="rgb(none)" stroke-width="0.0" fill="0,0,0" />
<polygon id="04-4687" points="5126,4639 4914,4639 4914,4664 4924,4664 4924,4669 4914,4670 4914,4756 4909,4756 4909,4797 4914,4797 4914,4806 4988,4806 4988,4787 5051,4787 5051,4818 5126,4818 5126,4639" stroke="rgb(none)" stroke-width="0.0" fill="0,0,0" />
<polygon id="04-4687A" points="4914,4670 4909,4670 4909,4641 4874,4641 4874,4729 4909,4729 4909,4700 4914,4700 4914,4670" stroke="rgb(none)" stroke-width="0.0" fill="0,0,0" />
<polygon id="04-4680B" points="4628,4139 4619,4139 4619,4134 4579,4134 4579,4139 4556,4139 4556,4252 4628,4252 4628,4139" stroke="rgb(none)" stroke-width="0.0" fill="0,0,0" />
<polygon id="04-4684" points="4763,4297 4768,4297 4768,4261 4763,4259 4527,4257 4527,4419 4553,4419 4553,4424 4528,4424 4528,4445 4555,4445 4555,4487 4561,4487 4561,4492 4616,4492 4616,4487 4741,4487 4741,4464 4763,4464 4763,4297" stroke="rgb(none)" stroke-width="0.0" fill="0,0,0" />
<polygon id="04-4654" points="4425,4111 4335,4111 4335,4168 4309,4168 4309,4183 4304,4183 4304,4213 4309,4213 4309,4242 4425,4242 4425,4111" stroke="rgb(none)" stroke-width="0.0" fill="0,0,0" />
<polygon id="04-4656" points="4425,4247 4309,4247 4309,4314 4304,4314 4304,4350 4309,4350 4309,4356 4425,4356 4425,4247" stroke="rgb(none)" stroke-width="0.0" fill="0,0,0" />
<polygon id="04-4658" points="4425,4361 4309,4361 4309,4367 4304,4367 4304,4402 4309,4402 4309,4456 4380,4456 4380,4476 4425,4476 4425,4361" stroke="rgb(none)" stroke-width="0.0" fill="0,0,0" />
<polygon id="04-4662" points="4522,4139 4492,4139 4492,4134 4454,4134 4454,4139 4430,4139 4430,4486 4459,4486 4459,4491 4492,4491 4492,4487 4522,4487 4522,4139" stroke="rgb(none)" stroke-width="0.0" fill="0,0,0" />
<polygon id="04-4667A" points="4617,4629 4611,4629 4611,4624 4617,4624 4617,4591 4578,4591 4578,4624 4586,4624 4586,4629 4578,4629 4578,4640 4573,4640 4573,4676 4578,4676 4578,4704 4617,4704 4617,4629" stroke="rgb(none)" stroke-width="0.0" fill="0,0,0" />
<polygon id="04-4660" points="4768,4492 4492,4492 4459,4491 4370,4491 4370,4467 4332,4467 4332,4491 4187,4491 4187,4538 4212,4538 4212,4600 4261,4600 4261,4580 4310,4580 4672,4580 4768,4579 4768,4492" stroke="rgb(none)" stroke-width="0.0" fill="0,0,0" />
<polygon id="04-4669A" points="4622,4733 4617,4733 4617,4709 4578,4709 4578,4770 4586,4770 4586,4775 4578,4775 4578,4813 4617,4813 4617,4775 4611,4775 4611,4770 4617,4769 4622,4768 4622,4733" stroke="rgb(none)" stroke-width="0.0" fill="0,0,0" />
<polygon id="04-4665" points="4493,4636 4498,4636 4498,4600 4493,4600 4493,4591 4457,4591 4457,4580 4421,4580 4421,4591 4383,4591 4383,4600 4378,4600 4378,4636 4383,4636 4383,4659 4408,4659 4408,4676 4468,4676 4468,4659 4493,4659 4493,4636" stroke="rgb(none)" stroke-width="0.0" fill="0,0,0" />
<polygon id="04-4663" points="4435,4681 4403,4681 4403,4664 4363,4664 4363,4659 4378,4659 4378,4591 4363,4591 4363,4580 4310,4580 4310,4772 4343,4772 4343,4818 4435,4818 4435,4681" stroke="rgb(none)" stroke-width="0.0" fill="0,0,0" />
<polygon id="04-4667" points="4573,4676 4571,4591 4570,4580 4534,4580 4534,4591 4498,4591 4498,4659 4519,4659 4519,4664 4473,4664 4473,4681 4440,4681 4440,4818 4573,4818 4573,4676" stroke="rgb(none)" stroke-width="0.0" fill="0,0,0" />
<polygon id="04-4669" points="4758,4591 4672,4591 4672,4580 4630,4580 4630,4591 4622,4591 4622,4733 4623,4818 4736,4818 4736,4788 4758,4788 4758,4591" stroke="rgb(none)" stroke-width="0.0" fill="0,0,0" />
<polygon id="04-4125A" points="3627,2788 3558,2788 3558,2859 3594,2859 3594,2854 3627,2854 3627,2788" stroke="rgb(none)" stroke-width="0.0" fill="0,0,0" />
<polygon id="04-4123" points="3804,2788 3671,2788 3671,2783 3636,2783 3636,2788 3632,2788 3632,2859 3552,2859 3552,2901 3632,2901 3632,3025 3772,3025 3772,3019 3804,3019 3804,2788" stroke="rgb(none)" stroke-width="0.0" fill="0,0,0" />
<polygon id="04-4651A" points="4223,3822 4164,3822 4164,3844 4158,3844 4158,3881 4163,3882 4187,3883 4187,3888 4181,3888 4181,3921 4222,3921 4222,3888 4218,3888 4218,3883 4223,3883 4223,3822" stroke="rgb(none)" stroke-width="0.0" fill="0,0,0" />
<polygon id="04-4653A" points="4201,3995 4168,3995 4168,4022 4163,4022 4163,4057 4168,4057 4168,4092 4201,4092 4201,3995" stroke="rgb(none)" stroke-width="0.0" fill="0,0,0" />
<polygon id="04-4653" points="4163,4022 4163,3989 3947,3989 3947,4150 4003,4150 4003,4135 4070,4135 4070,4150 4182,4150 4182,4144 4187,4144 4187,4109 4182,4109 4182,4097 4163,4097 4163,4022" stroke="rgb(none)" stroke-width="0.0" fill="0,0,0" />
<polygon id="04-4128" points="3428,2584 3315,2584 3315,2680 3321,2680 3321,2685 3356,2685 3356,2680 3428,2680 3428,2584" stroke="rgb(none)" stroke-width="0.0" fill="0,0,0" />
<polygon id="04-4129A" points="3325,2788 3278,2788 3278,2853 3241,2853 3241,2890 3282,2890 3282,2895 3318,2895 3318,2890 3325,2890 3325,2788" stroke="rgb(none)" stroke-width="0.0" fill="0,0,0" />
<polygon id="04-4127" points="3480,2788 3463,2788 3463,2783 3428,2783 3428,2788 3398,2788 3398,2854 3428,2854 3428,2859 3330,2859 3330,3025 3472,3025 3472,3019 3483,3019 3482,2980 3480,2788" stroke="rgb(none)" stroke-width="0.0" fill="0,0,0" />
<polygon id="04-4127A" points="3393,2788 3330,2788 3330,2854 3358,2854 3358,2859 3393,2859 3393,2788" stroke="rgb(none)" stroke-width="0.0" fill="0,0,0" />
<polygon id="04-4129" points="3325,2895 3236,2895 3236,2848 3273,2848 3273,2788 3233,2788 3233,2783 3198,2783 3198,2788 3187,2788 3186,2859 3185,3018 3195,3018 3195,3025 3325,3025 3325,2895" stroke="rgb(none)" stroke-width="0.0" fill="0,0,0" />
<polygon id="04-4132" points="3156,2653 3192,2653 3192,2558 2939,2558 2939,2685 3156,2685 3156,2653" stroke="rgb(none)" stroke-width="0.0" fill="0,0,0" />
<polygon id="04-4131" points="3180,2859 3110,2859 3110,2788 3096,2788 3096,2783 3032,2783 3031,2788 3030,3025 3171,3025 3171,3018 3180,3018 3180,2859" stroke="rgb(none)" stroke-width="0.0" fill="0,0,0" />
<polygon id="04-4133A" points="3025,2788 2965,2788 2965,2859 3001,2859 3001,2854 3025,2854 3025,2788" stroke="rgb(none)" stroke-width="0.0" fill="0,0,0" />
<polygon id="04-4133" points="3025,2859 2924,2859 2924,2854 2960,2854 2960,2788 2926,2788 2926,2783 2891,2783 2891,2788 2884,2788 2884,3014 2897,3014 2897,3025 3025,3025 3025,2859" stroke="rgb(none)" stroke-width="0.0" fill="0,0,0" />
<polygon id="04-4125" points="3553,2788 3528,2788 3528,2783 3493,2783 3493,2788 3485,2788 3484,2980 3483,3019 3494,3019 3494,3025 3632,3025 3632,2980 3627,2980 3627,2906 3605,2906 3605,2901 3564,2901 3564,2906 3547,2906 3547,2859 3523,2859 3523,2854 3553,2854 3553,2788" stroke="rgb(none)" stroke-width="0.0" fill="0,0,0" />
<polygon id="04-4650" points="4304,4367 4304,4140 4326,4140 4326,4101 4304,4101 4304,4069 4319,4069 4319,4030 4304,4030 4304,4025 4212,4025 4212,4097 4187,4097 4187,4209 4212,4209 4212,4430 4187,4430 4187,4491 4304,4491 4304,4367" stroke="rgb(none)" stroke-width="0.0" fill="0,0,0" />
<polygon id="04-4655A" points="4202,4214 4170,4214 4170,4249 4165,4249 4165,4285 4170,4285 4170,4318 4202,4318 4202,4214" stroke="rgb(none)" stroke-width="0.0" fill="0,0,0" />
<polygon id="04-4657A" points="4202,4323 4170,4323 4170,4361 4165,4361 4165,4397 4170,4397 4170,4425 4202,4425 4202,4323" stroke="rgb(none)" stroke-width="0.0" fill="0,0,0" />
<polygon id="04-4655" points="4165,4249 4165,4209 4182,4209 4182,4197 4187,4197 4187,4161 4182,4161 4182,4155 4070,4155 4070,4169 4003,4169 4003,4155 3947,4156 3947,4318 4165,4318 4165,4249" stroke="rgb(none)" stroke-width="0.0" fill="0,0,0" />
<polygon id="04-4657" points="4165,4361 4165,4323 3947,4323 3947,4475 4003,4475 4003,4460 4070,4460 4070,4475 4182,4475 4182,4471 4187,4471 4187,4435 4182,4435 4182,4430 4165,4430 4165,4361" stroke="rgb(none)" stroke-width="0.0" fill="0,0,0" />
<polygon id="04-4663A" points="4310,4643 4305,4643 4305,4629 4299,4629 4299,4624 4305,4624 4305,4591 4266,4591 4266,4625 4272,4625 4272,4630 4266,4630 4266,4699 4305,4699 4305,4675 4310,4675 4310,4643" stroke="rgb(none)" stroke-width="0.0" fill="0,0,0" />
<polygon id="04-4659A" points="4207,4575 4200,4573 4207,4571 4207,4543 4170,4543 4170,4571 4179,4573 4170,4575 4170,4583 4165,4583 4165,4614 4170,4614 4170,4641 4207,4641 4207,4575" stroke="rgb(none)" stroke-width="0.0" fill="0,0,0" />
<polygon id="04-4661A" points="4305,4704 4266,4704 4266,4736 4261,4736 4261,4769 4266,4769 4266,4775 4273,4775 4273,4780 4266,4780 4266,4803 4301,4803 4299,4780 4297,4775 4305,4775 4305,4704" stroke="rgb(none)" stroke-width="0.0" fill="0,0,0" />
<polygon id="04-4659" points="4165,4583 4165,4538 4182,4538 4182,4526 4187,4526 4187,4490 4182,4490 4182,4480 4070,4480 4070,4494 4003,4494 4003,4480 3947,4480 3947,4641 4165,4641 4165,4583" stroke="rgb(none)" stroke-width="0.0" fill="0,0,0" />
<polygon id="04-4661" points="4261,4605 4257,4600 4216,4600 4216,4605 4212,4605 4212,4646 3947,4646 3947,4818 4036,4818 4036,4788 4063,4788 4063,4818 4254,4818 4254,4784 4261,4784 4261,4605" stroke="rgb(none)" stroke-width="0.0" fill="0,0,0" />
<polygon id="04-4132C" points="2939,2578 2817,2578 2817,2680 2870,2680 2870,2656 2896,2656 2896,2680 2939,2680 2939,2578" stroke="rgb(none)" stroke-width="0.0" fill="0,0,0" />
<polygon id="04-4126" points="3498,2589 3469,2589 3469,2551 3433,2551 3433,2653 3498,2653 3498,2641 3503,2641 3503,2606 3498,2606 3498,2589" stroke="rgb(none)" stroke-width="0.0" fill="0,0,0" />
<polygon id="04-4211" points="1916,572 1900,572 1686,572 1649,572 1649,599 1684,598 1688,597 1688,617 1649,617 1649,693 1745,693 1745,697 1781,697 1781,693 1916,693 1916,572" stroke="rgb(none)" stroke-width="0.0" fill="0,0,0" />
<polygon id="04-4209" points="1783,735 1783,697 1649,697 1649,702 1645,702 1647,738 1649,811 1666,811 1666,845 1649,845 1649,955 1916,955 1916,838 1893,838 1893,829 1783,829 1783,735" stroke="rgb(none)" stroke-width="0.0" fill="0,0,0" />
<polygon id="04-4207A" points="1783,961 1649,961 1649,1075 1666,1075 1666,1088 1747,1088 1755,1079 1758,1082 1784,1057 1782,1053 1783,961" stroke="rgb(none)" stroke-width="0.0" fill="0,0,0" />
<polygon id="04-4207B" points="1916,961 1787,961 1787,1049 1790,1052 1785,1057 1811,1082 1815,1078 1825,1088 1888,1088 1888,1080 1916,1080 1916,961" stroke="rgb(none)" stroke-width="0.0" fill="0,0,0" />
<polygon id="04-4209A" points="1916,697 1787,698 1783,699 1785,735 1787,825 1893,825 1893,814 1916,814 1916,697" stroke="rgb(none)" stroke-width="0.0" fill="0,0,0" />
<polygon id="04-4212B" points="1544,663 1439,663 1437,669 1437,705 1439,772 1544,772 1544,663" stroke="rgb(none)" stroke-width="0.0" fill="0,0,0" />
<polygon id="04-4212" points="1544,776 1435,776 1435,659 1544,659 1544,654 1548,654 1548,618 1544,618 1544,574 1521,573 1384,572 1382,598 1380,572 1296,574 1283,575 1283,817 1299,817 1299,837 1283,837 1283,1080 1305,1080 1305,1101 1283,1101 1283,1180 1544,1180 1544,1099 1432,1099 1432,1061 1544,1061 1544,776" stroke="rgb(none)" stroke-width="0.0" fill="0,0,0" />
<polygon id="04-4212A" points="1516,1066 1437,1066 1439,1094 1440,1099 1513,1099 1515,1094 1516,1066" stroke="rgb(none)" stroke-width="0.0" fill="0,0,0" />
<polygon id="04-4105" points="2730,2090 2597,2090 2597,2099 2585,2099 2585,2336 2591,2336 2591,2341 2627,2341 2627,2336 2656,2336 2656,2274 2629,2274 2629,2269 2730,2269 2730,2090" stroke="rgb(none)" stroke-width="0.0" fill="0,0,0" />
<polygon id="04-4103" points="2580,2099 2567,2099 2567,2090 2434,2090 2434,2269 2532,2269 2532,2274 2509,2274 2509,2336 2539,2336 2539,2341 2575,2341 2575,2336 2580,2336 2580,2099" stroke="rgb(none)" stroke-width="0.0" fill="0,0,0" />
<polygon id="04-4107A" points="2804,2274 2795,2274 2795,2269 2756,2269 2756,2274 2735,2274 2735,2336 2804,2336 2804,2274" stroke="rgb(none)" stroke-width="0.0" fill="0,0,0" />
<polygon id="04-4105A" points="2730,2274 2707,2274 2707,2269 2668,2269 2668,2274 2661,2274 2661,2336 2730,2336 2730,2274" stroke="rgb(none)" stroke-width="0.0" fill="0,0,0" />
<polygon id="04-4138" points="2812,2578 2812,2435 2594,2435 2594,2685 2676,2685 2676,2680 2812,2680 2812,2578" stroke="rgb(none)" stroke-width="0.0" fill="0,0,0" />
<polygon id="04-4103A" points="2504,2274 2492,2274 2492,2269 2456,2269 2456,2274 2434,2274 2434,2336 2504,2336 2504,2274" stroke="rgb(none)" stroke-width="0.0" fill="0,0,0" />
<polygon id="04-4101" points="2429,2089 2390,2089 2390,2078 2325,2078 2325,2089 2296,2089 2296,2099 2292,2099 2292,2251 2358,2251 2358,2297 2342,2297 2342,2336 2377,2336 2377,2341 2413,2341 2413,2336 2429,2336 2429,2089" stroke="rgb(none)" stroke-width="0.0" fill="0,0,0" />
<polygon id="04-4101A" points="2337,2292 2353,2292 2353,2256 2332,2256 2332,2251 2306,2251 2306,2256 2292,2256 2292,2336 2337,2336 2337,2292" stroke="rgb(none)" stroke-width="0.0" fill="0,0,0" />
<polygon id="04-4207" points="1819,1091 1785,1056 1717,1123 1649,1123 1647,1200 1647,1236 1649,1242 1783,1242 1783,1127 1819,1091" stroke="rgb(none)" stroke-width="0.0" fill="0,0,0" />
<polygon id="04-4205G" points="1783,1246 1649,1246 1649,1423 1742,1425 1778,1425 1783,1423 1783,1246" stroke="rgb(none)" stroke-width="0.0" fill="0,0,0" />
<polygon id="04-4205F" points="1917,1246 1787,1246 1787,1423 1792,1425 1828,1425 1917,1423 1917,1396 1906,1396 1906,1376 1917,1376 1917,1246" stroke="rgb(none)" stroke-width="0.0" fill="0,0,0" />
<polygon id="04-4207C" points="1917,1102 1888,1102 1888,1094 1825,1094 1787,1132 1783,1133 1785,1169 1787,1242 1917,1242 1917,1102" stroke="rgb(none)" stroke-width="0.0" fill="0,0,0" />
<polygon id="04-4205" points="1783,1585 1783,1541 1834,1541 1834,1495 1800,1495 1800,1477 1834,1477 1834,1427 1649,1427 1649,1433 1645,1433 1647,1469 1649,1679 1748,1679 1785,1715 1819,1681 1783,1644 1783,1585" stroke="rgb(none)" stroke-width="0.0" fill="0,0,0" />
<polygon id="04-4205A" points="1783,1719 1784,1715 1758,1689 1755,1692 1748,1685 1649,1685 1649,1815 1783,1815 1783,1719" stroke="rgb(none)" stroke-width="0.0" fill="0,0,0" />
<polygon id="04-4205B" points="1917,1693 1903,1693 1903,1685 1824,1685 1815,1693 1811,1689 1785,1715 1790,1719 1787,1722 1787,1815 1917,1815 1917,1693" stroke="rgb(none)" stroke-width="0.0" fill="0,0,0" />
<polygon id="04-4205C" points="1917,1554 1917,1545 1787,1545 1785,1549 1785,1585 1787,1642 1823,1679 1903,1679 1903,1669 1917,1669 1917,1554" stroke="rgb(none)" stroke-width="0.0" fill="0,0,0" />
<polygon id="04-4210" points="1544,1228 1548,1228 1548,1192 1544,1192 1544,1186 1283,1186 1283,1372 1297,1372 1297,1400 1283,1400 1283,1519 1544,1519 1544,1513 1548,1513 1548,1477 1544,1477 1544,1437 1524,1437 1524,1376 1544,1376 1544,1228" stroke="rgb(none)" stroke-width="0.0" fill="0,0,0" />
<polygon id="04-4206A" points="1436,1525 1283,1525 1283,1660 1307,1660 1307,1687 1396,1687 1396,1692 1432,1692 1434,1687 1436,1525" stroke="rgb(none)" stroke-width="0.0" fill="0,0,0" />
<polygon id="04-4206" points="1548,1704 1544,1704 1544,1699 1436,1699 1436,1692 1282,1692 1282,1812 1385,1812 1385,1760 1390,1760 1390,1784 1544,1784 1544,1740 1548,1740 1548,1704" stroke="rgb(none)" stroke-width="0.0" fill="0,0,0" />
<polygon id="04-4204" points="1544,1789 1390,1789 1390,1993 1439,1993 1439,1932 1544,1931 1548,1929 1546,1893 1544,1789" stroke="rgb(none)" stroke-width="0.0" fill="0,0,0" />
<polygon id="04-4203A" points="1783,1819 1649,1819 1649,1943 1742,1943 1742,1947 1778,1947 1778,1943 1783,1943 1783,1819" stroke="rgb(none)" stroke-width="0.0" fill="0,0,0" />
<polygon id="04-4203" points="1825,1993 1833,1993 1833,1947 1649,1949 1645,1951 1647,1987 1649,2088 1825,2088 1825,1993" stroke="rgb(none)" stroke-width="0.0" fill="0,0,0" />
<polygon id="04-4203B" points="1917,1957 1903,1957 1903,1947 1837,1947 1835,1951 1835,1987 1837,1997 1829,1997 1829,2088 1917,2088 1917,1957" stroke="rgb(none)" stroke-width="0.0" fill="0,0,0" />
<polygon id="04-4203C" points="1917,1819 1787,1819 1787,1943 1792,1945 1828,1945 1903,1943 1903,1933 1917,1933 1917,1819" stroke="rgb(none)" stroke-width="0.0" fill="0,0,0" />
<polygon id="04-4204B" points="1385,1817 1282,1817 1282,1910 1305,1910 1305,1942 1385,1942 1385,1936 1390,1936 1390,1900 1385,1900 1385,1817" stroke="rgb(none)" stroke-width="0.0" fill="0,0,0" />
<polygon id="04-4204A" points="1385,1989 1390,1989 1390,1953 1385,1953 1385,1947 1305,1947 1305,1971 1282,1971 1282,2076 1385,2076 1385,1989" stroke="rgb(none)" stroke-width="0.0" fill="0,0,0" />
<polygon id="04-4202A" points="1390,2129 1385,2129 1385,2082 1282,2082 1282,2197 1295,2197 1295,2212 1385,2212 1385,2165 1390,2165 1390,2129" stroke="rgb(none)" stroke-width="0.0" fill="0,0,0" />
<polygon id="04-4202" points="1548,2142 1544,1963 1516,1963 1516,1937 1444,1937 1444,1998 1390,1998 1390,2212 1530,2212 1530,2199 1544,2199 1546,2188 1548,2142" stroke="rgb(none)" stroke-width="0.0" fill="0,0,0" />
<polygon id="04-4008" points="1544,2334 1546,2294 1544,2288 1457,2288 1457,2217 1295,2218 1282,2220 1282,2256 1279,2281 1270,2304 1255,2324 1236,2340 1213,2351 1274,2411 1274,2473 1283,2473 1283,2458 1329,2458 1329,2557 1464,2557 1464,2349 1544,2349 1544,2334" stroke="rgb(none)" stroke-width="0.0" fill="0,0,0" />
<polygon id="04-4008A" points="1544,2353 1508,2353 1508,2349 1472,2351 1468,2353 1468,2557 1544,2557 1544,2424 1527,2424 1527,2404 1544,2404 1544,2353" stroke="rgb(none)" stroke-width="0.0" fill="0,0,0" />
<polygon id="04-4135A" points="2797,2788 2732,2788 2732,2854 2755,2854 2755,2859 2792,2859 2792,2854 2797,2854 2797,2788" stroke="rgb(none)" stroke-width="0.0" fill="0,0,0" />
<polygon id="04-4137A" points="2727,2788 2674,2788 2674,2859 2710,2859 2710,2854 2727,2854 2727,2788" stroke="rgb(none)" stroke-width="0.0" fill="0,0,0" />
<polygon id="04-4137" points="2727,2859 2633,2859 2633,2854 2669,2854 2669,2788 2631,2788 2631,2783 2596,2783 2596,2788 2587,2788 2587,3014 2599,3014 2599,3025 2727,3025 2727,2859" stroke="rgb(none)" stroke-width="0.0" fill="0,0,0" />
<polygon id="04-4139" points="2582,2788 2508,2788 2508,2816 2503,2816 2503,2788 2495,2788 2495,2783 2460,2783 2460,2788 2453,2788 2453,2990 2395,2990 2395,3036 2552,3036 2552,3025 2568,3025 2568,3014 2582,3014 2582,2788" stroke="rgb(none)" stroke-width="0.0" fill="0,0,0" />
<polygon id="04-4001" points="2306,2845 2292,2845 2292,2788 2181,2788 2181,2783 2145,2783 2145,2788 2130,2788 2130,2897 2140,2897 2140,3026 2208,3026 2208,3035 2271,3035 2271,3019 2306,3019 2306,2845" stroke="rgb(none)" stroke-width="0.0" fill="0,0,0" />
<polygon id="04-4139A" points="2395,2995 2384,2995 2384,2961 2320,2961 2320,3036 2384,3036 2384,3029 2395,3029 2395,2995" stroke="rgb(none)" stroke-width="0.0" fill="0,0,0" />
<polygon id="04-4143" points="2448,2788 2419,2788 2419,2783 2389,2783 2389,2788 2372,2788 2372,2801 2361,2801 2361,2788 2320,2788 2320,2949 2361,2949 2361,2935 2371,2935 2371,2949 2395,2949 2395,2981 2448,2981 2448,2950 2426,2950 2426,2942 2448,2942 2448,2788" stroke="rgb(none)" stroke-width="0.0" fill="0,0,0" />
<polygon id="04-4016" points="2105,2410 2082,2410 2045,2409 2045,2420 2019,2420 2019,2548 1935,2548 1935,2712 2105,2712 2105,2410" stroke="rgb(none)" stroke-width="0.0" fill="0,0,0" />
<polygon id="04-4016A" points="1935,2594 1929,2594 1929,2548 1888,2548 1888,2584 1711,2584 1711,2687 1929,2687 1929,2642 1935,2642 1935,2594" stroke="rgb(none)" stroke-width="0.0" fill="0,0,0" />
<polygon id="04-4003" points="2105,2759 2110,2759 2110,2723 2105,2723 2105,2717 1935,2717 1935,2897 2105,2897 2105,2759" stroke="rgb(none)" stroke-width="0.0" fill="0,0,0" />
<polygon id="04-4003A" points="1935,2788 1929,2788 1929,2720 1733,2720 1733,2897 1859,2897 1859,2849 1865,2849 1865,2897 1929,2897 1929,2830 1935,2830 1935,2788" stroke="rgb(none)" stroke-width="0.0" fill="0,0,0" />
<polygon id="04-4303" points="1881,3175 1721,3175 1721,3301 1661,3301 1661,3321 1655,3321 1655,3357 1661,3359 1881,3361 1881,3175" stroke="rgb(none)" stroke-width="0.0" fill="0,0,0" />
<polygon id="04-4012" points="1558,2744 1432,2744 1432,2828 1558,2828 1558,2812 1563,2812 1563,2774 1558,2774 1558,2744" stroke="rgb(none)" stroke-width="0.0" fill="0,0,0" />
<polygon id="04-4305A" points="1881,3367 1793,3367 1793,3481 1787,3481 1787,3517 1793,3517 1793,3523 1905,3523 1905,3505 1923,3505 1923,3457 1881,3457 1881,3367" stroke="rgb(none)" stroke-width="0.0" fill="0,0,0" />
<polygon id="04-4305D" points="1923,3826 1911,3826 1911,3853 1793,3853 1793,3860 1787,3860 1787,3896 1793,3896 1793,4009 1923,4009 1923,3826" stroke="rgb(none)" stroke-width="0.0" fill="0,0,0" />
<polygon id="04-4305E" points="1923,4017 1793,4015 1793,4021 1787,4021 1787,4057 1793,4057 1793,4171 1923,4171 1923,4017" stroke="rgb(none)" stroke-width="0.0" fill="0,0,0" />
<polygon id="04-4305C" points="1923,3691 1793,3691 1793,3805 1787,3805 1787,3841 1793,3841 1793,3847 1905,3847 1905,3820 1923,3820 1923,3802 1906,3802 1906,3778 1923,3778 1923,3691" stroke="rgb(none)" stroke-width="0.0" fill="0,0,0" />
<polygon id="04-4302" points="1557,2976 1563,2976 1563,2940 1558,2940 1558,2915 1543,2915 1543,2900 1476,2900 1436,2969 1436,3173 1305,3173 1305,3183 1288,3183 1288,3423 1308,3423 1308,3448 1289,3448 1289,3720 1297,3721 1407,3723 1407,3975 1413,3975 1413,3981 1447,3981 1447,3975 1455,3975 1455,3634 1557,3634 1557,2976" stroke="rgb(none)" stroke-width="0.0" fill="0,0,0" />
<polygon id="04-4302G" points="1401,3771 1407,3771 1407,3735 1401,3735 1401,3729 1297,3729 1297,3740 1289,3740 1289,3833 1401,3833 1401,3771" stroke="rgb(none)" stroke-width="0.0" fill="0,0,0" />
<polygon id="04-4302H" points="1401,3895 1401,3880 1407,3880 1407,3845 1401,3845 1401,3839 1289,3839 1289,3975 1401,3975 1401,3895" stroke="rgb(none)" stroke-width="0.0" fill="0,0,0" />
<polygon id="04-4306" points="1563,3820 1557,3820 1557,3808 1461,3808 1461,3820 1455,3820 1455,3856 1461,3856 1461,3975 1557,3975 1557,3856 1563,3856 1563,3820" stroke="rgb(none)" stroke-width="0.0" fill="0,0,0" />
<polygon id="04-4309" points="1787,4427 1787,4241 1739,4241 1739,4273 1661,4273 1661,4398 1655,4398 1655,4434 1661,4434 1661,4542 1671,4542 1671,4548 1787,4548 1787,4427" stroke="rgb(none)" stroke-width="0.0" fill="0,0,0" />
<polygon id="04-4309A" points="1923,4177 1793,4177 1793,4250 1787,4250 1787,4286 1793,4286 1793,4293 1892,4293 1892,4276 1923,4276 1923,4177" stroke="rgb(none)" stroke-width="0.0" fill="0,0,0" />
<polygon id="04-4309B" points="1923,4299 1793,4299 1793,4305 1787,4305 1787,4341 1793,4341 1793,4416 1923,4416 1923,4299" stroke="rgb(none)" stroke-width="0.0" fill="0,0,0" />
<polygon id="04-4309C" points="1923,4422 1793,4422 1793,4427 1787,4427 1787,4463 1793,4463 1793,4548 1896,4548 1896,4539 1923,4539 1923,4422" stroke="rgb(none)" stroke-width="0.0" fill="0,0,0" />
<polygon id="04-4308B" points="1430,4132 1424,4132 1424,4126 1388,4126 1388,4132 1289,4132 1289,4271 1303,4271 1303,4310 1289,4310 1289,4367 1430,4367 1430,4132" stroke="rgb(none)" stroke-width="0.0" fill="0,0,0" />
<polygon id="04-4310" points="1557,4435 1531,4435 1531,4429 1557,4429 1557,4416 1563,4416 1563,4380 1557,4380 1557,4373 1289,4373 1289,4542 1296,4542 1296,4548 1522,4548 1522,4542 1531,4542 1531,4507 1557,4507 1557,4435" stroke="rgb(none)" stroke-width="0.0" fill="0,0,0" />
<polygon id="04-4308C" points="1438,4298 1436,4327 1430,4327 1430,4363 1436,4363 1436,4367 1557,4367 1557,4296 1531,4296 1531,4289 1502,4289 1502,4281 1469,4281 1469,4298 1438,4298" stroke="rgb(none)" stroke-width="0.0" fill="0,0,0" />
<polygon id="04-4308A" points="1557,4157 1550,4157 1550,4151 1514,4151 1514,4157 1436,4157 1436,4275 1508,4275 1508,4283 1557,4283 1557,4157" stroke="rgb(none)" stroke-width="0.0" fill="0,0,0" />
<polygon id="04-4107" points="2878,2098 2867,2098 2867,2090 2735,2090 2735,2269 2833,2269 2833,2274 2809,2274 2809,2336 2837,2336 2837,2341 2873,2341 2873,2336 2878,2336 2878,2098" stroke="rgb(none)" stroke-width="0.0" fill="0,0,0" />
<polygon id="04-4135" points="2879,2788 2872,2788 2872,2783 2837,2783 2837,2788 2802,2788 2802,2854 2831,2854 2831,2859 2732,2859 2732,3025 2869,3025 2869,3014 2879,3014 2879,2788" stroke="rgb(none)" stroke-width="0.0" fill="0,0,0" />
</svg>
