<svg xmlns="http://www.w3.org/2000/svg" version="1.1" width="2967" height="2439">style="background-color:rgb(none)">
<polygon id="10-10750A" points="1218,784 1210,784 1210,765 1043,765 1043,876 1210,876 1210,848 1218,848 1218,784" stroke="rgb(none)" stroke-width="0.0" fill="0,0,0" />
<polygon id="10-10750" points="1366,712 1361,712 1360,698 1359,644 1218,644 1218,865 1359,865 1360,822 1361,808 1366,808 1366,712" stroke="rgb(none)" stroke-width="0.0" fill="0,0,0" />
<polygon id="10-10750B" points="1218,665 1210,665 1210,646 1043,646 1043,757 1210,757 1210,729 1218,729 1218,665" stroke="rgb(none)" stroke-width="0.0" fill="0,0,0" />
<polygon id="10-10701" points="794,2162 790,2155 754,2155 754,2162 718,2162 718,2262 794,2262 794,2162" stroke="rgb(none)" stroke-width="0.0" fill="0,0,0" />
<polygon id="10-10702" points="877,2162 841,2162 841,2155 805,2155 803,2162 801,2262 877,2262 877,2162" stroke="rgb(none)" stroke-width="0.0" fill="0,0,0" />
<polygon id="10-10718" points="1484,2138 1480,2133 1432,2133 1432,2138 1414,2138 1414,2152 1222,2152 1222,2158 1208,2158 1208,2281 1418,2281 1418,2286 1466,2286 1466,2281 1484,2281 1484,2138" stroke="rgb(none)" stroke-width="0.0" fill="0,0,0" />
<polygon id="10-10704" points="1203,2153 1208,2153 1208,2138 1184,2138 1184,2133 1136,2133 1136,2138 1112,2138 1112,2230 1203,2230 1203,2153" stroke="rgb(none)" stroke-width="0.0" fill="0,0,0" />
<polygon id="10-10700" points="1694,2037 1694,2027 1624,2027 1624,2019 1629,2019 1629,1969 1523,1969 1523,2019 1528,2019 1528,2027 1456,2027 1456,1999 1248,1999 1248,2027 1194,2027 1194,2019 1199,2019 1199,1969 1093,1969 1093,2019 1098,2019 1098,2027 836,2027 835,1842 739,1841 734,1843 734,1893 739,1893 738,1898 736,2027 719,2027 719,2127 742,2127 742,2155 853,2155 853,2127 1112,2127 1112,2133 1512,2133 1512,2157 1669,2157 1669,2133 1694,2133 1694,2037" stroke="rgb(none)" stroke-width="0.0" fill="0,0,0" />
<polygon id="10-10730F" points="1802,1858 1671,1858 1671,1886 1663,1886 1663,1950 1671,1950 1671,1971 1802,1971 1802,1858" stroke="rgb(none)" stroke-width="0.0" fill="0,0,0" />
<polygon id="10-10730E" points="1802,1738 1671,1738 1671,1766 1663,1766 1663,1830 1671,1830 1671,1850 1802,1850 1802,1738" stroke="rgb(none)" stroke-width="0.0" fill="0,0,0" />
<polygon id="10-10730D" points="1815,1595 1671,1595 1671,1624 1663,1624 1663,1700 1671,1700 1671,1720 1815,1720 1815,1595" stroke="rgb(none)" stroke-width="0.0" fill="0,0,0" />
<polygon id="10-10730" points="1663,1700 1663,1606 1630,1606 1630,1590 1624,1590 1624,1586 1528,1585 1528,1590 1522,1590 1522,1606 1479,1606 1479,1708 1495,1708 1495,1750 1479,1750 1479,1964 1529,1964 1529,1969 1625,1969 1625,1964 1663,1964 1663,1700" stroke="rgb(none)" stroke-width="0.0" fill="0,0,0" />
<polygon id="10-10720F" points="1331,1858 1233,1858 1233,1888 1226,1888 1226,1939 1233,1939 1233,1971 1331,1971 1331,1858" stroke="rgb(none)" stroke-width="0.0" fill="0,0,0" />
<polygon id="10-10730A" points="1479,1886 1471,1886 1471,1858 1339,1858 1339,1971 1471,1971 1471,1950 1479,1950 1479,1886" stroke="rgb(none)" stroke-width="0.0" fill="0,0,0" />
<polygon id="10-10730B" points="1479,1766 1471,1766 1471,1738 1339,1738 1339,1850 1471,1850 1471,1830 1479,1830 1479,1766" stroke="rgb(none)" stroke-width="0.0" fill="0,0,0" />
<polygon id="10-10730C" points="1479,1637 1471,1637 1471,1607 1339,1607 1339,1720 1471,1720 1471,1701 1479,1701 1479,1637" stroke="rgb(none)" stroke-width="0.0" fill="0,0,0" />
<polygon id="10-10720E" points="1331,1738 1233,1738 1233,1768 1226,1768 1226,1820 1233,1820 1233,1850 1331,1850 1331,1738" stroke="rgb(none)" stroke-width="0.0" fill="0,0,0" />
<polygon id="10-10720D" points="1331,1607 1233,1607 1233,1639 1226,1639 1226,1690 1233,1690 1233,1720 1331,1720 1331,1607" stroke="rgb(none)" stroke-width="0.0" fill="0,0,0" />
<polygon id="10-10720" points="1206,1837 1206,1833 1226,1833 1226,1750 1206,1750 1206,1708 1226,1708 1226,1606 1200,1606 1200,1590 1194,1590 1194,1585 1098,1585 1098,1590 1092,1590 1092,1606 1065,1606 1065,1708 1086,1708 1086,1750 1065,1750 1065,1833 1086,1833 1086,1875 1065,1875 1065,1964 1098,1964 1098,1969 1194,1969 1194,1964 1226,1964 1226,1875 1206,1875 1206,1837" stroke="rgb(none)" stroke-width="0.0" fill="0,0,0" />
<polygon id="10-10720A" points="1065,1888 1058,1888 1058,1858 962,1858 962,1971 1058,1971 1058,1940 1065,1940 1065,1888" stroke="rgb(none)" stroke-width="0.0" fill="0,0,0" />
<polygon id="10-10720B" points="1065,1768 1058,1768 1058,1738 962,1738 962,1850 1058,1850 1058,1820 1065,1820 1065,1768" stroke="rgb(none)" stroke-width="0.0" fill="0,0,0" />
<polygon id="10-10720C" points="1065,1638 1058,1638 1058,1607 962,1607 962,1720 1058,1720 1058,1690 1065,1690 1065,1638" stroke="rgb(none)" stroke-width="0.0" fill="0,0,0" />
<polygon id="10-10721" points="955,1745 844,1745 844,1955 836,1955 836,1991 844,1991 844,1995 892,1995 892,2023 955,2023 955,1745" stroke="rgb(none)" stroke-width="0.0" fill="0,0,0" />
<polygon id="10-10722" points="729,1923 592,1923 592,1845 469,1845 469,1996 501,1996 501,2011 636,2011 636,1993 729,1991 736,1989 736,1953 729,1953 729,1923" stroke="rgb(none)" stroke-width="0.0" fill="0,0,0" />
<polygon id="10-10713" points="1488,1357 1428,1357 1428,1475 1432,1475 1432,1483 1468,1483 1468,1475 1488,1475 1488,1357" stroke="rgb(none)" stroke-width="0.0" fill="0,0,0" />
<polygon id="10-10749" points="1201,913 1218,913 1218,886 1076,886 1076,987 1124,987 1124,994 1160,994 1160,987 1201,987 1201,913" stroke="rgb(none)" stroke-width="0.0" fill="0,0,0" />
<polygon id="10-10768" points="1290,531 1273,531 1273,524 1237,524 1236,531 1234,555 1218,555 1218,563 1212,563 1212,621 1218,621 1218,630 1290,630 1290,531" stroke="rgb(none)" stroke-width="0.0" fill="0,0,0" />
<polygon id="10-10756" points="1566,531 1495,531 1495,560 1473,560 1473,591 1465,591 1465,627 1473,629 1566,631 1566,531" stroke="rgb(none)" stroke-width="0.0" fill="0,0,0" />
<polygon id="10-10825" points="2832,329 2707,302 2662,516 2654,515 2645,562 2651,565 2650,573 2774,599 2780,573 2785,574 2795,527 2790,526 2832,329" stroke="rgb(none)" stroke-width="0.0" fill="0,0,0" />
<polygon id="10-10710" points="985,1483 984,1580 985,1585 1036,1585 1036,1580 1041,1581 1049,1583 1049,1588 1087,1586 1205,1586 1242,1588 1242,1583 1480,1583 1480,1588 1517,1586 1528,1585 1624,1585 1635,1587 1673,1588 1673,1583 1776,1581 1776,1487 1775,1480 1727,1480 1727,1485 1721,1484 985,1483" stroke="rgb(none)" stroke-width="0.0" fill="0,0,0" />
<polygon id="10-10755" points="1562,639 1473,641 1465,643 1465,675 1473,675 1473,767 1562,767 1562,639" stroke="rgb(none)" stroke-width="0.0" fill="0,0,0" />
<polygon id="10-10703" points="1102,2134 982,2134 982,2127 934,2127 934,2134 884,2134 884,2316 962,2325 1040,2329 1118,2328 1196,2323 1196,2235 1102,2235 1102,2134" stroke="rgb(none)" stroke-width="0.0" fill="0,0,0" />
<polygon id="10-10714" points="1420,1348 1278,1348 1278,1475 1380,1475 1380,1483 1416,1483 1416,1475 1420,1475 1420,1348" stroke="rgb(none)" stroke-width="0.0" fill="0,0,0" />
<polygon id="10-10724A" points="729,1774 736,1774 736,1738 729,1736 671,1734 671,1727 635,1727 635,1734 623,1734 623,1845 599,1845 599,1915 729,1915 729,1774" stroke="rgb(none)" stroke-width="0.0" fill="0,0,0" />
<polygon id="10-10724" points="729,1609 736,1609 736,1537 729,1537 729,1533 624,1533 598,1579 479,1579 479,1701 485,1701 485,1727 675,1727 675,1647 729,1647 729,1609" stroke="rgb(none)" stroke-width="0.0" fill="0,0,0" />
<polygon id="10-10726" points="682,1402 671,1337 485,1337 485,1361 479,1361 479,1483 485,1484 623,1485 623,1526 729,1526 729,1522 736,1522 736,1450 729,1450 729,1412 684,1412 682,1402" stroke="rgb(none)" stroke-width="0.0" fill="0,0,0" />
<polygon id="10-10727" points="729,1215 736,1215 736,1143 729,1143 729,1139 608,1139 571,1183 479,1183 479,1305 485,1305 485,1329 671,1329 673,1316 684,1254 729,1254 729,1215" stroke="rgb(none)" stroke-width="0.0" fill="0,0,0" />
<polygon id="10-10728" points="729,1016 684,1016 682,1006 671,941 485,941 485,965 479,965 479,1087 571,1087 608,1131 729,1129 736,1127 736,1055 729,1055 729,1016" stroke="rgb(none)" stroke-width="0.0" fill="0,0,0" />
<polygon id="10-10729" points="729,819 736,819 736,747 729,747 729,743 608,743 571,787 479,787 479,909 485,909 485,933 671,933 673,920 684,858 729,858 729,819" stroke="rgb(none)" stroke-width="0.0" fill="0,0,0" />
<polygon id="10-10733" points="729,595 682,595 672,531 485,531 485,569 479,569 479,691 571,691 608,735 729,733 736,731 736,659 729,659 729,595" stroke="rgb(none)" stroke-width="0.0" fill="0,0,0" />
<polygon id="10-10729A" points="605,746 601,743 604,739 601,735 605,732 582,704 578,708 570,698 495,698 495,739 489,739 489,780 570,780 578,770 582,774 605,746" stroke="rgb(none)" stroke-width="0.0" fill="0,0,0" />
<polygon id="10-10727A" points="582,1100 578,1104 570,1094 495,1094 495,1135 489,1135 489,1176 570,1176 578,1166 582,1170 605,1142 601,1139 604,1135 601,1131 605,1128 582,1100" stroke="rgb(none)" stroke-width="0.0" fill="0,0,0" />
<polygon id="10-10726A" points="540,1493 524,1493 524,1485 488,1485 488,1493 482,1493 482,1572 540,1572 540,1493" stroke="rgb(none)" stroke-width="0.0" fill="0,0,0" />
<polygon id="10-10724B" points="615,1493 557,1493 557,1572 594,1570 602,1572 620,1541 614,1535 615,1493" stroke="rgb(none)" stroke-width="0.0" fill="0,0,0" />
<polygon id="10-10763A" points="906,183 865,183 865,177 825,177 825,258 832,264 829,268 857,291 860,287 865,292 871,287 874,291 902,268 898,264 906,257 906,183" stroke="rgb(none)" stroke-width="0.0" fill="0,0,0" />
<polygon id="10-10762" points="664,173 639,173 639,167 517,167 517,187 491,187 491,343 462,343 462,417 513,417 513,424 585,424 587,417 589,371 664,358 664,173" stroke="rgb(none)" stroke-width="0.0" fill="0,0,0" />
<polygon id="10-10763" points="862,296 817,258 817,167 695,167 695,173 672,173 672,358 747,371 747,417 786,417 786,424 858,424 858,417 862,417 862,296" stroke="rgb(none)" stroke-width="0.0" fill="0,0,0" />
<polygon id="10-10764" points="1060,173 1035,173 1035,167 913,167 913,258 902,268 869,295 871,417 873,424 945,424 945,417 984,417 984,371 1060,358 1060,173" stroke="rgb(none)" stroke-width="0.0" fill="0,0,0" />
<polygon id="10-10766" points="1258,296 1213,258 1213,167 1091,167 1091,173 1067,173 1067,358 1143,371 1143,417 1182,417 1182,424 1254,424 1254,417 1258,417 1258,296" stroke="rgb(none)" stroke-width="0.0" fill="0,0,0" />
<polygon id="10-10767" points="1456,172 1431,172 1431,165 1309,165 1309,258 1296,269 1265,295 1267,417 1269,424 1341,424 1341,417 1380,417 1380,371 1391,369 1456,358 1456,172" stroke="rgb(none)" stroke-width="0.0" fill="0,0,0" />
<polygon id="10-10772" points="1678,295 1633,258 1633,149 1509,149 1509,172 1463,172 1463,358 1539,371 1539,414 1592,415 1602,417 1602,424 1674,424 1674,417 1678,417 1678,295" stroke="rgb(none)" stroke-width="0.0" fill="0,0,0" />
<polygon id="10-10773" points="1876,173 1851,173 1851,149 1729,149 1729,177 1729,258 1716,269 1685,296 1687,417 1689,424 1761,424 1761,417 1800,417 1800,371 1876,358 1876,173" stroke="rgb(none)" stroke-width="0.0" fill="0,0,0" />
<polygon id="10-10775" points="2037,265 2037,173 2030,173 2030,149 1913,149 1913,173 1883,173 1883,358 1897,360 1959,371 1959,417 1995,417 1995,424 2067,424 2069,417 2071,294 2037,265" stroke="rgb(none)" stroke-width="0.0" fill="0,0,0" />
<polygon id="10-10776" points="2260,181 2241,181 2241,143 2243,129 2125,113 2112,112 2112,265 2078,293 2078,417 2082,417 2082,424 2154,424 2154,417 2196,417 2196,371 2260,360 2260,181" stroke="rgb(none)" stroke-width="0.0" fill="0,0,0" />
<polygon id="10-10781" points="2266,569 2259,569 2259,531 2073,531 2063,595 2018,595 2017,649 2016,659 2008,659 2008,731 2016,733 2137,735 2174,691 2266,691 2266,569" stroke="rgb(none)" stroke-width="0.0" fill="0,0,0" />
<polygon id="10-10762A" points="484,250 491,250 491,214 484,214 484,187 428,187 428,282 484,282 484,250" stroke="rgb(none)" stroke-width="0.0" fill="0,0,0" />
<polygon id="10-10766A" points="1302,183 1261,183 1261,177 1221,177 1221,258 1230,265 1227,269 1254,292 1257,288 1261,292 1265,288 1269,292 1296,269 1293,265 1302,257 1302,183" stroke="rgb(none)" stroke-width="0.0" fill="0,0,0" />
<polygon id="10-10772A" points="1722,183 1681,183 1681,177 1641,177 1641,258 1650,265 1647,269 1674,292 1677,288 1681,292 1685,288 1689,292 1716,269 1713,265 1722,257 1722,183" stroke="rgb(none)" stroke-width="0.0" fill="0,0,0" />
<polygon id="10-10775A" points="2112,206 2105,206 2105,183 2044,183 2044,206 2037,206 2037,242 2044,242 2044,262 2055,271 2094,271 2105,262 2105,242 2112,242 2112,206" stroke="rgb(none)" stroke-width="0.0" fill="0,0,0" />
<polygon id="10-10761A" points="217,398 134,398 134,487 146,487 146,497 217,497 217,493 224,493 224,457 217,457 217,398" stroke="rgb(none)" stroke-width="0.0" fill="0,0,0" />
<polygon id="10-10781A" points="2255,739 2249,739 2249,698 2175,698 2167,708 2163,704 2140,732 2144,735 2141,739 2144,743 2140,746 2163,774 2167,770 2175,780 2255,780 2255,739" stroke="rgb(none)" stroke-width="0.0" fill="0,0,0" />
<polygon id="10-10786A" points="2261,1490 2255,1490 2255,1483 2219,1483 2219,1490 2194,1490 2187,1498 2187,1532 2217,1562 2261,1562 2261,1490" stroke="rgb(none)" stroke-width="0.0" fill="0,0,0" />
<polygon id="10-10787B" points="2175,1737 2129,1737 2129,1730 2093,1730 2093,1737 2073,1737 2073,1797 2175,1797 2175,1737" stroke="rgb(none)" stroke-width="0.0" fill="0,0,0" />
<polygon id="10-10761" points="502,475 495,475 495,424 363,424 363,419 423,419 423,404 455,404 455,289 421,289 421,170 299,170 299,197 277,199 277,374 296,374 298,537 299,543 397,543 397,537 457,537 457,515 495,513 502,511 502,475" stroke="rgb(none)" stroke-width="0.0" fill="0,0,0" />
<polygon id="10-10782" points="2266,787 2174,787 2137,743 2016,745 2008,747 2008,819 2016,819 2016,858 2061,858 2074,933 2259,933 2259,909 2266,909 2266,787" stroke="rgb(none)" stroke-width="0.0" fill="0,0,0" />
<polygon id="10-10783" points="2266,965 2259,965 2259,941 2074,941 2061,1016 2016,1016 2016,1055 2008,1055 2008,1127 2016,1129 2137,1131 2174,1087 2266,1087 2266,965" stroke="rgb(none)" stroke-width="0.0" fill="0,0,0" />
<polygon id="10-10784" points="2266,1183 2174,1183 2137,1139 2016,1139 2016,1143 2008,1143 2008,1215 2016,1215 2016,1254 2061,1254 2074,1329 2259,1329 2259,1305 2266,1305 2266,1183" stroke="rgb(none)" stroke-width="0.0" fill="0,0,0" />
<polygon id="10-10786" points="2179,1495 2191,1483 2266,1483 2266,1361 2259,1361 2259,1337 2074,1337 2072,1350 2061,1412 2016,1412 2016,1451 2008,1451 2008,1523 2016,1523 2016,1527 2179,1527 2179,1495" stroke="rgb(none)" stroke-width="0.0" fill="0,0,0" />
<polygon id="10-10788" points="2259,1926 2266,1926 2266,1804 1887,1804 1887,1998 1913,1998 1913,2027 1876,2027 1876,2067 1919,2072 1918,2079 1988,2082 2057,2081 2057,2024 2051,2024 2051,2005 1949,2005 1949,1998 2200,1998 2200,2005 2103,2005 2103,2024 2064,2024 2064,2081 2126,2075 2188,2065 2248,2052 2242,2024 2236,2024 2236,1998 2259,1998 2259,1926" stroke="rgb(none)" stroke-width="0.0" fill="0,0,0" />
<polygon id="10-10765" points="1065,524 880,524 880,565 836,565 836,613 844,613 844,685 985,685 985,661 1029,661 1029,633 1065,633 1065,621 1069,621 1067,563 1065,524" stroke="rgb(none)" stroke-width="0.0" fill="0,0,0" />
<polygon id="10-10774" points="1908,565 1865,565 1865,524 1679,524 1679,531 1658,531 1658,628 1712,628 1712,637 1756,637 1756,661 1901,661 1901,613 1908,613 1908,565" stroke="rgb(none)" stroke-width="0.0" fill="0,0,0" />
<polygon id="10-10785" points="1908,1096 1820,1096 1820,1263 1800,1263 1800,1340 1776,1340 1776,1475 1804,1475 1804,1483 1780,1483 1779,1487 1779,1580 1780,1585 1829,1585 1829,1580 1834,1581 1908,1583 1908,1352 1867,1352 1867,1320 1908,1320 1908,1096" stroke="rgb(none)" stroke-width="0.0" fill="0,0,0" />
<polygon id="10-10746" points="1486,1101 1482,1094 1446,1094 1446,1101 1385,1101 1385,1110 1325,1110 1325,1341 1462,1341 1462,1317 1486,1317 1486,1101" stroke="rgb(none)" stroke-width="0.0" fill="0,0,0" />
<polygon id="10-10754" points="1566,774 1473,776 1465,778 1465,814 1473,814 1473,889 1566,889 1566,774" stroke="rgb(none)" stroke-width="0.0" fill="0,0,0" />
<polygon id="10-10744" points="1728,753 1632,753 1632,748 1574,748 1574,753 1573,987 1620,987 1620,994 1668,994 1668,987 1728,987 1728,753" stroke="rgb(none)" stroke-width="0.0" fill="0,0,0" />
<polygon id="10-10742" points="1901,668 1712,668 1710,673 1710,730 1712,745 1735,745 1735,987 1739,987 1739,994 1787,994 1787,987 1866,987 1866,919 1901,919 1901,668" stroke="rgb(none)" stroke-width="0.0" fill="0,0,0" />
<polygon id="10-10732" points="1029,693 844,693 844,697 836,697 836,745 844,745 844,882 1029,882 1029,693" stroke="rgb(none)" stroke-width="0.0" fill="0,0,0" />
<polygon id="10-10747A" points="1125,1101 972,1101 972,1094 936,1094 934,1101 932,1246 1101,1246 1101,1222 1107,1222 1107,1240 1125,1240 1125,1101" stroke="rgb(none)" stroke-width="0.0" fill="0,0,0" />
<polygon id="10-10747" points="1317,1101 1313,1094 1277,1094 1277,1101 1125,1101 1125,1240 1143,1240 1143,1222 1148,1222 1148,1246 1317,1246 1317,1101" stroke="rgb(none)" stroke-width="0.0" fill="0,0,0" />
<polygon id="10-10723" points="950,1589 844,1589 844,1669 836,1669 836,1705 844,1707 885,1709 885,1740 950,1740 950,1589" stroke="rgb(none)" stroke-width="0.0" fill="0,0,0" />
<polygon id="10-10743" points="1664,1101 1578,1101 1578,1094 1542,1094 1542,1101 1494,1101 1494,1258 1664,1258 1664,1101" stroke="rgb(none)" stroke-width="0.0" fill="0,0,0" />
<polygon id="10-10787A" points="2115,1539 2108,1539 2108,1535 2016,1535 2016,1539 2008,1539 2008,1611 2016,1611 2016,1639 2108,1639 2108,1611 2115,1611 2115,1539" stroke="rgb(none)" stroke-width="0.0" fill="0,0,0" />
<polygon id="10-10769" points="1358,531 1346,531 1346,524 1310,524 1310,531 1297,531 1297,630 1358,630 1358,531" stroke="rgb(none)" stroke-width="0.0" fill="0,0,0" />
<polygon id="10-10780" points="2008,1009 2007,649 1911,648 1906,649 1906,700 1911,700 1910,705 1908,994 1876,995 1871,997 1871,992 1820,992 1819,997 1819,1091 1820,1096 1908,1096 1908,1320 1910,1797 1912,1804 1984,1804 1984,1797 2008,1797 2008,1009" stroke="rgb(none)" stroke-width="0.0" fill="0,0,0" />
<polygon id="10-10753" points="1465,814 1465,524 1365,524 1367,644 1368,663 1364,663 1365,693 1365,827 1364,857 1369,857 1367,865 1365,994 1465,994 1465,814" stroke="rgb(none)" stroke-width="0.0" fill="0,0,0" />
<polygon id="10-10725" points="836,745 836,524 736,524 738,1838 834,1839 839,1837 839,1787 834,1787 835,1782 836,1583 981,1581 981,1485 980,1480 930,1480 930,1485 836,1485 836,1352 836,1320 836,745" stroke="rgb(none)" stroke-width="0.0" fill="0,0,0" />
<polygon id="10-10740" points="836,994 836,1094 1759,1092 1765,1091 1765,1096 1815,1096 1816,1091 1816,995 836,994" stroke="rgb(none)" stroke-width="0.0" fill="0,0,0" />
<polygon id="10-10770" points="1534,427 1536,522 1908,524 1910,645 2006,645 2011,644 2011,593 2006,593 2006,524 2258,522 2292,520 2292,545 2602,611 2607,590 2624,594 2628,573 2642,575 2658,499 2347,433 2347,424 1592,425 1587,427 1587,422 1537,422 1534,427" stroke="rgb(none)" stroke-width="0.0" fill="0,0,0" />
<polygon id="10-10712" points="1590,1371 1590,1341 1495,1341 1495,1475 1550,1475 1550,1483 1586,1483 1588,1475 1590,1371" stroke="rgb(none)" stroke-width="0.0" fill="0,0,0" />
<polygon id="10-10711" points="1768,1340 1673,1340 1675,1475 1677,1483 1713,1483 1713,1475 1768,1475 1768,1340" stroke="rgb(none)" stroke-width="0.0" fill="0,0,0" />
<polygon id="10-10787" points="2266,1579 2224,1579 2179,1535 2115,1535 2115,1646 2062,1646 2073,1709 2073,1730 2259,1730 2259,1700 2266,1700 2266,1579" stroke="rgb(none)" stroke-width="0.0" fill="0,0,0" />
<polygon id="10-10788A" points="2262,1740 2229,1738 2192,1737 2192,1797 2222,1797 2222,1804 2258,1804 2258,1797 2262,1797 2262,1740" stroke="rgb(none)" stroke-width="0.0" fill="0,0,0" />
<polygon id="10-10725A" points="736,1655 682,1655 682,1727 736,1727 736,1655" stroke="rgb(none)" stroke-width="0.0" fill="0,0,0" />
<polygon id="10-10725B" points="736,1261 688,1261 688,1265 678,1321 678,1345 688,1405 736,1405 736,1261" stroke="rgb(none)" stroke-width="0.0" fill="0,0,0" />
<polygon id="10-10725C" points="736,865 688,865 678,925 678,949 688,1009 736,1009 736,865" stroke="rgb(none)" stroke-width="0.0" fill="0,0,0" />
<polygon id="10-10760A" points="740,376 680,366 656,366 596,376 596,424 740,424 740,376" stroke="rgb(none)" stroke-width="0.0" fill="0,0,0" />
<polygon id="10-10760C" points="1531,376 1471,366 1447,366 1443,367 1387,376 1387,424 1531,424 1531,376" stroke="rgb(none)" stroke-width="0.0" fill="0,0,0" />
<polygon id="10-10770A" points="1951,376 1891,366 1867,366 1807,376 1807,424 1951,424 1951,376" stroke="rgb(none)" stroke-width="0.0" fill="0,0,0" />
<polygon id="10-10770B" points="2347,376 2287,366 2263,366 2203,376 2203,424 2347,424 2347,376" stroke="rgb(none)" stroke-width="0.0" fill="0,0,0" />
<polygon id="10-10780A" points="2067,534 2068,524 2006,524 2006,588 2058,588 2067,534" stroke="rgb(none)" stroke-width="0.0" fill="0,0,0" />
<polygon id="10-10780B" points="2066,925 2056,865 2008,865 2008,1009 2056,1009 2066,949 2066,925" stroke="rgb(none)" stroke-width="0.0" fill="0,0,0" />
<polygon id="10-10780C" points="2066,1349 2066,1345 2066,1321 2056,1261 2008,1261 2008,1405 2056,1405 2057,1401 2066,1349" stroke="rgb(none)" stroke-width="0.0" fill="0,0,0" />
<polygon id="10-10780D" points="2067,1734 2067,1710 2056,1646 2008,1646 2008,1797 2056,1797 2067,1734" stroke="rgb(none)" stroke-width="0.0" fill="0,0,0" />
<polygon id="10-10725D" points="736,524 676,524 687,588 736,588 736,524" stroke="rgb(none)" stroke-width="0.0" fill="0,0,0" />
<polygon id="10-10716" points="1317,1253 1128,1253 1128,1347 1168,1347 1168,1354 1204,1354 1204,1347 1208,1347 1208,1317 1278,1317 1278,1341 1317,1341 1317,1253" stroke="rgb(none)" stroke-width="0.0" fill="0,0,0" />
<polygon id="10-10715" points="1271,1483 1271,1354 1020,1354 1020,1483 1271,1483 1020,1483 1271,1483" stroke="rgb(none)" stroke-width="0.0" fill="0,0,0" />
<polygon id="10-10783A" points="2249,1094 2175,1094 2167,1104 2163,1100 2140,1128 2144,1131 2141,1135 2144,1139 2140,1142 2163,1170 2167,1166 2175,1176 2255,1176 2255,1135 2249,1135 2249,1094" stroke="rgb(none)" stroke-width="0.0" fill="0,0,0" />
<polygon id="10-10760" points="1534,427 502,424 502,524 1465,524 1476,522 1481,521 1481,526 1531,526 1533,521 1534,427" stroke="rgb(none)" stroke-width="0.0" fill="0,0,0" />
<polygon id="10-10760B" points="1136,376 1076,366 1052,366 992,376 992,424 1136,424 1136,376" stroke="rgb(none)" stroke-width="0.0" fill="0,0,0" />
<polygon id="10-10778" points="2704,265 2694,263 2699,240 2684,236 2689,214 2570,185 2534,352 2503,346 2481,454 2548,468 2547,475 2582,483 2583,476 2656,491 2704,265" stroke="rgb(none)" stroke-width="0.0" fill="0,0,0" />
<polygon id="10-10777" points="2458,244 2475,164 2357,141 2354,163 2296,154 2292,181 2292,361 2353,371 2364,371 2364,331 2383,331 2383,338 2455,338 2456,331 2458,244" stroke="rgb(none)" stroke-width="0.0" fill="0,0,0" />
<polygon id="10-10777A" points="2496,344 2468,338 2371,338 2371,378 2355,378 2355,427 2377,432 2375,439 2446,454 2447,447 2474,452 2496,344" stroke="rgb(none)" stroke-width="0.0" fill="0,0,0" />
<polygon id="10-10777B" points="2548,257 2538,254 2547,212 2475,196 2474,202 2467,201 2459,236 2466,237 2465,244 2465,300 2476,302 2470,331 2529,344 2548,257" stroke="rgb(none)" stroke-width="0.0" fill="0,0,0" />
<polygon id="10-10717" points="924,1094 836,1094 836,1320 877,1320 877,1352 836,1352 836,1485 924,1485 924,1475 1013,1475 1013,1384 989,1384 989,1341 943,1341 943,1253 924,1253 924,1094" stroke="rgb(none)" stroke-width="0.0" fill="0,0,0" />
<polygon id="10-10771" points="1651,531 1639,531 1639,524 1603,524 1603,531 1573,531 1573,618 1651,618 1651,531" stroke="rgb(none)" stroke-width="0.0" fill="0,0,0" />
<polygon id="10-10789" points="1903,1638 1908,1638 1908,1606 1903,1606 1903,1594 1832,1594 1832,1671 1846,1671 1846,1685 1903,1685 1903,1638" stroke="rgb(none)" stroke-width="0.0" fill="0,0,0" />
<polygon id="10-10743A" points="1660,1301 1642,1301 1642,1263 1582,1263 1582,1258 1546,1258 1546,1263 1494,1263 1494,1323 1524,1323 1524,1334 1660,1334 1660,1301" stroke="rgb(none)" stroke-width="0.0" fill="0,0,0" />
<polygon id="10-10761B" points="296,457 289,457 289,382 224,382 224,497 289,495 296,493 296,457" stroke="rgb(none)" stroke-width="0.0" fill="0,0,0" />
<polygon id="10-10731" points="1069,889 880,889 880,978 904,978 904,987 1017,987 1017,994 1065,994 1065,987 1069,987 1069,889" stroke="rgb(none)" stroke-width="0.0" fill="0,0,0" />
<polygon id="10-10741" points="1813,1101 1723,1101 1723,1094 1675,1094 1675,1101 1671,1101 1671,1212 1750,1214 1778,1214 1813,1212 1813,1101" stroke="rgb(none)" stroke-width="0.0" fill="0,0,0" />
<polygon id="10-10745" points="1566,927 1561,927 1561,897 1501,897 1501,987 1518,987 1518,994 1554,994 1554,987 1566,987 1566,927" stroke="rgb(none)" stroke-width="0.0" fill="0,0,0" />
<polygon id="10-10748" points="1358,885 1231,885 1233,987 1235,994 1271,994 1271,987 1358,987 1358,885" stroke="rgb(none)" stroke-width="0.0" fill="0,0,0" />
<polygon id="10-10711A" points="1665,1407 1673,1407 1673,1371 1665,1371 1665,1339 1605,1339 1605,1369 1597,1370 1590,1372 1590,1407 1597,1407 1597,1475 1629,1475 1629,1461 1665,1461 1665,1407" stroke="rgb(none)" stroke-width="0.0" fill="0,0,0" />
</svg>
