<svg xmlns="http://www.w3.org/2000/svg" version="1.1" width="9327" height="5270">style="background-color:rgb(none)">
<polygon id="07-7761A" points="6984,2030 6979,2030 6954,2030 6954,1994 6893,1994 6893,2110 6936,2110 6936,2119 6979,2119 6979,2070 6984,2070 6984,2030" stroke="rgb(none)" stroke-width="0.0" fill="0,0,0" />
<polygon id="07-7701" points="6095,3443 6069,3443 6069,3419 6082,3419 6082,3413 6034,3413 6034,3419 5940,3419 5940,3413 5842,3413 5842,3419 5785,3419 5785,3701 5809,3701 5809,3733 5901,3731 5994,3729 5994,3670 6095,3670 6095,3443" stroke="rgb(none)" stroke-width="0.0" fill="0,0,0" />
<polygon id="07-7745" points="6707,3131 6702,3131 6702,3037 6553,3037 6553,3063 6540,3063 6540,3185 6618,3185 6618,3208 6697,3208 6697,3185 6702,3184 6707,3183 6707,3131" stroke="rgb(none)" stroke-width="0.0" fill="0,0,0" />
<polygon id="07-7815" points="7645,2500 7539,2500 7539,2624 7566,2624 7566,2651 7541,2651 7541,2684 7597,2684 7597,2690 7643,2690 7644,2684 7645,2500" stroke="rgb(none)" stroke-width="0.0" fill="0,0,0" />
<polygon id="07-7743" points="6803,3347 6803,3335 6807,3335 6807,3283 6803,3282 6697,3281 6697,3257 6618,3257 6618,3281 6540,3281 6540,3403 6553,3403 6553,3428 6803,3428 6803,3347" stroke="rgb(none)" stroke-width="0.0" fill="0,0,0" />
<polygon id="07-7745A" points="6653,3214 6613,3213 6613,3190 6596,3190 6596,3185 6556,3185 6555,3190 6553,3265 6581,3265 6581,3274 6613,3274 6613,3249 6653,3249 6653,3214" stroke="rgb(none)" stroke-width="0.0" fill="0,0,0" />
<polygon id="07-7743A" points="6800,3233 6791,3233 6791,3190 6702,3190 6702,3214 6665,3214 6665,3250 6702,3250 6702,3276 6712,3276 6712,3281 6752,3281 6752,3276 6800,3276 6800,3233" stroke="rgb(none)" stroke-width="0.0" fill="0,0,0" />
<polygon id="07-7740A" points="7023,3028 6994,3028 6994,3021 6999,3022 7023,3023 7023,2985 6999,2986 6994,2986 6994,2980 7023,2980 7023,2940 6999,2940 6999,2935 7023,2935 7023,2795 6998,2795 6998,2790 6904,2790 6904,3190 6999,3190 6999,3184 7023,3184 7023,3028" stroke="rgb(none)" stroke-width="0.0" fill="0,0,0" />
<polygon id="07-7740B" points="6807,3050 6802,3050 6802,3037 6707,3037 6707,3185 6807,3185 6807,3050" stroke="rgb(none)" stroke-width="0.0" fill="0,0,0" />
<polygon id="07-7747" points="6802,2979 6802,2950 6802,2885 6697,2885 6697,2861 6618,2861 6618,2885 6553,2885 6540,2885 6540,3007 6553,3007 6553,3031 6802,3031 6802,2979" stroke="rgb(none)" stroke-width="0.0" fill="0,0,0" />
<polygon id="07-7749A" points="6653,2818 6613,2818 6613,2794 6596,2794 6596,2789 6556,2789 6555,2794 6553,2869 6581,2869 6581,2878 6614,2878 6614,2854 6653,2854 6653,2818" stroke="rgb(none)" stroke-width="0.0" fill="0,0,0" />
<polygon id="07-7747A" points="6791,2794 6675,2794 6675,2854 6712,2854 6712,2880 6712,2885 6752,2885 6752,2880 6800,2880 6800,2837 6791,2837 6791,2794" stroke="rgb(none)" stroke-width="0.0" fill="0,0,0" />
<polygon id="07-7711" points="7102,3039 7068,3039 7068,3058 7028,3058 7028,3169 7060,3169 7060,3175 7100,3175 7101,3169 7102,3039" stroke="rgb(none)" stroke-width="0.0" fill="0,0,0" />
<polygon id="07-7713" points="7181,3057 7139,3057 7139,3039 7107,3039 7108,3169 7109,3175 7149,3175 7149,3169 7181,3169 7181,3057" stroke="rgb(none)" stroke-width="0.0" fill="0,0,0" />
<polygon id="07-7715" points="7301,3052 7277,3052 7277,3017 7301,3017 7301,2963 7197,2963 7186,2963 7186,3169 7217,3171 7246,3171 7259,3169 7259,3175 7299,3175 7300,3169 7303,3128 7303,3102 7301,3052" stroke="rgb(none)" stroke-width="0.0" fill="0,0,0" />
<polygon id="07-7749B" points="6807,2735 6802,2735 6802,2692 6707,2692 6707,2789 6802,2788 6807,2787 6807,2735" stroke="rgb(none)" stroke-width="0.0" fill="0,0,0" />
<polygon id="07-7740C" points="6807,2591 6707,2591 6707,2687 6807,2687 6807,2591" stroke="rgb(none)" stroke-width="0.0" fill="0,0,0" />
<polygon id="07-7749" points="6702,2723 6702,2643 6553,2643 6553,2667 6540,2667 6540,2789 6618,2789 6618,2813 6670,2813 6670,2789 6702,2788 6707,2787 6707,2735 6702,2735 6702,2723" stroke="rgb(none)" stroke-width="0.0" fill="0,0,0" />
<polygon id="07-7751" points="6702,2543 6707,2543 6707,2491 6702,2490 6697,2489 6697,2465 6618,2465 6618,2489 6540,2489 6540,2611 6553,2611 6553,2635 6702,2635 6702,2543" stroke="rgb(none)" stroke-width="0.0" fill="0,0,0" />
<polygon id="07-7812" points="7301,2792 7250,2792 7250,2786 7198,2786 7198,2792 7074,2792 7074,2823 7068,2823 7068,2799 7029,2799 7029,2957 7197,2957 7197,2869 7202,2869 7202,2957 7301,2957 7301,2792" stroke="rgb(none)" stroke-width="0.0" fill="0,0,0" />
<polygon id="07-7811" points="7279,2586 7157,2586 7158,2684 7159,2690 7199,2690 7199,2684 7279,2684 7279,2586" stroke="rgb(none)" stroke-width="0.0" fill="0,0,0" />
<polygon id="07-7805" points="7437,2587 7431,2586 7307,2585 7307,2684 7431,2684 7431,2639 7437,2639 7437,2587" stroke="rgb(none)" stroke-width="0.0" fill="0,0,0" />
<polygon id="07-7717" points="7701,3079 7539,3080 7533,3081 7533,3121 7539,3121 7539,3184 7701,3184 7701,3079" stroke="rgb(none)" stroke-width="0.0" fill="0,0,0" />
<polygon id="07-7721" points="7859,3073 7817,3073 7817,3060 7785,3060 7786,3184 7787,3190 7827,3190 7827,3181 7859,3181 7859,3073" stroke="rgb(none)" stroke-width="0.0" fill="0,0,0" />
<polygon id="07-7719" points="7780,3060 7747,3060 7747,3073 7706,3073 7706,3184 7738,3184 7738,3190 7778,3190 7779,3184 7780,3060" stroke="rgb(none)" stroke-width="0.0" fill="0,0,0" />
<polygon id="07-7710A" points="7533,3081 7533,3018 7461,3018 7461,3057 7307,3057 7307,3095 7334,3095 7334,3100 7306,3102 7306,3128 7307,3169 7334,3169 7334,3190 7454,3190 7454,3165 7461,3165 7461,3184 7479,3184 7479,3190 7532,3190 7533,3184 7533,3081" stroke="rgb(none)" stroke-width="0.0" fill="0,0,0" />
<polygon id="07-7814" points="7455,2871 7457,2843 7455,2792 7349,2792 7349,2786 7309,2786 7308,2792 7307,3018 7334,3018 7334,3023 7318,3023 7318,3052 7334,3052 7334,3057 7372,3057 7372,3052 7455,3052 7457,2999 7457,2973 7455,2871" stroke="rgb(none)" stroke-width="0.0" fill="0,0,0" />
<polygon id="07-7800" points="7533,2881 7533,2786 7461,2786 7460,2843 7460,2869 7455,2871 7455,2972 7460,2973 7460,2999 7462,3012 7463,3018 7503,3018 7503,3012 7533,3012 7533,2881" stroke="rgb(none)" stroke-width="0.0" fill="0,0,0" />
<polygon id="07-7810" points="7004,2686 7004,2790 7055,2788 7749,2786 7755,2786 7829,2788 7837,2790 7837,2686 7787,2688 7013,2688 7004,2686" stroke="rgb(none)" stroke-width="0.0" fill="0,0,0" />
<polygon id="07-7802" points="7747,2936 7539,2936 7539,2945 7533,2945 7533,2985 7539,2985 7539,3020 7567,3020 7566,3049 7564,3073 7702,3073 7702,3055 7747,3055 7747,2936" stroke="rgb(none)" stroke-width="0.0" fill="0,0,0" />
<polygon id="07-7818" points="7858,2795 7824,2793 7789,2792 7789,2786 7755,2786 7754,2792 7753,2922 7858,2922 7858,2795" stroke="rgb(none)" stroke-width="0.0" fill="0,0,0" />
<polygon id="07-7804" points="7747,2792 7539,2792 7539,2881 7533,2881 7533,2921 7539,2921 7539,2930 7747,2930 7747,2792" stroke="rgb(none)" stroke-width="0.0" fill="0,0,0" />
<polygon id="07-7780" points="7984,3186 7885,3186 7885,3290 7935,3288 7984,3286 7984,3445 7949,3445 7949,3530 7985,3531 8012,3531 8079,3530 8080,3436 8080,3185 8080,3050 8080,2950 8080,2938 8080,2950 8080,2938 8080,2886 8080,2789 8080,2591 8081,2458 8083,2449 7980,2449 7980,2502 7980,2620 7962,2620 7962,2684 7984,2684 7984,2690 7846,2688 7837,2686 7837,2790 7984,2790 7984,3186" stroke="rgb(none)" stroke-width="0.0" fill="0,0,0" />
<polygon id="07-7817" points="7802,2500 7651,2500 7652,2684 7653,2690 7693,2690 7693,2684 7782,2683 7826,2681 7826,2600 7782,2600 7782,2594 7802,2594 7802,2500" stroke="rgb(none)" stroke-width="0.0" fill="0,0,0" />
<polygon id="07-7782" points="7974,2554 7980,2554 7980,2502 7974,2501 7808,2500 7808,2594 7832,2594 7832,2681 7851,2683 7957,2684 7957,2652 7938,2652 7938,2615 7972,2615 7973,2592 7974,2554" stroke="rgb(none)" stroke-width="0.0" fill="0,0,0" />
<polygon id="07-7806" points="7978,2420 7984,2420 7984,2380 7978,2380 7978,2348 7641,2348 7641,2393 7539,2394 7533,2395 7533,2447 7539,2447 7539,2494 7975,2494 7976,2436 7978,2420" stroke="rgb(none)" stroke-width="0.0" fill="0,0,0" />
<polygon id="07-7770A" points="7984,2222 7641,2222 7641,2342 7729,2342 7729,2318 7734,2318 7734,2342 7773,2342 7773,2313 7780,2313 7779,2318 7778,2342 7817,2342 7816,2318 7815,2313 7822,2313 7822,2342 7978,2342 7978,2318 7984,2318 7984,2222" stroke="rgb(none)" stroke-width="0.0" fill="0,0,0" />
<polygon id="07-7808" points="7635,2249 7635,2231 7567,2231 7567,2255 7542,2255 7541,2319 7539,2333 7533,2333 7533,2385 7539,2386 7635,2387 7635,2249" stroke="rgb(none)" stroke-width="0.0" fill="0,0,0" />
<polygon id="07-7800A" points="7533,2447 7535,2314 7535,2255 7533,2222 7437,2222 7435,2297 7433,2357 7434,2385 7434,2529 7432,2557 7437,2557 7437,2690 7533,2690 7533,2447" stroke="rgb(none)" stroke-width="0.0" fill="0,0,0" />
<polygon id="07-7807" points="7435,2407 7426,2407 7426,2346 7289,2346 7289,2564 7426,2564 7426,2507 7435,2507 7435,2407" stroke="rgb(none)" stroke-width="0.0" fill="0,0,0" />
<polygon id="07-7764" points="7431,2228 7350,2228 7350,2222 7310,2222 7309,2228 7308,2258 7282,2258 7282,2341 7289,2341 7429,2341 7430,2292 7431,2228" stroke="rgb(none)" stroke-width="0.0" fill="0,0,0" />
<polygon id="07-7760A" points="6904,2222 6904,2317 6910,2317 6910,2341 7066,2341 7066,2312 7072,2312 7071,2317 7071,2341 7109,2341 7108,2317 7107,2312 7114,2312 7114,2341 7154,2341 7154,2317 7159,2317 7159,2341 7276,2341 7276,2222 6904,2222" stroke="rgb(none)" stroke-width="0.0" fill="0,0,0" />
<polygon id="07-7752" points="7107,2347 6911,2347 6910,2371 6910,2437 6904,2437 6904,2489 6910,2489 6910,2570 6934,2570 6934,2627 6951,2627 6951,2681 7063,2681 7063,2690 7115,2690 7115,2684 7152,2684 7152,2585 7107,2585 7107,2347" stroke="rgb(none)" stroke-width="0.0" fill="0,0,0" />
<polygon id="07-7740" points="6904,2684 6923,2684 6923,2627 6929,2627 6929,2575 6904,2575 6904,2222 6807,2222 6904,2222 6807,2222 6806,2301 6806,2325 6806,3578 6804,3586 6907,3586 6905,3578 6904,2790 7004,2790 7004,2686 6954,2688 6904,2690 6904,2684" stroke="rgb(none)" stroke-width="0.0" fill="0,0,0" />
<polygon id="07-7751B" points="6807,2491 6802,2490 6707,2489 6707,2586 6802,2586 6802,2543 6807,2543 6807,2491" stroke="rgb(none)" stroke-width="0.0" fill="0,0,0" />
<polygon id="07-7751A" points="6653,2424 6613,2424 6613,2409 6553,2409 6555,2484 6556,2489 6596,2489 6596,2484 6613,2484 6613,2460 6653,2460 6653,2424" stroke="rgb(none)" stroke-width="0.0" fill="0,0,0" />
<polygon id="07-7753A" points="6791,2441 6800,2441 6800,2398 6752,2398 6752,2393 6712,2393 6712,2398 6702,2398 6702,2424 6665,2424 6665,2460 6702,2460 6702,2484 6791,2484 6791,2441" stroke="rgb(none)" stroke-width="0.0" fill="0,0,0" />
<polygon id="07-7753" points="6803,2228 6553,2228 6553,2271 6540,2271 6540,2393 6618,2393 6618,2417 6697,2417 6697,2393 6803,2392 6807,2391 6807,2339 6803,2339 6804,2325 6804,2301 6803,2228" stroke="rgb(none)" stroke-width="0.0" fill="0,0,0" />
<polygon id="07-7755A" points="6349,2141 6337,2141 6337,2100 6277,2100 6277,2136 6272,2136 6272,2100 6209,2100 6211,2189 6213,2207 6349,2206 6354,2205 6354,2165 6349,2165 6349,2141" stroke="rgb(none)" stroke-width="0.0" fill="0,0,0" />
<polygon id="07-7755" points="6585,2042 6520,2042 6520,2066 6493,2066 6493,2034 6517,2034 6517,1955 6492,1955 6491,1865 6451,1865 6411,1865 6371,1865 6370,1872 6354,1872 6354,1896 6343,1896 6343,2120 6366,2120 6366,2141 6354,2141 6354,2247 6370,2247 6370,2253 6468,2253 6468,2247 6527,2247 6527,2230 6527,2220 6563,2218 6568,2216 6568,2166 6563,2166 6564,2152 6564,2130 6563,2121 6585,2121 6585,2042" stroke="rgb(none)" stroke-width="0.0" fill="0,0,0" />
<polygon id="07-7760B" points="6786,2025 6719,2024 6695,2024 6691,2025 6691,2126 6786,2126 6786,2025" stroke="rgb(none)" stroke-width="0.0" fill="0,0,0" />
<polygon id="07-7757" points="6710,1859 6588,1859 6588,1941 6565,1941 6565,2020 6592,2020 6592,2025 6644,2025 6644,2020 6658,2021 6682,2021 6695,2021 6719,2021 6736,2020 6736,1872 6710,1872 6710,1859" stroke="rgb(none)" stroke-width="0.0" fill="0,0,0" />
<polygon id="07-7757A" points="6588,1874 6584,1873 6508,1872 6508,1876 6508,1904 6500,1904 6500,1936 6524,1936 6524,1976 6560,1976 6560,1936 6583,1936 6584,1914 6588,1914 6588,1874" stroke="rgb(none)" stroke-width="0.0" fill="0,0,0" />
<polygon id="07-7757B" points="6686,2025 6682,2024 6658,2024 6590,2025 6591,2121 6592,2126 6644,2126 6644,2121 6658,2122 6682,2122 6686,2121 6686,2025" stroke="rgb(none)" stroke-width="0.0" fill="0,0,0" />
<polygon id="07-7759B" points="6888,2025 6791,2025 6791,2121 6834,2121 6834,2126 6886,2126 6887,2121 6888,2025" stroke="rgb(none)" stroke-width="0.0" fill="0,0,0" />
<polygon id="07-7759A" points="6977,1900 6968,1900 6968,1872 6893,1873 6888,1874 6888,1914 6893,1914 6893,1932 6917,1932 6917,1972 6953,1972 6953,1932 6977,1932 6977,1900" stroke="rgb(none)" stroke-width="0.0" fill="0,0,0" />
<polygon id="07-7759" points="6912,1937 6888,1937 6888,1872 6888,1859 6766,1859 6766,1872 6742,1872 6742,2020 6834,2020 6834,2025 6886,2025 6887,2020 6888,1989 6912,1989 6912,1937" stroke="rgb(none)" stroke-width="0.0" fill="0,0,0" />
<polygon id="07-7760" points="7568,2122 7517,2124 7473,2125 7448,2125 7134,2126 7050,2126 7038,2126 6984,2126 6888,2126 6786,2126 6682,2125 6658,2125 6568,2126 6566,2130 6566,2152 6568,2222 6904,2222 7559,2224 7568,2226 7568,2122" stroke="rgb(none)" stroke-width="0.0" fill="0,0,0" />
<polygon id="07-7760C" points="7284,2025 7137,2025 7137,2120 7150,2120 7150,2126 7284,2126 7284,2025" stroke="rgb(none)" stroke-width="0.0" fill="0,0,0" />
<polygon id="07-7761" points="6984,1937 6960,1937 6960,2015 6984,2015 6985,2121 6986,2126 7038,2126 7038,2121 7132,2121 7132,1872 7106,1872 7106,1859 6984,1859 6984,1937" stroke="rgb(none)" stroke-width="0.0" fill="0,0,0" />
<polygon id="07-7763" points="7308,1937 7284,1937 7284,1859 7162,1859 7162,1872 7137,1872 7137,2020 7230,2020 7230,2025 7282,2025 7283,2020 7284,2015 7308,2015 7308,1937" stroke="rgb(none)" stroke-width="0.0" fill="0,0,0" />
<polygon id="07-7763A" points="7373,1900 7364,1900 7364,1872 7289,1873 7284,1874 7284,1914 7289,1914 7289,1932 7313,1932 7313,1972 7349,1972 7349,1932 7373,1932 7373,1900" stroke="rgb(none)" stroke-width="0.0" fill="0,0,0" />
<polygon id="07-7765A" points="7380,2030 7375,2030 7375,2020 7349,2020 7349,1983 7313,1983 7313,2020 7289,2020 7289,2110 7332,2110 7332,2119 7375,2119 7375,2070 7380,2070 7380,2030" stroke="rgb(none)" stroke-width="0.0" fill="0,0,0" />
<polygon id="07-7765" points="7552,1872 7502,1872 7502,1859 7380,1859 7380,1937 7357,1937 7357,2015 7380,2015 7381,2121 7382,2126 7434,2126 7434,2121 7448,2122 7473,2122 7512,2119 7552,2117 7552,1872" stroke="rgb(none)" stroke-width="0.0" fill="0,0,0" />
<polygon id="07-7770B" points="7703,2026 7633,2024 7609,2024 7558,2026 7558,2117 7570,2117 7570,2122 7703,2122 7703,2026" stroke="rgb(none)" stroke-width="0.0" fill="0,0,0" />
<polygon id="07-7767" points="7703,1874 7703,1836 7727,1836 7727,1790 7703,1789 7702,1776 7580,1780 7579,1793 7555,1794 7555,1846 7579,1846 7579,1872 7558,1872 7558,2020 7609,2021 7633,2021 7647,2020 7647,2026 7699,2026 7699,2020 7703,2020 7703,2015 7727,2015 7727,1937 7703,1937 7703,1874" stroke="rgb(none)" stroke-width="0.0" fill="0,0,0" />
<polygon id="07-7767A" points="7783,1872 7708,1873 7703,1874 7703,1914 7708,1914 7708,1932 7732,1932 7732,1972 7768,1972 7768,1932 7792,1932 7792,1900 7783,1900 7783,1872" stroke="rgb(none)" stroke-width="0.0" fill="0,0,0" />
<polygon id="07-7769A" points="7799,2030 7795,2030 7795,2020 7769,2020 7769,1983 7732,1983 7732,2020 7708,2020 7708,2110 7751,2110 7751,2119 7795,2119 7795,2070 7799,2070 7799,2030" stroke="rgb(none)" stroke-width="0.0" fill="0,0,0" />
<polygon id="07-7769" points="7948,1875 7922,1872 7922,1846 7948,1846 7948,1794 7922,1793 7921,1780 7841,1778 7800,1777 7799,1790 7775,1790 7775,1836 7799,1836 7799,1937 7776,1937 7776,2015 7799,2015 7799,2120 7805,2120 7805,2126 7857,2126 7857,2120 7871,2121 7895,2121 7948,2120 7948,1875" stroke="rgb(none)" stroke-width="0.0" fill="0,0,0" />
<polygon id="07-7771" points="8101,1867 8101,1837 8125,1837 8125,1808 8101,1805 8100,1792 7979,1783 7978,1796 7954,1795 7954,1846 7978,1846 7978,1872 7954,1872 7954,2120 8007,2121 8031,2121 8045,2120 8045,2126 8099,2126 8100,2120 8101,2015 8126,2015 8126,1937 8101,1937 8101,1867" stroke="rgb(none)" stroke-width="0.0" fill="0,0,0" />
<polygon id="07-7771A" points="8192,1994 8132,1994 8132,2030 8106,2030 8101,2030 8101,2070 8106,2070 8106,2119 8149,2119 8149,2110 8192,2110 8192,1994" stroke="rgb(none)" stroke-width="0.0" fill="0,0,0" />
<polygon id="07-7773A" points="8197,1874 8193,1873 8117,1872 8117,1900 8109,1900 8109,1932 8133,1932 8133,1972 8169,1972 8169,1932 8193,1932 8193,1914 8197,1914 8197,1874" stroke="rgb(none)" stroke-width="0.0" fill="0,0,0" />
<polygon id="07-7773" points="8354,1872 8315,1872 8315,1817 8276,1812 8237,1807 8197,1802 8197,1815 8173,1813 8173,1837 8197,1837 8197,1872 8197,1937 8174,1937 8174,1989 8197,1989 8198,2020 8199,2026 8251,2026 8251,2020 8265,2021 8289,2021 8333,2020 8333,1992 8354,1992 8354,1872" stroke="rgb(none)" stroke-width="0.0" fill="0,0,0" />
<polygon id="07-7773B" points="8293,2026 8265,2024 8197,2026 8198,2120 8199,2126 8249,2126 8249,2120 8265,2121 8289,2121 8293,2120 8293,2026" stroke="rgb(none)" stroke-width="0.0" fill="0,0,0" />
<polygon id="07-7770C" points="8388,2042 8299,2042 8299,2126 8388,2126 8388,2042" stroke="rgb(none)" stroke-width="0.0" fill="0,0,0" />
<polygon id="07-7770" points="8650,2181 8636,2178 8485,2146 8421,2131 8398,2126 8389,2126 8289,2124 8265,2124 8031,2124 8007,2124 7895,2124 7871,2124 7703,2124 7568,2122 7568,2226 7618,2224 7984,2222 7982,2441 7980,2449 8083,2449 8081,2399 8081,2325 8081,2301 8080,2222 8086,2222 8086,2245 8194,2245 8194,2222 8285,2222 8285,2244 8333,2244 8333,2217 8359,2217 8359,2252 8375,2255 8435,2268 8434,2274 8671,2324 8672,2318 8690,2322 8693,2305 8706,2307 8715,2266 8726,2215 8730,2198 8676,2185 8650,2181" stroke="rgb(none)" stroke-width="0.0" fill="0,0,0" />
<polygon id="07-7775B" points="8509,2052 8442,2037 8419,2032 8415,2032 8397,2122 8422,2128 8438,2130 8437,2136 8485,2146 8488,2141 8509,2052" stroke="rgb(none)" stroke-width="0.0" fill="0,0,0" />
<polygon id="07-7775" points="8541,1901 8549,1859 8429,1836 8427,1848 8381,1841 8359,1941 8359,2014 8419,2029 8443,2034 8459,2036 8458,2041 8505,2051 8506,2046 8510,2046 8512,2039 8535,2044 8551,1967 8528,1962 8533,1940 8541,1901" stroke="rgb(none)" stroke-width="0.0" fill="0,0,0" />
<polygon id="07-7777A" points="8602,2073 8598,2072 8600,2062 8574,2057 8582,2021 8546,2013 8539,2050 8515,2045 8497,2132 8539,2141 8537,2150 8579,2159 8589,2111 8594,2112 8602,2073" stroke="rgb(none)" stroke-width="0.0" fill="0,0,0" />
<polygon id="07-7775A" points="8622,1944 8614,1942 8620,1915 8546,1901 8541,1901 8533,1940 8537,1941 8534,1958 8557,1963 8548,2002 8584,2010 8592,1971 8616,1976 8622,1944" stroke="rgb(none)" stroke-width="0.0" fill="0,0,0" />
<polygon id="07-7777" points="8779,1963 8761,1959 8768,1924 8759,1922 8760,1909 8722,1898 8683,1889 8644,1880 8640,1892 8619,1887 8615,1904 8637,1909 8629,1946 8622,1982 8599,1977 8582,2054 8605,2059 8584,2161 8589,2162 8587,2168 8636,2178 8638,2172 8652,2177 8676,2182 8731,2192 8779,1963" stroke="rgb(none)" stroke-width="0.0" fill="0,0,0" />
<polygon id="07-7825" points="8778,2004 8733,2217 8726,2215 8715,2266 8722,2269 8843,2296 8846,2292 8851,2275 8856,2276 8866,2229 8861,2228 8900,2034 8899,2030 8778,2004" stroke="rgb(none)" stroke-width="0.0" fill="0,0,0" />
<polygon id="07-7781A" points="8333,2409 8305,2409 8305,2400 8273,2400 8273,2425 8233,2425 8233,2461 8273,2461 8273,2484 8291,2484 8291,2489 8331,2489 8332,2484 8333,2409" stroke="rgb(none)" stroke-width="0.0" fill="0,0,0" />
<polygon id="07-7779A" points="8222,2424 8185,2424 8185,2398 8175,2398 8175,2393 8135,2393 8135,2398 8088,2398 8088,2441 8096,2441 8096,2484 8185,2484 8185,2460 8222,2460 8222,2424" stroke="rgb(none)" stroke-width="0.0" fill="0,0,0" />
<polygon id="07-7779" points="8346,2271 8333,2270 8333,2250 8086,2250 8084,2301 8084,2325 8086,2339 8080,2339 8080,2391 8086,2392 8190,2393 8190,2417 8269,2417 8269,2393 8333,2393 8346,2393 8346,2271" stroke="rgb(none)" stroke-width="0.0" fill="0,0,0" />
<polygon id="07-7781B" points="8180,2491 8085,2490 8080,2491 8080,2543 8085,2543 8085,2586 8180,2586 8180,2491" stroke="rgb(none)" stroke-width="0.0" fill="0,0,0" />
<polygon id="07-7781" points="8190,2465 8190,2489 8185,2490 8180,2491 8180,2543 8185,2543 8185,2635 8334,2635 8333,2611 8346,2611 8346,2489 8269,2489 8269,2465 8190,2465" stroke="rgb(none)" stroke-width="0.0" fill="0,0,0" />
<polygon id="07-7780B" points="8180,2622 8180,2591 8080,2591 8080,2687 8181,2687 8180,2622" stroke="rgb(none)" stroke-width="0.0" fill="0,0,0" />
<polygon id="07-7783A" points="8333,2794 8331,2789 8291,2789 8291,2794 8273,2794 8273,2818 8233,2818 8233,2854 8273,2854 8273,2878 8305,2878 8305,2869 8333,2869 8333,2794" stroke="rgb(none)" stroke-width="0.0" fill="0,0,0" />
<polygon id="07-7785A" points="8212,2794 8095,2794 8095,2837 8086,2837 8086,2880 8135,2880 8135,2885 8175,2885 8175,2880 8175,2854 8212,2854 8212,2794" stroke="rgb(none)" stroke-width="0.0" fill="0,0,0" />
<polygon id="07-7783B" points="8085,2692 8085,2735 8080,2735 8080,2787 8085,2788 8181,2789 8181,2692 8085,2692" stroke="rgb(none)" stroke-width="0.0" fill="0,0,0" />
<polygon id="07-7783" points="8347,2667 8333,2667 8333,2643 8186,2643 8186,2735 8181,2735 8181,2787 8186,2788 8216,2789 8216,2813 8269,2813 8269,2789 8334,2789 8347,2789 8347,2667" stroke="rgb(none)" stroke-width="0.0" fill="0,0,0" />
<polygon id="07-7785" points="8190,2861 8190,2885 8085,2885 8080,2886 8080,2938 8085,2938 8085,3031 8333,3031 8333,3007 8346,3007 8347,2885 8269,2885 8269,2861 8190,2861" stroke="rgb(none)" stroke-width="0.0" fill="0,0,0" />
<polygon id="07-7780A" points="7984,2790 7888,2790 7888,2795 7864,2795 7864,2934 7888,2934 7888,2939 7864,2939 7864,2977 7893,2977 7893,2984 7888,2983 7864,2982 7864,3020 7888,3019 7893,3019 7893,3025 7864,3025 7864,3181 7888,3181 7888,3186 7984,3186 7984,2790" stroke="rgb(none)" stroke-width="0.0" fill="0,0,0" />
<polygon id="07-7787" points="8180,3183 8185,3184 8190,3185 8190,3208 8269,3208 8269,3185 8346,3185 8346,3063 8333,3063 8333,3037 8185,3037 8185,3131 8180,3131 8180,3183" stroke="rgb(none)" stroke-width="0.0" fill="0,0,0" />
<polygon id="07-7780C" points="8180,3131 8180,3038 8085,3038 8085,3050 8080,3050 8080,3185 8180,3185 8180,3131" stroke="rgb(none)" stroke-width="0.0" fill="0,0,0" />
<polygon id="07-7789A" points="8222,3214 8185,3214 8185,3190 8096,3190 8096,3233 8087,3233 8087,3276 8135,3276 8135,3281 8175,3281 8175,3276 8185,3276 8185,3250 8222,3250 8222,3214" stroke="rgb(none)" stroke-width="0.0" fill="0,0,0" />
<polygon id="07-7787A" points="8333,3190 8331,3185 8291,3185 8291,3190 8274,3190 8274,3213 8234,3213 8234,3249 8274,3249 8274,3274 8306,3274 8306,3265 8333,3265 8333,3190" stroke="rgb(none)" stroke-width="0.0" fill="0,0,0" />
<polygon id="07-7789" points="8346,3281 8269,3281 8269,3257 8190,3257 8190,3281 8084,3282 8080,3283 8080,3335 8084,3335 8084,3347 8084,3428 8333,3428 8333,3403 8346,3403 8346,3281" stroke="rgb(none)" stroke-width="0.0" fill="0,0,0" />
<polygon id="07-7792" points="7979,3337 7984,3337 7984,3297 7979,3296 7893,3295 7893,3377 7917,3377 7917,3407 7949,3407 7949,3417 7979,3417 7979,3337" stroke="rgb(none)" stroke-width="0.0" fill="0,0,0" />
<polygon id="07-7791A" points="8333,3476 8306,3475 8309,3470 8333,3471 8333,3434 8289,3434 8290,3451 8286,3454 8284,3434 8246,3434 8246,3467 8230,3483 8258,3512 8262,3508 8266,3512 8333,3512 8333,3476" stroke="rgb(none)" stroke-width="0.0" fill="0,0,0" />
<polygon id="07-7791" points="8346,3506 8338,3506 8338,3518 8264,3518 8258,3512 8226,3480 8242,3464 8211,3434 8196,3449 8181,3434 8086,3435 8080,3436 8080,3488 8086,3488 8084,3502 8084,3526 8086,3583 8108,3583 8108,3591 8305,3591 8305,3628 8346,3628 8346,3506" stroke="rgb(none)" stroke-width="0.0" fill="0,0,0" />
<polygon id="07-7793" points="8333,3633 8300,3633 8300,3597 8080,3597 8079,3536 8078,3530 8026,3530 8026,3536 8013,3534 7985,3534 7949,3536 7949,3700 7984,3700 7984,3726 7946,3726 7946,3776 7996,3781 7997,3787 8044,3790 8092,3790 8140,3788 8187,3784 8234,3777 8281,3768 8328,3757 8327,3751 8333,3750 8333,3726 8315,3726 8315,3697 8333,3697 8333,3633" stroke="rgb(none)" stroke-width="0.0" fill="0,0,0" />
<polygon id="07-7710" points="7885,3186 7834,3188 7827,3190 7787,3190 7778,3190 7738,3190 7532,3190 7334,3190 7334,3175 7259,3175 7259,3169 7246,3171 7217,3174 7149,3175 7109,3175 7100,3175 7060,3175 7028,3175 7028,3190 6904,3190 6904,3286 7113,3286 7113,3291 7131,3290 7163,3289 7297,3290 7313,3291 7313,3285 7538,3285 7538,3291 7564,3290 7708,3290 7734,3290 7807,3289 7823,3289 7885,3290 7885,3186" stroke="rgb(none)" stroke-width="0.0" fill="0,0,0" />
<polygon id="07-7744" points="7026,3302 7026,3291 6910,3292 6904,3293 6904,3333 6910,3333 6910,3442 6923,3442 6923,3415 6951,3415 6951,3442 6985,3442 7026,3414 7026,3302" stroke="rgb(none)" stroke-width="0.0" fill="0,0,0" />
<polygon id="07-7730" points="7734,3468 7734,3299 7686,3299 7686,3289 7586,3289 7586,3299 7566,3299 7566,3666 7585,3666 7585,3671 7688,3671 7688,3666 7734,3666 7734,3468" stroke="rgb(none)" stroke-width="0.0" fill="0,0,0" />
<polygon id="07-7720" points="7280,3470 7280,3299 7263,3299 7263,3289 7163,3289 7163,3299 7145,3299 7145,3404 7136,3404 7136,3458 7145,3458 7145,3533 7136,3533 7136,3579 7145,3579 7145,3666 7163,3666 7163,3671 7263,3671 7263,3666 7280,3666 7280,3470" stroke="rgb(none)" stroke-width="0.0" fill="0,0,0" />
<polygon id="07-7742" points="7026,3448 6910,3449 6904,3450 6904,3490 6910,3490 6911,3573 6912,3698 7026,3698 7026,3680 7026,3448" stroke="rgb(none)" stroke-width="0.0" fill="0,0,0" />
<polygon id="07-7700A" points="7770,3739 7685,3739 7684,3719 7689,3719 7689,3671 7583,3671 7583,3719 7588,3719 7588,3739 7527,3739 7527,3704 7319,3704 7319,3739 7261,3739 7261,3719 7266,3719 7266,3671 7160,3671 7160,3719 7165,3719 7165,3739 6904,3739 6905,3637 6907,3586 6804,3586 6806,3637 6808,3739 6523,3739 6523,3585 6463,3585 6463,3739 6454,3739 6415,3739 6401,3739 6067,3739 5967,3737 5960,3735 5960,3839 6009,3837 6104,3835 6104,3865 6777,3865 6777,3835 7587,3835 7588,3865 7721,3865 7732,3865 7770,3864 7770,3739" stroke="rgb(none)" stroke-width="0.0" fill="0,0,0" />
<polygon id="07-7703" points="6095,3674 5999,3674 5999,3734 6027,3734 6027,3739 6067,3739 6068,3734 6069,3701 6095,3701 6095,3674" stroke="rgb(none)" stroke-width="0.0" fill="0,0,0" />
<polygon id="07-7807A" points="7289,2486 7281,2486 7281,2467 7114,2467 7114,2578 7281,2578 7281,2550 7289,2550 7289,2486" stroke="rgb(none)" stroke-width="0.0" fill="0,0,0" />
<polygon id="07-7807B" points="7289,2367 7281,2367 7281,2348 7114,2348 7114,2459 7281,2459 7281,2431 7289,2431 7289,2367" stroke="rgb(none)" stroke-width="0.0" fill="0,0,0" />
<polygon id="07-7730E" points="7873,3440 7742,3440 7742,3468 7734,3468 7734,3532 7742,3532 7742,3552 7873,3552 7873,3440" stroke="rgb(none)" stroke-width="0.0" fill="0,0,0" />
<polygon id="07-7730B" points="7566,3468 7542,3468 7542,3440 7410,3440 7410,3552 7542,3552 7542,3532 7566,3532 7566,3468" stroke="rgb(none)" stroke-width="0.0" fill="0,0,0" />
<polygon id="07-7720E" points="7402,3440 7304,3440 7304,3470 7280,3470 7280,3522 7304,3522 7304,3552 7402,3552 7402,3440" stroke="rgb(none)" stroke-width="0.0" fill="0,0,0" />
<polygon id="07-7720B" points="7145,3470 7129,3470 7129,3440 7033,3440 7033,3552 7129,3552 7129,3522 7145,3522 7145,3470" stroke="rgb(none)" stroke-width="0.0" fill="0,0,0" />
<polygon id="07-7720F" points="7402,3560 7304,3560 7304,3590 7280,3590 7280,3642 7304,3642 7304,3673 7402,3673 7402,3560" stroke="rgb(none)" stroke-width="0.0" fill="0,0,0" />
<polygon id="07-7730A" points="7566,3588 7542,3588 7542,3560 7410,3560 7410,3673 7542,3673 7542,3652 7566,3652 7566,3588" stroke="rgb(none)" stroke-width="0.0" fill="0,0,0" />
<polygon id="07-7730F" points="7873,3560 7742,3560 7742,3588 7734,3588 7734,3652 7742,3652 7742,3673 7873,3673 7873,3560" stroke="rgb(none)" stroke-width="0.0" fill="0,0,0" />
<polygon id="07-7730D" points="7886,3297 7742,3297 7742,3326 7734,3326 7734,3402 7742,3402 7742,3422 7886,3422 7886,3297" stroke="rgb(none)" stroke-width="0.0" fill="0,0,0" />
<polygon id="07-7730C" points="7566,3338 7542,3338 7542,3309 7410,3309 7410,3422 7542,3422 7542,3402 7566,3402 7566,3338" stroke="rgb(none)" stroke-width="0.0" fill="0,0,0" />
<polygon id="07-7720D" points="7402,3309 7304,3309 7304,3340 7280,3340 7280,3392 7304,3392 7304,3422 7402,3422 7402,3309" stroke="rgb(none)" stroke-width="0.0" fill="0,0,0" />
<polygon id="07-7720A" points="7145,3590 7129,3590 7129,3560 7033,3560 7033,3673 7129,3673 7129,3642 7145,3642 7145,3590" stroke="rgb(none)" stroke-width="0.0" fill="0,0,0" />
<polygon id="07-7720C" points="7145,3340 7129,3340 7129,3309 7033,3309 7033,3422 7129,3422 7129,3392 7145,3392 7145,3340" stroke="rgb(none)" stroke-width="0.0" fill="0,0,0" />
<polygon id="07-7709" points="6688,3585 6528,3586 6523,3587 6523,3642 6528,3642 6530,3676 6531,3697 6591,3697 6591,3716 6688,3716 6688,3585" stroke="rgb(none)" stroke-width="0.0" fill="0,0,0" />
<polygon id="07-7718" points="7559,3859 7554,3840 7553,3835 7501,3835 7501,3840 7485,3840 7485,3855 7291,3855 7289,3859 7289,3979 7291,3983 7489,3983 7489,3988 7527,3988 7527,3983 7553,3983 7553,3977 7559,3977 7559,3859" stroke="rgb(none)" stroke-width="0.0" fill="0,0,0" />
<polygon id="07-7714" points="7262,3953 7281,3953 7281,3935 7262,3933 7281,3931 7281,3860 7263,3860 7262,3841 7261,3835 7223,3835 7223,3841 7041,3841 7041,4027 7029,4027 7028,4035 7075,4038 7123,4039 7171,4038 7266,4032 7281,4030 7281,4003 7262,4003 7262,3953" stroke="rgb(none)" stroke-width="0.0" fill="0,0,0" />
<polygon id="07-7712" points="7035,3841 6948,3841 6948,3859 6924,3859 6924,3841 6848,3841 6848,3835 6811,3835 6810,3841 6809,3859 6790,3859 6790,3931 6809,3931 6809,3935 6790,3935 6790,3953 6809,3953 6809,3990 6824,3994 6839,3998 6839,4004 6886,4014 6933,4023 6980,4030 7026,4034 7027,4027 7027,4022 7035,4022 7035,3841" stroke="rgb(none)" stroke-width="0.0" fill="0,0,0" />
<polygon id="07-7741" points="6807,3436 6802,3435 6669,3434 6669,3580 6693,3580 6693,3700 6802,3699 6808,3698 6808,3646 6802,3646 6800,3642 6800,3573 6802,3476 6807,3476 6807,3436" stroke="rgb(none)" stroke-width="0.0" fill="0,0,0" />
<polygon id="07-7707" points="6545,3481 6527,3481 6527,3419 6403,3419 6403,3553 6463,3553 6464,3580 6465,3585 6505,3585 6505,3580 6545,3580 6545,3481" stroke="rgb(none)" stroke-width="0.0" fill="0,0,0" />
<polygon id="07-7705" points="6458,3559 6411,3559 6411,3583 6382,3583 6382,3578 6406,3578 6406,3559 6382,3559 6382,3443 6330,3443 6330,3419 6325,3419 6325,3413 6226,3413 6226,3419 6132,3419 6132,3413 6084,3413 6084,3419 6100,3419 6100,3734 6291,3734 6330,3734 6330,3701 6354,3701 6354,3734 6402,3735 6415,3735 6416,3739 6454,3739 6454,3734 6458,3734 6458,3559" stroke="rgb(none)" stroke-width="0.0" fill="0,0,0" />
<polygon id="07-7704" points="6093,3865 6093,3859 6069,3859 6069,3840 6056,3840 6056,3835 6016,3835 6015,3840 6014,3987 6061,3987 6061,3981 6069,3981 6069,3969 6093,3969 6093,3865" stroke="rgb(none)" stroke-width="0.0" fill="0,0,0" />
<polygon id="07-7702" points="6009,3844 5944,3843 5863,3842 5863,3835 5811,3835 5810,3842 5809,3859 5785,3859 5785,3969 5809,3969 5809,3981 5866,3981 5866,3987 6009,3987 6009,3844" stroke="rgb(none)" stroke-width="0.0" fill="0,0,0" />
<polygon id="07-7700" points="5091,3709 5091,3736 5077,3737 5077,3835 5181,3835 5181,3865 5697,3865 5697,3846 5703,3846 5703,3854 5730,3854 5730,3846 5781,3846 5781,3835 5949,3837 5958,3839 5958,3735 5907,3737 5781,3739 5781,3728 5730,3728 5730,3720 5703,3720 5703,3728 5697,3728 5697,3709 5091,3709" stroke="rgb(none)" stroke-width="0.0" fill="0,0,0" />
<polygon id="07-7158" points="1459,2480 1343,2480 1343,2488 1327,2488 1327,2480 1152,2480 1152,2488 1136,2488 1136,2480 959,2480 959,2488 943,2488 943,2480 767,2480 767,2488 751,2488 751,2480 575,2480 575,2488 559,2488 559,2480 459,2480 459,2499 423,2576 459,2653 459,2672 559,2672 559,2664 575,2664 575,2672 751,2672 751,2664 767,2664 767,2672 943,2672 943,2664 959,2664 959,2672 1136,2672 1136,2664 1152,2664 1152,2672 1327,2672 1327,2664 1343,2664 1343,2672 1579,2671 1588,2669 1588,2621 1579,2621 1579,2588 1459,2588 1459,2480" stroke="rgb(none)" stroke-width="0.0" fill="0,0,0" />
<polygon id="07-7150" points="2130,2368 2130,2342 2021,2342 1695,2342 1659,2342 1594,2342 1594,2530 1588,2530 1588,2598 1637,2598 1687,2598 1688,2594 1688,2559 1688,2541 1688,2434 1688,2418 1715,2418 1715,2423 1730,2423 1772,2423 1818,2423 1859,2423 1895,2423 1895,2387 1917,2387 1941,2387 1994,2387 1994,2423 2130,2423 2130,2414 2130,2368" stroke="rgb(none)" stroke-width="0.0" fill="0,0,0" />
<polygon id="07-7150F" points="1795,2428 1772,2428 1772,2423 1730,2423 1730,2428 1715,2430 1715,2546 1733,2547 1795,2548 1795,2428" stroke="rgb(none)" stroke-width="0.0" fill="0,0,0" />
<polygon id="07-7150E" points="1900,2428 1859,2428 1859,2423 1818,2423 1818,2428 1795,2428 1795,2548 1899,2546 1900,2428" stroke="rgb(none)" stroke-width="0.0" fill="0,0,0" />
<polygon id="07-7150D" points="2020,2428 1989,2428 1989,2392 1941,2392 1941,2387 1917,2387 1916,2392 1914,2423 1924,2423 1924,2546 2020,2546 2020,2428" stroke="rgb(none)" stroke-width="0.0" fill="0,0,0" />
<polygon id="07-7150A" points="1688,2718 1687,2603 1685,2598 1637,2598 1637,2603 1588,2603 1588,2715 1593,2715 1593,2725 1588,2725 1588,2920 2130,2920 2130,2802 2130,2744 2082,2745 2082,2794 2082,2872 1652,2872 1652,2718 1688,2718" stroke="rgb(none)" stroke-width="0.0" fill="0,0,0" />
<polygon id="07-7147" points="2309,2843 2303,2843 2303,2838 2255,2838 2255,2843 2212,2843 2212,3057 2299,3057 2299,3039 2309,3039 2309,2843" stroke="rgb(none)" stroke-width="0.0" fill="0,0,0" />
<polygon id="07-7146" points="2303,2567 2302,2478 2300,2457 2205,2457 2205,2452 2159,2452 2159,2457 2153,2457 2153,2700 2159,2700 2159,2705 2205,2705 2205,2700 2300,2700 2302,2679 2303,2567" stroke="rgb(none)" stroke-width="0.0" fill="0,0,0" />
<polygon id="07-7146B" points="2435,2579 2309,2579 2309,2591 2303,2591 2302,2679 2300,2700 2301,2681 2321,2682 2435,2682 2435,2579" stroke="rgb(none)" stroke-width="0.0" fill="0,0,0" />
<polygon id="07-7146A" points="2435,2476 2321,2477 2309,2477 2309,2501 2303,2501 2303,2567 2309,2567 2309,2579 2435,2579 2435,2476" stroke="rgb(none)" stroke-width="0.0" fill="0,0,0" />
<polygon id="07-7122" points="3836,2503 3746,2503 3746,2700 3752,2700 3752,2705 3797,2705 3798,2700 3800,2655 3836,2655 3836,2503" stroke="rgb(none)" stroke-width="0.0" fill="0,0,0" />
<polygon id="07-7122A" points="3741,2463 3644,2463 3644,2700 3741,2700 3741,2690 3746,2690 3746,2646 3741,2646 3741,2463" stroke="rgb(none)" stroke-width="0.0" fill="0,0,0" />
<polygon id="07-7145" points="3728,2708 3343,2705 3343,2701 2951,2701 2951,2705 2153,2705 2153,2744 2130,2744 2130,2802 2212,2802 2212,2838 2255,2838 2303,2838 2309,2838 2309,2802 2405,2802 2451,2802 2470,2802 2516,2802 2621,2802 3085,2802 3131,2802 3221,2802 3726,2801 3728,2708" stroke="rgb(none)" stroke-width="0.0" fill="0,0,0" />
<polygon id="07-7100B" points="3316,2564 3316,2456 3222,2456 3222,2701 3343,2701 3343,2600 3316,2600 3316,2564" stroke="rgb(none)" stroke-width="0.0" fill="0,0,0" />
<polygon id="07-7600A" points="4036,2697 4036,2685 3939,2685 3939,2705 3797,2705 3730,2707 3730,2801 3939,2802 3939,3067 3930,3067 3930,3336 3940,3336 3940,3441 4035,3441 4035,3336 4045,3336 4045,3067 4036,3067 4036,2697" stroke="rgb(none)" stroke-width="0.0" fill="0,0,0" />
<polygon id="07-7600" points="4059,3656 4059,3509 4035,3509 4035,3446 4030,3446 4030,3441 3946,3441 3946,3446 3940,3446 3940,3712 3952,3712 3952,3830 4002,3830 4002,3853 4008,3853 4008,3844 4018,3844 4018,3853 4026,3853 4026,3844 4036,3844 4036,3853 4043,3853 4043,3844 4053,3844 4053,3853 4059,3853 4059,3830 4099,3830 4099,3824 4104,3824 4104,3740 4099,3740 4099,3734 4059,3734 4059,3656" stroke="rgb(none)" stroke-width="0.0" fill="0,0,0" />
<polygon id="07-7600C" points="4167,3620 4080,3620 4080,3629 4071,3629 4071,3656 4059,3656 4059,3698 4071,3698 4071,3728 4167,3728 4167,3620" stroke="rgb(none)" stroke-width="0.0" fill="0,0,0" />
<polygon id="07-7600B" points="4167,3509 4071,3509 4071,3542 4059,3542 4059,3584 4071,3584 4071,3611 4080,3611 4080,3620 4167,3620 4167,3509" stroke="rgb(none)" stroke-width="0.0" fill="0,0,0" />
<polygon id="07-7605B" points="4462,3635 4449,3635 4449,3626 4443,3626 4443,3620 4319,3620 4319,3728 4449,3728 4449,3689 4462,3689 4462,3635" stroke="rgb(none)" stroke-width="0.0" fill="0,0,0" />
<polygon id="07-7605C" points="4462,3551 4449,3551 4449,3509 4319,3509 4319,3620 4443,3620 4443,3614 4449,3614 4449,3605 4462,3605 4462,3551" stroke="rgb(none)" stroke-width="0.0" fill="0,0,0" />
<polygon id="07-7605" points="4584,3561 4584,3497 4462,3497 4462,3733 4584,3733 4584,3561" stroke="rgb(none)" stroke-width="0.0" fill="0,0,0" />
<polygon id="07-7605A" points="4806,3509 4589,3509 4589,3513 4584,3513 4584,3561 4589,3562 4595,3563 4595,3611 4802,3611 4806,3610 4806,3509" stroke="rgb(none)" stroke-width="0.0" fill="0,0,0" />
<polygon id="07-7601" points="5080,3738 5075,3737 5038,3736 5038,3710 4865,3710 4865,3734 4584,3733 4462,3733 4104,3734 4104,3830 4147,3830 4147,3857 4151,3858 4235,3858 4240,3857 4240,3830 4489,3830 4489,3884 4557,3884 4557,3830 4912,3830 4912,3857 5020,3857 5020,3830 5076,3830 5080,3830 5080,3738" stroke="rgb(none)" stroke-width="0.0" fill="0,0,0" />
<polygon id="07-7682" points="4911,4586 4906,4586 4906,4570 4752,4570 4752,4586 4747,4586 4747,4658 4752,4658 4752,4666 4906,4666 4906,4658 4911,4658 4911,4586" stroke="rgb(none)" stroke-width="0.0" fill="0,0,0" />
<polygon id="07-7685" points="4860,4671 4835,4671 4835,4666 4793,4666 4793,4671 4787,4671 4787,4808 4803,4808 4803,4822 4860,4822 4860,4671" stroke="rgb(none)" stroke-width="0.0" fill="0,0,0" />
<polygon id="07-7693" points="4863,4827 4857,4827 4857,4822 4809,4822 4809,4827 4803,4827 4803,4847 4776,4847 4776,4871 4789,4871 4789,4915 4803,4915 4803,4930 4857,4930 4863,4930 4863,4827" stroke="rgb(none)" stroke-width="0.0" fill="0,0,0" />
<polygon id="07-7693A" points="4809,4930 4809,4935 4789,4935 4789,5032 5102,5032 5102,4935 4857,4935 4857,4930 4809,4930" stroke="rgb(none)" stroke-width="0.0" fill="0,0,0" />
<polygon id="07-7323" points="1676,4311 1642,4311 1642,4301 1606,4301 1606,4311 1572,4311 1572,4847 1585,4888 1624,4910 1662,4888 1676,4847 1676,4728 1628,4728 1627,4840 1621,4840 1620,4722 1676,4722 1676,4311" stroke="rgb(none)" stroke-width="0.0" fill="0,0,0" />
<polygon id="07-7223" points="1676,430 1620,430 1621,312 1627,312 1628,424 1676,424 1676,304 1662,263 1624,240 1585,263 1572,304 1572,839 1606,839 1606,849 1642,849 1642,839 1676,839 1676,430" stroke="rgb(none)" stroke-width="0.0" fill="0,0,0" />
<polygon id="07-7155" points="1700,2233 1594,2233 1594,2337 1659,2337 1659,2342 1695,2342 1695,2337 1700,2337 1700,2233" stroke="rgb(none)" stroke-width="0.0" fill="0,0,0" />
<polygon id="07-7154" points="1810,2233 1705,2233 1705,2337 1770,2337 1770,2341 1806,2341 1808,2337 1810,2233" stroke="rgb(none)" stroke-width="0.0" fill="0,0,0" />
<polygon id="07-7153" points="1918,2233 1815,2233 1817,2337 1818,2341 1854,2341 1854,2337 1918,2337 1918,2233" stroke="rgb(none)" stroke-width="0.0" fill="0,0,0" />
<polygon id="07-7152" points="1974,2233 1923,2233 1923,2337 1927,2337 1927,2341 1963,2341 1963,2337 1974,2337 1974,2233" stroke="rgb(none)" stroke-width="0.0" fill="0,0,0" />
<polygon id="07-7151A" points="2034,2233 1979,2233 1979,2269 2007,2269 2007,2274 2031,2274 2033,2269 2034,2233" stroke="rgb(none)" stroke-width="0.0" fill="0,0,0" />
<polygon id="07-7151" points="2130,2233 2039,2233 2039,2274 2031,2274 2007,2274 1979,2274 1979,2337 1985,2337 1985,2341 2021,2341 2021,2337 2130,2337 2130,2233" stroke="rgb(none)" stroke-width="0.0" fill="0,0,0" />
<polygon id="07-7300" points="1579,2710 1579,2678 1464,2678 1464,2756 1459,2756 1459,2804 1464,2804 1464,2927 1579,2927 1579,2710" stroke="rgb(none)" stroke-width="0.0" fill="0,0,0" />
<polygon id="07-7157" points="1579,2480 1464,2480 1464,2583 1579,2583 1579,2571 1584,2572 1588,2573 1588,2533 1584,2534 1579,2535 1579,2480" stroke="rgb(none)" stroke-width="0.0" fill="0,0,0" />
<polygon id="07-7200" points="1579,2226 1464,2226 1464,2348 1459,2348 1459,2396 1464,2396 1464,2474 1579,2474 1579,2226" stroke="rgb(none)" stroke-width="0.0" fill="0,0,0" />
<polygon id="07-7150C" points="1710,2432 1693,2433 1688,2434 1688,2541 1693,2541 1693,2553 1704,2553 1704,2534 1710,2534 1710,2432" stroke="rgb(none)" stroke-width="0.0" fill="0,0,0" />
<polygon id="07-7156" points="1862,2636 1909,2634 1909,2597 1909,2558 1848,2558 1848,2582 1753,2582 1753,2558 1693,2558 1688,2559 1688,2594 1693,2594 1693,2718 1715,2718 1751,2718 1862,2718 1862,2636" stroke="rgb(none)" stroke-width="0.0" fill="0,0,0" />
<polygon id="07-7156B" points="1767,2723 1751,2723 1751,2718 1715,2718 1715,2736 1703,2736 1703,2723 1657,2723 1657,2797 1767,2797 1767,2723" stroke="rgb(none)" stroke-width="0.0" fill="0,0,0" />
<polygon id="07-7148A" points="1772,2817 1767,2817 1767,2802 1657,2802 1657,2867 1767,2867 1767,2853 1772,2853 1772,2817" stroke="rgb(none)" stroke-width="0.0" fill="0,0,0" />
<polygon id="07-7148" points="2082,2746 2077,2746 2077,2723 1992,2723 1992,2718 1956,2718 1956,2723 1914,2723 1914,2735 1902,2735 1902,2692 1867,2692 1867,2723 1772,2723 1772,2867 2077,2867 2077,2794 2082,2794 2082,2746" stroke="rgb(none)" stroke-width="0.0" fill="0,0,0" />
<polygon id="07-7149A" points="2000,2679 1995,2679 1995,2641 1867,2641 1867,2683 1914,2683 1914,2718 1956,2718 1994,2717 2000,2715 2000,2679" stroke="rgb(none)" stroke-width="0.0" fill="0,0,0" />
<polygon id="07-7156A" points="1995,2563 1914,2563 1914,2597 1909,2597 1909,2633 1914,2634 1995,2636 1995,2563" stroke="rgb(none)" stroke-width="0.0" fill="0,0,0" />
<polygon id="07-7149" points="2130,2555 2135,2557 2153,2559 2153,2505 2135,2507 2130,2509 2130,2428 2032,2428 2032,2558 2000,2558 2000,2679 2000,2716 2082,2718 2082,2739 2130,2739 2130,2555" stroke="rgb(none)" stroke-width="0.0" fill="0,0,0" />
<polygon id="07-7101" points="2309,2118 2299,2118 2299,2100 2280,2100 2280,2084 2190,2084 2190,2100 2176,2100 2176,2126 2153,2126 2153,2285 2251,2285 2251,2290 2236,2290 2236,2351 2256,2351 2256,2355 2302,2355 2302,2351 2309,2351 2309,2118" stroke="rgb(none)" stroke-width="0.0" fill="0,0,0" />
<polygon id="07-7101A" points="2231,2290 2204,2290 2204,2285 2159,2285 2159,2290 2153,2290 2153,2351 2231,2351 2231,2290" stroke="rgb(none)" stroke-width="0.0" fill="0,0,0" />
<polygon id="07-7103" points="2459,2100 2432,2100 2432,2084 2342,2084 2342,2101 2324,2101 2324,2118 2314,2118 2314,2351 2321,2351 2321,2355 2366,2355 2366,2351 2387,2351 2387,2290 2372,2290 2372,2285 2459,2285 2459,2100" stroke="rgb(none)" stroke-width="0.0" fill="0,0,0" />
<polygon id="07-7103A" points="2458,2290 2431,2290 2431,2285 2395,2285 2394,2290 2392,2351 2458,2351 2458,2290" stroke="rgb(none)" stroke-width="0.0" fill="0,0,0" />
<polygon id="07-7105A" points="2530,2290 2527,2285 2491,2285 2491,2290 2464,2290 2464,2351 2530,2351 2530,2290" stroke="rgb(none)" stroke-width="0.0" fill="0,0,0" />
<polygon id="07-7105" points="2609,2118 2599,2118 2599,2100 2582,2100 2582,2083 2493,2084 2492,2100 2463,2100 2463,2285 2550,2285 2550,2290 2535,2290 2535,2351 2557,2351 2557,2357 2603,2357 2603,2351 2609,2351 2609,2118" stroke="rgb(none)" stroke-width="0.0" fill="0,0,0" />
<polygon id="07-7107" points="2759,2100 2732,2100 2732,2083 2642,2083 2642,2100 2624,2100 2624,2118 2614,2118 2614,2285 2759,2285 2759,2100" stroke="rgb(none)" stroke-width="0.0" fill="0,0,0" />
<polygon id="07-7107A" points="2758,2290 2730,2290 2730,2285 2695,2285 2693,2290 2692,2351 2758,2351 2758,2290" stroke="rgb(none)" stroke-width="0.0" fill="0,0,0" />
<polygon id="07-7107B" points="2683,2290 2666,2290 2666,2285 2621,2285 2621,2290 2614,2290 2614,2351 2621,2351 2621,2357 2667,2357 2667,2351 2687,2351 2685,2314 2683,2290" stroke="rgb(none)" stroke-width="0.0" fill="0,0,0" />
<polygon id="07-7109" points="3057,2223 3057,2100 3032,2100 3032,2083 2942,2083 2942,2100 2924,2100 2924,2118 2899,2118 2899,2100 2882,2100 2882,2083 2792,2083 2792,2100 2764,2100 2764,2351 2770,2351 2770,2357 2818,2357 2818,2351 3005,2351 3005,2357 3053,2357 3053,2351 3057,2351 3057,2223" stroke="rgb(none)" stroke-width="0.0" fill="0,0,0" />
<polygon id="07-7144" points="2617,2478 2600,2478 2600,2457 2503,2457 2503,2700 2509,2700 2509,2705 2555,2705 2555,2700 2600,2700 2600,2679 2617,2679 2617,2478" stroke="rgb(none)" stroke-width="0.0" fill="0,0,0" />
<polygon id="07-7106A" points="2768,2457 2726,2457 2726,2452 2690,2452 2690,2457 2684,2457 2684,2513 2768,2513 2768,2457" stroke="rgb(none)" stroke-width="0.0" fill="0,0,0" />
<polygon id="07-7106" points="2839,2457 2833,2457 2833,2452 2798,2452 2798,2457 2772,2457 2772,2513 2839,2513 2839,2457" stroke="rgb(none)" stroke-width="0.0" fill="0,0,0" />
<polygon id="07-7100" points="3316,2399 3272,2357 2366,2356 2321,2355 2302,2355 2256,2355 2153,2356 2153,2362 2135,2362 2135,2368 2130,2368 2130,2414 2135,2414 2135,2420 2153,2420 2153,2452 2622,2452 2622,2513 2679,2513 2679,2452 3032,2452 3032,2456 3316,2456 3316,2399" stroke="rgb(none)" stroke-width="0.0" fill="0,0,0" />
<polygon id="07-7108" points="2946,2457 2922,2457 2922,2478 2900,2478 2900,2457 2885,2457 2885,2452 2849,2452 2849,2457 2843,2457 2843,2575 2946,2575 2946,2457" stroke="rgb(none)" stroke-width="0.0" fill="0,0,0" />
<polygon id="07-7104" points="2839,2519 2673,2519 2673,2513 2628,2513 2628,2519 2622,2519 2622,2631 2839,2631 2839,2519" stroke="rgb(none)" stroke-width="0.0" fill="0,0,0" />
<polygon id="07-7142" points="2694,2637 2622,2637 2622,2700 2655,2700 2655,2705 2690,2705 2692,2700 2694,2637" stroke="rgb(none)" stroke-width="0.0" fill="0,0,0" />
<polygon id="07-7112A" points="3027,2457 2951,2457 2951,2565 2957,2565 2957,2570 2993,2570 2993,2565 3003,2564 3008,2564 3027,2565 3027,2533 3008,2534 3003,2535 3003,2528 3027,2528 3027,2457" stroke="rgb(none)" stroke-width="0.0" fill="0,0,0" />
<polygon id="07-7112B" points="2951,2617 2946,2617 2946,2579 2843,2579 2843,2700 2900,2700 2900,2679 2922,2679 2922,2700 2946,2700 2946,2653 2951,2653 2951,2617" stroke="rgb(none)" stroke-width="0.0" fill="0,0,0" />
<polygon id="07-7112" points="2951,2701 3190,2701 3190,2679 3222,2679 3222,2478 3190,2478 3190,2456 3032,2456 3032,2570 2951,2570 2951,2701" stroke="rgb(none)" stroke-width="0.0" fill="0,0,0" />
<polygon id="07-7136" points="2839,2637 2698,2637 2698,2689 2747,2689 2747,2700 2778,2700 2778,2705 2835,2705 2837,2700 2839,2637" stroke="rgb(none)" stroke-width="0.0" fill="0,0,0" />
<polygon id="07-7138" points="2698,2705 2743,2705 2743,2693 2698,2693 2698,2705" stroke="rgb(none)" stroke-width="0.0" fill="0,0,0" />
<polygon id="07-7109A" points="3207,2119 3198,2119 3198,2100 3182,2100 3182,2083 3092,2083 3092,2100 3063,2100 3063,2187 3057,2187 3057,2223 3063,2223 3063,2227 3172,2227 3172,2215 3207,2215 3207,2119" stroke="rgb(none)" stroke-width="0.0" fill="0,0,0" />
<polygon id="07-7113" points="3225,2233 3207,2233 3207,2221 3177,2221 3177,2233 3063,2233 3063,2351 3067,2351 3067,2357 3115,2357 3115,2351 3225,2351 3225,2233" stroke="rgb(none)" stroke-width="0.0" fill="0,0,0" />
<polygon id="07-7115B" points="3370,2100 3332,2100 3332,2083 3242,2083 3242,2100 3224,2100 3224,2119 3213,2119 3213,2227 3229,2227 3229,2261 3306,2260 3311,2262 3345,2229 3342,2225 3370,2198 3370,2100" stroke="rgb(none)" stroke-width="0.0" fill="0,0,0" />
<polygon id="07-7115C" points="3308,2286 3304,2286 3303,2265 3303,2261 3267,2261 3267,2265 3229,2265 3229,2351 3269,2351 3304,2322 3308,2322 3308,2286" stroke="rgb(none)" stroke-width="0.0" fill="0,0,0" />
<polygon id="07-7117" points="3466,2425 3466,2388 3333,2388 3322,2398 3322,2406 3316,2406 3316,2454 3321,2454 3321,2517 3466,2517 3466,2425" stroke="rgb(none)" stroke-width="0.0" fill="0,0,0" />
<polygon id="07-7115" points="3819,2126 3796,2126 3796,2100 3782,2100 3782,2083 3692,2083 3692,2100 3632,2100 3632,2083 3542,2083 3542,2100 3524,2100 3524,2119 3514,2119 3514,2205 3508,2205 3508,2119 3498,2119 3498,2100 3482,2100 3482,2083 3392,2083 3392,2100 3375,2100 3375,2199 3308,2264 3308,2325 3276,2353 3281,2357 3277,2361 3311,2395 3315,2391 3318,2394 3331,2382 3525,2382 3525,2476 3559,2476 3559,2646 3522,2646 3522,2678 3533,2678 3533,2700 3558,2700 3558,2705 3606,2705 3606,2700 3639,2700 3639,2463 3614,2463 3614,2458 3731,2458 3731,2405 3767,2369 3819,2369 3819,2126" stroke="rgb(none)" stroke-width="0.0" fill="0,0,0" />
<polygon id="07-7117A" points="3520,2388 3511,2388 3511,2382 3475,2382 3475,2388 3466,2388 3466,2425 3471,2425 3471,2452 3520,2452 3520,2388" stroke="rgb(none)" stroke-width="0.0" fill="0,0,0" />
<polygon id="07-7115A" points="3819,2374 3769,2374 3764,2378 3761,2374 3735,2400 3739,2403 3736,2407 3736,2458 3746,2458 3746,2499 3800,2499 3800,2452 3819,2452 3819,2374" stroke="rgb(none)" stroke-width="0.0" fill="0,0,0" />
<polygon id="07-7115D" points="3559,2521 3554,2521 3554,2481 3471,2481 3471,2522 3463,2522 3463,2563 3554,2563 3554,2557 3559,2557 3559,2521" stroke="rgb(none)" stroke-width="0.0" fill="0,0,0" />
<polygon id="07-7119" points="3442,2522 3321,2522 3321,2528 3316,2528 3316,2564 3321,2564 3321,2595 3442,2595 3442,2522" stroke="rgb(none)" stroke-width="0.0" fill="0,0,0" />
<polygon id="07-7128" points="3442,2600 3348,2600 3348,2700 3354,2700 3354,2705 3390,2705 3390,2700 3442,2700 3442,2600" stroke="rgb(none)" stroke-width="0.0" fill="0,0,0" />
<polygon id="07-7115E" points="3559,2574 3554,2574 3554,2568 3447,2568 3447,2641 3554,2641 3554,2610 3559,2610 3559,2574" stroke="rgb(none)" stroke-width="0.0" fill="0,0,0" />
<polygon id="07-7126" points="3514,2646 3447,2646 3447,2700 3469,2700 3469,2705 3496,2705 3498,2700 3500,2678 3514,2678 3514,2646" stroke="rgb(none)" stroke-width="0.0" fill="0,0,0" />
<polygon id="07-7131B" points="3287,2807 3267,2807 3267,2802 3221,2802 3221,2807 3214,2807 3214,2867 3283,2867 3285,2844 3287,2807" stroke="rgb(none)" stroke-width="0.0" fill="0,0,0" />
<polygon id="07-7131A" points="3358,2807 3292,2807 3293,2867 3295,2872 3330,2872 3330,2867 3358,2867 3358,2807" stroke="rgb(none)" stroke-width="0.0" fill="0,0,0" />
<polygon id="07-7129A" points="3429,2807 3364,2807 3364,2867 3391,2867 3391,2872 3427,2872 3428,2867 3429,2807" stroke="rgb(none)" stroke-width="0.0" fill="0,0,0" />
<polygon id="07-7127A" points="3658,2807 3592,2807 3593,2867 3595,2872 3630,2872 3630,2867 3658,2867 3658,2807" stroke="rgb(none)" stroke-width="0.0" fill="0,0,0" />
<polygon id="07-7125" points="3819,2807 3721,2807 3721,2802 3672,2802 3672,2807 3667,2807 3667,2910 3819,2910 3819,2807" stroke="rgb(none)" stroke-width="0.0" fill="0,0,0" />
<polygon id="07-7125A" points="3819,2918 3766,2915 3766,2910 3717,2910 3717,2915 3667,2915 3667,3039 3692,3039 3692,3074 3782,3074 3782,3057 3796,3057 3796,3032 3819,3032 3819,2918" stroke="rgb(none)" stroke-width="0.0" fill="0,0,0" />
<polygon id="07-7127" points="3659,2872 3572,2872 3572,2867 3586,2867 3586,2807 3567,2807 3567,2802 3521,2802 3521,2807 3514,2807 3514,2909 3514,3019 3514,3039 3524,3039 3524,3057 3542,3057 3542,3074 3632,3074 3632,3057 3659,3057 3659,2872" stroke="rgb(none)" stroke-width="0.0" fill="0,0,0" />
<polygon id="07-7129" points="3509,2909 3509,2807 3503,2807 3503,2802 3455,2802 3455,2807 3434,2807 3434,2867 3450,2867 3450,2872 3364,2872 3364,3057 3392,3057 3392,3074 3482,3074 3482,3057 3499,3057 3499,3039 3509,3039 3509,3019 3509,2909" stroke="rgb(none)" stroke-width="0.0" fill="0,0,0" />
<polygon id="07-7131" points="3359,2872 3266,2872 3266,2867 3221,2867 3221,2872 3214,2872 3214,3039 3224,3039 3224,3057 3242,3057 3242,3074 3332,3074 3332,3057 3359,3057 3359,2872" stroke="rgb(none)" stroke-width="0.0" fill="0,0,0" />
<polygon id="07-7133" points="3208,2873 3142,2873 3142,2888 3136,2888 3136,2807 3131,2807 3131,2802 3085,2802 3085,2807 2914,2807 2914,3039 2924,3039 2924,3057 2942,3057 2942,3074 3032,3074 3032,3057 3057,3057 3057,3021 3066,3021 3066,3057 3092,3057 3092,3074 3182,3074 3182,3057 3199,3057 3199,3039 3208,3039 3208,2873" stroke="rgb(none)" stroke-width="0.0" fill="0,0,0" />
<polygon id="07-7139A" points="2758,2807 2692,2807 2693,2867 2695,2872 2730,2872 2730,2867 2758,2867 2758,2807" stroke="rgb(none)" stroke-width="0.0" fill="0,0,0" />
<polygon id="07-7139" points="2759,2872 2730,2872 2695,2872 2672,2872 2672,2867 2687,2867 2687,2807 2667,2807 2667,2802 2621,2802 2621,2807 2614,2807 2614,3039 2624,3039 2624,3057 2642,3057 2642,3074 2729,3074 2729,3079 2737,3079 2737,3062 2786,3062 2786,3079 2794,3079 2793,3074 2792,3057 2759,3057 2759,2872" stroke="rgb(none)" stroke-width="0.0" fill="0,0,0" />
<polygon id="07-7137" points="2908,2807 2834,2807 2834,2825 2829,2825 2829,2807 2817,2807 2817,2802 2771,2802 2771,2807 2764,2807 2764,3057 2792,3057 2792,3074 2882,3074 2882,3057 2899,3057 2899,3039 2908,3039 2908,2807" stroke="rgb(none)" stroke-width="0.0" fill="0,0,0" />
<polygon id="07-7141" points="2609,2807 2533,2807 2533,2825 2528,2825 2528,2807 2516,2807 2516,2802 2470,2802 2470,2807 2464,2807 2464,2980 2441,2980 2441,3010 2464,3010 2464,3015 2437,3015 2437,3057 2492,3057 2493,3074 2582,3074 2582,3057 2599,3057 2599,3039 2609,3039 2609,2807" stroke="rgb(none)" stroke-width="0.0" fill="0,0,0" />
<polygon id="07-7141A" points="2432,3057 2432,3051 2437,3051 2437,3021 2432,3021 2432,3015 2374,3015 2374,2985 2324,2985 2324,3057 2342,3057 2342,3074 2432,3074 2432,3057" stroke="rgb(none)" stroke-width="0.0" fill="0,0,0" />
<polygon id="07-7143" points="2405,2802 2405,2807 2314,2807 2314,2980 2379,2980 2379,3010 2436,3010 2436,2975 2459,2975 2459,2807 2451,2807 2451,2802 2405,2802" stroke="rgb(none)" stroke-width="0.0" fill="0,0,0" />
<polygon id="07-7600D" points="3940,3509 3832,3509 3832,3712 3940,3712 3940,3509" stroke="rgb(none)" stroke-width="0.0" fill="0,0,0" />
<polygon id="07-7607A" points="4774,3647 4762,3647 4762,3617 4686,3617 4686,3654 4681,3654 4681,3690 4686,3691 4774,3693 4774,3647" stroke="rgb(none)" stroke-width="0.0" fill="0,0,0" />
<polygon id="07-7607" points="4681,3617 4611,3617 4611,3632 4595,3632 4595,3728 4619,3728 4619,3734 4655,3734 4655,3728 4697,3728 4697,3698 4681,3698 4681,3617" stroke="rgb(none)" stroke-width="0.0" fill="0,0,0" />
<polygon id="07-7609" points="5059,3608 5077,3608 5077,3509 4812,3509 4812,3610 4822,3610 4822,3630 4802,3630 4802,3617 4786,3617 4786,3728 4817,3728 4817,3734 4853,3734 4853,3728 4859,3728 4859,3704 5043,3704 5043,3722 5077,3722 5077,3630 5059,3630 5059,3608" stroke="rgb(none)" stroke-width="0.0" fill="0,0,0" />
<polygon id="07-7602" points="4336,3836 4330,3836 4330,3830 4294,3830 4294,3836 4250,3836 4250,3912 4336,3912 4336,3836" stroke="rgb(none)" stroke-width="0.0" fill="0,0,0" />
<polygon id="07-7651" points="4147,3873 4142,3873 4142,3836 4104,3836 4104,3863 3996,3863 3996,3836 3978,3836 3978,4007 4099,4008 4147,4009 4147,3873" stroke="rgb(none)" stroke-width="0.0" fill="0,0,0" />
<polygon id="07-7653" points="4147,4009 4099,4010 3978,4012 3978,4169 4073,4169 4073,4153 4099,4153 4099,4171 4147,4171 4147,4009" stroke="rgb(none)" stroke-width="0.0" fill="0,0,0" />
<polygon id="07-7612" points="4344,4003 4349,4003 4349,3967 4344,3967 4344,3961 4336,3961 4336,3917 4245,3917 4245,4162 4272,4162 4272,4167 4308,4167 4308,4162 4320,4160 4344,4158 4344,4003" stroke="rgb(none)" stroke-width="0.0" fill="0,0,0" />
<polygon id="07-7614" points="4413,3836 4364,3836 4364,3859 4341,3859 4341,3956 4371,3956 4371,3961 4407,3961 4407,3956 4413,3956 4413,3836" stroke="rgb(none)" stroke-width="0.0" fill="0,0,0" />
<polygon id="07-7616" points="4484,3836 4418,3836 4418,3956 4454,3956 4454,3961 4490,3961 4490,3956 4496,3956 4496,3889 4484,3889 4484,3836" stroke="rgb(none)" stroke-width="0.0" fill="0,0,0" />
<polygon id="07-7606" points="4557,3968 4557,3889 4543,3889 4543,3884 4507,3884 4507,3889 4501,3889 4501,3961 4349,3961 4349,4009 4557,4009 4557,3968" stroke="rgb(none)" stroke-width="0.0" fill="0,0,0" />
<polygon id="07-7610" points="4415,4014 4406,4014 4406,4009 4376,4009 4376,4014 4349,4014 4349,4052 4415,4052 4415,4014" stroke="rgb(none)" stroke-width="0.0" fill="0,0,0" />
<polygon id="07-7608" points="4550,4014 4506,4014 4506,4009 4470,4009 4470,4014 4421,4014 4421,4052 4467,4052 4467,4088 4550,4088 4550,4014" stroke="rgb(none)" stroke-width="0.0" fill="0,0,0" />
<polygon id="07-7652" points="4462,4057 4349,4057 4349,4158 4370,4158 4370,4163 4406,4163 4406,4158 4462,4158 4462,4057" stroke="rgb(none)" stroke-width="0.0" fill="0,0,0" />
<polygon id="07-7606A" points="4741,3836 4583,3836 4583,3859 4562,3859 4562,3920 4557,3920 4557,3956 4562,3956 4562,3962 4741,3962 4741,3937 4723,3937 4723,3932 4741,3932 4741,3836" stroke="rgb(none)" stroke-width="0.0" fill="0,0,0" />
<polygon id="07-7606B" points="4741,3992 4723,3992 4723,3987 4741,3987 4741,3962 4562,3962 4562,3968 4557,3968 4557,4004 4562,4004 4562,4088 4741,4088 4741,3992" stroke="rgb(none)" stroke-width="0.0" fill="0,0,0" />
<polygon id="07-7672" points="4912,3873 4907,3873 4907,3836 4882,3836 4882,3863 4774,3863 4774,3836 4746,3836 4746,4006 4800,4008 4912,4009 4912,3873" stroke="rgb(none)" stroke-width="0.0" fill="0,0,0" />
<polygon id="07-7674" points="4912,4009 4800,4010 4746,4011 4746,4192 4912,4192 4912,4009" stroke="rgb(none)" stroke-width="0.0" fill="0,0,0" />
<polygon id="07-7671" points="5179,3842 5161,3842 5161,3863 5053,3863 5053,3836 5025,3836 5025,3873 5025,4009 5053,4008 5179,4007 5179,3842" stroke="rgb(none)" stroke-width="0.0" fill="0,0,0" />
<polygon id="07-7673" points="5179,4012 5053,4010 5025,4009 5025,4171 5053,4171 5053,4153 5080,4153 5080,4169 5179,4169 5179,4012" stroke="rgb(none)" stroke-width="0.0" fill="0,0,0" />
<polygon id="07-7676" points="4741,4093 4634,4093 4634,4187 4699,4187 4699,4192 4735,4192 4735,4187 4741,4187 4741,4093" stroke="rgb(none)" stroke-width="0.0" fill="0,0,0" />
<polygon id="07-7654" points="4629,4093 4467,4093 4467,4235 4462,4235 4462,4271 4467,4271 4467,4277 4629,4277 4629,4271 4634,4271 4634,4235 4629,4235 4629,4093" stroke="rgb(none)" stroke-width="0.0" fill="0,0,0" />
<polygon id="07-7655" points="4147,4171 4099,4171 4099,4184 4073,4184 3991,4184 3991,4174 3978,4174 3978,4331 4099,4332 4147,4333 4147,4171" stroke="rgb(none)" stroke-width="0.0" fill="0,0,0" />
<polygon id="07-7650" points="4240,3862 4235,3861 4151,3861 4147,3862 4147,4613 4148,4624 4133,4638 4177,4681 4192,4666 4203,4666 4203,4671 4240,4671 4240,3862" stroke="rgb(none)" stroke-width="0.0" fill="0,0,0" />
<polygon id="07-7657" points="4147,4333 4099,4334 3978,4336 3978,4493 4073,4493 4073,4477 4099,4477 4099,4495 4147,4495 4147,4333" stroke="rgb(none)" stroke-width="0.0" fill="0,0,0" />
<polygon id="07-7659" points="4147,4495 4099,4495 4099,4508 4073,4508 4073,4498 3978,4498 3978,4651 4105,4651 4145,4613 4147,4495" stroke="rgb(none)" stroke-width="0.0" fill="0,0,0" />
<polygon id="07-7650A" points="4462,4163 4364,4163 4364,4192 4338,4192 4338,4167 4245,4167 4245,4256 4270,4256 4270,4265 4240,4265 4240,4574 4547,4574 4547,4569 4578,4569 4578,4509 4552,4509 4552,4483 4507,4483 4507,4495 4502,4495 4502,4483 4442,4483 4442,4495 4437,4495 4437,4483 4338,4378 4326,4378 4326,4373 4338,4373 4338,4313 4326,4313 4326,4308 4338,4308 4338,4280 4343,4280 4343,4306 4414,4306 4414,4280 4462,4280 4462,4235 4462,4163" stroke="rgb(none)" stroke-width="0.0" fill="0,0,0" />
<polygon id="07-7656" points="4557,4285 4459,4285 4459,4280 4423,4280 4421,4285 4419,4311 4343,4311 4343,4373 4557,4373 4557,4285" stroke="rgb(none)" stroke-width="0.0" fill="0,0,0" />
<polygon id="07-7664" points="4557,4378 4396,4378 4396,4432 4440,4478 4513,4478 4513,4483 4549,4483 4549,4478 4557,4478 4557,4378" stroke="rgb(none)" stroke-width="0.0" fill="0,0,0" />
<polygon id="07-7678" points="4691,4285 4685,4285 4685,4280 4649,4280 4649,4285 4562,4285 4562,4379 4691,4379 4691,4285" stroke="rgb(none)" stroke-width="0.0" fill="0,0,0" />
<polygon id="07-7684" points="4691,4384 4564,4384 4564,4481 4583,4481 4583,4569 4691,4569 4691,4559 4696,4559 4696,4523 4691,4523 4691,4384" stroke="rgb(none)" stroke-width="0.0" fill="0,0,0" />
<polygon id="07-7670A" points="4911,4280 4729,4280 4729,4285 4696,4285 4696,4481 4775,4481 4775,4475 4779,4477 4798,4477 4802,4475 4802,4510 4775,4510 4775,4486 4696,4486 4696,4565 4911,4565 4911,4280" stroke="rgb(none)" stroke-width="0.0" fill="0,0,0" />
<polygon id="07-7670" points="5025,3873 5020,3873 5020,3862 5011,3862 5011,3857 4927,3857 4927,3862 4912,3862 4912,4192 4634,4192 4634,4280 4911,4280 4911,4671 4865,4671 4865,4766 5025,4766 5025,3873" stroke="rgb(none)" stroke-width="0.0" fill="0,0,0" />
<polygon id="07-7675" points="5179,4174 5161,4174 5161,4184 5080,4184 5053,4184 5053,4171 5025,4171 5025,4333 5053,4332 5179,4331 5179,4174" stroke="rgb(none)" stroke-width="0.0" fill="0,0,0" />
<polygon id="07-7677" points="5179,4336 5053,4334 5025,4333 5025,4495 5053,4495 5053,4477 5080,4477 5080,4493 5179,4493 5179,4336" stroke="rgb(none)" stroke-width="0.0" fill="0,0,0" />
<polygon id="07-7660" points="4747,4586 4747,4574 4240,4574 4240,4671 4747,4671 4747,4586" stroke="rgb(none)" stroke-width="0.0" fill="0,0,0" />
<polygon id="07-7661" points="4158,4708 4176,4688 4179,4682 4132,4637 4126,4639 4107,4656 3978,4656 3978,4836 3994,4836 3994,4806 4097,4806 4097,4836 4158,4836 4158,4708" stroke="rgb(none)" stroke-width="0.0" fill="0,0,0" />
<polygon id="07-7663" points="4318,4709 4321,4671 4202,4671 4163,4710 4163,4836 4318,4836 4318,4709" stroke="rgb(none)" stroke-width="0.0" fill="0,0,0" />
<polygon id="07-7665" points="4486,4709 4489,4671 4321,4671 4322,4709 4323,4806 4364,4806 4364,4831 4330,4831 4330,4836 4486,4836 4486,4709" stroke="rgb(none)" stroke-width="0.0" fill="0,0,0" />
<polygon id="07-7667" points="4630,4683 4633,4671 4489,4671 4490,4709 4491,4836 4630,4836 4630,4683" stroke="rgb(none)" stroke-width="0.0" fill="0,0,0" />
<polygon id="07-7669" points="4776,4671 4633,4671 4634,4683 4635,4836 4776,4836 4776,4671" stroke="rgb(none)" stroke-width="0.0" fill="0,0,0" />
<polygon id="07-7685B" points="4931,4771 4865,4771 4865,4780 4860,4780 4860,4816 4865,4816 4867,4822 4868,4883 4931,4883 4931,4771" stroke="rgb(none)" stroke-width="0.0" fill="0,0,0" />
<polygon id="07-7683" points="5055,4819 5020,4819 5020,4771 5011,4771 5011,4766 4974,4766 4974,4771 4941,4771 4941,4883 5055,4883 5055,4819" stroke="rgb(none)" stroke-width="0.0" fill="0,0,0" />
<polygon id="07-7679" points="5179,4498 5080,4498 5080,4508 5053,4508 5053,4495 5025,4495 5025,4657 5053,4656 5179,4655 5179,4498" stroke="rgb(none)" stroke-width="0.0" fill="0,0,0" />
<polygon id="07-7681" points="5179,4660 5053,4658 5025,4657 5025,4766 5025,4808 5164,4808 5164,4836 5179,4836 5179,4660" stroke="rgb(none)" stroke-width="0.0" fill="0,0,0" />
<polygon id="07-7603A" points="4313,3509 4173,3509 4173,3608 4238,3608 4238,3614 4280,3614 4280,3608 4313,3608 4313,3509" stroke="rgb(none)" stroke-width="0.0" fill="0,0,0" />
<polygon id="07-7603" points="4313,3614 4173,3614 4173,3728 4253,3728 4253,3734 4289,3734 4289,3728 4313,3728 4313,3614" stroke="rgb(none)" stroke-width="0.0" fill="0,0,0" />
</svg>
