<svg xmlns="http://www.w3.org/2000/svg" version="1.1" width="2959" height="2461">style="background-color:rgb(none)">
<polygon id="11-11750" points="1354,725 1349,725 1349,719 1348,656 1210,656 1210,877 1348,877 1349,827 1349,821 1354,821 1354,725" stroke="rgb(none)" stroke-width="0.0" fill="0,0,0" />
<polygon id="11-11750A" points="1202,860 1210,860 1210,796 1202,796 1202,777 1035,777 1035,888 1202,888 1202,860" stroke="rgb(none)" stroke-width="0.0" fill="0,0,0" />
<polygon id="11-11750B" points="1210,677 1202,677 1202,658 1035,658 1035,769 1202,769 1202,741 1210,741 1210,677" stroke="rgb(none)" stroke-width="0.0" fill="0,0,0" />
<polygon id="11-11749" points="622,1004 622,953 495,953 495,977 462,977 462,1099 543,1099 543,1122 579,1122 579,1099 622,1099 622,1093 627,1093 627,1045 622,1045 622,1004" stroke="rgb(none)" stroke-width="0.0" fill="0,0,0" />
<polygon id="11-11705" points="1041,2166 1004,2166 1004,2160 968,2160 968,2166 962,2166 962,2266 884,2266 884,2313 856,2313 856,2333 948,2345 1041,2349 1041,2166" stroke="rgb(none)" stroke-width="0.0" fill="0,0,0" />
<polygon id="11-11704" points="1189,2169 1189,2142 1182,2142 1182,2136 1146,2136 1146,2142 1046,2142 1046,2349 1118,2348 1189,2342 1189,2169" stroke="rgb(none)" stroke-width="0.0" fill="0,0,0" />
<polygon id="11-11706" points="957,2159 870,2159 870,2177 842,2177 842,2201 837,2201 837,2237 842,2237 842,2290 879,2290 879,2255 884,2255 884,2261 957,2261 957,2256 962,2256 962,2220 957,2220 957,2159" stroke="rgb(none)" stroke-width="0.0" fill="0,0,0" />
<polygon id="11-11707" points="837,2201 837,2166 831,2166 831,2160 795,2160 795,2166 771,2166 771,2142 730,2142 730,2183 711,2183 711,2278 730,2278 730,2292 762,2301 759,2314 852,2333 852,2313 837,2313 837,2201" stroke="rgb(none)" stroke-width="0.0" fill="0,0,0" />
<polygon id="11-11744" points="944,1598 833,1598 833,1604 828,1604 828,1640 833,1640 833,1721 877,1721 877,1752 944,1752 944,1598" stroke="rgb(none)" stroke-width="0.0" fill="0,0,0" />
<polygon id="11-11703" points="726,1801 731,1801 731,1688 726,1688 726,1742 585,1742 585,1747 591,1747 591,1851 596,1851 596,1930 726,1930 726,1801" stroke="rgb(none)" stroke-width="0.0" fill="0,0,0" />
<polygon id="11-11743" points="726,1663 726,1645 731,1645 731,1597 726,1597 726,1591 624,1591 624,1569 551,1569 551,1591 462,1591 461,1713 475,1713 475,1742 726,1742 726,1663" stroke="rgb(none)" stroke-width="0.0" fill="0,0,0" />
<polygon id="11-11743A" points="719,1545 709,1545 709,1501 630,1501 630,1526 592,1526 592,1561 630,1561 630,1586 635,1586 635,1591 671,1591 671,1586 719,1586 719,1545" stroke="rgb(none)" stroke-width="0.0" fill="0,0,0" />
<polygon id="11-11745A" points="583,1526 545,1526 545,1501 516,1501 516,1495 480,1495 480,1501 474,1501 474,1570 510,1570 510,1583 545,1583 545,1561 583,1561 583,1526" stroke="rgb(none)" stroke-width="0.0" fill="0,0,0" />
<polygon id="11-11745" points="726,1425 726,1349 474,1349 474,1373 462,1373 462,1495 551,1495 551,1518 624,1518 624,1495 726,1495 726,1489 731,1489 731,1441 726,1441 726,1425" stroke="rgb(none)" stroke-width="0.0" fill="0,0,0" />
<polygon id="11-11747" points="726,1249 731,1249 731,1201 726,1201 726,1195 628,1195 628,1173 548,1173 548,1195 511,1195 462,1195 461,1317 474,1317 474,1342 726,1342 726,1249" stroke="rgb(none)" stroke-width="0.0" fill="0,0,0" />
<polygon id="11-11747A" points="709,1105 637,1107 588,1108 588,1155 637,1155 637,1162 633,1162 633,1190 638,1190 638,1195 674,1195 674,1190 718,1190 718,1149 709,1149 709,1105" stroke="rgb(none)" stroke-width="0.0" fill="0,0,0" />
<polygon id="11-11740B" points="875,866 828,866 828,938 875,938 875,866" stroke="rgb(none)" stroke-width="0.0" fill="0,0,0" />
<polygon id="11-11740" points="731,536 733,1877 828,1877 828,1827 828,1095 953,1094 953,999 905,997 905,1002 901,1000 828,998 828,536 731,536" stroke="rgb(none)" stroke-width="0.0" fill="0,0,0" />
<polygon id="11-11749A" points="579,1130 537,1130 537,1105 516,1105 516,1099 480,1099 480,1105 474,1105 474,1174 510,1174 510,1188 542,1188 542,1165 579,1165 579,1130" stroke="rgb(none)" stroke-width="0.0" fill="0,0,0" />
<polygon id="11-11749B" points="731,1045 726,1045 726,1002 627,1002 627,1099 726,1099 726,1093 731,1093 731,1045" stroke="rgb(none)" stroke-width="0.0" fill="0,0,0" />
<polygon id="11-11740C" points="731,901 627,901 627,998 731,998 731,901" stroke="rgb(none)" stroke-width="0.0" fill="0,0,0" />
<polygon id="11-11740A" points="952,1100 915,1100 915,1095 828,1095 828,1333 869,1333 869,1357 828,1357 828,1478 879,1478 879,1483 915,1483 915,1478 952,1478 952,1354 915,1354 915,1349 935,1349 935,1262 915,1262 915,1257 952,1257 952,1100" stroke="rgb(none)" stroke-width="0.0" fill="0,0,0" />
<polygon id="11-11812" points="1090,1100 1084,1100 1084,1095 1048,1095 1048,1100 957,1100 957,1257 1090,1257 1090,1100" stroke="rgb(none)" stroke-width="0.0" fill="0,0,0" />
<polygon id="11-11791" points="2268,1817 2171,1817 2171,1791 2152,1791 2152,1817 2130,1817 2130,1747 2002,1747 2002,1752 1997,1752 1997,1800 2002,1800 2002,1818 2034,1818 2034,1866 2081,1866 2081,1973 2254,1973 2254,1939 2268,1939 2268,1817" stroke="rgb(none)" stroke-width="0.0" fill="0,0,0" />
<polygon id="11-11793" points="2228,2011 2254,2011 2254,1978 2076,1978 2076,1871 2030,1871 2030,1823 1985,1823 1985,1819 1949,1819 1949,1823 1878,1823 1878,2011 1910,2011 1911,2097 1957,2100 2005,2101 2053,2099 2100,2095 2148,2089 2195,2081 2242,2070 2234,2036 2228,2036 2228,2011" stroke="rgb(none)" stroke-width="0.0" fill="0,0,0" />
<polygon id="11-11791A" points="2254,1782 2237,1782 2237,1748 2138,1748 2138,1783 2176,1783 2176,1812 2181,1812 2181,1817 2217,1817 2217,1812 2254,1812 2254,1782" stroke="rgb(none)" stroke-width="0.0" fill="0,0,0" />
<polygon id="11-11710" points="1701,1494 1698,1487 1454,1487 1454,1451 1382,1451 1382,1487 999,1487 999,1483 879,1483 879,1487 828,1487 828,1594 1041,1594 1041,1599 1079,1598 1090,1598 1186,1597 1197,1597 1234,1599 1234,1594 1472,1594 1472,1599 1509,1597 1627,1597 1665,1599 1665,1594 1698,1594 1699,1586 1701,1494" stroke="rgb(none)" stroke-width="0.0" fill="0,0,0" />
<polygon id="11-11789" points="2268,1591 2178,1591 2178,1569 2104,1569 2104,1591 2002,1591 2002,1597 1997,1597 1997,1645 2002,1645 2002,1741 2254,1741 2254,1713 2268,1713 2268,1591" stroke="rgb(none)" stroke-width="0.0" fill="0,0,0" />
<polygon id="11-11789A" points="2137,1526 2099,1526 2099,1501 2019,1501 2019,1545 2009,1545 2009,1586 2058,1586 2058,1591 2094,1591 2094,1586 2099,1586 2099,1561 2137,1561 2137,1526" stroke="rgb(none)" stroke-width="0.0" fill="0,0,0" />
<polygon id="11-11787A" points="2254,1501 2249,1501 2249,1495 2213,1495 2213,1501 2183,1501 2183,1526 2145,1526 2145,1561 2183,1561 2183,1583 2218,1583 2218,1570 2254,1570 2254,1501" stroke="rgb(none)" stroke-width="0.0" fill="0,0,0" />
<polygon id="11-11787" points="2268,1373 2254,1373 2254,1349 2002,1349 2002,1441 1997,1441 1997,1489 2002,1489 2002,1495 2104,1495 2104,1518 2178,1518 2178,1495 2268,1495 2268,1373" stroke="rgb(none)" stroke-width="0.0" fill="0,0,0" />
<polygon id="11-11710A" points="1091,1482 1181,1482 1181,1487 1217,1487 1217,1482 1223,1482 1223,1363 1053,1363 1053,1482 1091,1482" stroke="rgb(none)" stroke-width="0.0" fill="0,0,0" />
<polygon id="11-11801" points="1223,1453 1243,1453 1243,1475 1253,1475 1253,1481 1255,1487 1279,1487 1280,1483 1281,1487 1349,1487 1350,1480 1349,1475 1377,1475 1377,1427 1382,1427 1382,1391 1377,1391 1377,1363 1223,1363 1223,1453" stroke="rgb(none)" stroke-width="0.0" fill="0,0,0" />
<polygon id="11-11803" points="1382,1316 1377,1316 1377,1245 1254,1245 1254,1280 1249,1280 1249,1316 1254,1316 1254,1327 1249,1326 1196,1325 1196,1359 1249,1357 1254,1357 1264,1358 1264,1363 1318,1363 1318,1358 1377,1358 1377,1352 1382,1352 1382,1316" stroke="rgb(none)" stroke-width="0.0" fill="0,0,0" />
<polygon id="11-11814" points="1249,1100 1245,1100 1245,1095 1209,1095 1209,1100 1095,1100 1095,1257 1118,1257 1118,1358 1191,1358 1191,1320 1249,1320 1249,1100" stroke="rgb(none)" stroke-width="0.0" fill="0,0,0" />
<polygon id="11-11810" points="1751,1000 1702,997 1702,1002 1698,1000 1648,998 1453,998 956,999 956,1095 1003,1096 1003,1092 1007,1093 1750,1094 1751,1000" stroke="rgb(none)" stroke-width="0.0" fill="0,0,0" />
<polygon id="11-11816" points="1377,1100 1373,1100 1373,1095 1325,1095 1325,1100 1254,1100 1254,1240 1377,1240 1377,1100" stroke="rgb(none)" stroke-width="0.0" fill="0,0,0" />
<polygon id="11-11800" points="1454,1143 1454,1095 1382,1095 1382,1446 1412,1446 1412,1451 1448,1451 1448,1446 1454,1446 1454,1143" stroke="rgb(none)" stroke-width="0.0" fill="0,0,0" />
<polygon id="11-11715" points="1686,1348 1660,1348 1660,1342 1495,1342 1495,1366 1459,1366 1459,1372 1454,1372 1454,1408 1459,1408 1459,1482 1686,1482 1686,1348" stroke="rgb(none)" stroke-width="0.0" fill="0,0,0" />
<polygon id="11-11802A" points="1660,1222 1460,1222 1460,1284 1454,1284 1454,1320 1460,1320 1460,1325 1495,1325 1495,1337 1660,1337 1660,1222" stroke="rgb(none)" stroke-width="0.0" fill="0,0,0" />
<polygon id="11-11802B" points="1683,1100 1460,1100 1460,1107 1454,1107 1454,1143 1460,1143 1460,1222 1660,1222 1660,1211 1683,1211 1683,1100" stroke="rgb(none)" stroke-width="0.0" fill="0,0,0" />
<polygon id="11-11818" points="1771,1101 1730,1101 1730,1095 1694,1095 1692,1101 1690,1211 1771,1211 1771,1101" stroke="rgb(none)" stroke-width="0.0" fill="0,0,0" />
<polygon id="11-11785" points="2268,1195 2217,1195 2181,1195 2181,1173 2101,1173 2101,1195 2002,1195 2002,1201 1997,1201 1997,1249 2002,1249 2002,1342 2254,1342 2254,1317 2268,1317 2268,1195" stroke="rgb(none)" stroke-width="0.0" fill="0,0,0" />
<polygon id="11-11780A" points="1858,1333 1901,1333 1901,1095 1814,1095 1814,1100 1777,1100 1777,1224 1814,1226 1792,1228 1792,1346 1814,1348 1777,1350 1777,1482 1814,1482 1814,1487 1850,1487 1850,1478 1900,1478 1900,1358 1858,1358 1858,1333" stroke="rgb(none)" stroke-width="0.0" fill="0,0,0" />
<polygon id="11-11780" points="1997,1345 1997,536 1900,536 1900,998 1895,998 1895,979 1847,979 1847,998 1752,999 1753,1095 1800,1096 1800,1092 1804,1093 1901,1095 1901,1345 1997,1345" stroke="rgb(none)" stroke-width="0.0" fill="0,0,0" />
<polygon id="11-11783A" points="2254,1105 2249,1105 2249,1099 2213,1099 2213,1105 2191,1105 2191,1130 2150,1130 2150,1165 2186,1165 2186,1188 2218,1188 2218,1174 2254,1174 2254,1105" stroke="rgb(none)" stroke-width="0.0" fill="0,0,0" />
<polygon id="11-11785A" points="2091,1155 2141,1155 2141,1108 2091,1107 2019,1105 2019,1148 2010,1148 2010,1190 2055,1190 2055,1195 2091,1195 2091,1190 2095,1190 2095,1162 2091,1162 2091,1155" stroke="rgb(none)" stroke-width="0.0" fill="0,0,0" />
<polygon id="11-11783B" points="2101,1045 2101,1002 2002,1002 2002,1045 1997,1045 1997,1093 2002,1093 2002,1099 2101,1099 2101,1045" stroke="rgb(none)" stroke-width="0.0" fill="0,0,0" />
<polygon id="11-11783" points="2268,977 2235,977 2235,953 2107,953 2107,1003 2107,1045 2101,1045 2101,1093 2107,1093 2107,1099 2149,1099 2149,1122 2186,1122 2186,1099 2268,1099 2268,977" stroke="rgb(none)" stroke-width="0.0" fill="0,0,0" />
<polygon id="11-11780B" points="2101,901 1997,901 1997,998 2101,998 2101,901" stroke="rgb(none)" stroke-width="0.0" fill="0,0,0" />
<polygon id="11-11781" points="2268,799 2178,799 2178,777 2107,777 2107,805 2101,805 2101,853 2107,853 2107,870 2107,946 2235,946 2235,921 2268,921 2268,799" stroke="rgb(none)" stroke-width="0.0" fill="0,0,0" />
<polygon id="11-11781A" points="2254,725 2218,725 2218,711 2183,711 2183,734 2145,734 2145,769 2183,769 2183,794 2213,794 2213,799 2249,799 2249,794 2254,794 2254,725" stroke="rgb(none)" stroke-width="0.0" fill="0,0,0" />
<polygon id="11-11781B" points="2101,805 2101,799 2002,799 2002,805 1997,805 1997,853 2002,853 2002,896 2101,896 2101,805" stroke="rgb(none)" stroke-width="0.0" fill="0,0,0" />
<polygon id="11-11779A" points="2137,734 2099,734 2099,709 2094,709 2094,703 2058,703 2058,709 2009,709 2009,750 2019,750 2019,794 2099,794 2099,769 2137,769 2137,734" stroke="rgb(none)" stroke-width="0.0" fill="0,0,0" />
<polygon id="11-11806" points="1895,903 1900,903 1900,855 1895,855 1895,850 1459,850 1459,855 1454,855 1454,903 1459,903 1459,921 1523,921 1523,926 1491,926 1491,992 1843,992 1843,931 1895,931 1895,903" stroke="rgb(none)" stroke-width="0.0" fill="0,0,0" />
<polygon id="11-11782" points="1900,790 1895,790 1895,784 1776,784 1776,663 1654,663 1654,844 1895,844 1895,826 1900,826 1900,790" stroke="rgb(none)" stroke-width="0.0" fill="0,0,0" />
<polygon id="11-11800A" points="1454,790 1453,597 1358,597 1356,676 1352,676 1353,714 1353,831 1352,869 1357,869 1357,998 1453,998 1454,904 1454,790" stroke="rgb(none)" stroke-width="0.0" fill="0,0,0" />
<polygon id="11-11804" points="1648,754 1553,754 1553,674 1518,674 1518,661 1459,661 1459,790 1454,790 1454,838 1459,838 1459,843 1648,843 1648,754" stroke="rgb(none)" stroke-width="0.0" fill="0,0,0" />
<polygon id="11-11762" points="1335,896 1227,896 1227,993 1233,993 1233,998 1269,998 1269,993 1335,993 1335,896" stroke="rgb(none)" stroke-width="0.0" fill="0,0,0" />
<polygon id="11-11752" points="1073,899 1025,899 1025,653 952,653 952,767 833,767 833,807 828,807 828,855 833,855 833,861 880,861 880,993 1021,993 1021,998 1069,998 1071,993 1073,899" stroke="rgb(none)" stroke-width="0.0" fill="0,0,0" />
<polygon id="11-11751" points="627,805 622,805 622,777 551,777 551,799 461,799 461,921 495,921 495,946 622,946 622,895 622,853 627,853 627,805" stroke="rgb(none)" stroke-width="0.0" fill="0,0,0" />
<polygon id="11-11751B" points="731,805 726,805 726,799 627,799 627,896 726,896 726,853 731,853 731,805" stroke="rgb(none)" stroke-width="0.0" fill="0,0,0" />
<polygon id="11-11753A" points="719,709 671,709 671,703 635,703 635,709 630,709 630,734 592,734 592,769 630,769 630,794 709,794 709,750 719,750 719,709" stroke="rgb(none)" stroke-width="0.0" fill="0,0,0" />
<polygon id="11-11751A" points="583,734 545,734 545,711 510,711 510,725 474,725 474,794 480,794 480,799 516,799 516,794 545,794 545,769 583,769 583,734" stroke="rgb(none)" stroke-width="0.0" fill="0,0,0" />
<polygon id="11-11753" points="726,633 726,541 474,541 474,581 462,581 462,703 551,703 551,726 624,726 624,703 726,703 726,697 731,697 731,649 726,649 726,633" stroke="rgb(none)" stroke-width="0.0" fill="0,0,0" />
<polygon id="11-11760A" points="947,653 919,653 919,620 925,620 925,648 1113,648 1113,536 869,536 869,578 828,578 828,762 947,762 947,653" stroke="rgb(none)" stroke-width="0.0" fill="0,0,0" />
<polygon id="11-11768" points="1649,541 1601,541 1601,536 1565,536 1565,541 1559,541 1559,650 1649,650 1649,541" stroke="rgb(none)" stroke-width="0.0" fill="0,0,0" />
<polygon id="11-11770A" points="1900,578 1859,578 1859,536 1653,536 1653,658 1809,658 1809,663 1781,663 1781,779 1900,779 1900,578" stroke="rgb(none)" stroke-width="0.0" fill="0,0,0" />
<polygon id="11-11779" points="2268,581 2250,581 2250,540 2232,540 2232,566 2002,566 2002,649 1997,649 1997,697 2002,697 2002,703 2104,703 2104,726 2178,726 2178,703 2268,703 2268,581" stroke="rgb(none)" stroke-width="0.0" fill="0,0,0" />
<polygon id="11-11770D" points="2090,536 2002,536 2002,561 2090,561 2090,536" stroke="rgb(none)" stroke-width="0.0" fill="0,0,0" />
<polygon id="11-11770E" points="2227,536 2191,536 2191,561 2227,561 2227,536" stroke="rgb(none)" stroke-width="0.0" fill="0,0,0" />
<polygon id="11-11776" points="2297,536 2295,540 2289,566 2351,579 2356,553 2356,548 2297,536" stroke="rgb(none)" stroke-width="0.0" fill="0,0,0" />
<polygon id="11-11777" points="2695,278 2686,276 2694,241 2678,237 2681,219 2643,209 2604,199 2565,190 2560,207 2535,201 2531,219 2557,224 2540,304 2518,299 2503,371 2524,375 2503,475 2509,476 2508,481 2556,491 2556,487 2572,490 2646,506 2695,278" stroke="rgb(none)" stroke-width="0.0" fill="0,0,0" />
<polygon id="11-11777A" points="2522,385 2517,384 2518,380 2494,374 2502,337 2467,330 2459,367 2435,362 2418,440 2461,449 2459,459 2499,467 2509,419 2515,421 2522,385" stroke="rgb(none)" stroke-width="0.0" fill="0,0,0" />
<polygon id="11-11775A" points="2540,262 2527,259 2534,224 2467,210 2466,215 2461,214 2453,249 2459,250 2452,279 2477,284 2469,322 2503,329 2511,292 2533,296 2540,262" stroke="rgb(none)" stroke-width="0.0" fill="0,0,0" />
<polygon id="11-11775B" points="2430,358 2335,338 2315,435 2356,444 2355,449 2402,459 2403,454 2409,455 2430,358" stroke="rgb(none)" stroke-width="0.0" fill="0,0,0" />
<polygon id="11-11775" points="2453,249 2470,169 2345,145 2339,177 2289,168 2284,200 2284,330 2323,330 2337,333 2378,342 2377,347 2424,357 2425,352 2453,358 2468,288 2446,284 2453,249" stroke="rgb(none)" stroke-width="0.0" fill="0,0,0" />
<polygon id="11-11770C" points="2309,355 2220,355 2220,439 2309,439 2309,355" stroke="rgb(none)" stroke-width="0.0" fill="0,0,0" />
<polygon id="11-11773B" points="2215,335 2118,335 2118,435 2124,435 2124,439 2172,439 2172,435 2215,435 2215,335" stroke="rgb(none)" stroke-width="0.0" fill="0,0,0" />
<polygon id="11-11773" points="2276,193 2233,193 2233,160 2237,128 2118,113 2118,139 2092,139 2092,157 2118,157 2118,259 2096,259 2096,291 2118,291 2119,330 2124,330 2124,335 2172,335 2172,330 2252,330 2252,302 2276,302 2276,193" stroke="rgb(none)" stroke-width="0.0" fill="0,0,0" />
<polygon id="11-11773A" points="2113,224 2118,224 2118,188 2113,188 2113,182 2044,182 2044,218 2030,218 2030,253 2053,253 2053,291 2088,291 2088,253 2113,253 2113,224" stroke="rgb(none)" stroke-width="0.0" fill="0,0,0" />
<polygon id="11-11771A" points="2110,300 2063,300 2063,349 2056,349 2056,345 2028,345 2028,350 2022,350 2022,386 2028,386 2028,427 2069,427 2069,417 2113,417 2111,349 2110,300" stroke="rgb(none)" stroke-width="0.0" fill="0,0,0" />
<polygon id="11-11770B" points="1889,416 1853,416 1853,437 1889,437 1889,416" stroke="rgb(none)" stroke-width="0.0" fill="0,0,0" />
<polygon id="11-11771" points="2045,259 2022,259 2022,151 1905,151 1905,182 1875,182 1875,407 1895,409 1894,433 1920,433 1920,411 1915,409 1924,407 1924,435 1968,435 1968,439 2016,439 2016,435 2022,435 2022,340 2045,340 2045,259" stroke="rgb(none)" stroke-width="0.0" fill="0,0,0" />
<polygon id="11-11770" points="1265,439 1264,537 1311,538 1311,533 1315,535 1357,536 1358,594 1454,594 1455,546 1451,546 1453,543 1454,536 2250,536 2250,532 2282,532 2362,549 2355,584 2592,635 2599,600 2616,603 2620,585 2634,588 2650,511 2313,440 2309,439 1920,438 1823,438 1265,439" stroke="rgb(none)" stroke-width="0.0" fill="0,0,0" />
<polygon id="11-11769" points="1868,182 1843,182 1843,151 1721,151 1721,259 1699,259 1699,332 1721,332 1721,434 1726,434 1726,439 1774,439 1774,435 1818,435 1818,407 1827,409 1823,411 1823,433 1849,433 1848,409 1868,407 1868,182" stroke="rgb(none)" stroke-width="0.0" fill="0,0,0" />
<polygon id="11-11767A" points="1713,218 1700,218 1700,182 1631,182 1631,188 1625,188 1625,224 1631,224 1631,253 1656,253 1656,291 1691,291 1691,253 1713,253 1713,218" stroke="rgb(none)" stroke-width="0.0" fill="0,0,0" />
<polygon id="11-11769A" points="1721,343 1716,343 1716,338 1691,338 1691,300 1656,300 1656,338 1631,338 1631,417 1675,417 1675,427 1716,427 1716,379 1721,379 1721,343" stroke="rgb(none)" stroke-width="0.0" fill="0,0,0" />
<polygon id="11-11767" points="1648,259 1625,259 1625,151 1501,151 1501,182 1467,182 1467,435 1570,435 1570,439 1618,439 1618,434 1625,434 1625,332 1648,332 1648,259" stroke="rgb(none)" stroke-width="0.0" fill="0,0,0" />
<polygon id="11-11765" points="1460,182 1423,182 1423,169 1302,169 1302,259 1278,259 1278,332 1302,332 1302,435 1307,435 1307,439 1355,439 1355,435 1460,435 1460,182" stroke="rgb(none)" stroke-width="0.0" fill="0,0,0" />
<polygon id="11-11760" points="1263,441 1213,439 1213,443 1209,441 1103,438 1007,438 509,439 509,536 1261,536 1263,441" stroke="rgb(none)" stroke-width="0.0" fill="0,0,0" />
<polygon id="11-11763A" points="1296,338 1270,338 1270,300 1236,300 1236,338 1211,338 1211,343 1206,343 1206,379 1211,379 1211,427 1252,427 1252,417 1296,417 1296,338" stroke="rgb(none)" stroke-width="0.0" fill="0,0,0" />
<polygon id="11-11765A" points="1296,224 1302,224 1302,188 1296,188 1296,182 1227,182 1227,218 1214,218 1214,253 1236,253 1236,291 1270,291 1270,253 1296,253 1296,224" stroke="rgb(none)" stroke-width="0.0" fill="0,0,0" />
<polygon id="11-11760C" points="1073,415 1037,415 1037,437 1073,437 1073,415" stroke="rgb(none)" stroke-width="0.0" fill="0,0,0" />
<polygon id="11-11763" points="1229,259 1206,259 1205,169 1083,169 1083,182 1059,182 1059,411 1108,411 1108,435 1151,435 1151,439 1199,439 1199,435 1206,435 1206,332 1229,332 1229,259" stroke="rgb(none)" stroke-width="0.0" fill="0,0,0" />
<polygon id="11-11761" points="1051,182 1027,182 1027,169 905,169 905,219 905,256 883,256 883,336 905,336 905,435 911,435 911,439 959,439 959,435 1002,435 1002,411 1051,411 1051,182" stroke="rgb(none)" stroke-width="0.0" fill="0,0,0" />
<polygon id="11-11761A" points="900,382 905,382 905,346 900,346 900,341 872,341 872,345 865,345 865,296 818,296 817,345 815,417 858,417 858,426 900,426 900,382" stroke="rgb(none)" stroke-width="0.0" fill="0,0,0" />
<polygon id="11-11759A" points="898,218 884,218 884,182 815,182 815,188 809,188 809,224 815,224 815,245 840,245 840,287 875,287 875,250 898,250 898,218" stroke="rgb(none)" stroke-width="0.0" fill="0,0,0" />
<polygon id="11-11759B" points="809,335 712,335 712,435 755,435 755,439 803,439 803,435 809,435 809,335" stroke="rgb(none)" stroke-width="0.0" fill="0,0,0" />
<polygon id="11-11760B" points="707,335 611,335 611,439 707,439 707,335" stroke="rgb(none)" stroke-width="0.0" fill="0,0,0" />
<polygon id="11-11757B" points="606,335 509,335 509,435 515,435 515,439 563,439 563,435 606,435 606,335" stroke="rgb(none)" stroke-width="0.0" fill="0,0,0" />
<polygon id="11-11757" points="655,201 631,201 631,169 509,169 509,259 487,259 487,330 515,330 515,335 563,335 563,330 655,330 655,201" stroke="rgb(none)" stroke-width="0.0" fill="0,0,0" />
<polygon id="11-11757A" points="509,188 504,188 504,182 431,182 431,218 421,218 421,253 444,253 444,291 479,291 479,253 504,253 504,224 509,224 509,188" stroke="rgb(none)" stroke-width="0.0" fill="0,0,0" />
<polygon id="11-11755" points="504,351 443,351 443,377 413,377 413,373 436,373 436,259 413,259 413,175 291,175 291,208 269,208 269,527 291,527 291,563 389,563 389,549 448,549 448,527 504,527 504,521 509,521 509,473 504,473 504,439 478,439 478,435 504,435 504,351" stroke="rgb(none)" stroke-width="0.0" fill="0,0,0" />
<polygon id="11-11755A" points="269,470 264,470 262,448 261,398 214,398 214,448 208,448 208,408 133,408 133,496 138,496 138,510 264,510 264,506 269,506 269,470" stroke="rgb(none)" stroke-width="0.0" fill="0,0,0" />
<polygon id="11-11701" points="731,1965 726,1965 726,1935 591,1935 591,1860 463,1860 463,2008 493,2008 493,2022 631,2022 631,2008 726,2008 726,2001 731,2001 731,1965" stroke="rgb(none)" stroke-width="0.0" fill="0,0,0" />
<polygon id="11-11700" points="1686,2049 1685,2039 1448,2039 1448,2011 1240,2011 1240,2039 1183,2039 1087,2039 828,2039 828,1879 733,1879 731,2039 711,2039 711,2136 777,2136 777,2160 837,2160 837,2136 962,2136 962,2160 1022,2160 1022,2136 1240,2136 1240,2145 1423,2145 1509,2145 1509,2170 1662,2170 1662,2145 1686,2145 1686,2049" stroke="rgb(none)" stroke-width="0.0" fill="0,0,0" />
<polygon id="11-11718" points="1480,2169 1476,2150 1475,2145 1423,2145 1423,2150 1407,2150 1407,2165 1213,2167 1209,2169 1211,2289 1213,2293 1411,2293 1411,2298 1459,2298 1459,2293 1475,2293 1475,2287 1480,2287 1480,2169" stroke="rgb(none)" stroke-width="0.0" fill="0,0,0" />
<polygon id="11-11742" points="947,1757 833,1757 833,1761 828,1761 828,1797 833,1797 833,2008 883,2008 883,2035 947,2035 947,1757" stroke="rgb(none)" stroke-width="0.0" fill="0,0,0" />
<polygon id="11-11792" points="1900,1638 1895,1638 1895,1598 1819,1598 1819,1684 1835,1684 1835,1714 1869,1714 1869,1678 1895,1676 1900,1674 1900,1638" stroke="rgb(none)" stroke-width="0.0" fill="0,0,0" />
<polygon id="11-11730F" points="1791,1888 1671,1888 1663,1898 1656,1898 1656,1962 1663,1962 1671,1972 1791,1972 1791,1888" stroke="rgb(none)" stroke-width="0.0" fill="0,0,0" />
<polygon id="11-11720" points="1656,1898 1656,1618 1622,1618 1622,1601 1616,1601 1616,1596 1520,1596 1520,1603 1514,1603 1514,1618 1487,1618 1487,1648 1471,1648 1471,1712 1487,1712 1487,1779 1471,1779 1471,1842 1487,1842 1487,1898 1471,1898 1471,1976 1513,1976 1513,2032 1518,2032 1518,2039 1614,2039 1614,2031 1619,2031 1619,1976 1656,1976 1656,1898" stroke="rgb(none)" stroke-width="0.0" fill="0,0,0" />
<polygon id="11-11730E" points="1791,1768 1671,1768 1663,1778 1656,1778 1656,1842 1663,1842 1671,1852 1791,1852 1791,1768" stroke="rgb(none)" stroke-width="0.0" fill="0,0,0" />
<polygon id="11-11730D" points="1803,1626 1671,1626 1663,1636 1656,1636 1656,1712 1663,1712 1671,1722 1803,1722 1803,1626" stroke="rgb(none)" stroke-width="0.0" fill="0,0,0" />
<polygon id="11-11730C" points="1471,1649 1464,1649 1456,1639 1336,1639 1336,1723 1456,1723 1464,1713 1471,1713 1471,1649" stroke="rgb(none)" stroke-width="0.0" fill="0,0,0" />
<polygon id="11-11730B" points="1471,1778 1464,1778 1456,1768 1336,1768 1336,1852 1456,1852 1464,1842 1471,1842 1471,1778" stroke="rgb(none)" stroke-width="0.0" fill="0,0,0" />
<polygon id="11-11730A" points="1471,1898 1464,1898 1456,1888 1336,1888 1336,1972 1456,1972 1464,1962 1471,1962 1471,1898" stroke="rgb(none)" stroke-width="0.0" fill="0,0,0" />
<polygon id="11-11720D" points="1306,1628 1232,1628 1226,1650 1218,1650 1218,1702 1226,1702 1232,1724 1306,1724 1306,1628" stroke="rgb(none)" stroke-width="0.0" fill="0,0,0" />
<polygon id="11-11720" points="1218,1780 1198,1780 1198,1720 1218,1720 1218,1618 1192,1618 1192,1603 1186,1603 1186,1598 1090,1598 1090,1603 1084,1603 1084,1618 1058,1618 1058,1720 1068,1720 1068,1732 1058,1732 1058,1769 1068,1769 1068,1780 1058,1780 1058,1832 1068,1832 1068,1844 1058,1844 1058,1871 1068,1871 1068,1882 1058,1882 1058,1976 1082,1976 1082,2031 1087,2031 1087,2039 1183,2039 1183,2031 1188,2031 1188,1976 1218,1976 1218,1878 1202,1878 1202,1837 1218,1837 1218,1780" stroke="rgb(none)" stroke-width="0.0" fill="0,0,0" />
<polygon id="11-11720A" points="1058,1900 1050,1900 1044,1878 970,1878 970,1974 1044,1974 1050,1952 1058,1952 1058,1900" stroke="rgb(none)" stroke-width="0.0" fill="0,0,0" />
<polygon id="11-11720E" points="1306,1758 1232,1758 1226,1780 1218,1780 1218,1832 1226,1832 1232,1854 1306,1854 1306,1758" stroke="rgb(none)" stroke-width="0.0" fill="0,0,0" />
<polygon id="11-11720F" points="1306,1878 1232,1878 1226,1900 1218,1900 1218,1952 1226,1952 1232,1974 1306,1974 1306,1878" stroke="rgb(none)" stroke-width="0.0" fill="0,0,0" />
<polygon id="11-11720B" points="1058,1780 1050,1780 1044,1758 970,1758 970,1854 1044,1854 1050,1832 1058,1832 1058,1780" stroke="rgb(none)" stroke-width="0.0" fill="0,0,0" />
<polygon id="11-11720C" points="1058,1650 1050,1650 1044,1628 970,1628 970,1724 1044,1724 1050,1702 1058,1702 1058,1650" stroke="rgb(none)" stroke-width="0.0" fill="0,0,0" />
<polygon id="11-11719" points="1772,1363 1690,1363 1690,1482 1732,1482 1732,1487 1768,1487 1770,1482 1772,1363" stroke="rgb(none)" stroke-width="0.0" fill="0,0,0" />
<polygon id="11-11711" points="1048,1367 957,1367 957,1478 961,1478 961,1483 997,1483 997,1478 1048,1478 1048,1367" stroke="rgb(none)" stroke-width="0.0" fill="0,0,0" />
<polygon id="11-11811" points="1197,923 1213,923 1213,899 1078,899 1078,993 1084,993 1084,998 1120,998 1120,993 1197,993 1197,923" stroke="rgb(none)" stroke-width="0.0" fill="0,0,0" />
<polygon id="11-11808" points="1554,541 1492,541 1492,550 1483,550 1482,561 1482,554 1469,554 1468,560 1459,560 1459,616 1454,616 1454,652 1459,652 1459,656 1554,656 1554,541" stroke="rgb(none)" stroke-width="0.0" fill="0,0,0" />
<polygon id="11-11764" points="1352,581 1357,581 1357,545 1352,543 1226,541 1226,567 1210,567 1210,648 1352,648 1352,581" stroke="rgb(none)" stroke-width="0.0" fill="0,0,0" />
<polygon id="11-11825" points="2824,342 2699,315 2654,528 2647,526 2636,577 2643,580 2757,606 2761,588 2771,590 2772,585 2777,586 2787,539 2782,538 2824,342" stroke="rgb(none)" stroke-width="0.0" fill="0,0,0" />
<polygon id="11-11759" points="832,251 809,251 809,169 687,169 687,201 663,201 663,330 713,330 755,330 755,335 803,335 803,330 809,330 809,287 832,287 832,251" stroke="rgb(none)" stroke-width="0.0" fill="0,0,0" />
<polygon id="11-11780C" points="1879,1818 1985,1818 1997,1818 1997,1345 1901,1345 1901,1358 1900,1478 1900,1487 1703,1487 1702,1494 1702,1586 1703,1594 1900,1594 1900,1683 1877,1683 1877,1714 1900,1714 1900,1782 1879,1782 1879,1818" stroke="rgb(none)" stroke-width="0.0" fill="0,0,0" />
</svg>
