<svg xmlns="http://www.w3.org/2000/svg" version="1.1" width="9244" height="5250">style="background-color:rgb(none)">
<polygon id="06-6693A" points="5002,4918 4773,4918 4773,4901 4730,4901 4730,4916 4708,4916 4708,5012 5002,5012 5002,4918" stroke="rgb(none)" stroke-width="0.0" fill="0,0,0" />
<polygon id="06-6693" points="4790,4643 4782,4643 4782,4634 4734,4634 4733,4643 4731,4815 4708,4815 4708,4901 4773,4901 4790,4900 4790,4643" stroke="rgb(none)" stroke-width="0.0" fill="0,0,0" />
<polygon id="06-6670" points="4827,4568 4818,4568 4818,4556 4636,4556 4636,4568 4627,4568 4627,4610 4636,4610 4636,4634 4818,4634 4818,4610 4827,4610 4827,4568" stroke="rgb(none)" stroke-width="0.0" fill="0,0,0" />
<polygon id="06-6683" points="4951,4770 4917,4770 4917,4733 4913,4733 4913,4724 4877,4724 4877,4733 4799,4733 4799,4806 4951,4806 4951,4770" stroke="rgb(none)" stroke-width="0.0" fill="0,0,0" />
<polygon id="06-6681" points="5089,4622 5014,4623 4962,4623 4917,4622 4917,4685 4926,4685 4926,4761 5014,4761 5014,4818 5089,4818 5089,4622" stroke="rgb(none)" stroke-width="0.0" fill="0,0,0" />
<polygon id="06-6679" points="5089,4488 4955,4488 4955,4454 4926,4454 4926,4554 4917,4554 4917,4613 4962,4612 5014,4612 5089,4613 5089,4488" stroke="rgb(none)" stroke-width="0.0" fill="0,0,0" />
<polygon id="06-6680A" points="4827,4268 4664,4268 4664,4432 4737,4432 4737,4439 4721,4439 4721,4463 4737,4463 4737,4488 4707,4488 4707,4441 4664,4441 4664,4547 4818,4547 4818,4523 4827,4523 4827,4268" stroke="rgb(none)" stroke-width="0.0" fill="0,0,0" />
<polygon id="06-6680" points="4917,4134 4915,3873 4914,3869 4830,3869 4828,3873 4827,4170 4589,4170 4589,4268 4827,4268 4827,4643 4799,4643 4799,4724 4917,4724 4917,4134" stroke="rgb(none)" stroke-width="0.0" fill="0,0,0" />
<polygon id="06-6677" points="4926,4318 4926,4395 4917,4395 4917,4445 4997,4445 4997,4479 5096,4479 5096,4318 4926,4318" stroke="rgb(none)" stroke-width="0.0" fill="0,0,0" />
<polygon id="06-6675" points="5089,4170 4955,4170 4955,4143 4926,4143 4926,4248 4917,4248 4917,4309 5089,4309 5089,4170" stroke="rgb(none)" stroke-width="0.0" fill="0,0,0" />
<polygon id="06-6673" points="5089,3998 4926,3998 4926,4075 4917,4075 4917,4134 4997,4134 4997,4161 5089,4161 5089,3998" stroke="rgb(none)" stroke-width="0.0" fill="0,0,0" />
<polygon id="06-6674" points="4827,4071 4818,4071 4818,3998 4669,3998 4669,4161 4707,4161 4707,4141 4729,4141 4729,4161 4818,4161 4818,4130 4827,4130 4827,4071" stroke="rgb(none)" stroke-width="0.0" fill="0,0,0" />
<polygon id="06-6676" points="4660,3998 4492,3998 4492,4139 4514,4139 4514,4161 4600,4161 4600,4170 4660,4170 4660,3998" stroke="rgb(none)" stroke-width="0.0" fill="0,0,0" />
<polygon id="06-6656" points="4483,4075 4351,4075 4351,4134 4375,4134 4376,4161 4378,4170 4414,4170 4414,4161 4483,4161 4483,4075" stroke="rgb(none)" stroke-width="0.0" fill="0,0,0" />
<polygon id="06-6602" points="4459,3829 4455,3817 4419,3817 4419,3829 4351,3829 4351,4063 4483,4063 4483,3998 4459,3998 4459,3829" stroke="rgb(none)" stroke-width="0.0" fill="0,0,0" />
<polygon id="06-6608" points="4818,3826 4775,3826 4775,3817 4733,3817 4733,3885 4818,3885 4818,3826" stroke="rgb(none)" stroke-width="0.0" fill="0,0,0" />
<polygon id="06-6682" points="4827,3913 4818,3913 4818,3894 4730,3894 4730,3964 4717,3964 4717,3989 4818,3989 4818,3949 4827,3949 4827,3913" stroke="rgb(none)" stroke-width="0.0" fill="0,0,0" />
<polygon id="06-6671" points="5089,3848 4969,3848 4969,3820 4932,3820 4932,3849 4926,3849 4926,3925 4917,3925 4917,3989 5089,3989 5089,3848" stroke="rgb(none)" stroke-width="0.0" fill="0,0,0" />
<polygon id="06-6603" points="4250,3606 4102,3606 4102,3715 4184,3715 4184,3727 4220,3727 4220,3715 4250,3715 4250,3606" stroke="rgb(none)" stroke-width="0.0" fill="0,0,0" />
<polygon id="06-6603A" points="4250,3486 4102,3486 4102,3600 4196,3600 4196,3606 4244,3606 4244,3600 4250,3600 4250,3486" stroke="rgb(none)" stroke-width="0.0" fill="0,0,0" />
<polygon id="06-6609" points="4983,3615 4972,3615 4972,3592 4983,3592 4983,3497 4744,3497 4744,3593 4751,3593 4751,3621 4738,3621 4738,3716 4753,3716 4753,3720 4789,3719 4796,3717 4796,3690 4964,3690 4964,3711 4983,3711 4983,3615" stroke="rgb(none)" stroke-width="0.0" fill="0,0,0" />
<polygon id="06-6613" points="4959,3695 4884,3695 4884,3714 4904,3714 4904,3720 4936,3720 4936,3714 4959,3714 4959,3695" stroke="rgb(none)" stroke-width="0.0" fill="0,0,0" />
<polygon id="06-6611" points="4878,3695 4801,3695 4801,3714 4825,3714 4825,3720 4857,3720 4857,3714 4878,3714 4878,3695" stroke="rgb(none)" stroke-width="0.0" fill="0,0,0" />
<polygon id="06-6610" points="4622,3841 4707,3841 4707,3823 4683,3823 4683,3817 4647,3817 4647,3823 4622,3823 4622,3841" stroke="rgb(none)" stroke-width="0.0" fill="0,0,0" />
<polygon id="06-6601B" points="4339,3829 4335,3817 4299,3817 4299,3841 4270,3841 4270,3902 4339,3902 4339,3829" stroke="rgb(none)" stroke-width="0.0" fill="0,0,0" />
<polygon id="06-6601A" points="4261,3829 4257,3829 4257,3817 4221,3817 4221,3829 4183,3829 4183,3902 4261,3902 4261,3829" stroke="rgb(none)" stroke-width="0.0" fill="0,0,0" />
<polygon id="06-6601" points="5006,3720 5001,3722 4996,3721 4983,3720 4395,3720 4395,3727 4024,3727 4024,3817 4081,3817 4082,3864 4084,3869 4168,3869 4169,3864 4171,3817 4509,3817 4509,3841 4616,3841 4616,3817 4827,3817 4828,3864 4830,3869 4914,3869 4915,3864 4917,3817 4996,3814 5000,3815 5006,3817 5006,3720" stroke="rgb(none)" stroke-width="0.0" fill="0,0,0" />
<polygon id="06-6607A" points="4681,3599 4618,3599 4618,3628 4613,3628 4613,3660 4618,3662 4695,3663 4695,3628 4681,3628 4681,3599" stroke="rgb(none)" stroke-width="0.0" fill="0,0,0" />
<polygon id="06-6605A" points="4739,3488 4511,3488 4511,3492 4506,3492 4506,3540 4511,3540 4511,3589 4739,3589 4739,3488" stroke="rgb(none)" stroke-width="0.0" fill="0,0,0" />
<polygon id="06-6605" points="4506,3594 4506,3489 4395,3489 4395,3720 4506,3720 4506,3594" stroke="rgb(none)" stroke-width="0.0" fill="0,0,0" />
<polygon id="06-6605B" points="4395,3620 4379,3620 4379,3611 4369,3611 4369,3602 4256,3602 4256,3715 4379,3715 4379,3677 4395,3677 4395,3620" stroke="rgb(none)" stroke-width="0.0" fill="0,0,0" />
<polygon id="06-6605C" points="4395,3526 4379,3526 4379,3499 4256,3499 4256,3602 4369,3602 4369,3593 4379,3593 4379,3584 4395,3584 4395,3526" stroke="rgb(none)" stroke-width="0.0" fill="0,0,0" />
<polygon id="06-6600C" points="4096,3602 4015,3602 4015,3611 4005,3611 4005,3620 3988,3620 3988,3674 4005,3674 4005,3715 4096,3715 4096,3602" stroke="rgb(none)" stroke-width="0.0" fill="0,0,0" />
<polygon id="06-6600" points="3881,3700 3896,3700 3896,3818 3920,3818 3920,3839 4000,3839 4000,3817 4015,3816 4024,3814 4024,3730 4015,3729 3988,3727 3988,3496 3977,3496 3977,3414 3970,3414 3970,3409 3886,3409 3886,3414 3881,3414 3881,3700" stroke="rgb(none)" stroke-width="0.0" fill="0,0,0" />
<polygon id="06-6600B" points="4096,3488 4005,3488 4005,3530 3988,3530 3988,3584 4005,3584 4005,3593 4015,3593 4015,3602 4096,3602 4096,3488" stroke="rgb(none)" stroke-width="0.0" fill="0,0,0" />
<polygon id="06-6600A" points="3977,3068 3970,3068 3970,2796 3979,2796 3979,2676 3970,2676 3970,2670 3857,2670 3857,2685 3722,2685 3722,2675 3686,2675 3686,2685 3673,2685 3672,2699 3672,2771 3673,2783 3881,2783 3881,3409 3977,3409 3977,3068" stroke="rgb(none)" stroke-width="0.0" fill="0,0,0" />
<polygon id="06-6140A" points="2990,2788 2956,2788 2956,2783 2921,2783 2920,2788 2919,2837 2990,2837 2990,2788" stroke="rgb(none)" stroke-width="0.0" fill="0,0,0" />
<polygon id="06-6124" points="3671,2450 3572,2450 3572,2675 3671,2675 3671,2665 3680,2665 3680,2629 3671,2629 3671,2450" stroke="rgb(none)" stroke-width="0.0" fill="0,0,0" />
<polygon id="06-6126" points="3680,2455 3680,2675 3736,2675 3736,2639 3747,2639 3747,2483 3730,2483 3730,2455 3723,2455 3680,2455" stroke="rgb(none)" stroke-width="0.0" fill="0,0,0" />
<polygon id="06-6140" points="3670,2699 3668,2685 3424,2685 3424,2679 3332,2679 3332,2660 3305,2660 3305,2679 3171,2679 3171,2685 2320,2685 2319,2699 2319,2771 2320,2783 2594,2783 2800,2783 3157,2783 3426,2783 3457,2783 3492,2783 3635,2783 3668,2783 3669,2771 3670,2699" stroke="rgb(none)" stroke-width="0.0" fill="0,0,0" />
<polygon id="06-6147" points="2270,2835 2266,2823 2218,2823 2218,2835 2194,2835 2194,3035 2235,3035 2235,3019 2270,3019 2270,2835" stroke="rgb(none)" stroke-width="0.0" fill="0,0,0" />
<polygon id="06-6122A" points="3341,2679 3424,2679 3424,2434 3341,2434 3341,2679" stroke="rgb(none)" stroke-width="0.0" fill="0,0,0" />
<polygon id="06-6100A" points="3738,2341 3341,2341 3341,2348 3337,2348 3337,2396 3341,2396 3341,2434 3680,2434 3680,2444 3687,2444 3687,2455 3723,2455 3723,2444 3730,2444 3730,2435 3738,2435 3738,2341" stroke="rgb(none)" stroke-width="0.0" fill="0,0,0" />
<polygon id="06-6144" points="2552,2460 2532,2460 2532,2435 2443,2435 2443,2680 2460,2680 2460,2685 2496,2685 2496,2680 2532,2680 2532,2655 2552,2655 2552,2460" stroke="rgb(none)" stroke-width="0.0" fill="0,0,0" />
<polygon id="06-6100" points="2248,2341 2248,2371 2236,2371 2236,2413 2248,2413 2248,2430 3328,2430 3332,2396 3337,2396 3337,2348 3332,2348 3332,2341 2248,2341" stroke="rgb(none)" stroke-width="0.0" fill="0,0,0" />
<polygon id="06-6100B" points="2736,2303 2698,2303 2700,2336 2702,2341 2732,2341 2734,2336 2736,2303" stroke="rgb(none)" stroke-width="0.0" fill="0,0,0" />
<polygon id="06-6309C" points="1887,4120 1763,4120 1763,4189 1754,4189 1754,4221 1763,4221 1763,4229 1887,4229 1887,4120" stroke="rgb(none)" stroke-width="0.0" fill="0,0,0" />
<polygon id="06-6309B" points="1887,4012 1763,4012 1763,4020 1754,4020 1754,4052 1763,4052 1763,4111 1887,4111 1887,4012" stroke="rgb(none)" stroke-width="0.0" fill="0,0,0" />
<polygon id="06-6321" points="1599,4564 1595,4559 1559,4559 1559,4564 1514,4564 1514,4612 1599,4612 1599,4564" stroke="rgb(none)" stroke-width="0.0" fill="0,0,0" />
<polygon id="06-6323" points="1599,4617 1595,4612 1559,4612 1559,4617 1514,4617 1514,4849 1560,4861 1599,4849 1599,4617" stroke="rgb(none)" stroke-width="0.0" fill="0,0,0" />
<polygon id="06-6314" points="1513,4488 1525,4488 1525,4456 1513,4456 1513,4442 1465,4442 1465,4548 1486,4548 1486,4542 1513,4542 1513,4488" stroke="rgb(none)" stroke-width="0.0" fill="0,0,0" />
<polygon id="06-6305C" points="1754,3849 1630,3849 1630,3868 1618,3868 1618,3900 1630,3900 1630,3935 1754,3935 1754,3849" stroke="rgb(none)" stroke-width="0.0" fill="0,0,0" />
<polygon id="06-6310" points="1525,3655 1513,3655 1513,3603 1418,3603 1418,3724 1513,3724 1513,3679 1525,3679 1525,3655" stroke="rgb(none)" stroke-width="0.0" fill="0,0,0" />
<polygon id="06-6300" points="1618,3771 1618,2903 1608,2903 1608,2897 1536,2897 1536,2903 1525,2903 1525,4559 1599,4559 1599,4542 1618,4542 1618,3771" stroke="rgb(none)" stroke-width="0.0" fill="0,0,0" />
<polygon id="06-6301" points="1887,2919 1859,2919 1859,2909 1630,2909 1630,2918 1618,2918 1618,2950 1630,2950 1630,3166 1887,3166 1887,2919" stroke="rgb(none)" stroke-width="0.0" fill="0,0,0" />
<polygon id="06-6005" points="1690,2805 1624,2805 1624,2812 1618,2812 1618,2848 1624,2848 1624,2884 1690,2884 1690,2805" stroke="rgb(none)" stroke-width="0.0" fill="0,0,0" />
<polygon id="06-6007" points="1690,2720 1624,2720 1624,2756 1618,2756 1618,2793 1624,2793 1624,2799 1690,2799 1690,2720" stroke="rgb(none)" stroke-width="0.0" fill="0,0,0" />
<polygon id="06-6009" points="1669,2584 1624,2584 1624,2591 1618,2591 1618,2628 1624,2628 1624,2687 1669,2687 1669,2584" stroke="rgb(none)" stroke-width="0.0" fill="0,0,0" />
<polygon id="06-6000B" points="2373,2558 2248,2558 2248,2570 2236,2570 2236,2624 2248,2624 2248,2648 2373,2648 2373,2558" stroke="rgb(none)" stroke-width="0.0" fill="0,0,0" />
<polygon id="06-6000A" points="2373,2460 2248,2460 2248,2492 2236,2492 2236,2546 2248,2546 2248,2558 2373,2558 2373,2460" stroke="rgb(none)" stroke-width="0.0" fill="0,0,0" />
<polygon id="06-6000" points="2270,2783 2315,2783 2317,2771 2317,2699 2315,2685 2236,2685 2236,2389 2103,2389 2103,2823 2270,2823 2270,2783" stroke="rgb(none)" stroke-width="0.0" fill="0,0,0" />
<polygon id="06-6000E" points="1729,2526 1826,2525 1834,2524 1834,2417 1800,2417 1800,2409 1752,2409 1752,2417 1729,2417 1729,2526" stroke="rgb(none)" stroke-width="0.0" fill="0,0,0" />
<polygon id="06-6000D" points="1971,2418 1937,2418 1937,2409 1892,2409 1892,2418 1852,2418 1852,2536 1971,2536 1971,2418" stroke="rgb(none)" stroke-width="0.0" fill="0,0,0" />
<polygon id="06-6000F" points="1729,2417 1706,2417 1706,2409 1658,2409 1658,2417 1650,2417 1648,2425 1646,2524 1656,2525 1729,2526 1729,2417" stroke="rgb(none)" stroke-width="0.0" fill="0,0,0" />
<polygon id="06-6000G" points="1618,2534 1626,2534 1626,2403 1525,2403 1525,2891 1536,2891 1536,2897 1608,2897 1608,2891 1618,2891 1618,2534" stroke="rgb(none)" stroke-width="0.0" fill="0,0,0" />
<polygon id="06-6008" points="1883,2101 1623,2101 1623,2107 1611,2107 1611,2149 1623,2149 1623,2251 1647,2251 1647,2261 1883,2261 1883,2221 1863,2221 1863,2197 1883,2197 1883,2101" stroke="rgb(none)" stroke-width="0.0" fill="0,0,0" />
<polygon id="06-6000C" points="2236,2273 1611,2273 1611,2218 1525,2218 1525,2403 1650,2403 1650,2409 1832,2409 1832,2403 1854,2403 1854,2409 2045,2409 2045,2402 2053,2402 2053,2381 2063,2381 2063,2389 2236,2389 2236,2273" stroke="rgb(none)" stroke-width="0.0" fill="0,0,0" />
<polygon id="06-6000H" points="1525,2551 1301,2551 1301,2650 1525,2650 1525,2551" stroke="rgb(none)" stroke-width="0.0" fill="0,0,0" />
<polygon id="06-6012" points="1369,2379 1301,2379 1301,2551 1369,2551 1369,2379" stroke="rgb(none)" stroke-width="0.0" fill="0,0,0" />
<polygon id="06-6014" points="1301,2583 1292,2583 1292,2478 1064,2478 1064,2470 901,2470 901,2475 877,2475 877,2470 709,2470 709,2475 685,2475 685,2470 517,2470 517,2475 493,2475 493,2470 420,2470 420,2492 424,2492 424,2618 420,2618 420,2644 493,2642 517,2642 685,2642 709,2642 877,2642 901,2640 901,2645 1064,2645 1064,2638 1292,2638 1292,2625 1301,2625 1301,2583" stroke="rgb(none)" stroke-width="0.0" fill="0,0,0" />
<polygon id="06-6200A" points="1377,2094 1525,2094 1525,2024 1377,2024 1342,2059 1377,2094" stroke="rgb(none)" stroke-width="0.0" fill="0,0,0" />
<polygon id="06-6214" points="1483,1645 1513,1645 1513,1639 1525,1639 1525,1609 1513,1607 1385,1605 1385,1662 1483,1662 1483,1645" stroke="rgb(none)" stroke-width="0.0" fill="0,0,0" />
<polygon id="06-6216C" points="1513,1532 1385,1534 1373,1536 1373,1568 1385,1568 1385,1599 1513,1599 1513,1532" stroke="rgb(none)" stroke-width="0.0" fill="0,0,0" />
<polygon id="06-6207" points="1881,1404 1611,1404 1611,1534 1658,1534 1658,1510 1664,1510 1664,1534 1698,1534 1698,1510 1704,1510 1704,1534 1881,1534 1881,1404" stroke="rgb(none)" stroke-width="0.0" fill="0,0,0" />
<polygon id="06-6200" points="1611,1404 1611,574 1525,574 1525,2213 1551,2213 1551,2218 1588,2218 1588,2213 1611,2213 1611,1404" stroke="rgb(none)" stroke-width="0.0" fill="0,0,0" />
<polygon id="06-6221" points="1611,492 1523,492 1523,562 1530,562 1530,574 1568,574 1568,562 1611,562 1611,492" stroke="rgb(none)" stroke-width="0.0" fill="0,0,0" />
<polygon id="06-6223" points="1611,248 1594,248 1567,239 1539,248 1523,248 1523,480 1530,480 1530,492 1568,492 1568,480 1611,480 1611,248" stroke="rgb(none)" stroke-width="0.0" fill="0,0,0" />
<polygon id="06-6600D" points="3881,3501 3800,3501 3800,3700 3881,3700 3881,3501" stroke="rgb(none)" stroke-width="0.0" fill="0,0,0" />
<polygon id="06-6012C" points="1380,2217 1380,2228 1369,2228 1369,2258 1380,2258 1380,2266 1435,2266 1435,2217 1380,2217" stroke="rgb(none)" stroke-width="0.0" fill="0,0,0" />
<polygon id="06-6135A" points="2760,2788 2695,2788 2695,2854 2718,2854 2718,2859 2755,2859 2755,2854 2760,2854 2760,2788" stroke="rgb(none)" stroke-width="0.0" fill="0,0,0" />
<polygon id="06-6137A" points="2690,2788 2638,2788 2638,2859 2673,2859 2673,2854 2690,2854 2690,2788" stroke="rgb(none)" stroke-width="0.0" fill="0,0,0" />
<polygon id="06-6139A" points="2358,2995 2348,2995 2348,2961 2290,2961 2290,3036 2348,3036 2348,3029 2358,3029 2358,2995" stroke="rgb(none)" stroke-width="0.0" fill="0,0,0" />
<polygon id="06-6117A" points="3648,2274 3645,2269 3607,2269 3607,2274 3589,2274 3589,2336 3648,2336 3648,2274" stroke="rgb(none)" stroke-width="0.0" fill="0,0,0" />
<polygon id="06-6115A" points="3584,2274 3562,2274 3562,2269 3523,2269 3523,2274 3516,2274 3516,2336 3584,2336 3584,2274" stroke="rgb(none)" stroke-width="0.0" fill="0,0,0" />
<polygon id="06-6125A" points="3590,2788 3521,2788 3521,2859 3557,2859 3557,2854 3590,2854 3590,2788" stroke="rgb(none)" stroke-width="0.0" fill="0,0,0" />
<polygon id="06-6127A" points="3356,2788 3293,2788 3293,2854 3321,2854 3321,2859 3356,2859 3356,2788" stroke="rgb(none)" stroke-width="0.0" fill="0,0,0" />
<polygon id="06-6129A" points="3288,2788 3236,2788 3236,2859 3271,2859 3271,2854 3288,2854 3288,2788" stroke="rgb(none)" stroke-width="0.0" fill="0,0,0" />
<polygon id="06-6113A" points="3363,2274 3354,2274 3354,2269 3315,2269 3315,2274 3294,2274 3294,2336 3363,2336 3363,2274" stroke="rgb(none)" stroke-width="0.0" fill="0,0,0" />
<polygon id="06-6111A" points="3289,2274 3265,2274 3265,2269 3227,2269 3227,2274 3220,2274 3220,2336 3289,2336 3289,2274" stroke="rgb(none)" stroke-width="0.0" fill="0,0,0" />
<polygon id="06-6109A" points="3056,2274 3053,2269 3014,2269 3014,2274 2993,2274 2993,2336 3056,2336 3056,2274" stroke="rgb(none)" stroke-width="0.0" fill="0,0,0" />
<polygon id="06-6107A" points="2988,2272 2887,2272 2887,2279 2878,2279 2878,2309 2887,2309 2887,2336 2988,2336 2988,2272" stroke="rgb(none)" stroke-width="0.0" fill="0,0,0" />
<polygon id="06-6105A" points="2693,2274 2670,2274 2670,2269 2631,2269 2631,2274 2625,2274 2625,2336 2693,2336 2693,2274" stroke="rgb(none)" stroke-width="0.0" fill="0,0,0" />
<polygon id="06-6103A" points="2467,2274 2455,2274 2455,2269 2419,2269 2419,2274 2397,2274 2397,2336 2467,2336 2467,2274" stroke="rgb(none)" stroke-width="0.0" fill="0,0,0" />
<polygon id="06-6220B" points="1437,1370 1417,1370 1417,1364 1389,1364 1387,1370 1385,1427 1437,1427 1437,1370" stroke="rgb(none)" stroke-width="0.0" fill="0,0,0" />
<polygon id="06-6131A" points="3137,2852 3080,2852 3080,2926 3093,2926 3093,2931 3129,2931 3129,2926 3137,2926 3137,2852" stroke="rgb(none)" stroke-width="0.0" fill="0,0,0" />
<polygon id="06-6133A" points="2989,2843 2955,2843 2955,2884 2919,2884 2919,2921 2948,2921 2948,2926 2984,2926 2984,2921 2989,2921 2989,2843" stroke="rgb(none)" stroke-width="0.0" fill="0,0,0" />
<polygon id="06-6204A" points="1424,2148 1380,2150 1371,2152 1371,2176 1380,2176 1380,2200 1424,2200 1424,2148" stroke="rgb(none)" stroke-width="0.0" fill="0,0,0" />
<polygon id="06-6206A" points="1426,1928 1380,1928 1380,1942 1371,1942 1371,1966 1380,1968 1426,1970 1426,1928" stroke="rgb(none)" stroke-width="0.0" fill="0,0,0" />
<polygon id="06-6203A" points="1677,1546 1623,1546 1623,1600 1643,1600 1643,1609 1673,1609 1675,1600 1677,1546" stroke="rgb(none)" stroke-width="0.0" fill="0,0,0" />
<polygon id="06-6217A" points="1683,1008 1663,1008 1663,996 1627,996 1625,1008 1623,1077 1683,1077 1683,1008" stroke="rgb(none)" stroke-width="0.0" fill="0,0,0" />
<polygon id="06-6219A" points="1683,567 1636,567 1636,575 1623,575 1625,636 1627,648 1663,648 1663,636 1683,636 1683,567" stroke="rgb(none)" stroke-width="0.0" fill="0,0,0" />
<polygon id="06-6220A" points="1513,1008 1502,1008 1502,996 1466,996 1466,1008 1453,1008 1453,1077 1513,1077 1513,1008" stroke="rgb(none)" stroke-width="0.0" fill="0,0,0" />
<polygon id="06-6224A" points="1513,585 1513,574 1485,574 1485,567 1453,567 1453,636 1473,636 1473,648 1509,648 1511,636 1513,585" stroke="rgb(none)" stroke-width="0.0" fill="0,0,0" />
<polygon id="06-6312F" points="1361,4487 1370,4487 1370,4455 1361,4455 1361,4373 1370,4373 1370,4341 1361,4341 1361,4335 1252,4335 1252,4542 1259,4542 1259,4548 1361,4548 1361,4487" stroke="rgb(none)" stroke-width="0.0" fill="0,0,0" />
<polygon id="06-6312G" points="1456,4442 1370,4442 1370,4548 1456,4548 1456,4442" stroke="rgb(none)" stroke-width="0.0" fill="0,0,0" />
<polygon id="06-6312" points="1513,3826 1421,3826 1421,3803 1430,3803 1430,3817 1513,3817 1513,3798 1508,3798 1508,3780 1513,3780 1513,3771 1525,3771 1525,3739 1513,3739 1513,3733 1370,3733 1370,4433 1513,4433 1513,4308 1525,4308 1525,4276 1513,4276 1513,3826" stroke="rgb(none)" stroke-width="0.0" fill="0,0,0" />
<polygon id="06-6309" points="1754,4189 1754,3944 1630,3944 1630,4115 1618,4115 1618,4147 1630,4147 1630,4542 1635,4542 1635,4548 1859,4548 1859,4539 1887,4539 1887,4364 1754,4364 1754,4189" stroke="rgb(none)" stroke-width="0.0" fill="0,0,0" />
<polygon id="06-6309D" points="1887,4300 1855,4300 1855,4276 1887,4276 1887,4238 1763,4238 1763,4315 1754,4315 1754,4347 1763,4347 1763,4355 1887,4355 1887,4300" stroke="rgb(none)" stroke-width="0.0" fill="0,0,0" />
<polygon id="06-6312E" points="1361,4154 1252,4154 1252,4278 1263,4278 1263,4300 1252,4300 1252,4326 1361,4326 1361,4320 1370,4320 1370,4288 1361,4288 1361,4154" stroke="rgb(none)" stroke-width="0.0" fill="0,0,0" />
<polygon id="06-6312D" points="1370,4107 1361,4107 1361,4023 1269,4023 1269,4036 1252,4036 1252,4145 1361,4145 1361,4139 1370,4139 1370,4107" stroke="rgb(none)" stroke-width="0.0" fill="0,0,0" />
<polygon id="06-6312C" points="1361,3967 1370,3967 1370,3935 1361,3935 1361,3929 1252,3929 1252,4010 1269,4010 1269,4014 1361,4014 1361,3967" stroke="rgb(none)" stroke-width="0.0" fill="0,0,0" />
<polygon id="06-6312B" points="1361,3809 1252,3809 1252,3920 1361,3920 1361,3914 1370,3914 1370,3882 1361,3882 1361,3809" stroke="rgb(none)" stroke-width="0.0" fill="0,0,0" />
<polygon id="06-6312A" points="1409,3577 1252,3577 1252,3720 1261,3720 1261,3740 1252,3740 1252,3800 1361,3800 1361,3771 1370,3771 1370,3739 1361,3739 1361,3724 1409,3724 1409,3577" stroke="rgb(none)" stroke-width="0.0" fill="0,0,0" />
<polygon id="06-6309A" points="1887,3826 1875,3826 1875,3849 1763,3849 1763,3963 1754,3963 1754,3995 1763,3995 1763,4003 1887,4003 1887,3826" stroke="rgb(none)" stroke-width="0.0" fill="0,0,0" />
<polygon id="06-6305B" points="1869,3778 1887,3778 1887,3706 1742,3706 1742,3714 1733,3714 1733,3746 1742,3746 1742,3840 1869,3840 1869,3820 1887,3820 1887,3802 1869,3802 1869,3778" stroke="rgb(none)" stroke-width="0.0" fill="0,0,0" />
<polygon id="06-6305" points="1733,3746 1733,3575 1630,3575 1630,3739 1618,3739 1618,3771 1630,3771 1630,3840 1657,3840 1657,3849 1689,3849 1689,3840 1733,3840 1733,3746" stroke="rgb(none)" stroke-width="0.0" fill="0,0,0" />
<polygon id="06-6305A" points="1887,3575 1742,3575 1742,3657 1733,3657 1733,3689 1742,3689 1742,3697 1887,3697 1887,3575" stroke="rgb(none)" stroke-width="0.0" fill="0,0,0" />
<polygon id="06-6308" points="1507,3509 1513,3509 1513,3466 1525,3466 1525,3434 1513,3434 1513,3428 1271,3428 1271,3448 1252,3448 1252,3568 1418,3568 1418,3594 1513,3594 1513,3529 1507,3529 1507,3509" stroke="rgb(none)" stroke-width="0.0" fill="0,0,0" />
<polygon id="06-6303C" points="1745,3464 1754,3464 1754,3432 1745,3432 1745,3423 1630,3423 1630,3432 1618,3432 1618,3464 1630,3464 1630,3566 1745,3566 1745,3464" stroke="rgb(none)" stroke-width="0.0" fill="0,0,0" />
<polygon id="06-6303" points="1887,3175 1754,3175 1754,3270 1630,3270 1630,3290 1618,3290 1618,3322 1630,3322 1630,3342 1754,3342 1754,3566 1887,3566 1887,3175" stroke="rgb(none)" stroke-width="0.0" fill="0,0,0" />
<polygon id="06-6306" points="1513,3348 1525,3348 1525,3316 1513,3316 1513,3310 1370,3310 1370,3416 1513,3416 1513,3393 1508,3393 1508,3376 1513,3376 1513,3348" stroke="rgb(none)" stroke-width="0.0" fill="0,0,0" />
<polygon id="06-6306A" points="1361,3348 1370,3348 1370,3316 1361,3316 1361,3310 1252,3310 1252,3416 1361,3416 1361,3348" stroke="rgb(none)" stroke-width="0.0" fill="0,0,0" />
<polygon id="06-6304" points="1513,3254 1525,3254 1525,3222 1513,3222 1513,3216 1409,3216 1409,3190 1370,3190 1370,3301 1513,3301 1513,3254" stroke="rgb(none)" stroke-width="0.0" fill="0,0,0" />
<polygon id="06-6304A" points="1361,3254 1370,3254 1370,3222 1361,3222 1361,3190 1252,3190 1252,3301 1361,3301 1361,3254" stroke="rgb(none)" stroke-width="0.0" fill="0,0,0" />
<polygon id="06-6303B" points="1745,3351 1668,3351 1668,3342 1636,3342 1636,3351 1630,3351 1630,3411 1745,3411 1745,3351" stroke="rgb(none)" stroke-width="0.0" fill="0,0,0" />
<polygon id="06-6303A" points="1745,3175 1630,3175 1630,3261 1636,3261 1636,3270 1668,3270 1668,3261 1745,3261 1745,3175" stroke="rgb(none)" stroke-width="0.0" fill="0,0,0" />
<polygon id="06-6302" points="1513,3052 1525,3052 1525,3016 1513,3016 1513,2995 1507,2995 1507,2975 1513,2975 1513,2915 1261,2917 1252,2919 1252,3159 1268,3159 1268,3181 1418,3181 1418,3207 1513,3207 1513,3130 1508,3130 1508,3110 1513,3110 1513,3052" stroke="rgb(none)" stroke-width="0.0" fill="0,0,0" />
<polygon id="06-6013" points="1513,2712 1507,2712 1507,2691 1513,2691 1513,2662 1358,2662 1358,2650 1316,2650 1316,2662 1087,2662 1087,2759 1146,2759 1174,2765 1200,2777 1222,2796 1238,2819 1249,2845 1252,2874 1252,2893 1261,2893 1261,2903 1427,2903 1427,2831 1513,2831 1513,2712" stroke="rgb(none)" stroke-width="0.0" fill="0,0,0" />
<polygon id="06-6003A" points="1892,2720 1696,2720 1696,2897 1822,2897 1822,2849 1828,2849 1828,2897 1892,2897 1892,2830 1898,2830 1898,2788 1892,2788 1892,2720" stroke="rgb(none)" stroke-width="0.0" fill="0,0,0" />
<polygon id="06-6003" points="2094,2769 2103,2769 2103,2729 2094,2729 2094,2717 1898,2717 1898,2897 2071,2897 2077,2897 2077,2821 2094,2821 2094,2769" stroke="rgb(none)" stroke-width="0.0" fill="0,0,0" />
<polygon id="06-6016" points="2042,2456 2053,2456 2053,2410 2045,2410 2008,2409 2008,2420 1983,2420 1983,2548 1898,2548 1898,2594 1892,2594 1892,2548 1852,2548 1852,2584 1841,2584 1841,2687 1898,2687 1898,2711 2042,2711 2042,2456" stroke="rgb(none)" stroke-width="0.0" fill="0,0,0" />
<polygon id="06-6017" points="1525,2485 1520,2485 1520,2475 1380,2475 1380,2539 1520,2539 1520,2527 1525,2527 1525,2485" stroke="rgb(none)" stroke-width="0.0" fill="0,0,0" />
<polygon id="06-6010" points="1520,2327 1525,2327 1525,2286 1520,2286 1520,2278 1380,2278 1380,2463 1520,2463 1520,2424 1506,2424 1506,2404 1520,2404 1520,2327" stroke="rgb(none)" stroke-width="0.0" fill="0,0,0" />
<polygon id="06-6204" points="1352,2069 1346,2075 1334,2064 1246,2064 1246,2197 1258,2198 1371,2200 1371,2101 1377,2094 1352,2069" stroke="rgb(none)" stroke-width="0.0" fill="0,0,0" />
<polygon id="06-6202" points="1525,2107 1513,2105 1380,2103 1380,2139 1435,2139 1435,2199 1495,2198 1513,2197 1513,2149 1525,2149 1525,2107" stroke="rgb(none)" stroke-width="0.0" fill="0,0,0" />
<polygon id="06-6206" points="1371,1966 1371,1928 1268,1928 1268,1956 1247,1956 1246,1971 1246,2055 1334,2055 1346,2044 1352,2050 1377,2024 1371,2018 1371,1966" stroke="rgb(none)" stroke-width="0.0" fill="0,0,0" />
<polygon id="06-6208" points="1525,1969 1513,1969 1513,1938 1493,1938 1493,1928 1435,1928 1435,1979 1380,1979 1380,2015 1513,2013 1525,2011 1525,1969" stroke="rgb(none)" stroke-width="0.0" fill="0,0,0" />
<polygon id="06-6201" points="1700,1940 1623,1940 1623,2041 1611,2041 1611,2083 1623,2083 1623,2089 1700,2089 1700,1940" stroke="rgb(none)" stroke-width="0.0" fill="0,0,0" />
<polygon id="06-6201A" points="1882,1957 1860,1957 1860,1933 1882,1933 1882,1691 1846,1691 1846,1684 1623,1684 1623,1800 1611,1800 1611,1842 1623,1842 1623,1928 1712,1928 1712,2041 1700,2041 1700,2083 1712,2083 1712,2089 1882,2089 1882,1957" stroke="rgb(none)" stroke-width="0.0" fill="0,0,0" />
<polygon id="06-6210" points="1513,1839 1495,1839 1495,1830 1513,1830 1513,1826 1525,1826 1525,1784 1513,1784 1513,1735 1525,1735 1525,1693 1513,1693 1513,1686 1486,1686 1486,1674 1373,1672 1270,1670 1270,1693 1246,1693 1246,1916 1513,1916 1513,1839" stroke="rgb(none)" stroke-width="0.0" fill="0,0,0" />
<polygon id="06-6203" points="1881,1546 1686,1546 1686,1581 1704,1581 1704,1587 1686,1587 1686,1609 1623,1609 1623,1620 1611,1620 1611,1668 1623,1670 1664,1672 1664,1684 1706,1684 1706,1672 1881,1672 1881,1546" stroke="rgb(none)" stroke-width="0.0" fill="0,0,0" />
<polygon id="06-6216B" points="1373,1568 1373,1531 1331,1531 1331,1538 1283,1538 1283,1550 1247,1550 1247,1658 1373,1658 1373,1568" stroke="rgb(none)" stroke-width="0.0" fill="0,0,0" />
<polygon id="06-6216A" points="1373,1376 1260,1376 1260,1395 1247,1395 1247,1538 1271,1538 1271,1526 1326,1526 1334,1525 1334,1531 1370,1531 1372,1525 1373,1519 1385,1519 1385,1477 1373,1477 1373,1376" stroke="rgb(none)" stroke-width="0.0" fill="0,0,0" />
<polygon id="06-6218" points="1525,1393 1513,1392 1495,1391 1495,1370 1449,1370 1449,1427 1513,1427 1513,1417 1525,1417 1525,1393" stroke="rgb(none)" stroke-width="0.0" fill="0,0,0" />
<polygon id="06-6220" points="1525,937 1513,937 1513,927 1497,927 1497,918 1513,918 1513,885 1497,885 1497,876 1513,876 1513,838 1497,838 1497,822 1262,822 1262,837 1247,837 1247,1077 1268,1077 1268,1101 1247,1101 1247,1364 1513,1364 1513,1317 1494,1317 1494,1308 1513,1308 1513,1281 1494,1281 1494,1272 1513,1272 1513,1239 1525,1239 1525,1203 1513,1203 1513,1181 1497,1181 1497,1172 1513,1172 1513,1107 1497,1107 1497,1097 1487,1097 1487,1091 1423,1091 1423,1077 1441,1077 1441,1008 1423,1008 1423,996 1513,996 1513,973 1525,973 1525,937" stroke="rgb(none)" stroke-width="0.0" fill="0,0,0" />
<polygon id="06-6215" points="1880,1102 1851,1102 1851,1091 1639,1091 1639,1107 1623,1107 1623,1172 1639,1172 1639,1181 1623,1183 1611,1185 1611,1221 1623,1223 1730,1225 1730,1245 1768,1245 1768,1225 1880,1225 1880,1102" stroke="rgb(none)" stroke-width="0.0" fill="0,0,0" />
<polygon id="06-6213" points="1718,1237 1623,1237 1623,1294 1611,1294 1611,1330 1623,1330 1623,1392 1658,1392 1658,1404 1694,1404 1694,1392 1718,1392 1718,1237" stroke="rgb(none)" stroke-width="0.0" fill="0,0,0" />
<polygon id="06-6209" points="1881,1336 1870,1336 1870,1316 1880,1316 1880,1305 1809,1305 1811,1392 1813,1404 1855,1404 1855,1392 1881,1392 1881,1336" stroke="rgb(none)" stroke-width="0.0" fill="0,0,0" />
<polygon id="06-6211" points="1797,1305 1768,1305 1768,1257 1730,1257 1732,1392 1734,1404 1776,1404 1776,1392 1797,1392 1797,1305" stroke="rgb(none)" stroke-width="0.0" fill="0,0,0" />
<polygon id="06-6217" points="1880,942 1880,838 1856,838 1856,822 1691,822 1691,898 1720,926 1713,933 1682,901 1682,822 1639,822 1639,838 1623,838 1623,876 1639,876 1639,885 1623,885 1623,918 1639,918 1639,927 1623,927 1623,937 1611,937 1611,973 1623,973 1623,996 1713,996 1713,1008 1695,1008 1695,1077 1880,1077 1880,951 1775,951 1753,973 1747,966 1771,942 1880,942" stroke="rgb(none)" stroke-width="0.0" fill="0,0,0" />
<polygon id="06-6224" points="1441,636 1441,568 1260,568 1260,575 1247,575 1247,679 1361,679 1383,658 1389,664 1365,688 1247,688 1247,808 1445,808 1445,733 1417,705 1423,698 1454,729 1454,808 1513,808 1513,756 1497,756 1497,747 1513,747 1513,714 1497,714 1497,705 1513,705 1513,695 1525,695 1525,659 1513,659 1513,648 1423,648 1423,636 1441,636" stroke="rgb(none)" stroke-width="0.0" fill="0,0,0" />
<polygon id="06-6004" points="2010,2273 2070,2273 2070,2218 1961,2218 1961,2224 1950,2224 1950,2218 1891,2218 1891,2261 1950,2261 1950,2255 1961,2255 1961,2261 2010,2261 2010,2273" stroke="rgb(none)" stroke-width="0.0" fill="0,0,0" />
<polygon id="06-6117" points="3738,2090 3589,2090 3589,2269 3683,2269 3683,2274 3653,2274 3653,2336 3696,2336 3696,2341 3733,2341 3733,2336 3738,2336 3738,2090" stroke="rgb(none)" stroke-width="0.0" fill="0,0,0" />
<polygon id="06-6139" points="2545,2788 2471,2788 2471,2816 2466,2816 2466,2788 2458,2788 2458,2783 2423,2783 2423,2788 2416,2788 2416,2990 2358,2990 2358,3036 2516,3036 2516,3025 2532,3025 2532,3014 2545,3014 2545,2788" stroke="rgb(none)" stroke-width="0.0" fill="0,0,0" />
<polygon id="06-6137" points="2690,2859 2596,2859 2596,2854 2633,2854 2633,2788 2594,2788 2594,2783 2559,2783 2559,2788 2550,2788 2550,3014 2562,3014 2562,3025 2690,3025 2690,2859" stroke="rgb(none)" stroke-width="0.0" fill="0,0,0" />
<polygon id="06-6135" points="2843,2788 2835,2788 2835,2783 2800,2783 2800,2788 2765,2788 2765,2854 2794,2854 2794,2859 2695,2859 2695,3025 2832,3025 2832,3014 2843,3014 2843,2788" stroke="rgb(none)" stroke-width="0.0" fill="0,0,0" />
<polygon id="06-6133" points="2989,2926 2913,2926 2913,2879 2909,2879 2904,2860 2909,2842 2913,2842 2913,2788 2900,2788 2900,2783 2854,2783 2854,2788 2848,2788 2848,3014 2861,3014 2861,3025 2989,3025 2989,2926" stroke="rgb(none)" stroke-width="0.0" fill="0,0,0" />
<polygon id="06-6131" points="3137,2931 3075,2931 3075,2894 3049,2894 3049,2889 3075,2889 3075,2852 3065,2852 3065,2788 3053,2788 3053,2783 3007,2783 3007,2788 3000,2788 2999,2852 2998,2889 3004,2889 3004,2894 2998,2894 2998,3025 3135,3025 3136,3018 3137,2931" stroke="rgb(none)" stroke-width="0.0" fill="0,0,0" />
<polygon id="06-6129" points="3288,2859 3194,2859 3194,2854 3231,2854 3231,2788 3192,2788 3192,2783 3157,2783 3157,2788 3142,2788 3142,3018 3158,3018 3158,3025 3288,3025 3288,2859" stroke="rgb(none)" stroke-width="0.0" fill="0,0,0" />
<polygon id="06-6127" points="3444,2788 3426,2788 3426,2783 3391,2783 3391,2788 3361,2788 3361,2854 3391,2854 3391,2859 3293,2859 3293,3025 3435,3025 3435,3019 3444,3019 3444,2788" stroke="rgb(none)" stroke-width="0.0" fill="0,0,0" />
<polygon id="06-6125" points="3568,2859 3486,2859 3486,2854 3516,2854 3516,2788 3492,2788 3492,2783 3457,2783 3457,2788 3449,2788 3449,3019 3458,3019 3458,3025 3590,3025 3590,2906 3568,2906 3568,2859" stroke="rgb(none)" stroke-width="0.0" fill="0,0,0" />
<polygon id="06-6123" points="3767,2788 3635,2788 3635,2783 3600,2783 3600,2788 3595,2788 3595,2859 3573,2859 3573,2901 3595,2901 3595,3025 3735,3025 3735,3019 3767,3019 3767,2788" stroke="rgb(none)" stroke-width="0.0" fill="0,0,0" />
<polygon id="06-6143" points="2411,2788 2383,2788 2383,2783 2352,2783 2352,2788 2335,2788 2335,2801 2324,2801 2324,2788 2283,2788 2283,2949 2324,2949 2324,2935 2334,2935 2334,2949 2358,2949 2358,2981 2411,2981 2411,2950 2389,2950 2389,2942 2411,2942 2411,2788" stroke="rgb(none)" stroke-width="0.0" fill="0,0,0" />
<polygon id="06-6149" points="2182,2835 2178,2823 2142,2823 2142,2835 2103,2835 2103,3026 2171,3026 2171,3035 2182,3035 2182,2835" stroke="rgb(none)" stroke-width="0.0" fill="0,0,0" />
<polygon id="06-6102" points="2647,2435 2601,2435 2601,2430 2565,2430 2565,2435 2557,2435 2557,2550 2647,2550 2647,2435" stroke="rgb(none)" stroke-width="0.0" fill="0,0,0" />
<polygon id="06-6104" points="2743,2435 2739,2430 2703,2430 2703,2435 2659,2435 2659,2550 2743,2550 2743,2435" stroke="rgb(none)" stroke-width="0.0" fill="0,0,0" />
<polygon id="06-6142" points="2647,2562 2557,2562 2557,2678 2565,2678 2565,2685 2601,2685 2601,2678 2647,2678 2647,2562" stroke="rgb(none)" stroke-width="0.0" fill="0,0,0" />
<polygon id="06-6138" points="2770,2570 2743,2570 2743,2562 2659,2562 2659,2678 2718,2678 2718,2685 2766,2685 2768,2678 2770,2570" stroke="rgb(none)" stroke-width="0.0" fill="0,0,0" />
<polygon id="06-6136" points="2851,2570 2779,2570 2781,2678 2783,2685 2819,2685 2819,2678 2833,2678 2835,2660 2851,2659 2851,2570" stroke="rgb(none)" stroke-width="0.0" fill="0,0,0" />
<polygon id="06-6108" points="2889,2509 2898,2509 2898,2546 2945,2546 2945,2537 2970,2537 2970,2514 2945,2514 2945,2505 2970,2505 2970,2435 2857,2435 2857,2458 2833,2458 2831,2435 2829,2430 2799,2430 2799,2435 2755,2435 2755,2558 2889,2558 2889,2509" stroke="rgb(none)" stroke-width="0.0" fill="0,0,0" />
<polygon id="06-6134" points="3022,2546 2898,2546 2898,2570 2863,2570 2863,2685 3022,2685 3022,2546" stroke="rgb(none)" stroke-width="0.0" fill="0,0,0" />
<polygon id="06-6112" points="3159,2453 3156,2456 3136,2456 3136,2436 3141,2435 3133,2435 3133,2430 3097,2430 3097,2435 3041,2435 3041,2537 3159,2537 3159,2453" stroke="rgb(none)" stroke-width="0.0" fill="0,0,0" />
<polygon id="06-6110" points="3032,2435 3024,2435 3024,2430 2988,2430 2988,2435 2979,2435 2979,2537 3032,2537 3032,2435" stroke="rgb(none)" stroke-width="0.0" fill="0,0,0" />
<polygon id="06-6116" points="3260,2435 3236,2435 3236,2430 3194,2430 3194,2435 3171,2435 3171,2670 3200,2670 3200,2679 3230,2679 3232,2670 3234,2594 3260,2594 3260,2435" stroke="rgb(none)" stroke-width="0.0" fill="0,0,0" />
<polygon id="06-6120" points="3332,2442 3328,2430 3292,2430 3292,2435 3272,2435 3272,2541 3332,2539 3341,2537 3341,2507 3332,2507 3332,2442" stroke="rgb(none)" stroke-width="0.0" fill="0,0,0" />
<polygon id="06-6132" points="3332,2606 3243,2606 3245,2670 3247,2679 3277,2679 3277,2670 3299,2670 3299,2654 3332,2654 3332,2606" stroke="rgb(none)" stroke-width="0.0" fill="0,0,0" />
<polygon id="06-6122" points="3560,2434 3456,2434 3456,2462 3424,2462 3424,2658 3458,2658 3458,2675 3560,2675 3560,2434" stroke="rgb(none)" stroke-width="0.0" fill="0,0,0" />
<polygon id="06-6130" points="3341,2554 3332,2552 3272,2550 3272,2594 3332,2592 3341,2590 3341,2554" stroke="rgb(none)" stroke-width="0.0" fill="0,0,0" />
<polygon id="06-6607" points="4613,3628 4613,3599 4511,3599 4511,3715 4543,3715 4543,3720 4583,3720 4583,3715 4626,3715 4626,3681 4613,3681 4613,3628" stroke="rgb(none)" stroke-width="0.0" fill="0,0,0" />
<polygon id="06-6651" points="4081,3925 4072,3925 4072,3827 4043,3827 4043,3848 3911,3848 3911,3989 3972,3988 4036,3988 4081,3989 4081,3925" stroke="rgb(none)" stroke-width="0.0" fill="0,0,0" />
<polygon id="06-6652" points="4339,3914 4183,3914 4183,3948 4171,3948 4171,3984 4183,3986 4339,3988 4339,3914" stroke="rgb(none)" stroke-width="0.0" fill="0,0,0" />
<polygon id="06-6650" points="4171,4128 4169,3873 4168,3869 4084,3869 4082,3873 4081,4637 4171,4637 4171,4268 4417,4268 4417,4170 4363,4170 4363,4146 4292,4146 4292,4170 4171,4170 4171,4128" stroke="rgb(none)" stroke-width="0.0" fill="0,0,0" />
<polygon id="06-6606" points="4645,3913 4645,3853 4602,3853 4602,3841 4566,3841 4564,3853 4562,3989 4660,3989 4660,3958 4645,3958 4645,3913" stroke="rgb(none)" stroke-width="0.0" fill="0,0,0" />
<polygon id="06-6606A" points="4730,3913 4724,3913 4724,3853 4654,3853 4654,3913 4645,3913 4645,3949 4669,3949 4669,3989 4705,3989 4705,3958 4724,3958 4724,3949 4730,3949 4730,3913" stroke="rgb(none)" stroke-width="0.0" fill="0,0,0" />
<polygon id="06-6658" points="4589,4200 4580,4200 4580,4173 4426,4173 4426,4200 4417,4200 4417,4236 4426,4236 4426,4265 4580,4265 4580,4236 4589,4236 4589,4200" stroke="rgb(none)" stroke-width="0.0" fill="0,0,0" />
<polygon id="06-6658A" points="4489,4274 4417,4274 4417,4268 4369,4268 4369,4274 4345,4274 4345,4338 4369,4338 4369,4399 4489,4399 4489,4274" stroke="rgb(none)" stroke-width="0.0" fill="0,0,0" />
<polygon id="06-6662" points="4489,4408 4300,4408 4300,4530 4341,4530 4341,4539 4389,4539 4389,4530 4507,4530 4507,4488 4489,4488 4489,4408" stroke="rgb(none)" stroke-width="0.0" fill="0,0,0" />
<polygon id="06-6678" points="4655,4274 4651,4274 4651,4268 4589,4268 4589,4274 4498,4274 4498,4458 4516,4458 4516,4530 4655,4530 4655,4274" stroke="rgb(none)" stroke-width="0.0" fill="0,0,0" />
<polygon id="06-6660" points="4627,4568 4627,4539 4171,4539 4171,4637 4545,4636 4623,4635 4627,4634 4627,4568" stroke="rgb(none)" stroke-width="0.0" fill="0,0,0" />
<polygon id="06-6653" points="4072,3998 4036,3999 3972,3999 3911,3998 3911,4161 4001,4161 4001,4134 4081,4134 4081,4075 4072,4075 4072,3998" stroke="rgb(none)" stroke-width="0.0" fill="0,0,0" />
<polygon id="06-6655" points="4072,4143 4043,4143 4043,4170 3911,4170 3911,4309 3972,4308 4036,4308 4081,4309 4081,4248 4072,4248 4072,4143" stroke="rgb(none)" stroke-width="0.0" fill="0,0,0" />
<polygon id="06-6657" points="4081,4395 4072,4395 4072,4318 4036,4319 3972,4319 3911,4318 3911,4474 4001,4474 4001,4454 4081,4454 4081,4395" stroke="rgb(none)" stroke-width="0.0" fill="0,0,0" />
<polygon id="06-6659" points="4081,4563 4072,4563 4072,4463 4043,4463 4043,4489 3911,4489 3911,4637 4081,4637 4081,4563" stroke="rgb(none)" stroke-width="0.0" fill="0,0,0" />
<polygon id="06-6661" points="4072,4685 4081,4685 4081,4637 4031,4637 4031,4646 3911,4646 3911,4818 4072,4818 4072,4685" stroke="rgb(none)" stroke-width="0.0" fill="0,0,0" />
<polygon id="06-6663" points="4257,4776 4281,4776 4280,4707 4279,4676 4285,4676 4285,4637 4081,4637 4081,4818 4257,4818 4257,4776" stroke="rgb(none)" stroke-width="0.0" fill="0,0,0" />
<polygon id="06-6665" points="4545,4707 4544,4676 4545,4637 4285,4637 4285,4676 4292,4676 4291,4707 4290,4818 4489,4818 4489,4788 4509,4788 4509,4818 4545,4818 4545,4707" stroke="rgb(none)" stroke-width="0.0" fill="0,0,0" />
<polygon id="06-6667" points="4722,4643 4623,4643 4623,4636 4554,4636 4555,4676 4555,4707 4554,4818 4699,4818 4699,4788 4722,4788 4722,4643" stroke="rgb(none)" stroke-width="0.0" fill="0,0,0" />
<polygon id="06-6654" points="4339,4000 4171,4000 4171,4128 4180,4128 4180,4161 4268,4161 4268,4134 4339,4134 4339,4000" stroke="rgb(none)" stroke-width="0.0" fill="0,0,0" />
<polygon id="06-6115" points="3584,2090 3461,2090 3461,2098 3449,2098 3450,2336 3452,2341 3488,2341 3488,2336 3511,2336 3511,2274 3485,2274 3485,2269 3584,2269 3584,2090" stroke="rgb(none)" stroke-width="0.0" fill="0,0,0" />
<polygon id="06-6113" points="3444,2098 3431,2098 3431,2090 3294,2090 3294,2269 3391,2269 3391,2274 3368,2274 3368,2336 3404,2336 3404,2341 3440,2341 3442,2336 3444,2098" stroke="rgb(none)" stroke-width="0.0" fill="0,0,0" />
<polygon id="06-6111" points="3289,2090 3160,2090 3160,2098 3149,2098 3149,2336 3154,2336 3154,2341 3190,2341 3190,2336 3215,2336 3215,2274 3188,2274 3188,2269 3289,2269 3289,2090" stroke="rgb(none)" stroke-width="0.0" fill="0,0,0" />
<polygon id="06-6109" points="3144,2098 3130,2098 3130,2090 2993,2090 2993,2269 3091,2269 3091,2274 3061,2274 3061,2336 3098,2336 3098,2341 3135,2341 3135,2336 3144,2336 3144,2098" stroke="rgb(none)" stroke-width="0.0" fill="0,0,0" />
<polygon id="06-6107" points="2988,2090 2861,2090 2861,2098 2830,2098 2830,2090 2698,2090 2698,2230 2754,2230 2754,2239 2698,2239 2698,2281 2745,2281 2745,2303 2752,2303 2753,2281 2754,2309 2745,2309 2745,2341 2878,2341 2878,2263 2988,2263 2988,2090" stroke="rgb(none)" stroke-width="0.0" fill="0,0,0" />
<polygon id="06-6105" points="2620,2274 2592,2274 2592,2269 2693,2269 2693,2090 2561,2090 2561,2099 2549,2099 2549,2336 2555,2336 2555,2341 2591,2341 2591,2336 2620,2336 2620,2274" stroke="rgb(none)" stroke-width="0.0" fill="0,0,0" />
<polygon id="06-6103" points="2544,2099 2531,2099 2531,2090 2397,2090 2397,2269 2496,2269 2496,2274 2472,2274 2472,2336 2502,2336 2502,2341 2538,2341 2538,2336 2544,2336 2544,2099" stroke="rgb(none)" stroke-width="0.0" fill="0,0,0" />
<polygon id="06-6101" points="2392,2089 2354,2089 2354,2078 2288,2078 2288,2089 2260,2089 2260,2099 2248,2099 2250,2327 2252,2341 2288,2341 2288,2327 2303,2327 2303,2315 2312,2315 2312,2327 2392,2327 2392,2089" stroke="rgb(none)" stroke-width="0.0" fill="0,0,0" />
<polygon id="06-6101B" points="2236,2099 2233,2089 2210,2089 2210,2078 2160,2078 2160,2089 2106,2089 2106,2164 2236,2162 2248,2160 2248,2118 2236,2118 2236,2099" stroke="rgb(none)" stroke-width="0.0" fill="0,0,0" />
<polygon id="06-6101A" points="2248,2211 2236,2211 2236,2176 2106,2176 2106,2259 2236,2259 2236,2253 2248,2253 2248,2211" stroke="rgb(none)" stroke-width="0.0" fill="0,0,0" />
<polygon id="06-6012A" points="1301,2383 1292,2381 1269,2379 1216,2327 1196,2342 1172,2352 1147,2356 1087,2356 1087,2458 1097,2458 1097,2473 1247,2473 1247,2457 1292,2457 1292,2419 1301,2419 1301,2383" stroke="rgb(none)" stroke-width="0.0" fill="0,0,0" />
<polygon id="06-6012B" points="1369,2258 1369,2217 1258,2218 1246,2220 1246,2256 1243,2279 1235,2301 1222,2320 1272,2370 1320,2370 1320,2379 1362,2379 1362,2370 1369,2370 1369,2258" stroke="rgb(none)" stroke-width="0.0" fill="0,0,0" />
<polygon id="06-6016A" points="1836,2631 1841,2631 1841,2584 1675,2584 1675,2687 1836,2687 1836,2631" stroke="rgb(none)" stroke-width="0.0" fill="0,0,0" />
<polygon id="06-6219" points="1879,679 1879,575 1862,575 1862,567 1695,567 1695,636 1713,636 1713,648 1623,648 1623,659 1611,659 1611,695 1623,695 1623,705 1639,705 1639,714 1623,714 1623,747 1639,747 1639,756 1623,756 1623,808 1682,808 1682,729 1713,698 1720,705 1691,733 1691,808 1879,808 1879,688 1771,688 1747,664 1753,658 1775,679 1879,679" stroke="rgb(none)" stroke-width="0.0" fill="0,0,0" />
<polygon id="06-6216" points="1525,1477 1513,1477 1513,1433 1385,1433 1385,1523 1513,1521 1525,1519 1525,1477" stroke="rgb(none)" stroke-width="0.0" fill="0,0,0" />
<polygon id="06-6215A" points="1880,1237 1859,1237 1859,1225 1811,1225 1811,1237 1780,1237 1780,1293 1880,1293 1880,1237" stroke="rgb(none)" stroke-width="0.0" fill="0,0,0" />
<polygon id="06-6134A" points="3159,2546 3022,2546 3022,2685 3133,2685 3133,2655 3159,2655 3159,2546" stroke="rgb(none)" stroke-width="0.0" fill="0,0,0" />
<polygon id="06-6650A" points="4346,4354 4336,4354 4336,4268 4171,4268 4171,4539 4267,4539 4267,4530 4291,4530 4291,4399 4346,4399 4346,4354" stroke="rgb(none)" stroke-width="0.0" fill="0,0,0" />
<polygon id="06-6604" points="4553,3853 4549,3841 4513,3841 4513,3853 4471,3853 4471,3989 4553,3989 4553,3853" stroke="rgb(none)" stroke-width="0.0" fill="0,0,0" />
<polygon id="06-6702" points="6014,3847 6014,3841 5990,3841 5990,3826 5925,3825 5778,3823 5778,3817 5732,3817 5731,3823 5730,3841 5706,3841 5706,3951 5730,3951 5730,3963 5787,3963 5788,3971 5837,3971 5933,3971 5980,3971 5982,3963 5990,3963 5990,3951 6014,3951 6014,3847" stroke="rgb(none)" stroke-width="0.0" fill="0,0,0" />
<polygon id="06-6701A" points="5826,3563 5831,3563 5831,3521 5826,3521 5826,3406 5810,3406 5810,3395 5763,3395 5763,3401 5706,3401 5706,3459 5730,3459 5730,3483 5706,3483 5706,3683 5730,3683 5730,3715 5826,3715 5828,3670 5828,3634 5826,3563" stroke="rgb(none)" stroke-width="0.0" fill="0,0,0" />
<polygon id="06-6701" points="5979,3610 5891,3610 5891,3605 5833,3605 5832,3610 5830,3634 5830,3670 5832,3711 5833,3717 5885,3717 5885,3711 5979,3711 5979,3610" stroke="rgb(none)" stroke-width="0.0" fill="0,0,0" />
<polygon id="06-6701B" points="6194,3401 6058,3401 6058,3521 6053,3521 6053,3401 6014,3401 6014,3425 5990,3425 5990,3401 5861,3401 5861,3395 5815,3395 5815,3401 5831,3401 5831,3605 5893,3605 5893,3581 5898,3581 5898,3605 5979,3605 5979,3581 6014,3581 6014,3588 5984,3588 5984,3683 6014,3683 6014,3716 6194,3716 6194,3401" stroke="rgb(none)" stroke-width="0.0" fill="0,0,0" />
<polygon id="06-6703" points="6379,3541 6303,3541 6303,3425 6251,3425 6251,3401 6199,3401 6199,3716 6249,3716 6249,3683 6275,3683 6275,3716 6325,3716 6325,3721 6377,3721 6378,3716 6379,3541" stroke="rgb(none)" stroke-width="0.0" fill="0,0,0" />
<polygon id="06-6704" points="7188,3823 7186,3817 7146,3817 7146,3823 6869,3823 6869,3841 6845,3841 6845,3823 6769,3823 6769,3817 6731,3817 6730,3823 6730,3841 6711,3841 6711,3913 6729,3915 6711,3917 6711,3935 6730,3935 6730,3972 6745,3976 6760,3980 6760,3986 6759,3992 6804,4002 6807,3996 6806,4002 6852,4011 6854,4005 6854,4011 6899,4018 6901,4012 6901,4018 6947,4023 6948,4017 6949,4023 6995,4026 6996,4020 6997,4026 7043,4027 7044,4021 7045,4027 7091,4027 7092,4021 7093,4027 7139,4024 7139,4018 7141,4024 7187,4020 7187,4014 7189,4020 7201,4019 7201,3987 7188,3987 7188,3823" stroke="rgb(none)" stroke-width="0.0" fill="0,0,0" />
<polygon id="06-6744" points="6947,3284 6947,3273 6831,3274 6825,3275 6825,3327 6831,3327 6831,3424 6843,3424 6843,3397 6872,3397 6872,3424 6906,3424 6947,3396 6947,3284" stroke="rgb(none)" stroke-width="0.0" fill="0,0,0" />
<polygon id="06-6710" points="7905,3168 7755,3170 7748,3172 7708,3172 7699,3172 7659,3172 7400,3172 7375,3172 7375,3157 7220,3157 7167,3157 7137,3157 7030,3157 7021,3157 6949,3157 6949,3172 6825,3172 6825,3268 7034,3268 7034,3273 7050,3271 7218,3271 7234,3273 7234,3268 7459,3268 7459,3273 7485,3272 7629,3272 7655,3272 7728,3271 7744,3271 7856,3270 7905,3268 7905,3168" stroke="rgb(none)" stroke-width="0.0" fill="0,0,0" />
<polygon id="06-6793" points="8286,3620 8281,3615 8267,3615 8254,3616 8216,3616 8216,3579 8001,3579 8000,3518 7999,3512 7947,3512 7947,3518 7933,3518 7905,3518 7870,3518 7870,3682 7905,3682 7905,3708 7867,3708 7867,3758 7868,3765 7917,3770 7965,3772 8013,3773 8061,3770 8108,3766 8155,3759 8202,3751 8249,3740 8292,3727 8286,3709 8286,3620" stroke="rgb(none)" stroke-width="0.0" fill="0,0,0" />
<polygon id="06-6791" points="8150,3466 8147,3462 8162,3446 8132,3416 8117,3431 8102,3416 8007,3417 8001,3418 8001,3470 8007,3470 8007,3565 8029,3565 8029,3573 8221,3573 8221,3611 8267,3611 8267,3489 8267,3484 8259,3484 8259,3500 8184,3500 8150,3466" stroke="rgb(none)" stroke-width="0.0" fill="0,0,0" />
<polygon id="06-6791A" points="8178,3494 8183,3490 8187,3494 8254,3494 8254,3458 8227,3457 8230,3453 8254,3453 8254,3416 8210,3416 8211,3433 8207,3436 8205,3416 8167,3416 8167,3449 8150,3466 8178,3494" stroke="rgb(none)" stroke-width="0.0" fill="0,0,0" />
<polygon id="06-6789" points="8267,3263 8206,3265 8195,3265 8190,3263 8190,3240 8111,3240 8111,3263 8005,3264 8000,3265 8000,3317 8007,3318 8007,3329 8005,3411 8259,3411 8259,3389 8267,3387 8267,3263" stroke="rgb(none)" stroke-width="0.0" fill="0,0,0" />
<polygon id="06-6789A" points="8143,3196 8106,3196 8106,3172 8017,3172 8017,3215 8008,3215 8008,3258 8056,3258 8056,3263 8096,3263 8096,3258 8106,3258 8106,3232 8143,3232 8143,3196" stroke="rgb(none)" stroke-width="0.0" fill="0,0,0" />
<polygon id="06-6787A" points="8254,3172 8252,3167 8212,3167 8212,3172 8194,3172 8194,3196 8154,3196 8154,3232 8194,3232 8194,3256 8226,3256 8226,3247 8254,3247 8254,3172" stroke="rgb(none)" stroke-width="0.0" fill="0,0,0" />
<polygon id="06-6721" points="7780,3055 7738,3055 7738,3037 7706,3037 7707,3166 7708,3172 7748,3172 7748,3163 7780,3163 7780,3055" stroke="rgb(none)" stroke-width="0.0" fill="0,0,0" />
<polygon id="06-6719" points="7701,3037 7668,3037 7668,3055 7627,3055 7627,3166 7659,3166 7659,3172 7699,3172 7700,3166 7701,3037" stroke="rgb(none)" stroke-width="0.0" fill="0,0,0" />
<polygon id="06-6785A" points="8133,2776 8017,2776 8017,2819 8008,2819 8008,2862 8056,2862 8056,2867 8096,2867 8096,2862 8096,2836 8133,2836 8133,2776" stroke="rgb(none)" stroke-width="0.0" fill="0,0,0" />
<polygon id="06-6783A" points="8254,2776 8252,2771 8212,2771 8212,2776 8195,2776 8195,2800 8155,2800 8155,2836 8195,2836 8195,2859 8227,2859 8227,2851 8254,2851 8254,2776" stroke="rgb(none)" stroke-width="0.0" fill="0,0,0" />
<polygon id="06-6781A" points="8254,2391 8226,2391 8226,2382 8194,2382 8194,2407 8154,2407 8154,2443 8194,2443 8194,2466 8212,2466 8212,2471 8252,2471 8253,2466 8254,2391" stroke="rgb(none)" stroke-width="0.0" fill="0,0,0" />
<polygon id="06-6779A" points="8143,2406 8106,2406 8106,2380 8096,2380 8096,2375 8056,2375 8056,2380 8009,2380 8009,2423 8017,2423 8017,2466 8106,2466 8106,2443 8143,2443 8143,2406" stroke="rgb(none)" stroke-width="0.0" fill="0,0,0" />
<polygon id="06-6777A" points="8524,2054 8519,2053 8521,2044 8495,2038 8503,2002 8468,1994 8460,2031 8437,2026 8418,2113 8460,2122 8458,2131 8500,2140 8510,2092 8515,2094 8524,2054" stroke="rgb(none)" stroke-width="0.0" fill="0,0,0" />
<polygon id="06-6775A" points="8454,1919 8459,1920 8455,1939 8478,1944 8470,1983 8505,1991 8513,1952 8544,1958 8551,1927 8535,1924 8541,1896 8468,1881 8466,1885 8462,1884 8454,1919" stroke="rgb(none)" stroke-width="0.0" fill="0,0,0" />
<polygon id="06-6773A" points="8118,1856 8113,1855 8038,1854 8038,1882 8030,1882 8030,1914 8053,1914 8053,1954 8089,1954 8089,1914 8113,1914 8113,1896 8118,1896 8118,1856" stroke="rgb(none)" stroke-width="0.0" fill="0,0,0" />
<polygon id="06-6771A" points="8113,1976 8053,1976 8053,2012 8027,2012 8022,2013 8022,2053 8027,2053 8027,2101 8070,2101 8070,2092 8113,2092 8113,1976" stroke="rgb(none)" stroke-width="0.0" fill="0,0,0" />
<polygon id="06-6769A" points="7689,1965 7653,1965 7653,2003 7629,2003 7629,2092 7672,2092 7672,2101 7715,2101 7715,2053 7720,2053 7720,2013 7715,2013 7715,2003 7689,2003 7689,1965" stroke="rgb(none)" stroke-width="0.0" fill="0,0,0" />
<polygon id="06-6767A" points="7713,1882 7704,1882 7704,1854 7629,1855 7624,1856 7624,1896 7629,1896 7629,1914 7653,1914 7653,1954 7689,1954 7689,1914 7713,1914 7713,1882" stroke="rgb(none)" stroke-width="0.0" fill="0,0,0" />
<polygon id="06-6765A" points="7301,2013 7296,2013 7296,2003 7270,2003 7270,1965 7234,1965 7234,2003 7210,2003 7210,2092 7253,2092 7253,2101 7296,2101 7296,2053 7301,2053 7301,2013" stroke="rgb(none)" stroke-width="0.0" fill="0,0,0" />
<polygon id="06-6763A" points="7294,1882 7285,1882 7285,1854 7210,1855 7205,1856 7205,1896 7210,1896 7210,1914 7234,1914 7234,1954 7270,1954 7270,1914 7294,1914 7294,1882" stroke="rgb(none)" stroke-width="0.0" fill="0,0,0" />
<polygon id="06-6759A" points="6898,1882 6889,1882 6889,1854 6814,1855 6809,1856 6809,1896 6814,1896 6814,1914 6838,1914 6838,1954 6874,1954 6874,1914 6898,1914 6898,1882" stroke="rgb(none)" stroke-width="0.0" fill="0,0,0" />
<polygon id="06-6761A" points="6905,2013 6900,2012 6874,2012 6874,1976 6814,1976 6814,2092 6857,2092 6857,2101 6900,2101 6900,2053 6905,2053 6905,2013" stroke="rgb(none)" stroke-width="0.0" fill="0,0,0" />
<polygon id="06-6757A" points="6504,1896 6509,1896 6509,1856 6504,1855 6438,1854 6429,1854 6429,1887 6421,1887 6421,1919 6445,1919 6445,1959 6481,1959 6481,1919 6504,1919 6504,1896" stroke="rgb(none)" stroke-width="0.0" fill="0,0,0" />
<polygon id="06-6755A" points="6270,2123 6258,2123 6258,2082 6198,2082 6198,2118 6193,2118 6193,2082 6130,2082 6132,2171 6134,2189 6270,2188 6275,2187 6275,2147 6270,2147 6270,2123" stroke="rgb(none)" stroke-width="0.0" fill="0,0,0" />
<polygon id="06-6753A" points="6721,2380 6673,2380 6673,2375 6633,2375 6633,2380 6623,2380 6623,2406 6586,2406 6586,2442 6623,2442 6623,2466 6712,2466 6712,2423 6721,2423 6721,2380" stroke="rgb(none)" stroke-width="0.0" fill="0,0,0" />
<polygon id="06-6751A" points="6574,2407 6534,2407 6534,2382 6502,2382 6502,2391 6474,2391 6476,2466 6477,2471 6517,2471 6517,2466 6534,2466 6534,2443 6574,2443 6574,2407" stroke="rgb(none)" stroke-width="0.0" fill="0,0,0" />
<polygon id="06-6749A" points="6574,2800 6534,2800 6534,2776 6517,2776 6517,2771 6477,2771 6475,2776 6474,2851 6502,2851 6502,2860 6534,2860 6534,2836 6574,2836 6574,2800" stroke="rgb(none)" stroke-width="0.0" fill="0,0,0" />
<polygon id="06-6747A" points="6721,2819 6712,2819 6712,2776 6596,2776 6596,2836 6632,2836 6633,2862 6633,2867 6673,2867 6673,2862 6721,2862 6721,2819" stroke="rgb(none)" stroke-width="0.0" fill="0,0,0" />
<polygon id="06-6743A" points="6721,3215 6712,3215 6712,3172 6623,3172 6623,3196 6586,3196 6586,3232 6623,3232 6623,3258 6633,3258 6633,3263 6673,3263 6673,3258 6721,3258 6721,3215" stroke="rgb(none)" stroke-width="0.0" fill="0,0,0" />
<polygon id="06-6745A" points="6574,3196 6534,3196 6534,3172 6517,3172 6517,3167 6477,3167 6475,3172 6474,3247 6502,3247 6502,3256 6534,3256 6534,3232 6574,3232 6574,3196" stroke="rgb(none)" stroke-width="0.0" fill="0,0,0" />
<polygon id="06-6713" points="7102,3040 7060,3040 7060,3022 7028,3022 7029,3151 7030,3157 7070,3157 7070,3151 7102,3151 7102,3040" stroke="rgb(none)" stroke-width="0.0" fill="0,0,0" />
<polygon id="06-6711" points="7023,3022 6988,3022 6988,3040 6949,3040 6949,3151 6981,3151 6981,3157 7021,3157 7022,3151 7023,3022" stroke="rgb(none)" stroke-width="0.0" fill="0,0,0" />
<polygon id="06-6780" points="8001,2573 8002,2440 8002,2381 8001,2204 7905,2204 7903,2423 7901,2484 7901,2602 7883,2602 7883,2666 7905,2666 7905,3268 7905,3428 7870,3428 7870,3512 7905,3512 7933,3512 8000,3512 8000,3418 8000,3329 8000,3317 8000,3167 8001,3032 8001,2932 8001,2868 8001,2769 8001,2573" stroke="rgb(none)" stroke-width="0.0" fill="0,0,0" />
<polygon id="06-6770" points="7489,2104 7489,2208 7539,2206 8007,2204 8007,2227 8115,2227 8115,2204 8206,2204 8206,2228 8254,2228 8254,2200 8280,2200 8280,2234 8356,2250 8356,2258 8402,2269 8450,2279 8496,2289 8543,2299 8590,2308 8593,2301 8611,2304 8614,2287 8627,2290 8651,2180 8309,2108 7624,2106 7489,2104" stroke="rgb(none)" stroke-width="0.0" fill="0,0,0" />
<polygon id="06-6760" points="7489,2104 7438,2106 7355,2108 7301,2108 7055,2108 6971,2108 6959,2108 6905,2108 6809,2108 6489,2108 6489,2205 6728,2204 7480,2206 7489,2208 7489,2104" stroke="rgb(none)" stroke-width="0.0" fill="0,0,0" />
<polygon id="06-6740" points="6728,2204 6728,3721 6825,3721 6825,2204 6728,2204" stroke="rgb(none)" stroke-width="0.0" fill="0,0,0" />
<polygon id="06-6787" points="8267,3045 8254,3045 8254,3020 8106,3020 8107,3102 8108,3113 8101,3113 8101,3165 8106,3166 8111,3167 8111,3191 8190,3191 8190,3167 8267,3167 8267,3045" stroke="rgb(none)" stroke-width="0.0" fill="0,0,0" />
<polygon id="06-6743" points="6720,3318 6728,3317 6728,3265 6723,3264 6618,3263 6618,3240 6539,3240 6539,3263 6534,3265 6523,3265 6461,3263 6461,3385 6474,3385 6474,3411 6723,3411 6722,3328 6720,3318" stroke="rgb(none)" stroke-width="0.0" fill="0,0,0" />
<polygon id="06-6745" points="6623,3072 6623,3020 6474,3020 6474,3045 6461,3045 6461,3167 6539,3167 6539,3191 6618,3191 6618,3167 6623,3166 6627,3165 6627,3113 6621,3113 6621,3102 6623,3072" stroke="rgb(none)" stroke-width="0.0" fill="0,0,0" />
<polygon id="06-6747" points="6723,2932 6721,2921 6728,2920 6728,2868 6723,2868 6618,2867 6618,2843 6539,2843 6539,2867 6474,2867 6461,2867 6461,2989 6474,2989 6474,3014 6723,3014 6723,2932" stroke="rgb(none)" stroke-width="0.0" fill="0,0,0" />
<polygon id="06-6749" points="6627,2717 6621,2717 6621,2706 6622,2625 6474,2625 6474,2649 6461,2649 6461,2771 6477,2771 6517,2771 6539,2771 6539,2795 6591,2795 6591,2771 6622,2770 6627,2769 6627,2717" stroke="rgb(none)" stroke-width="0.0" fill="0,0,0" />
<polygon id="06-6751" points="6622,2537 6621,2526 6627,2525 6627,2473 6622,2472 6618,2471 6618,2448 6539,2448 6539,2471 6461,2471 6461,2593 6474,2593 6474,2617 6622,2617 6622,2537" stroke="rgb(none)" stroke-width="0.0" fill="0,0,0" />
<polygon id="06-6753" points="6728,2321 6723,2321 6723,2211 6474,2211 6474,2253 6461,2253 6461,2375 6523,2373 6534,2373 6539,2375 6539,2399 6618,2399 6618,2375 6723,2374 6728,2373 6728,2321" stroke="rgb(none)" stroke-width="0.0" fill="0,0,0" />
<polygon id="06-6755" points="6484,2134 6484,2103 6504,2103 6504,2024 6441,2024 6441,2048 6414,2048 6414,2016 6438,2016 6438,1937 6413,1937 6413,1847 6291,1847 6291,1854 6275,1854 6275,1878 6264,1878 6263,2063 6263,2102 6287,2102 6287,2123 6275,2123 6275,2229 6291,2229 6291,2235 6389,2235 6389,2229 6448,2229 6448,2202 6484,2201 6489,2200 6489,2148 6484,2148 6484,2134" stroke="rgb(none)" stroke-width="0.0" fill="0,0,0" />
<polygon id="06-6757" points="6655,1854 6631,1854 6631,1841 6509,1841 6509,1896 6509,1924 6486,1924 6486,2002 6511,2002 6511,2007 6563,2007 6564,2001 6575,2001 6655,2002 6655,1854" stroke="rgb(none)" stroke-width="0.0" fill="0,0,0" />
<polygon id="06-6759" points="6833,1919 6809,1919 6809,1854 6809,1841 6687,1841 6687,1854 6663,1854 6663,2002 6744,2001 6755,2001 6755,2007 6807,2007 6808,2002 6809,1971 6833,1971 6833,1919" stroke="rgb(none)" stroke-width="0.0" fill="0,0,0" />
<polygon id="06-6761" points="7053,1854 7027,1854 7027,1841 6905,1841 6905,1854 6905,1919 6881,1919 6881,1998 6905,1998 6906,2103 6907,2108 6959,2108 6960,2102 6971,2102 7053,2103 7053,1854" stroke="rgb(none)" stroke-width="0.0" fill="0,0,0" />
<polygon id="06-6763" points="7229,1919 7205,1919 7205,1841 7083,1841 7083,1854 7058,1854 7058,2002 7140,2001 7151,2001 7151,2007 7203,2007 7204,2002 7205,1998 7229,1998 7229,1919" stroke="rgb(none)" stroke-width="0.0" fill="0,0,0" />
<polygon id="06-6765" points="7473,1854 7423,1854 7423,1841 7301,1841 7301,1882 7303,1903 7303,1914 7301,1919 7278,1919 7278,1998 7301,1998 7302,2103 7303,2108 7355,2108 7355,2103 7433,2101 7473,2099 7473,1854" stroke="rgb(none)" stroke-width="0.0" fill="0,0,0" />
<polygon id="06-6767" points="7648,1919 7624,1919 7624,1818 7648,1818 7648,1772 7624,1772 7622,1757 7582,1758 7542,1759 7503,1761 7501,1775 7469,1776 7469,1828 7500,1828 7500,1854 7479,1854 7479,2002 7568,2002 7568,2008 7620,2008 7620,2002 7624,2002 7624,1998 7648,1998 7648,1919" stroke="rgb(none)" stroke-width="0.0" fill="0,0,0" />
<polygon id="06-6769" points="7869,1854 7843,1854 7843,1828 7869,1828 7869,1777 7843,1775 7841,1761 7802,1760 7762,1758 7723,1758 7720,1772 7696,1772 7696,1818 7720,1818 7722,1903 7722,1914 7720,1919 7697,1919 7697,1998 7720,1998 7720,2102 7726,2102 7726,2108 7778,2108 7778,2102 7869,2102 7869,1854" stroke="rgb(none)" stroke-width="0.0" fill="0,0,0" />
<polygon id="06-6771" points="8047,1919 8022,1919 8022,1819 8046,1819 8046,1790 8022,1788 8020,1773 7981,1770 7941,1766 7902,1764 7899,1778 7875,1777 7875,1828 7899,1828 7899,1854 7875,1854 7875,2102 7954,2102 7954,2108 7964,2108 8018,2108 8018,2102 8022,2102 8022,1998 8047,1998 8047,1919" stroke="rgb(none)" stroke-width="0.0" fill="0,0,0" />
<polygon id="06-6773" points="8275,1854 8236,1854 8236,1833 8239,1813 8240,1800 8200,1792 8160,1787 8121,1783 8118,1797 8094,1795 8094,1819 8118,1819 8118,1919 8094,1919 8094,1971 8118,1971 8119,2002 8120,2008 8172,2008 8172,2002 8254,2002 8254,1974 8275,1974 8275,1854" stroke="rgb(none)" stroke-width="0.0" fill="0,0,0" />
<polygon id="06-6777" points="8700,1946 8682,1942 8689,1906 8680,1904 8682,1890 8644,1879 8604,1869 8566,1861 8561,1874 8540,1870 8536,1886 8558,1891 8543,1963 8520,1958 8504,2035 8527,2040 8505,2143 8510,2144 8508,2150 8557,2161 8559,2155 8572,2157 8599,2163 8652,2174 8700,1946" stroke="rgb(none)" stroke-width="0.0" fill="0,0,0" />
<polygon id="06-6775" points="8454,1921 8462,1882 8469,1840 8429,1830 8390,1823 8351,1817 8346,1830 8302,1823 8280,1923 8280,1997 8339,2009 8378,2017 8377,2023 8428,2034 8430,2028 8433,2020 8456,2025 8472,1948 8449,1943 8454,1921" stroke="rgb(none)" stroke-width="0.0" fill="0,0,0" />
<polygon id="06-6779" points="8267,2253 8254,2253 8254,2233 8007,2233 8007,2321 8001,2321 8001,2373 8007,2374 8111,2375 8111,2399 8189,2399 8189,2375 8267,2375 8267,2253" stroke="rgb(none)" stroke-width="0.0" fill="0,0,0" />
<polygon id="06-6781" points="8267,2471 8189,2471 8189,2448 8111,2448 8111,2471 8106,2472 8101,2473 8101,2525 8108,2526 8108,2537 8106,2617 8254,2617 8254,2593 8267,2593 8267,2471" stroke="rgb(none)" stroke-width="0.0" fill="0,0,0" />
<polygon id="06-6783" points="8106,2625 8106,2771 8137,2771 8137,2795 8190,2795 8190,2771 8268,2771 8268,2649 8254,2649 8254,2625 8106,2625" stroke="rgb(none)" stroke-width="0.0" fill="0,0,0" />
<polygon id="06-6785" points="8268,2867 8190,2867 8190,2843 8111,2843 8111,2867 8005,2868 8001,2868 8001,2920 8005,2920 8005,3014 8254,3014 8254,2989 8268,2989 8268,2867" stroke="rgb(none)" stroke-width="0.0" fill="0,0,0" />
<polygon id="06-6780C" points="8101,3072 8101,3020 8006,3020 8006,3032 8001,3032 8001,3167 8101,3167 8101,3113 8101,3102 8101,3072" stroke="rgb(none)" stroke-width="0.0" fill="0,0,0" />
<polygon id="06-6780B" points="8101,2604 8101,2573 8001,2573 8001,2669 8101,2669 8101,2604" stroke="rgb(none)" stroke-width="0.0" fill="0,0,0" />
<polygon id="06-6770C" points="8309,2023 8220,2023 8220,2108 8309,2108 8309,2023" stroke="rgb(none)" stroke-width="0.0" fill="0,0,0" />
<polygon id="06-6770B" points="7624,2008 7479,2008 7479,2100 7491,2100 7491,2104 7624,2104 7624,2008" stroke="rgb(none)" stroke-width="0.0" fill="0,0,0" />
<polygon id="06-6760C" points="7205,2007 7151,2008 7140,2008 7058,2007 7058,2102 7071,2102 7071,2108 7205,2108 7205,2007" stroke="rgb(none)" stroke-width="0.0" fill="0,0,0" />
<polygon id="06-6760B" points="6707,2007 6611,2007 6611,2108 6707,2108 6707,2007" stroke="rgb(none)" stroke-width="0.0" fill="0,0,0" />
<polygon id="06-6740C" points="6728,2573 6627,2573 6627,2669 6728,2669 6728,2573" stroke="rgb(none)" stroke-width="0.0" fill="0,0,0" />
<polygon id="06-6740B" points="6627,3020 6627,3167 6728,3167 6728,3032 6723,3032 6723,3020 6627,3020" stroke="rgb(none)" stroke-width="0.0" fill="0,0,0" />
<polygon id="06-6810" points="7905,2672 7767,2670 7708,2670 6934,2670 6875,2670 6825,2672 6825,2772 6976,2770 7750,2770 7905,2772 7905,2672" stroke="rgb(none)" stroke-width="0.0" fill="0,0,0" />
<polygon id="06-6783B" points="8106,2717 8101,2717 8101,2674 8006,2674 8007,2706 8007,2717 8001,2717 8001,2769 8006,2770 8101,2770 8106,2769 8106,2717" stroke="rgb(none)" stroke-width="0.0" fill="0,0,0" />
<polygon id="06-6781B" points="8101,2473 8005,2472 8000,2473 8000,2525 8007,2526 8007,2537 8005,2568 8101,2568 8101,2473" stroke="rgb(none)" stroke-width="0.0" fill="0,0,0" />
<polygon id="06-6759B" points="6809,2007 6712,2007 6712,2103 6744,2102 6755,2102 6755,2108 6807,2108 6808,2103 6809,2007" stroke="rgb(none)" stroke-width="0.0" fill="0,0,0" />
<polygon id="06-6757B" points="6606,2007 6509,2007 6510,2103 6511,2108 6563,2108 6564,2102 6575,2102 6606,2103 6606,2007" stroke="rgb(none)" stroke-width="0.0" fill="0,0,0" />
<polygon id="06-6751B" points="6728,2473 6723,2472 6627,2471 6627,2568 6723,2568 6722,2537 6722,2526 6728,2525 6728,2473" stroke="rgb(none)" stroke-width="0.0" fill="0,0,0" />
<polygon id="06-6749B" points="6728,2717 6722,2717 6722,2706 6723,2674 6627,2674 6627,2771 6723,2770 6728,2769 6728,2717" stroke="rgb(none)" stroke-width="0.0" fill="0,0,0" />
<polygon id="06-6773B" points="8214,2008 8118,2008 8119,2102 8120,2108 8170,2108 8170,2102 8214,2102 8214,2008" stroke="rgb(none)" stroke-width="0.0" fill="0,0,0" />
<polygon id="06-6775B" points="8430,2035 8335,2014 8317,2103 8357,2112 8356,2118 8405,2128 8406,2122 8411,2123 8430,2035" stroke="rgb(none)" stroke-width="0.0" fill="0,0,0" />
<polygon id="06-6760A" points="7197,2225 7197,2204 6825,2204 6825,2299 6831,2299 6831,2323 6987,2323 6987,2294 6993,2294 6992,2299 6992,2323 7029,2323 7029,2299 7028,2294 7035,2294 7035,2323 7075,2323 7075,2299 7080,2299 7080,2322 7197,2322 7197,2225" stroke="rgb(none)" stroke-width="0.0" fill="0,0,0" />
<polygon id="06-6740A" points="6944,2921 6920,2921 6920,2916 6944,2916 6944,2777 6920,2777 6920,2772 6825,2772 6825,3172 6920,3172 6920,3166 6944,3166 6944,3010 6915,3010 6915,3003 6920,3004 6944,3005 6944,2967 6920,2968 6915,2968 6915,2962 6944,2962 6944,2921" stroke="rgb(none)" stroke-width="0.0" fill="0,0,0" />
<polygon id="06-6780A" points="7905,2772 7809,2772 7809,2777 7785,2777 7785,2921 7809,2921 7809,2926 7785,2926 7785,2966 7814,2966 7814,2972 7809,2972 7785,2971 7785,3009 7809,3008 7814,3007 7814,3014 7785,3014 7785,3163 7809,3163 7809,3168 7905,3168 7905,2772" stroke="rgb(none)" stroke-width="0.0" fill="0,0,0" />
<polygon id="06-6764" points="7352,2210 7271,2210 7271,2204 7231,2204 7230,2210 7229,2240 7203,2240 7203,2323 7210,2323 7350,2323 7351,2274 7352,2210" stroke="rgb(none)" stroke-width="0.0" fill="0,0,0" />
<polygon id="06-6752" points="7073,2567 7028,2567 7028,2329 6832,2329 6831,2353 6831,2415 6825,2415 6825,2467 6831,2467 6831,2552 6855,2552 6855,2609 6872,2609 6872,2663 6972,2665 6984,2666 6984,2672 7036,2672 7036,2666 7073,2666 7073,2567" stroke="rgb(none)" stroke-width="0.0" fill="0,0,0" />
<polygon id="06-6805" points="7358,2569 7352,2568 7228,2567 7228,2666 7352,2666 7352,2621 7358,2621 7358,2569" stroke="rgb(none)" stroke-width="0.0" fill="0,0,0" />
<polygon id="06-6800A" points="7454,2430 7456,2296 7456,2237 7454,2204 7358,2204 7357,2279 7354,2339 7355,2367 7355,2511 7354,2539 7358,2539 7358,2672 7454,2672 7454,2430" stroke="rgb(none)" stroke-width="0.0" fill="0,0,0" />
<polygon id="06-6800" points="7454,2768 7382,2768 7382,2954 7376,2954 7376,3034 7293,3034 7293,3039 7382,3039 7382,3001 7424,3001 7424,2995 7454,2995 7454,2768" stroke="rgb(none)" stroke-width="0.0" fill="0,0,0" />
<polygon id="06-6812" points="7222,2774 7171,2774 7171,2768 7119,2768 7119,2774 6995,2774 6995,2805 6989,2805 6989,2781 6950,2781 6950,2940 7118,2940 7118,2852 7123,2852 7123,2940 7222,2940 7222,2774" stroke="rgb(none)" stroke-width="0.0" fill="0,0,0" />
<polygon id="06-6715" points="7222,2945 7032,2945 7032,3017 7107,3017 7107,3151 7180,3151 7180,3157 7220,3157 7221,3151 7222,3032 7199,3032 7198,3004 7222,3004 7222,2945" stroke="rgb(none)" stroke-width="0.0" fill="0,0,0" />
<polygon id="06-6814" points="7376,2956 7376,2774 7270,2774 7270,2768 7230,2768 7229,2774 7228,3000 7255,3000 7255,3005 7239,3005 7239,3034 7255,3034 7255,3039 7293,3039 7293,3034 7376,3034 7376,2956" stroke="rgb(none)" stroke-width="0.0" fill="0,0,0" />
<polygon id="06-6804" points="7662,2774 7460,2774 7460,2863 7454,2863 7454,2903 7460,2903 7460,2915 7662,2915 7662,2774" stroke="rgb(none)" stroke-width="0.0" fill="0,0,0" />
<polygon id="06-6802" points="7721,2909 7668,2909 7668,2922 7662,2922 7662,2915 7460,2915 7460,2927 7454,2927 7454,2967 7460,2967 7460,3003 7488,3003 7488,3031 7460,3031 7460,3056 7622,3056 7622,3032 7721,3032 7721,2909" stroke="rgb(none)" stroke-width="0.0" fill="0,0,0" />
<polygon id="06-6717" points="7622,3062 7460,3063 7454,3064 7454,3102 7460,3102 7460,3166 7622,3166 7622,3062" stroke="rgb(none)" stroke-width="0.0" fill="0,0,0" />
<polygon id="06-6710A" points="7454,3064 7454,3001 7382,3001 7382,3039 7228,3039 7228,3078 7255,3078 7255,3083 7228,3083 7228,3151 7255,3151 7255,3157 7375,3157 7375,3147 7382,3147 7382,3166 7400,3166 7400,3172 7453,3172 7453,3166 7454,3064" stroke="rgb(none)" stroke-width="0.0" fill="0,0,0" />
<polygon id="06-6815" points="7566,2482 7460,2482 7460,2606 7487,2606 7487,2633 7462,2633 7462,2666 7518,2666 7518,2672 7564,2672 7565,2666 7566,2482" stroke="rgb(none)" stroke-width="0.0" fill="0,0,0" />
<polygon id="06-6817" points="7747,2582 7703,2582 7703,2576 7723,2576 7723,2482 7572,2482 7573,2666 7574,2672 7614,2672 7614,2666 7703,2665 7747,2663 7747,2582" stroke="rgb(none)" stroke-width="0.0" fill="0,0,0" />
<polygon id="06-6782" points="7859,2597 7893,2597 7895,2574 7896,2536 7901,2536 7901,2484 7896,2483 7729,2482 7729,2576 7753,2576 7753,2663 7772,2665 7878,2666 7878,2634 7859,2634 7859,2597" stroke="rgb(none)" stroke-width="0.0" fill="0,0,0" />
<polygon id="06-6806" points="7905,2362 7899,2362 7899,2330 7562,2330 7562,2376 7460,2377 7454,2378 7454,2430 7460,2430 7460,2476 7896,2476 7897,2418 7899,2402 7905,2402 7905,2362" stroke="rgb(none)" stroke-width="0.0" fill="0,0,0" />
<polygon id="06-6770A" points="7905,2204 7562,2204 7562,2324 7649,2324 7649,2300 7654,2300 7654,2324 7694,2324 7694,2295 7701,2295 7700,2300 7699,2324 7737,2324 7736,2300 7736,2295 7742,2295 7742,2324 7899,2324 7899,2300 7905,2300 7905,2204" stroke="rgb(none)" stroke-width="0.0" fill="0,0,0" />
<polygon id="06-6825" points="8699,1986 8654,2199 8647,2198 8636,2249 8643,2251 8764,2278 8766,2275 8821,2016 8820,2012 8699,1986" stroke="rgb(none)" stroke-width="0.0" fill="0,0,0" />
<polygon id="06-6807B" points="7210,2349 7202,2349 7202,2330 7035,2330 7035,2441 7202,2441 7202,2413 7210,2413 7210,2349" stroke="rgb(none)" stroke-width="0.0" fill="0,0,0" />
<polygon id="06-6807A" points="7210,2468 7202,2468 7202,2449 7035,2449 7035,2560 7202,2560 7202,2532 7210,2532 7210,2468" stroke="rgb(none)" stroke-width="0.0" fill="0,0,0" />
<polygon id="06-6807" points="7347,2489 7356,2489 7356,2389 7347,2389 7347,2328 7210,2328 7210,2546 7347,2546 7347,2489" stroke="rgb(none)" stroke-width="0.0" fill="0,0,0" />
<polygon id="06-6811" points="7200,2569 7078,2569 7079,2666 7080,2672 7120,2672 7120,2666 7200,2666 7200,2569" stroke="rgb(none)" stroke-width="0.0" fill="0,0,0" />
<polygon id="06-6818" points="7779,2777 7745,2776 7710,2774 7710,2768 7670,2768 7669,2774 7668,2904 7779,2904 7779,2777" stroke="rgb(none)" stroke-width="0.0" fill="0,0,0" />
<polygon id="06-6720C" points="7066,3322 7050,3322 7050,3291 6954,3291 6954,3404 7050,3404 7050,3374 7066,3374 7066,3322" stroke="rgb(none)" stroke-width="0.0" fill="0,0,0" />
<polygon id="06-6720B" points="7066,3452 7050,3452 7050,3422 6954,3422 6954,3534 7050,3534 7050,3504 7066,3504 7066,3452" stroke="rgb(none)" stroke-width="0.0" fill="0,0,0" />
<polygon id="06-6720A" points="7066,3572 7050,3572 7050,3542 6954,3542 6954,3655 7050,3655 7050,3624 7066,3624 7066,3572" stroke="rgb(none)" stroke-width="0.0" fill="0,0,0" />
<polygon id="06-6720" points="7182,3270 7086,3270 7086,3278 7066,3278 7066,3648 7085,3648 7086,3653 7183,3653 7184,3648 7201,3648 7201,3278 7182,3278 7182,3270" stroke="rgb(none)" stroke-width="0.0" fill="0,0,0" />
<polygon id="06-6720D" points="7321,3291 7225,3291 7225,3322 7201,3322 7201,3374 7225,3374 7225,3404 7321,3404 7321,3291" stroke="rgb(none)" stroke-width="0.0" fill="0,0,0" />
<polygon id="06-6720E" points="7321,3422 7225,3422 7225,3452 7201,3452 7201,3504 7225,3504 7225,3534 7321,3534 7321,3422" stroke="rgb(none)" stroke-width="0.0" fill="0,0,0" />
<polygon id="06-6730C" points="7487,3320 7463,3320 7463,3291 7332,3291 7332,3404 7463,3404 7463,3384 7487,3384 7487,3320" stroke="rgb(none)" stroke-width="0.0" fill="0,0,0" />
<polygon id="06-6730B" points="7487,3450 7463,3450 7463,3422 7332,3422 7332,3534 7463,3534 7463,3514 7487,3514 7487,3450" stroke="rgb(none)" stroke-width="0.0" fill="0,0,0" />
<polygon id="06-6720F" points="7321,3542 7225,3542 7225,3572 7201,3572 7201,3624 7218,3624 7225,3624 7225,3655 7321,3655 7321,3542" stroke="rgb(none)" stroke-width="0.0" fill="0,0,0" />
<polygon id="06-6730" points="7655,3514 7655,3278 7607,3278 7607,3270 7507,3270 7507,3278 7487,3278 7487,3514 7487,3634 7487,3648 7506,3648 7506,3653 7609,3653 7609,3648 7655,3648 7655,3514" stroke="rgb(none)" stroke-width="0.0" fill="0,0,0" />
<polygon id="06-6730A" points="7487,3570 7463,3570 7463,3542 7332,3542 7332,3655 7463,3655 7463,3634 7487,3634 7487,3570" stroke="rgb(none)" stroke-width="0.0" fill="0,0,0" />
<polygon id="06-6730D" points="7807,3279 7663,3279 7663,3308 7655,3308 7655,3384 7663,3384 7663,3404 7807,3404 7807,3279" stroke="rgb(none)" stroke-width="0.0" fill="0,0,0" />
<polygon id="06-6730E" points="7794,3422 7663,3422 7663,3450 7655,3450 7655,3514 7663,3514 7663,3534 7794,3534 7794,3422" stroke="rgb(none)" stroke-width="0.0" fill="0,0,0" />
<polygon id="06-6730F" points="7794,3542 7663,3542 7663,3570 7655,3570 7655,3634 7663,3634 7663,3655 7794,3655 7794,3542" stroke="rgb(none)" stroke-width="0.0" fill="0,0,0" />
<polygon id="06-6792" points="7900,3319 7905,3319 7905,3279 7900,3278 7814,3277 7814,3359 7838,3359 7838,3389 7870,3389 7870,3399 7900,3399 7900,3319" stroke="rgb(none)" stroke-width="0.0" fill="0,0,0" />
<polygon id="06-6700A" points="7695,3723 7691,3722 7605,3721 7605,3702 7610,3702 7610,3653 7504,3653 7504,3702 7509,3702 7509,3721 7448,3721 7448,3687 7240,3687 7240,3721 7182,3721 7182,3702 7187,3702 7187,3653 7081,3653 7081,3702 7086,3702 7086,3721 6825,3721 6729,3721 6444,3721 6444,3567 6384,3567 6384,3721 6377,3721 6325,3721 5948,3719 5941,3717 5941,3821 5990,3819 6026,3817 6028,3849 6059,3849 6072,3849 6116,3849 6140,3849 6164,3849 6211,3849 6257,3849 6270,3849 6315,3849 6338,3849 6363,3849 6409,3849 6455,3849 6468,3849 6513,3849 6536,3849 6560,3849 6607,3849 6653,3849 6666,3849 6694,3849 6698,3847 6698,3817 7508,3817 7509,3847 7510,3851 7546,3851 7547,3847 7548,3851 7570,3851 7571,3847 7572,3851 7594,3851 7595,3847 7596,3851 7640,3849 7653,3847 7653,3851 7694,3851 7691,3846 7695,3850 7693,3827 7693,3814 7695,3723" stroke="rgb(none)" stroke-width="0.0" fill="0,0,0" />
<polygon id="06-6742" points="6947,3430 6831,3431 6825,3432 6825,3472 6831,3472 6832,3555 6834,3679 6947,3679 6947,3662 6947,3430" stroke="rgb(none)" stroke-width="0.0" fill="0,0,0" />
<polygon id="06-6709" points="6723,3458 6728,3458 6728,3418 6723,3417 6590,3416 6590,3562 6614,3562 6614,3682 6723,3681 6728,3680 6728,3628 6723,3628 6721,3624 6721,3555 6723,3458" stroke="rgb(none)" stroke-width="0.0" fill="0,0,0" />
<polygon id="06-6707" points="6609,3567 6449,3567 6449,3573 6444,3573 6444,3613 6449,3613 6450,3658 6452,3679 6512,3679 6512,3698 6609,3698 6609,3567" stroke="rgb(none)" stroke-width="0.0" fill="0,0,0" />
<polygon id="06-6705" points="6466,3463 6448,3463 6448,3401 6324,3401 6324,3535 6384,3535 6385,3562 6386,3567 6426,3567 6426,3562 6466,3562 6466,3463" stroke="rgb(none)" stroke-width="0.0" fill="0,0,0" />
<polygon id="06-6718" points="7480,3841 7475,3822 7474,3817 7422,3817 7422,3822 7406,3822 7406,3837 7212,3839 7208,3841 7210,3961 7212,3965 7410,3965 7411,3972 7457,3972 7458,3965 7474,3965 7474,3959 7480,3959 7480,3841" stroke="rgb(none)" stroke-width="0.0" fill="0,0,0" />
<polygon id="06-6700" points="5012,3697 5012,3718 5000,3719 5000,3817 5102,3817 5102,3847 5618,3847 5618,3828 5624,3828 5624,3836 5651,3836 5651,3828 5702,3828 5702,3817 5930,3819 5939,3821 5939,3717 5831,3719 5702,3721 5702,3710 5651,3710 5651,3702 5624,3702 5624,3710 5618,3710 5618,3691 5012,3691 5012,3697" stroke="rgb(none)" stroke-width="0.0" fill="0,0,0" />
<polygon id="06-6808" points="7556,2231 7556,2213 7488,2213 7488,2237 7463,2237 7462,2301 7460,2316 7454,2316 7454,2368 7460,2369 7556,2370 7556,2231" stroke="rgb(none)" stroke-width="0.0" fill="0,0,0" />
</svg>
