<svg xmlns="http://www.w3.org/2000/svg" version="1.1" width="2959" height="2483">style="background-color:rgb(none)">
<polygon id="14-14760C" points="1008,454 1104,454 1104,432 1008,432 1008,454" stroke="rgb(none)" stroke-width="0.0" fill="0,0,0" />
<polygon id="14-14719" points="1773,1422 1767,1422 1767,1367 1725,1367 1725,1422 1720,1422 1720,1383 1667,1383 1667,1487 1709,1487 1709,1495 1733,1495 1733,1500 1769,1500 1771,1495 1773,1422" stroke="rgb(none)" stroke-width="0.0" fill="0,0,0" />
<polygon id="14-14711" points="1049,1381 958,1381 958,1495 962,1495 962,1500 998,1500 998,1495 1016,1495 1016,1476 1049,1476 1049,1381" stroke="rgb(none)" stroke-width="0.0" fill="0,0,0" />
<polygon id="14-14701" points="727,1806 732,1806 732,1770 727,1770 727,1764 598,1764 598,1947 727,1947 727,1806" stroke="rgb(none)" stroke-width="0.0" fill="0,0,0" />
<polygon id="14-14700" points="1696,2068 1692,2067 1686,2066 1686,2056 1611,2056 1611,2048 1616,2048 1616,1998 1510,1998 1510,2049 1515,2049 1515,2056 1449,2056 1449,2028 1241,2028 1241,2056 1187,2056 1187,2048 1192,2048 1192,1998 1187,1998 1086,1998 1086,2048 1091,2048 1091,2056 829,2056 828,1897 736,1896 731,1897 731,1944 736,1944 734,1948 732,2056 707,2056 707,2153 1241,2153 1241,2162 1509,2162 1510,2192 1511,2196 1547,2196 1548,2192 1549,2196 1571,2196 1572,2192 1573,2196 1595,2196 1596,2192 1597,2196 1641,2194 1654,2192 1654,2196 1695,2196 1692,2191 1696,2195 1694,2172 1694,2159 1696,2114 1692,2113 1696,2112 1696,2068" stroke="rgb(none)" stroke-width="0.0" fill="0,0,0" />
<polygon id="14-14704" points="1189,2158 1181,2158 1181,2153 1097,2153 1097,2158 877,2158 877,2188 842,2188 842,2158 773,2158 773,2153 737,2153 735,2158 733,2194 705,2194 705,2290 733,2290 733,2310 763,2317 761,2331 761,2335 806,2345 807,2341 808,2346 853,2354 854,2350 855,2354 900,2361 902,2357 902,2361 948,2366 949,2362 950,2366 996,2369 997,2365 998,2369 1044,2370 1045,2366 1046,2370 1092,2370 1092,2366 1094,2370 1139,2367 1140,2363 1141,2367 1187,2363 1188,2359 1189,2158" stroke="rgb(none)" stroke-width="0.0" fill="0,0,0" />
<polygon id="14-14718" points="1481,2186 1477,2167 1473,2167 1473,2162 1425,2162 1425,2167 1407,2167 1407,2182 1213,2184 1209,2186 1211,2306 1213,2310 1411,2310 1412,2317 1458,2317 1459,2310 1475,2310 1475,2304 1481,2304 1481,2186" stroke="rgb(none)" stroke-width="0.0" fill="0,0,0" />
<polygon id="14-14792" points="1901,1655 1896,1655 1896,1617 1820,1617 1820,1695 1839,1695 1839,1728 1868,1728 1868,1695 1896,1693 1901,1691 1901,1655" stroke="rgb(none)" stroke-width="0.0" fill="0,0,0" />
<polygon id="14-14730F" points="1671,1989 1791,1989 1791,1905 1671,1905 1664,1915 1656,1915 1656,1979 1664,1979 1671,1989" stroke="rgb(none)" stroke-width="0.0" fill="0,0,0" />
<polygon id="14-14730E" points="1671,1785 1664,1795 1656,1795 1656,1859 1664,1859 1671,1869 1791,1869 1791,1785 1671,1785" stroke="rgb(none)" stroke-width="0.0" fill="0,0,0" />
<polygon id="14-14730D" points="1671,1739 1803,1739 1803,1643 1671,1643 1664,1653 1656,1653 1656,1729 1664,1729 1671,1739" stroke="rgb(none)" stroke-width="0.0" fill="0,0,0" />
<polygon id="14-14730" points="1656,1635 1623,1635 1623,1619 1617,1619 1617,1615 1521,1615 1521,1619 1515,1619 1515,1635 1488,1635 1488,1665 1472,1665 1472,1729 1488,1729 1488,1795 1472,1795 1472,1859 1488,1859 1488,1915 1472,1915 1472,1979 1488,1979 1488,1993 1516,1993 1516,1998 1612,1998 1612,1993 1656,1993 1656,1635" stroke="rgb(none)" stroke-width="0.0" fill="0,0,0" />
<polygon id="14-14730C" points="1457,1656 1337,1656 1337,1740 1457,1740 1464,1729 1472,1729 1472,1666 1464,1666 1457,1656" stroke="rgb(none)" stroke-width="0.0" fill="0,0,0" />
<polygon id="14-14730B" points="1457,1785 1337,1785 1337,1869 1457,1869 1464,1859 1472,1859 1472,1795 1464,1795 1457,1785" stroke="rgb(none)" stroke-width="0.0" fill="0,0,0" />
<polygon id="14-14730A" points="1457,1989 1464,1979 1472,1979 1472,1915 1464,1915 1457,1905 1337,1905 1337,1989 1457,1989" stroke="rgb(none)" stroke-width="0.0" fill="0,0,0" />
<polygon id="14-14742" points="942,1774 834,1774 834,1780 829,1780 829,1816 834,1816 834,2024 942,2024 942,1774" stroke="rgb(none)" stroke-width="0.0" fill="0,0,0" />
<polygon id="14-14720" points="1200,1899 1200,1849 1217,1849 1217,1797 1200,1797 1200,1737 1217,1737 1217,1635 1193,1635 1193,1619 1187,1619 1187,1615 1091,1615 1091,1619 1085,1619 1085,1635 1060,1635 1060,1737 1077,1737 1077,1797 1060,1797 1060,1849 1077,1849 1077,1899 1060,1899 1060,1969 1060,1993 1091,1993 1091,1998 1187,1998 1187,1993 1217,1993 1217,1969 1217,1917 1217,1899 1200,1899" stroke="rgb(none)" stroke-width="0.0" fill="0,0,0" />
<polygon id="14-14720D" points="1233,1645 1226,1667 1217,1667 1217,1719 1226,1719 1233,1741 1307,1741 1307,1645 1233,1645" stroke="rgb(none)" stroke-width="0.0" fill="0,0,0" />
<polygon id="14-14720E" points="1233,1775 1226,1797 1217,1797 1217,1849 1226,1849 1233,1871 1307,1871 1307,1775 1233,1775" stroke="rgb(none)" stroke-width="0.0" fill="0,0,0" />
<polygon id="14-14720F" points="1233,1895 1226,1917 1217,1917 1217,1969 1226,1969 1233,1991 1307,1991 1307,1895 1233,1895" stroke="rgb(none)" stroke-width="0.0" fill="0,0,0" />
<polygon id="14-14720A" points="1060,1917 1051,1917 1045,1895 971,1895 971,1991 1045,1991 1051,1969 1060,1969 1060,1917" stroke="rgb(none)" stroke-width="0.0" fill="0,0,0" />
<polygon id="14-14720B" points="1060,1797 1051,1797 1045,1775 971,1775 971,1871 1045,1872 1051,1849 1060,1849 1060,1797" stroke="rgb(none)" stroke-width="0.0" fill="0,0,0" />
<polygon id="14-14720C" points="1060,1667 1051,1667 1045,1645 971,1645 971,1741 1045,1741 1051,1719 1060,1719 1060,1667" stroke="rgb(none)" stroke-width="0.0" fill="0,0,0" />
<polygon id="14-14808" points="1556,558 1493,558 1493,566 1469,566 1469,578 1460,578 1460,675 1455,675 1455,711 1460,711 1460,717 1556,717 1556,558" stroke="rgb(none)" stroke-width="0.0" fill="0,0,0" />
<polygon id="14-14764" points="1353,598 1358,598 1358,562 1353,560 1236,558 1236,663 1353,663 1353,598" stroke="rgb(none)" stroke-width="0.0" fill="0,0,0" />
<polygon id="14-14811" points="1198,918 1079,918 1079,1010 1085,1010 1085,1015 1121,1015 1121,1010 1198,1010 1198,918" stroke="rgb(none)" stroke-width="0.0" fill="0,0,0" />
<polygon id="14-14807" points="1355,741 1350,741 1350,735 1349,673 1211,673 1211,894 1349,894 1350,843 1350,837 1355,837 1355,741" stroke="rgb(none)" stroke-width="0.0" fill="0,0,0" />
<polygon id="14-14807B" points="1211,813 1203,813 1196,803 1044,803 1044,887 1196,887 1203,877 1211,877 1211,813" stroke="rgb(none)" stroke-width="0.0" fill="0,0,0" />
<polygon id="14-14807B" points="1211,694 1203,694 1196,684 1044,684 1044,768 1196,768 1203,758 1211,758 1211,694" stroke="rgb(none)" stroke-width="0.0" fill="0,0,0" />
<polygon id="14-14825" points="2824,362 2821,357 2700,331 2655,545 2647,545 2637,592 2645,593 2644,597 2765,623 2767,620 2773,602 2780,602 2789,558 2783,555 2824,362" stroke="rgb(none)" stroke-width="0.0" fill="0,0,0" />
<polygon id="14-14749A" points="581,1146 538,1146 538,1121 516,1121 516,1116 480,1116 478,1121 476,1195 512,1195 512,1207 544,1207 544,1182 581,1182 581,1146" stroke="rgb(none)" stroke-width="0.0" fill="0,0,0" />
<polygon id="14-14773" points="2278,210 2273,211 2255,211 2234,210 2234,177 2235,155 2204,150 2191,149 2159,144 2121,140 2119,155 2093,155 2093,173 2119,173 2119,261 2095,261 2095,305 2119,305 2119,347 2125,347 2125,352 2173,352 2173,347 2253,347 2253,319 2278,319 2278,210" stroke="rgb(none)" stroke-width="0.0" fill="0,0,0" />
<polygon id="14-14770A" points="1860,558 1860,553 1561,553 1561,677 1656,677 1656,640 1661,640 1661,677 1701,677 1701,640 1706,640 1706,677 1736,677 1736,640 1741,640 1741,677 1896,677 1896,640 1901,640 1901,595 1860,595 1860,558" stroke="rgb(none)" stroke-width="0.0" fill="0,0,0" />
<polygon id="14-14806" points="1896,724 1901,724 1901,688 1896,688 1896,682 1561,682 1561,722 1460,722 1460,728 1455,728 1455,776 1460,776 1460,824 1896,824 1896,724" stroke="rgb(none)" stroke-width="0.0" fill="0,0,0" />
<polygon id="14-14782" points="1896,881 1901,881 1901,833 1896,833 1896,829 1639,829 1639,1005 1841,1005 1841,991 1858,991 1858,953 1841,953 1841,948 1896,948 1896,881" stroke="rgb(none)" stroke-width="0.0" fill="0,0,0" />
<polygon id="14-14804" points="1565,945 1634,945 1634,829 1460,829 1460,835 1455,835 1455,883 1460,883 1460,945 1517,945 1517,950 1492,950 1492,1010 1634,1010 1634,950 1565,950 1565,945" stroke="rgb(none)" stroke-width="0.0" fill="0,0,0" />
<polygon id="14-14780A" points="1901,1112 1815,1112 1815,1117 1778,1117 1778,1260 1815,1260 1815,1265 1777,1265 1777,1300 1815,1300 1815,1305 1777,1305 1777,1335 1815,1335 1815,1340 1778,1340 1778,1495 1815,1495 1815,1500 1851,1500 1851,1495 1901,1495 1901,1374 1860,1374 1860,1350 1901,1350 1901,1112" stroke="rgb(none)" stroke-width="0.0" fill="0,0,0" />
<polygon id="14-14715" points="1558,1383 1460,1383 1460,1389 1455,1389 1455,1425 1460,1425 1460,1499 1558,1499 1558,1383" stroke="rgb(none)" stroke-width="0.0" fill="0,0,0" />
<polygon id="14-14717" points="1663,1383 1563,1383 1563,1499 1623,1499 1623,1504 1659,1504 1661,1499 1663,1383" stroke="rgb(none)" stroke-width="0.0" fill="0,0,0" />
<polygon id="14-14818" points="1772,1118 1731,1118 1731,1112 1695,1112 1693,1118 1691,1231 1772,1231 1772,1118" stroke="rgb(none)" stroke-width="0.0" fill="0,0,0" />
<polygon id="14-14802B" points="1684,1117 1461,1117 1461,1122 1455,1122 1455,1158 1461,1158 1461,1248 1684,1248 1684,1117" stroke="rgb(none)" stroke-width="0.0" fill="0,0,0" />
<polygon id="14-14802A" points="1684,1248 1461,1248 1461,1302 1455,1302 1455,1338 1461,1340 1496,1342 1496,1378 1684,1378 1684,1248" stroke="rgb(none)" stroke-width="0.0" fill="0,0,0" />
<polygon id="14-14800" points="1455,1302 1455,1112 1383,1112 1383,1333 1378,1333 1378,1369 1383,1369 1383,1460 1449,1459 1455,1459 1455,1302" stroke="rgb(none)" stroke-width="0.0" fill="0,0,0" />
<polygon id="14-14805" points="1353,966 1358,966 1358,918 1353,918 1353,912 1240,912 1240,908 1353,908 1353,899 1211,899 1211,908 1216,908 1216,912 1211,912 1203,912 1203,953 1230,953 1230,1010 1353,1010 1353,966" stroke="rgb(none)" stroke-width="0.0" fill="0,0,0" />
<polygon id="14-14762" points="1219,586 1198,586 1198,559 1180,559 1180,553 1144,553 1142,559 1140,663 1219,663 1219,586" stroke="rgb(none)" stroke-width="0.0" fill="0,0,0" />
<polygon id="14-14760A" points="1134,553 870,553 870,595 863,594 867,592 867,561 849,561 849,592 854,594 829,595 829,636 834,636 834,673 989,673 989,636 994,636 994,673 1024,673 1024,636 1029,636 1029,664 1069,664 1069,636 1074,636 1074,664 1134,664 1134,553" stroke="rgb(none)" stroke-width="0.0" fill="0,0,0" />
<polygon id="14-14800A" points="1455,675 1454,635 1362,635 1357,636 1357,682 1362,682 1362,693 1353,693 1354,731 1354,848 1353,886 1358,886 1358,974 1358,1014 1455,1015 1455,675" stroke="rgb(none)" stroke-width="0.0" fill="0,0,0" />
<polygon id="14-14752" points="1024,678 834,678 834,821 829,821 829,869 834,869 834,873 881,873 881,1010 1022,1010 1022,1015 1070,1015 1072,1010 1074,918 1024,918 1024,678" stroke="rgb(none)" stroke-width="0.0" fill="0,0,0" />
<polygon id="14-14740B" points="876,878 829,878 829,950 876,950 876,878" stroke="rgb(none)" stroke-width="0.0" fill="0,0,0" />
<polygon id="14-14740C" points="732,918 628,918 628,1014 732,1014 732,918" stroke="rgb(none)" stroke-width="0.0" fill="0,0,0" />
<polygon id="14-14810" points="1752,1018 1749,1014 1703,1014 1703,1018 1699,1016 957,1016 956,1108 958,1113 1004,1113 1004,1108 1008,1110 1750,1110 1752,1018" stroke="rgb(none)" stroke-width="0.0" fill="0,0,0" />
<polygon id="14-14816" points="1378,1169 1383,1169 1383,1121 1378,1119 1233,1117 1233,1257 1378,1257 1378,1169" stroke="rgb(none)" stroke-width="0.0" fill="0,0,0" />
<polygon id="14-14801" points="1224,1476 1244,1476 1244,1492 1254,1492 1254,1498 1256,1504 1280,1504 1281,1500 1282,1504 1350,1504 1350,1494 1355,1492 1355,1454 1378,1454 1378,1444 1383,1444 1383,1408 1378,1408 1378,1380 1319,1380 1319,1375 1283,1375 1283,1380 1224,1380 1224,1476" stroke="rgb(none)" stroke-width="0.0" fill="0,0,0" />
<polygon id="14-14814" points="1228,1117 1136,1117 1136,1112 1100,1112 1098,1117 1096,1295 1055,1295 1055,1375 1192,1375 1192,1337 1228,1337 1228,1117" stroke="rgb(none)" stroke-width="0.0" fill="0,0,0" />
<polygon id="14-14812" points="1091,1117 1085,1117 1085,1112 1049,1112 1049,1117 958,1117 958,1273 1051,1273 1051,1256 1055,1256 1055,1290 1091,1290 1091,1117" stroke="rgb(none)" stroke-width="0.0" fill="0,0,0" />
<polygon id="14-14710A" points="1224,1380 1054,1380 1054,1476 1073,1478 1021,1481 1021,1499 1073,1502 1205,1504 1207,1492 1207,1488 1205,1476 1224,1476 1224,1380" stroke="rgb(none)" stroke-width="0.0" fill="0,0,0" />
<polygon id="14-14744" points="942,1617 834,1619 829,1621 829,1669 834,1669 834,1738 872,1738 878,1744 878,1769 905,1769 942,1748 942,1617" stroke="rgb(none)" stroke-width="0.0" fill="0,0,0" />
<polygon id="14-14710" points="829,1504 829,1612 1042,1612 1042,1617 1080,1616 1198,1616 1235,1617 1235,1612 1367,1612 1367,1616 1372,1616 1372,1612 1473,1612 1473,1617 1510,1616 1628,1616 1666,1617 1666,1612 1901,1612 1901,1504 1851,1504 1851,1500 1731,1500 1731,1504 1455,1504 1455,1468 1449,1468 1449,1460 1413,1460 1413,1468 1383,1468 1381,1503 1378,1459 1360,1459 1359,1503 1000,1504 1000,1500 880,1500 880,1504 829,1504" stroke="rgb(none)" stroke-width="0.0" fill="0,0,0" />
<polygon id="14-14793" points="2077,1888 2031,1888 2031,1840 1989,1840 1989,1835 1917,1835 1917,1840 1876,1840 1876,2027 1903,2027 1903,2100 1919,2101 1918,2114 1919,2119 1966,2120 2014,2120 2060,2117 2059,2053 2044,2053 2044,2027 2077,2027 2077,1888" stroke="rgb(none)" stroke-width="0.0" fill="0,0,0" />
<polygon id="14-14791A" points="2255,1799 2243,1799 2243,1763 2176,1764 2138,1765 2138,1801 2176,1801 2176,1828 2182,1828 2182,1833 2218,1833 2218,1828 2255,1828 2255,1799" stroke="rgb(none)" stroke-width="0.0" fill="0,0,0" />
<polygon id="14-14789" points="2268,1608 2180,1608 2180,1583 2107,1583 2107,1608 2003,1608 2003,1614 1998,1614 1998,1662 2003,1662 2003,1758 2255,1758 2255,1730 2268,1730 2268,1608" stroke="rgb(none)" stroke-width="0.0" fill="0,0,0" />
<polygon id="14-14787A" points="2254,1517 2250,1517 2250,1512 2214,1512 2214,1517 2185,1517 2185,1542 2147,1542 2147,1578 2185,1578 2185,1603 2218,1603 2218,1590 2254,1590 2254,1517" stroke="rgb(none)" stroke-width="0.0" fill="0,0,0" />
<polygon id="14-14789A" points="2140,1542 2102,1542 2102,1517 2016,1517 2016,1561 2003,1561 2003,1603 2062,1603 2062,1608 2098,1608 2100,1603 2102,1578 2140,1578 2140,1542" stroke="rgb(none)" stroke-width="0.0" fill="0,0,0" />
<polygon id="14-14787" points="2268,1390 2255,1390 2255,1365 2003,1365 2003,1458 1998,1458 1998,1506 2003,1506 2003,1512 2107,1512 2107,1537 2180,1537 2180,1512 2268,1512 2268,1390" stroke="rgb(none)" stroke-width="0.0" fill="0,0,0" />
<polygon id="14-14783A" points="2254,1121 2250,1116 2214,1116 2214,1121 2198,1121 2198,1146 2149,1146 2149,1182 2187,1182 2187,1207 2218,1207 2218,1195 2254,1195 2254,1121" stroke="rgb(none)" stroke-width="0.0" fill="0,0,0" />
<polygon id="14-14785A" points="2144,1121 2016,1121 2016,1165 2011,1165 2011,1207 2056,1207 2056,1212 2092,1212 2094,1207 2096,1172 2090,1172 2090,1167 2144,1167 2144,1121" stroke="rgb(none)" stroke-width="0.0" fill="0,0,0" />
<polygon id="14-14785" points="2268,1212 2182,1212 2182,1187 2101,1187 2101,1212 2003,1212 2003,1218 1998,1218 1998,1266 2003,1266 2003,1360 2255,1360 2255,1334 2268,1334 2268,1212" stroke="rgb(none)" stroke-width="0.0" fill="0,0,0" />
<polygon id="14-14783" points="2268,994 2236,994 2235,988 2235,969 2107,969 2107,1062 2102,1062 2102,1110 2107,1110 2107,1116 2150,1116 2150,1141 2193,1141 2193,1116 2268,1116 2268,994" stroke="rgb(none)" stroke-width="0.0" fill="0,0,0" />
<polygon id="14-14783B" points="2102,1019 2003,1019 2003,1062 1998,1062 1998,1110 2003,1110 2003,1116 2102,1116 2102,1019" stroke="rgb(none)" stroke-width="0.0" fill="0,0,0" />
<polygon id="14-14780B" points="2102,918 1998,918 1998,1014 2102,1014 2102,918" stroke="rgb(none)" stroke-width="0.0" fill="0,0,0" />
<polygon id="14-14781B" points="2102,822 2102,816 2003,816 2003,822 1998,822 1998,870 2003,870 2003,913 2102,913 2102,822" stroke="rgb(none)" stroke-width="0.0" fill="0,0,0" />
<polygon id="14-14781" points="2268,816 2180,816 2180,791 2107,791 2107,822 2102,822 2102,870 2107,870 2107,964 2235,963 2235,945 2236,938 2268,938 2268,816" stroke="rgb(none)" stroke-width="0.0" fill="0,0,0" />
<polygon id="14-14779A" points="2102,725 2098,720 2062,720 2062,725 2004,725 2004,767 2017,767 2017,811 2102,811 2102,786 2140,786 2140,750 2102,750 2102,725" stroke="rgb(none)" stroke-width="0.0" fill="0,0,0" />
<polygon id="14-14779" points="2268,598 2251,598 2251,554 2233,554 2233,583 2003,583 2003,666 1998,666 1998,714 2003,714 2003,720 2107,720 2107,745 2180,745 2180,720 2268,720 2268,598" stroke="rgb(none)" stroke-width="0.0" fill="0,0,0" />
<polygon id="14-14775" points="2471,304 2447,299 2468,196 2429,187 2390,180 2357,175 2344,174 2340,193 2324,192 2306,189 2290,185 2283,224 2283,347 2324,347 2379,359 2378,364 2425,374 2426,369 2456,375 2471,304" stroke="rgb(none)" stroke-width="0.0" fill="0,0,0" />
<polygon id="14-14777" points="2696,292 2688,291 2696,254 2680,250 2682,234 2644,223 2605,214 2567,205 2561,225 2536,219 2532,237 2557,242 2541,319 2517,313 2502,385 2526,390 2517,434 2504,492 2510,493 2509,498 2556,508 2557,503 2647,522 2696,292" stroke="rgb(none)" stroke-width="0.0" fill="0,0,0" />
<polygon id="14-14777A" points="2524,399 2519,398 2520,394 2496,389 2503,352 2468,344 2460,381 2436,376 2418,460 2461,469 2458,482 2500,491 2512,433 2517,434 2524,399" stroke="rgb(none)" stroke-width="0.0" fill="0,0,0" />
<polygon id="14-14775A" points="2539,243 2467,227 2466,233 2461,232 2454,268 2459,269 2453,294 2478,300 2470,337 2505,344 2513,307 2537,312 2544,281 2531,278 2539,243" stroke="rgb(none)" stroke-width="0.0" fill="0,0,0" />
<polygon id="14-14775B" points="2431,375 2425,374 2378,364 2336,355 2315,452 2358,461 2357,466 2403,476 2404,471 2410,472 2431,375" stroke="rgb(none)" stroke-width="0.0" fill="0,0,0" />
<polygon id="14-14770C" points="2310,372 2221,372 2221,456 2310,456 2310,372" stroke="rgb(none)" stroke-width="0.0" fill="0,0,0" />
<polygon id="14-14773B" points="2216,352 2125,352 2119,352 2119,451 2125,451 2125,456 2173,456 2173,451 2216,451 2216,352" stroke="rgb(none)" stroke-width="0.0" fill="0,0,0" />
<polygon id="14-14773A" points="2119,204 2114,202 2041,200 2041,236 2028,236 2028,267 2053,267 2053,305 2089,305 2089,256 2114,256 2114,240 2119,240 2119,204" stroke="rgb(none)" stroke-width="0.0" fill="0,0,0" />
<polygon id="14-14771A" points="2114,310 2068,310 2068,365 2064,365 2064,358 2028,360 2023,362 2023,398 2028,398 2028,443 2070,443 2070,438 2114,438 2114,310" stroke="rgb(none)" stroke-width="0.0" fill="0,0,0" />
<polygon id="14-14771" points="2048,272 2023,272 2022,130 1982,126 1942,123 1907,121 1906,137 1880,137 1880,173 1906,173 1906,199 1875,199 1875,427 1926,427 1926,451 1969,451 1969,456 2017,456 2017,451 2023,451 2023,353 2048,353 2048,272" stroke="rgb(none)" stroke-width="0.0" fill="0,0,0" />
<polygon id="14-14769" points="1870,199 1844,199 1843,118 1803,116 1769,115 1756,115 1723,114 1721,129 1695,129 1695,166 1721,166 1721,274 1696,274 1696,347 1721,347 1721,451 1727,451 1727,456 1775,456 1775,451 1818,451 1818,427 1870,427 1870,199" stroke="rgb(none)" stroke-width="0.0" fill="0,0,0" />
<polygon id="14-14769A" points="1721,356 1716,354 1691,352 1691,314 1655,314 1655,352 1630,352 1630,438 1674,438 1674,451 1716,451 1716,392 1721,392 1721,356" stroke="rgb(none)" stroke-width="0.0" fill="0,0,0" />
<polygon id="14-14767A" points="1716,236 1703,236 1703,200 1630,202 1625,204 1625,240 1630,240 1630,270 1655,270 1655,308 1691,308 1691,270 1716,270 1716,236" stroke="rgb(none)" stroke-width="0.0" fill="0,0,0" />
<polygon id="14-14767" points="1502,119 1502,199 1467,199 1467,451 1571,451 1571,456 1619,456 1619,451 1625,451 1625,347 1650,347 1650,274 1625,274 1625,166 1651,166 1651,130 1625,130 1625,116 1502,119" stroke="rgb(none)" stroke-width="0.0" fill="0,0,0" />
<polygon id="14-14763A" points="1297,352 1272,352 1272,314 1236,314 1236,352 1211,352 1211,356 1206,356 1206,392 1211,392 1211,450 1253,450 1253,437 1297,437 1297,352" stroke="rgb(none)" stroke-width="0.0" fill="0,0,0" />
<polygon id="14-14765A" points="1302,204 1297,204 1297,200 1223,200 1223,236 1211,236 1211,269 1236,269 1236,307 1272,307 1272,269 1297,269 1297,240 1302,240 1302,204" stroke="rgb(none)" stroke-width="0.0" fill="0,0,0" />
<polygon id="14-14765" points="1462,199 1424,199 1424,186 1302,186 1302,274 1277,274 1277,347 1302,347 1302,451 1308,451 1308,456 1356,456 1356,451 1462,451 1462,199" stroke="rgb(none)" stroke-width="0.0" fill="0,0,0" />
<polygon id="14-14760" points="1263,460 1261,455 1214,455 1214,460 1210,458 1104,455 1008,455 510,456 510,553 1261,552 1263,460" stroke="rgb(none)" stroke-width="0.0" fill="0,0,0" />
<polygon id="14-14761A" points="906,362 901,362 901,358 866,358 866,365 861,365 861,310 815,310 815,438 859,438 859,443 901,443 901,398 906,398 906,362" stroke="rgb(none)" stroke-width="0.0" fill="0,0,0" />
<polygon id="14-14759A" points="889,199 815,199 815,203 810,203 810,239 815,239 815,256 840,256 840,305 876,305 876,267 901,267 901,235 889,235 889,199" stroke="rgb(none)" stroke-width="0.0" fill="0,0,0" />
<polygon id="14-14763" points="1206,186 1084,186 1084,199 1059,199 1059,427 1109,427 1109,451 1152,451 1152,456 1200,456 1200,451 1206,451 1206,347 1231,347 1231,274 1206,274 1206,186" stroke="rgb(none)" stroke-width="0.0" fill="0,0,0" />
<polygon id="14-14761" points="1054,199 1028,199 1028,186 906,186 906,272 881,272 881,353 906,353 906,451 912,451 912,456 960,456 960,451 1003,451 1003,427 1054,427 1054,199" stroke="rgb(none)" stroke-width="0.0" fill="0,0,0" />
<polygon id="14-14759" points="810,239 810,186 688,186 688,218 681,219 663,219 662,347 756,347 756,352 804,352 804,347 810,347 810,305 835,305 835,261 810,261 810,239" stroke="rgb(none)" stroke-width="0.0" fill="0,0,0" />
<polygon id="14-14759B" points="810,352 713,352 713,451 756,451 756,456 804,456 804,451 810,451 810,352" stroke="rgb(none)" stroke-width="0.0" fill="0,0,0" />
<polygon id="14-14760B" points="708,352 612,352 612,456 708,456 708,352" stroke="rgb(none)" stroke-width="0.0" fill="0,0,0" />
<polygon id="14-14757B" points="607,352 510,352 510,451 516,451 516,456 564,456 564,451 607,451 607,352" stroke="rgb(none)" stroke-width="0.0" fill="0,0,0" />
<polygon id="14-14757" points="657,218 638,219 632,218 632,186 510,186 510,274 485,274 485,347 516,347 516,352 564,352 564,347 657,347 657,218" stroke="rgb(none)" stroke-width="0.0" fill="0,0,0" />
<polygon id="14-14757A" points="510,204 505,204 505,200 432,200 432,236 419,236 419,269 444,269 444,307 480,307 480,269 505,269 505,240 510,240 510,204" stroke="rgb(none)" stroke-width="0.0" fill="0,0,0" />
<polygon id="14-14755" points="439,274 414,274 413,192 412,188 374,188 373,192 372,188 334,188 333,192 332,188 294,188 293,192 292,225 270,225 270,544 292,544 294,582 342,582 389,582 390,566 449,566 449,544 505,544 505,538 510,538 510,490 505,490 505,456 479,456 479,451 505,451 505,368 443,368 443,394 414,394 414,390 439,390 439,274" stroke="rgb(none)" stroke-width="0.0" fill="0,0,0" />
<polygon id="14-14755A" points="270,493 265,493 265,412 223,412 223,467 218,467 218,425 139,425 139,469 134,469 134,513 139,513 139,533 265,533 265,529 270,529 270,493" stroke="rgb(none)" stroke-width="0.0" fill="0,0,0" />
<polygon id="14-14751A" points="546,725 512,725 512,738 476,738 478,811 480,816 516,816 516,811 546,811 546,786 584,786 584,750 546,750 546,725" stroke="rgb(none)" stroke-width="0.0" fill="0,0,0" />
<polygon id="14-14753A" points="714,767 727,767 727,725 668,725 668,720 632,720 632,725 628,725 628,750 590,750 590,786 628,786 628,811 714,811 714,767" stroke="rgb(none)" stroke-width="0.0" fill="0,0,0" />
<polygon id="14-14753" points="727,558 475,558 475,598 462,598 462,720 550,720 550,745 623,745 623,720 727,720 727,714 732,714 732,666 727,666 727,558" stroke="rgb(none)" stroke-width="0.0" fill="0,0,0" />
<polygon id="14-14751" points="623,870 628,870 628,822 623,822 623,791 550,791 550,816 462,816 462,938 496,938 496,964 623,964 623,870" stroke="rgb(none)" stroke-width="0.0" fill="0,0,0" />
<polygon id="14-14751B" points="628,816 628,913 727,913 727,870 732,870 732,822 727,822 727,816 628,816" stroke="rgb(none)" stroke-width="0.0" fill="0,0,0" />
<polygon id="14-14749B" points="727,1019 628,1019 628,1116 727,1116 727,1110 732,1110 732,1062 727,1062 727,1019" stroke="rgb(none)" stroke-width="0.0" fill="0,0,0" />
<polygon id="14-14749" points="623,969 496,969 496,994 462,994 462,1116 543,1116 543,1141 581,1141 581,1116 623,1116 623,1110 628,1110 628,1062 623,1062 623,969" stroke="rgb(none)" stroke-width="0.0" fill="0,0,0" />
<polygon id="14-14747A" points="714,1121 586,1121 586,1163 641,1163 641,1168 634,1168 634,1207 638,1207 638,1212 674,1212 674,1207 719,1207 719,1165 714,1165 714,1121" stroke="rgb(none)" stroke-width="0.0" fill="0,0,0" />
<polygon id="14-14740" points="829,1374 829,1112 953,1110 954,1018 953,1014 906,1014 906,1018 902,1016 829,1015 829,553 732,553 734,1893 826,1893 831,1892 831,1846 826,1846 828,1842 829,1780 829,1374" stroke="rgb(none)" stroke-width="0.0" fill="0,0,0" />
<polygon id="14-14747" points="727,1266 732,1266 732,1218 727,1218 727,1212 630,1212 630,1187 548,1187 548,1212 462,1212 462,1334 475,1334 475,1360 727,1360 727,1266" stroke="rgb(none)" stroke-width="0.0" fill="0,0,0" />
<polygon id="14-14745" points="732,1458 727,1458 727,1365 475,1365 475,1390 462,1390 462,1512 550,1512 550,1537 623,1537 623,1512 727,1512 727,1506 732,1506 732,1458" stroke="rgb(none)" stroke-width="0.0" fill="0,0,0" />
<polygon id="14-14745A" points="584,1542 546,1542 546,1517 516,1517 516,1512 480,1512 480,1517 475,1517 475,1591 511,1591 511,1603 546,1603 546,1578 584,1578 584,1542" stroke="rgb(none)" stroke-width="0.0" fill="0,0,0" />
<polygon id="14-14743" points="727,1662 732,1662 732,1614 727,1614 727,1608 623,1608 623,1583 550,1583 550,1608 462,1608 462,1730 475,1730 475,1759 727,1759 727,1662" stroke="rgb(none)" stroke-width="0.0" fill="0,0,0" />
<polygon id="14-14703" points="732,1970 727,1970 727,1952 593,1952 593,1878 449,1878 449,2024 494,2024 494,2055 628,2055 628,2024 727,2024 727,2018 732,2018 732,1970" stroke="rgb(none)" stroke-width="0.0" fill="0,0,0" />
<polygon id="14-14780" points="1998,1266 1997,776 1905,775 1900,776 1900,823 1905,823 1903,827 1901,1015 1896,1015 1896,996 1848,996 1848,1015 1754,1016 1753,1108 1754,1113 1801,1113 1801,1108 1805,1110 1901,1112 1901,1700 1877,1700 1877,1731 1901,1731 1901,1835 1998,1835 1998,1266" stroke="rgb(none)" stroke-width="0.0" fill="0,0,0" />
<polygon id="14-14770" points="1266,456 1264,550 1266,554 1312,554 1312,550 1316,552 1358,553 1360,632 1452,632 1456,631 1456,584 1452,584 1454,581 1455,553 1901,553 1903,772 1995,773 1999,771 1999,725 1995,725 1997,721 1998,553 2192,553 2192,578 2228,578 2228,549 2283,549 2363,566 2356,601 2593,652 2600,617 2617,620 2621,602 2635,605 2651,528 2310,456 1921,455 1823,455 1818,456 1266,456" stroke="rgb(none)" stroke-width="0.0" fill="0,0,0" />
<polygon id="14-14770D" points="2091,553 2003,553 2003,578 2091,578 2091,553" stroke="rgb(none)" stroke-width="0.0" fill="0,0,0" />
<polygon id="14-14776" points="2358,570 2352,569 2353,564 2294,551 2293,556 2285,555 2285,582 2352,596 2358,570" stroke="rgb(none)" stroke-width="0.0" fill="0,0,0" />
<polygon id="14-14781A" points="2254,737 2218,737 2218,725 2185,725 2185,750 2147,750 2147,786 2185,786 2185,811 2214,811 2214,816 2250,816 2252,811 2254,737" stroke="rgb(none)" stroke-width="0.0" fill="0,0,0" />
<polygon id="14-14780C" points="1876,1835 1901,1835 1901,1799 1876,1799 1876,1835" stroke="rgb(none)" stroke-width="0.0" fill="0,0,0" />
<polygon id="14-14743A" points="727,1561 715,1561 715,1517 628,1517 628,1542 590,1542 590,1578 628,1578 630,1603 632,1608 668,1608 668,1603 727,1603 727,1561" stroke="rgb(none)" stroke-width="0.0" fill="0,0,0" />
<polygon id="14-14740A" points="953,1339 916,1339 916,1335 953,1335 953,1305 916,1305 916,1300 953,1300 953,1260 916,1260 916,1255 953,1255 953,1117 916,1117 916,1112 829,1112 829,1350 870,1350 870,1374 829,1374 829,1495 880,1495 880,1500 916,1500 916,1495 953,1495 953,1339" stroke="rgb(none)" stroke-width="0.0" fill="0,0,0" />
<polygon id="14-14803" points="1378,1262 1233,1262 1233,1297 1228,1297 1228,1333 1233,1333 1233,1337 1255,1337 1255,1344 1250,1343 1197,1341 1197,1376 1250,1374 1255,1373 1378,1375 1378,1262" stroke="rgb(none)" stroke-width="0.0" fill="0,0,0" />
<polygon id="14-14791" points="2268,1833 2171,1833 2171,1805 2136,1805 2136,1833 2131,1833 2131,1763 2003,1763 2003,1769 1998,1769 1998,1817 2003,1817 2003,1835 2036,1835 2036,1883 2082,1883 2082,2027 2096,2027 2096,2053 2064,2053 2063,2115 2063,2119 2108,2115 2109,2111 2110,2115 2156,2108 2156,2104 2158,2108 2203,2100 2203,2095 2205,2099 2250,2089 2250,2085 2243,2053 2229,2053 2229,2027 2255,2027 2255,1956 2268,1956 2268,1833" stroke="rgb(none)" stroke-width="0.0" fill="0,0,0" />
<polygon id="14-14770B" points="1890,432 1854,432 1854,454 1890,454 1890,432" stroke="rgb(none)" stroke-width="0.0" fill="0,0,0" />
</svg>
